<svg width="6596" height="858" viewBox="0 0 6596 858" fill="none" xmlns="http://www.w3.org/2000/svg">
<path d="M214.3 430C214.3 417.64 217.06 406.6 222.58 396.88C228.22 387.04 235.84 379.42 245.44 374.02C255.16 368.5 266.02 365.74 278.02 365.74C292.06 365.74 304.36 369.34 314.92 376.54C325.48 383.74 332.86 393.7 337.06 406.42H308.08C305.2 400.42 301.12 395.92 295.84 392.92C290.68 389.92 284.68 388.42 277.84 388.42C270.52 388.42 263.98 390.16 258.22 393.64C252.58 397 248.14 401.8 244.9 408.04C241.78 414.28 240.22 421.6 240.22 430C240.22 438.28 241.78 445.6 244.9 451.96C248.14 458.2 252.58 463.06 258.22 466.54C263.98 469.9 270.52 471.58 277.84 471.58C284.68 471.58 290.68 470.08 295.84 467.08C301.12 463.96 305.2 459.4 308.08 453.4H337.06C332.86 466.24 325.48 476.26 314.92 483.46C304.48 490.54 292.18 494.08 278.02 494.08C266.02 494.08 255.16 491.38 245.44 485.98C235.84 480.46 228.22 472.84 222.58 463.12C217.06 453.4 214.3 442.36 214.3 430ZM402.864 494.62C393.264 494.62 384.624 492.52 376.944 488.32C369.264 484 363.204 477.94 358.764 470.14C354.444 462.34 352.284 453.34 352.284 443.14C352.284 432.94 354.504 423.94 358.944 416.14C363.504 408.34 369.684 402.34 377.484 398.14C385.284 393.82 393.984 391.66 403.584 391.66C413.184 391.66 421.884 393.82 429.684 398.14C437.484 402.34 443.604 408.34 448.044 416.14C452.604 423.94 454.884 432.94 454.884 443.14C454.884 453.34 452.544 462.34 447.864 470.14C443.304 477.94 437.064 484 429.144 488.32C421.344 492.52 412.584 494.62 402.864 494.62ZM402.864 472.66C407.424 472.66 411.684 471.58 415.644 469.42C419.724 467.14 422.964 463.78 425.364 459.34C427.764 454.9 428.964 449.5 428.964 443.14C428.964 433.66 426.444 426.4 421.404 421.36C416.484 416.2 410.424 413.62 403.224 413.62C396.024 413.62 389.964 416.2 385.044 421.36C380.244 426.4 377.844 433.66 377.844 443.14C377.844 452.62 380.184 459.94 384.864 465.1C389.664 470.14 395.664 472.66 402.864 472.66ZM498.569 359.8V493H473.369V359.8H498.569ZM567.747 494.62C558.147 494.62 549.507 492.52 541.827 488.32C534.147 484 528.087 477.94 523.647 470.14C519.327 462.34 517.167 453.34 517.167 443.14C517.167 432.94 519.387 423.94 523.827 416.14C528.387 408.34 534.567 402.34 542.367 398.14C550.167 393.82 558.867 391.66 568.467 391.66C578.067 391.66 586.767 393.82 594.567 398.14C602.367 402.34 608.487 408.34 612.927 416.14C617.487 423.94 619.767 432.94 619.767 443.14C619.767 453.34 617.427 462.34 612.747 470.14C608.187 477.94 601.947 484 594.027 488.32C586.227 492.52 577.467 494.62 567.747 494.62ZM567.747 472.66C572.307 472.66 576.567 471.58 580.527 469.42C584.607 467.14 587.847 463.78 590.247 459.34C592.647 454.9 593.847 449.5 593.847 443.14C593.847 433.66 591.327 426.4 586.287 421.36C581.367 416.2 575.307 413.62 568.107 413.62C560.907 413.62 554.847 416.2 549.927 421.36C545.127 426.4 542.727 433.66 542.727 443.14C542.727 452.62 545.067 459.94 549.747 465.1C554.547 470.14 560.547 472.66 567.747 472.66ZM663.452 408.76C666.692 403.48 670.892 399.34 676.052 396.34C681.332 393.34 687.332 391.84 694.052 391.84V418.3H687.392C679.472 418.3 673.472 420.16 669.392 423.88C665.432 427.6 663.452 434.08 663.452 443.32V493H638.252V393.28H663.452V408.76ZM749.185 494.62C741.025 494.62 733.705 493.18 727.225 490.3C720.745 487.3 715.585 483.28 711.745 478.24C708.025 473.2 705.985 467.62 705.625 461.5H731.005C731.485 465.34 733.345 468.52 736.585 471.04C739.945 473.56 744.085 474.82 749.005 474.82C753.805 474.82 757.525 473.86 760.165 471.94C762.925 470.02 764.305 467.56 764.305 464.56C764.305 461.32 762.625 458.92 759.265 457.36C756.025 455.68 750.805 453.88 743.605 451.96C736.165 450.16 730.045 448.3 725.245 446.38C720.565 444.46 716.485 441.52 713.005 437.56C709.645 433.6 707.965 428.26 707.965 421.54C707.965 416.02 709.525 410.98 712.645 406.42C715.885 401.86 720.445 398.26 726.325 395.62C732.325 392.98 739.345 391.66 747.385 391.66C759.265 391.66 768.745 394.66 775.825 400.66C782.905 406.54 786.805 414.52 787.525 424.6H763.405C763.045 420.64 761.365 417.52 758.365 415.24C755.485 412.84 751.585 411.64 746.665 411.64C742.105 411.64 738.565 412.48 736.045 414.16C733.645 415.84 732.445 418.18 732.445 421.18C732.445 424.54 734.125 427.12 737.485 428.92C740.845 430.6 746.065 432.34 753.145 434.14C760.345 435.94 766.285 437.8 770.965 439.72C775.645 441.64 779.665 444.64 783.025 448.72C786.505 452.68 788.305 457.96 788.425 464.56C788.425 470.32 786.805 475.48 783.565 480.04C780.445 484.6 775.885 488.2 769.885 490.84C764.005 493.36 757.105 494.62 749.185 494.62ZM946.142 393.28V493H920.762V480.4C917.522 484.72 913.262 488.14 907.982 490.66C902.822 493.06 897.182 494.26 891.062 494.26C883.262 494.26 876.362 492.64 870.362 489.4C864.362 486.04 859.622 481.18 856.142 474.82C852.782 468.34 851.102 460.66 851.102 451.78V393.28H876.302V448.18C876.302 456.1 878.282 462.22 882.242 466.54C886.202 470.74 891.602 472.84 898.442 472.84C905.402 472.84 910.862 470.74 914.822 466.54C918.782 462.22 920.762 456.1 920.762 448.18V393.28H946.142ZM1009.17 494.62C1001.01 494.62 993.686 493.18 987.206 490.3C980.726 487.3 975.566 483.28 971.726 478.24C968.006 473.2 965.966 467.62 965.606 461.5H990.986C991.466 465.34 993.326 468.52 996.566 471.04C999.926 473.56 1004.07 474.82 1008.99 474.82C1013.79 474.82 1017.51 473.86 1020.15 471.94C1022.91 470.02 1024.29 467.56 1024.29 464.56C1024.29 461.32 1022.61 458.92 1019.25 457.36C1016.01 455.68 1010.79 453.88 1003.59 451.96C996.146 450.16 990.026 448.3 985.226 446.38C980.546 444.46 976.466 441.52 972.986 437.56C969.626 433.6 967.946 428.26 967.946 421.54C967.946 416.02 969.506 410.98 972.626 406.42C975.866 401.86 980.426 398.26 986.306 395.62C992.306 392.98 999.326 391.66 1007.37 391.66C1019.25 391.66 1028.73 394.66 1035.81 400.66C1042.89 406.54 1046.79 414.52 1047.51 424.6H1023.39C1023.03 420.64 1021.35 417.52 1018.35 415.24C1015.47 412.84 1011.57 411.64 1006.65 411.64C1002.09 411.64 998.546 412.48 996.026 414.16C993.626 415.84 992.426 418.18 992.426 421.18C992.426 424.54 994.106 427.12 997.466 428.92C1000.83 430.6 1006.05 432.34 1013.13 434.14C1020.33 435.94 1026.27 437.8 1030.95 439.72C1035.63 441.64 1039.65 444.64 1043.01 448.72C1046.49 452.68 1048.29 457.96 1048.41 464.56C1048.41 470.32 1046.79 475.48 1043.55 480.04C1040.43 484.6 1035.87 488.2 1029.87 490.84C1023.99 493.36 1017.09 494.62 1009.17 494.62ZM1161.79 440.98C1161.79 444.58 1161.55 447.82 1161.07 450.7H1088.17C1088.77 457.9 1091.29 463.54 1095.73 467.62C1100.17 471.7 1105.63 473.74 1112.11 473.74C1121.47 473.74 1128.13 469.72 1132.09 461.68H1159.27C1156.39 471.28 1150.87 479.2 1142.71 485.44C1134.55 491.56 1124.53 494.62 1112.65 494.62C1103.05 494.62 1094.41 492.52 1086.73 488.32C1079.17 484 1073.23 477.94 1068.91 470.14C1064.71 462.34 1062.61 453.34 1062.61 443.14C1062.61 432.82 1064.71 423.76 1068.91 415.96C1073.11 408.16 1078.99 402.16 1086.55 397.96C1094.11 393.76 1102.81 391.66 1112.65 391.66C1122.13 391.66 1130.59 393.7 1138.03 397.78C1145.59 401.86 1151.41 407.68 1155.49 415.24C1159.69 422.68 1161.79 431.26 1161.79 440.98ZM1135.69 433.78C1135.57 427.3 1133.23 422.14 1128.67 418.3C1124.11 414.34 1118.53 412.36 1111.93 412.36C1105.69 412.36 1100.41 414.28 1096.09 418.12C1091.89 421.84 1089.31 427.06 1088.35 433.78H1135.69ZM1173.71 442.78C1173.71 432.7 1175.69 423.76 1179.65 415.96C1183.73 408.16 1189.25 402.16 1196.21 397.96C1203.17 393.76 1210.91 391.66 1219.43 391.66C1225.91 391.66 1232.09 393.1 1237.97 395.98C1243.85 398.74 1248.53 402.46 1252.01 407.14V359.8H1277.57V493H1252.01V478.24C1248.89 483.16 1244.51 487.12 1238.87 490.12C1233.23 493.12 1226.69 494.62 1219.25 494.62C1210.85 494.62 1203.17 492.46 1196.21 488.14C1189.25 483.82 1183.73 477.76 1179.65 469.96C1175.69 462.04 1173.71 452.98 1173.71 442.78ZM1252.19 443.14C1252.19 437.02 1250.99 431.8 1248.59 427.48C1246.19 423.04 1242.95 419.68 1238.87 417.4C1234.79 415 1230.41 413.8 1225.73 413.8C1221.05 413.8 1216.73 414.94 1212.77 417.22C1208.81 419.5 1205.57 422.86 1203.05 427.3C1200.65 431.62 1199.45 436.78 1199.45 442.78C1199.45 448.78 1200.65 454.06 1203.05 458.62C1205.57 463.06 1208.81 466.48 1212.77 468.88C1216.85 471.28 1221.17 472.48 1225.73 472.48C1230.41 472.48 1234.79 471.34 1238.87 469.06C1242.95 466.66 1246.19 463.3 1248.59 458.98C1250.99 454.54 1252.19 449.26 1252.19 443.14ZM1338.59 442.78C1338.59 432.7 1340.57 423.76 1344.53 415.96C1348.61 408.16 1354.07 402.16 1360.91 397.96C1367.87 393.76 1375.61 391.66 1384.13 391.66C1391.57 391.66 1398.05 393.16 1403.57 396.16C1409.21 399.16 1413.71 402.94 1417.07 407.5V393.28H1442.45V493H1417.07V478.42C1413.83 483.1 1409.33 487 1403.57 490.12C1397.93 493.12 1391.39 494.62 1383.95 494.62C1375.55 494.62 1367.87 492.46 1360.91 488.14C1354.07 483.82 1348.61 477.76 1344.53 469.96C1340.57 462.04 1338.59 452.98 1338.59 442.78ZM1417.07 443.14C1417.07 437.02 1415.87 431.8 1413.47 427.48C1411.07 423.04 1407.83 419.68 1403.75 417.4C1399.67 415 1395.29 413.8 1390.61 413.8C1385.93 413.8 1381.61 414.94 1377.65 417.22C1373.69 419.5 1370.45 422.86 1367.93 427.3C1365.53 431.62 1364.33 436.78 1364.33 442.78C1364.33 448.78 1365.53 454.06 1367.93 458.62C1370.45 463.06 1373.69 466.48 1377.65 468.88C1381.73 471.28 1386.05 472.48 1390.61 472.48C1395.29 472.48 1399.67 471.34 1403.75 469.06C1407.83 466.66 1411.07 463.3 1413.47 458.98C1415.87 454.54 1417.07 449.26 1417.07 443.14ZM1492.26 407.86C1495.5 403.06 1499.94 399.16 1505.58 396.16C1511.34 393.16 1517.88 391.66 1525.2 391.66C1533.72 391.66 1541.4 393.76 1548.24 397.96C1555.2 402.16 1560.66 408.16 1564.62 415.96C1568.7 423.64 1570.74 432.58 1570.74 442.78C1570.74 452.98 1568.7 462.04 1564.62 469.96C1560.66 477.76 1555.2 483.82 1548.24 488.14C1541.4 492.46 1533.72 494.62 1525.2 494.62C1517.76 494.62 1511.22 493.18 1505.58 490.3C1500.06 487.3 1495.62 483.46 1492.26 478.78V493H1467.06V359.8H1492.26V407.86ZM1545 442.78C1545 436.78 1543.74 431.62 1541.22 427.3C1538.82 422.86 1535.58 419.5 1531.5 417.22C1527.54 414.94 1523.22 413.8 1518.54 413.8C1513.98 413.8 1509.66 415 1505.58 417.4C1501.62 419.68 1498.38 423.04 1495.86 427.48C1493.46 431.92 1492.26 437.14 1492.26 443.14C1492.26 449.14 1493.46 454.36 1495.86 458.8C1498.38 463.24 1501.62 466.66 1505.58 469.06C1509.66 471.34 1513.98 472.48 1518.54 472.48C1523.22 472.48 1527.54 471.28 1531.5 468.88C1535.58 466.48 1538.82 463.06 1541.22 458.62C1543.74 454.18 1545 448.9 1545 442.78ZM1633.33 494.62C1623.73 494.62 1615.09 492.52 1607.41 488.32C1599.73 484 1593.67 477.94 1589.23 470.14C1584.91 462.34 1582.75 453.34 1582.75 443.14C1582.75 432.94 1584.97 423.94 1589.41 416.14C1593.97 408.34 1600.15 402.34 1607.95 398.14C1615.75 393.82 1624.45 391.66 1634.05 391.66C1643.65 391.66 1652.35 393.82 1660.15 398.14C1667.95 402.34 1674.07 408.34 1678.51 416.14C1683.07 423.94 1685.35 432.94 1685.35 443.14C1685.35 453.34 1683.01 462.34 1678.33 470.14C1673.77 477.94 1667.53 484 1659.61 488.32C1651.81 492.52 1643.05 494.62 1633.33 494.62ZM1633.33 472.66C1637.89 472.66 1642.15 471.58 1646.11 469.42C1650.19 467.14 1653.43 463.78 1655.83 459.34C1658.23 454.9 1659.43 449.5 1659.43 443.14C1659.43 433.66 1656.91 426.4 1651.87 421.36C1646.95 416.2 1640.89 413.62 1633.69 413.62C1626.49 413.62 1620.43 416.2 1615.51 421.36C1610.71 426.4 1608.31 433.66 1608.31 443.14C1608.31 452.62 1610.65 459.94 1615.33 465.1C1620.13 470.14 1626.13 472.66 1633.33 472.66ZM1745.42 469.78L1770.62 393.28H1797.44L1760.54 493H1729.94L1693.22 393.28H1720.22L1745.42 469.78ZM1904.29 440.98C1904.29 444.58 1904.05 447.82 1903.57 450.7H1830.67C1831.27 457.9 1833.79 463.54 1838.23 467.62C1842.67 471.7 1848.13 473.74 1854.61 473.74C1863.97 473.74 1870.63 469.72 1874.59 461.68H1901.77C1898.89 471.28 1893.37 479.2 1885.21 485.44C1877.05 491.56 1867.03 494.62 1855.15 494.62C1845.55 494.62 1836.91 492.52 1829.23 488.32C1821.67 484 1815.73 477.94 1811.41 470.14C1807.21 462.34 1805.11 453.34 1805.11 443.14C1805.11 432.82 1807.21 423.76 1811.41 415.96C1815.61 408.16 1821.49 402.16 1829.05 397.96C1836.61 393.76 1845.31 391.66 1855.15 391.66C1864.63 391.66 1873.09 393.7 1880.53 397.78C1888.09 401.86 1893.91 407.68 1897.99 415.24C1902.19 422.68 1904.29 431.26 1904.29 440.98ZM1878.19 433.78C1878.07 427.3 1875.73 422.14 1871.17 418.3C1866.61 414.34 1861.03 412.36 1854.43 412.36C1848.19 412.36 1842.91 414.28 1838.59 418.12C1834.39 421.84 1831.81 427.06 1830.85 433.78H1878.19Z" fill="black"/>
<rect x="4" y="4" width="6588" height="850" stroke="black" stroke-width="8"/>
<rect x="2233" y="283" width="293" height="293" fill="#03A0A0" stroke="black" stroke-width="8"/>
<rect x="2724" y="283" width="293" height="293" fill="#5656FF" stroke="black" stroke-width="8"/>
<rect x="3214" y="283" width="293" height="293" fill="#C93434" stroke="black" stroke-width="8"/>
</svg>
