<svg width="4421" height="2593" viewBox="0 0 4421 2593" fill="none" xmlns="http://www.w3.org/2000/svg">
<path d="M1361.96 525.68V564.1H1298.72V763H1251.12V564.1H1187.88V525.68H1361.96ZM1502.77 571.92C1517.05 571.92 1529.74 575.093 1540.85 581.44C1551.96 587.56 1560.57 596.74 1566.69 608.98C1573.04 620.993 1576.21 635.5 1576.21 652.5V763H1528.61V658.96C1528.61 644 1524.87 632.553 1517.39 624.62C1509.91 616.46 1499.71 612.38 1486.79 612.38C1473.64 612.38 1463.22 616.46 1455.51 624.62C1448.03 632.553 1444.29 644 1444.29 658.96V763H1396.69V511.4H1444.29V598.1C1450.41 589.94 1458.57 583.593 1468.77 579.06C1478.97 574.3 1490.3 571.92 1502.77 571.92ZM1645.62 552.2C1637.23 552.2 1630.2 549.593 1624.54 544.38C1619.1 538.94 1616.38 532.253 1616.38 524.32C1616.38 516.387 1619.1 509.813 1624.54 504.6C1630.2 499.16 1637.23 496.44 1645.62 496.44C1654 496.44 1660.92 499.16 1666.36 504.6C1672.02 509.813 1674.86 516.387 1674.86 524.32C1674.86 532.253 1672.02 538.94 1666.36 544.38C1660.92 549.593 1654 552.2 1645.62 552.2ZM1669.08 574.64V763H1621.48V574.64H1669.08ZM1788.18 766.06C1772.77 766.06 1758.94 763.34 1746.7 757.9C1734.46 752.233 1724.72 744.64 1717.46 735.12C1710.44 725.6 1706.58 715.06 1705.9 703.5H1753.84C1754.75 710.753 1758.26 716.76 1764.38 721.52C1770.73 726.28 1778.55 728.66 1787.84 728.66C1796.91 728.66 1803.94 726.847 1808.92 723.22C1814.14 719.593 1816.74 714.947 1816.74 709.28C1816.74 703.16 1813.57 698.627 1807.22 695.68C1801.1 692.507 1791.24 689.107 1777.64 685.48C1763.59 682.08 1752.03 678.567 1742.96 674.94C1734.12 671.313 1726.42 665.76 1719.84 658.28C1713.5 650.8 1710.32 640.713 1710.32 628.02C1710.32 617.593 1713.27 608.073 1719.16 599.46C1725.28 590.847 1733.9 584.047 1745 579.06C1756.34 574.073 1769.6 571.58 1784.78 571.58C1807.22 571.58 1825.13 577.247 1838.5 588.58C1851.88 599.687 1859.24 614.76 1860.6 633.8H1815.04C1814.36 626.32 1811.19 620.427 1805.52 616.12C1800.08 611.587 1792.72 609.32 1783.42 609.32C1774.81 609.32 1768.12 610.907 1763.36 614.08C1758.83 617.253 1756.56 621.673 1756.56 627.34C1756.56 633.687 1759.74 638.56 1766.08 641.96C1772.43 645.133 1782.29 648.42 1795.66 651.82C1809.26 655.22 1820.48 658.733 1829.32 662.36C1838.16 665.987 1845.76 671.653 1852.1 679.36C1858.68 686.84 1862.08 696.813 1862.3 709.28C1862.3 720.16 1859.24 729.907 1853.12 738.52C1847.23 747.133 1838.62 753.933 1827.28 758.92C1816.18 763.68 1803.14 766.06 1788.18 766.06ZM2006.53 552.2C1998.15 552.2 1991.12 549.593 1985.45 544.38C1980.01 538.94 1977.29 532.253 1977.29 524.32C1977.29 516.387 1980.01 509.813 1985.45 504.6C1991.12 499.16 1998.15 496.44 2006.53 496.44C2014.92 496.44 2021.83 499.16 2027.27 504.6C2032.94 509.813 2035.77 516.387 2035.77 524.32C2035.77 532.253 2032.94 538.94 2027.27 544.38C2021.83 549.593 2014.92 552.2 2006.53 552.2ZM2029.99 574.64V763H1982.39V574.64H2029.99ZM2149.1 766.06C2133.69 766.06 2119.86 763.34 2107.62 757.9C2095.38 752.233 2085.64 744.64 2078.38 735.12C2071.36 725.6 2067.5 715.06 2066.82 703.5H2114.76C2115.67 710.753 2119.18 716.76 2125.3 721.52C2131.65 726.28 2139.47 728.66 2148.76 728.66C2157.83 728.66 2164.86 726.847 2169.84 723.22C2175.06 719.593 2177.66 714.947 2177.66 709.28C2177.66 703.16 2174.49 698.627 2168.14 695.68C2162.02 692.507 2152.16 689.107 2138.56 685.48C2124.51 682.08 2112.95 678.567 2103.88 674.94C2095.04 671.313 2087.34 665.76 2080.76 658.28C2074.42 650.8 2071.24 640.713 2071.24 628.02C2071.24 617.593 2074.19 608.073 2080.08 599.46C2086.2 590.847 2094.82 584.047 2105.92 579.06C2117.26 574.073 2130.52 571.58 2145.7 571.58C2168.14 571.58 2186.05 577.247 2199.42 588.58C2212.8 599.687 2220.16 614.76 2221.52 633.8H2175.96C2175.28 626.32 2172.11 620.427 2166.44 616.12C2161 611.587 2153.64 609.32 2144.34 609.32C2135.73 609.32 2129.04 610.907 2124.28 614.08C2119.75 617.253 2117.48 621.673 2117.48 627.34C2117.48 633.687 2120.66 638.56 2127 641.96C2133.35 645.133 2143.21 648.42 2156.58 651.82C2170.18 655.22 2181.4 658.733 2190.24 662.36C2199.08 665.987 2206.68 671.653 2213.02 679.36C2219.6 686.84 2223 696.813 2223.22 709.28C2223.22 720.16 2220.16 729.907 2214.04 738.52C2208.15 747.133 2199.54 753.933 2188.2 758.92C2177.1 763.68 2164.06 766.06 2149.1 766.06ZM2331.07 668.14C2331.07 649.1 2334.81 632.213 2342.29 617.48C2350 602.747 2360.31 591.413 2373.23 583.48C2386.38 575.547 2401 571.58 2417.09 571.58C2431.14 571.58 2443.38 574.413 2453.81 580.08C2464.46 585.747 2472.96 592.887 2479.31 601.5V574.64H2527.25V763H2479.31V735.46C2473.19 744.3 2464.69 751.667 2453.81 757.56C2443.16 763.227 2430.8 766.06 2416.75 766.06C2400.88 766.06 2386.38 761.98 2373.23 753.82C2360.31 745.66 2350 734.213 2342.29 719.48C2334.81 704.52 2331.07 687.407 2331.07 668.14ZM2479.31 668.82C2479.31 657.26 2477.04 647.4 2472.51 639.24C2467.98 630.853 2461.86 624.507 2454.15 620.2C2446.44 615.667 2438.17 613.4 2429.33 613.4C2420.49 613.4 2412.33 615.553 2404.85 619.86C2397.37 624.167 2391.25 630.513 2386.49 638.9C2381.96 647.06 2379.69 656.807 2379.69 668.14C2379.69 679.473 2381.96 689.447 2386.49 698.06C2391.25 706.447 2397.37 712.907 2404.85 717.44C2412.56 721.973 2420.72 724.24 2429.33 724.24C2438.17 724.24 2446.44 722.087 2454.15 717.78C2461.86 713.247 2467.98 706.9 2472.51 698.74C2477.04 690.353 2479.31 680.38 2479.31 668.82ZM2851.62 525.68V763H2804.02V662.02H2702.36V763H2654.76V525.68H2702.36V623.26H2804.02V525.68H2851.62ZM3073.57 664.74C3073.57 671.54 3073.11 677.66 3072.21 683.1H2934.51C2935.64 696.7 2940.4 707.353 2948.79 715.06C2957.17 722.767 2967.49 726.62 2979.73 726.62C2997.41 726.62 3009.99 719.027 3017.47 703.84H3068.81C3063.37 721.973 3052.94 736.933 3037.53 748.72C3022.11 760.28 3003.19 766.06 2980.75 766.06C2962.61 766.06 2946.29 762.093 2931.79 754.16C2917.51 746 2906.29 734.553 2898.13 719.82C2890.19 705.087 2886.23 688.087 2886.23 668.82C2886.23 649.327 2890.19 632.213 2898.13 617.48C2906.06 602.747 2917.17 591.413 2931.45 583.48C2945.73 575.547 2962.16 571.58 2980.75 571.58C2998.65 571.58 3014.63 575.433 3028.69 583.14C3042.97 590.847 3053.96 601.84 3061.67 616.12C3069.6 630.173 3073.57 646.38 3073.57 664.74ZM3024.27 651.14C3024.04 638.9 3019.62 629.153 3011.01 621.9C3002.39 614.42 2991.85 610.68 2979.39 610.68C2967.6 610.68 2957.63 614.307 2949.47 621.56C2941.53 628.587 2936.66 638.447 2934.85 651.14H3024.27ZM3096.07 668.14C3096.07 649.1 3099.81 632.213 3107.29 617.48C3115 602.747 3125.31 591.413 3138.23 583.48C3151.38 575.547 3166 571.58 3182.09 571.58C3196.14 571.58 3208.38 574.413 3218.81 580.08C3229.46 585.747 3237.96 592.887 3244.31 601.5V574.64H3292.25V763H3244.31V735.46C3238.19 744.3 3229.69 751.667 3218.81 757.56C3208.16 763.227 3195.8 766.06 3181.75 766.06C3165.88 766.06 3151.38 761.98 3138.23 753.82C3125.31 745.66 3115 734.213 3107.29 719.48C3099.81 704.52 3096.07 687.407 3096.07 668.14ZM3244.31 668.82C3244.31 657.26 3242.04 647.4 3237.51 639.24C3232.98 630.853 3226.86 624.507 3219.15 620.2C3211.44 615.667 3203.17 613.4 3194.33 613.4C3185.49 613.4 3177.33 615.553 3169.85 619.86C3162.37 624.167 3156.25 630.513 3151.49 638.9C3146.96 647.06 3144.69 656.807 3144.69 668.14C3144.69 679.473 3146.96 689.447 3151.49 698.06C3156.25 706.447 3162.37 712.907 3169.85 717.44C3177.56 721.973 3185.72 724.24 3194.33 724.24C3203.17 724.24 3211.44 722.087 3219.15 717.78C3226.86 713.247 3232.98 706.9 3237.51 698.74C3242.04 690.353 3244.31 680.38 3244.31 668.82ZM3326.5 668.14C3326.5 649.1 3330.24 632.213 3337.72 617.48C3345.43 602.747 3355.85 591.413 3369 583.48C3382.15 575.547 3396.77 571.58 3412.86 571.58C3425.1 571.58 3436.77 574.3 3447.88 579.74C3458.99 584.953 3467.83 591.98 3474.4 600.82V511.4H3522.68V763H3474.4V735.12C3468.51 744.413 3460.23 751.893 3449.58 757.56C3438.93 763.227 3426.57 766.06 3412.52 766.06C3396.65 766.06 3382.15 761.98 3369 753.82C3355.85 745.66 3345.43 734.213 3337.72 719.48C3330.24 704.52 3326.5 687.407 3326.5 668.14ZM3474.74 668.82C3474.74 657.26 3472.47 647.4 3467.94 639.24C3463.41 630.853 3457.29 624.507 3449.58 620.2C3441.87 615.667 3433.6 613.4 3424.76 613.4C3415.92 613.4 3407.76 615.553 3400.28 619.86C3392.8 624.167 3386.68 630.513 3381.92 638.9C3377.39 647.06 3375.12 656.807 3375.12 668.14C3375.12 679.473 3377.39 689.447 3381.92 698.06C3386.68 706.447 3392.8 712.907 3400.28 717.44C3407.99 721.973 3416.15 724.24 3424.76 724.24C3433.6 724.24 3441.87 722.087 3449.58 717.78C3457.29 713.247 3463.41 706.9 3467.94 698.74C3472.47 690.353 3474.74 680.38 3474.74 668.82ZM3593.31 552.2C3584.92 552.2 3577.9 549.593 3572.23 544.38C3566.79 538.94 3564.07 532.253 3564.07 524.32C3564.07 516.387 3566.79 509.813 3572.23 504.6C3577.9 499.16 3584.92 496.44 3593.31 496.44C3601.7 496.44 3608.61 499.16 3614.05 504.6C3619.72 509.813 3622.55 516.387 3622.55 524.32C3622.55 532.253 3619.72 538.94 3614.05 544.38C3608.61 549.593 3601.7 552.2 3593.31 552.2ZM3616.77 574.64V763H3569.17V574.64H3616.77ZM3768.18 571.92C3790.62 571.92 3808.75 579.06 3822.58 593.34C3836.41 607.393 3843.32 627.113 3843.32 652.5V763H3795.72V658.96C3795.72 644 3791.98 632.553 3784.5 624.62C3777.02 616.46 3766.82 612.38 3753.9 612.38C3740.75 612.38 3730.33 616.46 3722.62 624.62C3715.14 632.553 3711.4 644 3711.4 658.96V763H3663.8V574.64H3711.4V598.1C3717.75 589.94 3725.79 583.593 3735.54 579.06C3745.51 574.3 3756.39 571.92 3768.18 571.92ZM3962.37 571.58C3976.42 571.58 3988.77 574.413 3999.43 580.08C4010.08 585.52 4018.47 592.66 4024.59 601.5V574.64H4072.53V764.36C4072.53 781.813 4069.01 797.34 4061.99 810.94C4054.96 824.767 4044.42 835.647 4030.37 843.58C4016.31 851.74 3999.31 855.82 3979.37 855.82C3952.62 855.82 3930.63 849.587 3913.41 837.12C3896.41 824.653 3886.77 807.653 3884.51 786.12H3931.77C3934.26 794.733 3939.59 801.533 3947.75 806.52C3956.13 811.733 3966.22 814.34 3978.01 814.34C3991.83 814.34 4003.05 810.147 4011.67 801.76C4020.28 793.6 4024.59 781.133 4024.59 764.36V735.12C4018.47 743.96 4009.97 751.327 3999.09 757.22C3988.43 763.113 3976.19 766.06 3962.37 766.06C3946.5 766.06 3931.99 761.98 3918.85 753.82C3905.7 745.66 3895.27 734.213 3887.56 719.48C3880.08 704.52 3876.34 687.407 3876.34 668.14C3876.34 649.1 3880.08 632.213 3887.56 617.48C3895.27 602.747 3905.59 591.413 3918.51 583.48C3931.65 575.547 3946.27 571.58 3962.37 571.58ZM4024.59 668.82C4024.59 657.26 4022.32 647.4 4017.79 639.24C4013.25 630.853 4007.13 624.507 3999.43 620.2C3991.72 615.667 3983.45 613.4 3974.61 613.4C3965.77 613.4 3957.61 615.553 3950.12 619.86C3942.65 624.167 3936.53 630.513 3931.77 638.9C3927.23 647.06 3924.97 656.807 3924.97 668.14C3924.97 679.473 3927.23 689.447 3931.77 698.06C3936.53 706.447 3942.65 712.907 3950.12 717.44C3957.83 721.973 3965.99 724.24 3974.61 724.24C3983.45 724.24 3991.72 722.087 3999.43 717.78C4007.13 713.247 4013.25 706.9 4017.79 698.74C4022.32 690.353 4024.59 680.38 4024.59 668.82Z" fill="black"/>
<path d="M747.32 525.68V763H699.72V662.02H598.06V763H550.46V525.68H598.06V623.26H699.72V525.68H747.32ZM782.951 559V515.14H864.891V763H815.931V559H782.951Z" fill="black"/>
<path d="M1329.32 1011.56V1043.2H1277.24V1207H1238.04V1043.2H1185.96V1011.56H1329.32ZM1445.28 1049.64C1457.04 1049.64 1467.49 1052.25 1476.64 1057.48C1485.79 1062.52 1492.88 1070.08 1497.92 1080.16C1503.15 1090.05 1505.76 1102 1505.76 1116V1207H1466.56V1121.32C1466.56 1109 1463.48 1099.57 1457.32 1093.04C1451.16 1086.32 1442.76 1082.96 1432.12 1082.96C1421.29 1082.96 1412.71 1086.32 1406.36 1093.04C1400.2 1099.57 1397.12 1109 1397.12 1121.32V1207H1357.92V999.8H1397.12V1071.2C1402.16 1064.48 1408.88 1059.25 1417.28 1055.52C1425.68 1051.6 1435.01 1049.64 1445.28 1049.64ZM1562.92 1033.4C1556.01 1033.4 1550.23 1031.25 1545.56 1026.96C1541.08 1022.48 1538.84 1016.97 1538.84 1010.44C1538.84 1003.91 1541.08 998.493 1545.56 994.2C1550.23 989.72 1556.01 987.48 1562.92 987.48C1569.83 987.48 1575.52 989.72 1580 994.2C1584.67 998.493 1587 1003.91 1587 1010.44C1587 1016.97 1584.67 1022.48 1580 1026.96C1575.52 1031.25 1569.83 1033.4 1562.92 1033.4ZM1582.24 1051.88V1207H1543.04V1051.88H1582.24ZM1680.33 1209.52C1667.64 1209.52 1656.25 1207.28 1646.17 1202.8C1636.09 1198.13 1628.06 1191.88 1622.09 1184.04C1616.3 1176.2 1613.13 1167.52 1612.57 1158H1652.05C1652.8 1163.97 1655.69 1168.92 1660.73 1172.84C1665.96 1176.76 1672.4 1178.72 1680.05 1178.72C1687.52 1178.72 1693.3 1177.23 1697.41 1174.24C1701.7 1171.25 1703.85 1167.43 1703.85 1162.76C1703.85 1157.72 1701.24 1153.99 1696.01 1151.56C1690.97 1148.95 1682.85 1146.15 1671.65 1143.16C1660.08 1140.36 1650.56 1137.47 1643.09 1134.48C1635.81 1131.49 1629.46 1126.92 1624.05 1120.76C1618.82 1114.6 1616.21 1106.29 1616.21 1095.84C1616.21 1087.25 1618.64 1079.41 1623.49 1072.32C1628.53 1065.23 1635.62 1059.63 1644.77 1055.52C1654.1 1051.41 1665.02 1049.36 1677.53 1049.36C1696.01 1049.36 1710.76 1054.03 1721.77 1063.36C1732.78 1072.51 1738.85 1084.92 1739.97 1100.6H1702.45C1701.89 1094.44 1699.28 1089.59 1694.61 1086.04C1690.13 1082.31 1684.06 1080.44 1676.41 1080.44C1669.32 1080.44 1663.81 1081.75 1659.89 1084.36C1656.16 1086.97 1654.29 1090.61 1654.29 1095.28C1654.29 1100.51 1656.9 1104.52 1662.13 1107.32C1667.36 1109.93 1675.48 1112.64 1686.49 1115.44C1697.69 1118.24 1706.93 1121.13 1714.21 1124.12C1721.49 1127.11 1727.74 1131.77 1732.97 1138.12C1738.38 1144.28 1741.18 1152.49 1741.37 1162.76C1741.37 1171.72 1738.85 1179.75 1733.81 1186.84C1728.96 1193.93 1721.86 1199.53 1712.53 1203.64C1703.38 1207.56 1692.65 1209.52 1680.33 1209.52ZM1860.15 1033.4C1853.24 1033.4 1847.45 1031.25 1842.79 1026.96C1838.31 1022.48 1836.07 1016.97 1836.07 1010.44C1836.07 1003.91 1838.31 998.493 1842.79 994.2C1847.45 989.72 1853.24 987.48 1860.15 987.48C1867.05 987.48 1872.75 989.72 1877.23 994.2C1881.89 998.493 1884.23 1003.91 1884.23 1010.44C1884.23 1016.97 1881.89 1022.48 1877.23 1026.96C1872.75 1031.25 1867.05 1033.4 1860.15 1033.4ZM1879.47 1051.88V1207H1840.27V1051.88H1879.47ZM1977.56 1209.52C1964.86 1209.52 1953.48 1207.28 1943.4 1202.8C1933.32 1198.13 1925.29 1191.88 1919.32 1184.04C1913.53 1176.2 1910.36 1167.52 1909.8 1158H1949.28C1950.02 1163.97 1952.92 1168.92 1957.96 1172.84C1963.18 1176.76 1969.62 1178.72 1977.28 1178.72C1984.74 1178.72 1990.53 1177.23 1994.64 1174.24C1998.93 1171.25 2001.08 1167.43 2001.08 1162.76C2001.08 1157.72 1998.46 1153.99 1993.24 1151.56C1988.2 1148.95 1980.08 1146.15 1968.88 1143.16C1957.3 1140.36 1947.78 1137.47 1940.32 1134.48C1933.04 1131.49 1926.69 1126.92 1921.28 1120.76C1916.05 1114.6 1913.44 1106.29 1913.44 1095.84C1913.44 1087.25 1915.86 1079.41 1920.72 1072.32C1925.76 1065.23 1932.85 1059.63 1942 1055.52C1951.33 1051.41 1962.25 1049.36 1974.76 1049.36C1993.24 1049.36 2007.98 1054.03 2019 1063.36C2030.01 1072.51 2036.08 1084.92 2037.2 1100.6H1999.68C1999.12 1094.44 1996.5 1089.59 1991.84 1086.04C1987.36 1082.31 1981.29 1080.44 1973.64 1080.44C1966.54 1080.44 1961.04 1081.75 1957.12 1084.36C1953.38 1086.97 1951.52 1090.61 1951.52 1095.28C1951.52 1100.51 1954.13 1104.52 1959.36 1107.32C1964.58 1109.93 1972.7 1112.64 1983.72 1115.44C1994.92 1118.24 2004.16 1121.13 2011.44 1124.12C2018.72 1127.11 2024.97 1131.77 2030.2 1138.12C2035.61 1144.28 2038.41 1152.49 2038.6 1162.76C2038.6 1171.72 2036.08 1179.75 2031.04 1186.84C2026.18 1193.93 2019.09 1199.53 2009.76 1203.64C2000.61 1207.56 1989.88 1209.52 1977.56 1209.52ZM2127.41 1128.88C2127.41 1113.2 2130.49 1099.29 2136.65 1087.16C2143 1075.03 2151.49 1065.69 2162.13 1059.16C2172.96 1052.63 2185 1049.36 2198.25 1049.36C2209.83 1049.36 2219.91 1051.69 2228.49 1056.36C2237.27 1061.03 2244.27 1066.91 2249.49 1074V1051.88H2288.97V1207H2249.49V1184.32C2244.45 1191.6 2237.45 1197.67 2228.49 1202.52C2219.72 1207.19 2209.55 1209.52 2197.97 1209.52C2184.91 1209.52 2172.96 1206.16 2162.13 1199.44C2151.49 1192.72 2143 1183.29 2136.65 1171.16C2130.49 1158.84 2127.41 1144.75 2127.41 1128.88ZM2249.49 1129.44C2249.49 1119.92 2247.63 1111.8 2243.89 1105.08C2240.16 1098.17 2235.12 1092.95 2228.77 1089.4C2222.43 1085.67 2215.61 1083.8 2208.33 1083.8C2201.05 1083.8 2194.33 1085.57 2188.17 1089.12C2182.01 1092.67 2176.97 1097.89 2173.05 1104.8C2169.32 1111.52 2167.45 1119.55 2167.45 1128.88C2167.45 1138.21 2169.32 1146.43 2173.05 1153.52C2176.97 1160.43 2182.01 1165.75 2188.17 1169.48C2194.52 1173.21 2201.24 1175.08 2208.33 1175.08C2215.61 1175.08 2222.43 1173.31 2228.77 1169.76C2235.12 1166.03 2240.16 1160.8 2243.89 1154.08C2247.63 1147.17 2249.49 1138.96 2249.49 1129.44ZM2556.1 1011.56V1207H2516.9V1123.84H2433.18V1207H2393.98V1011.56H2433.18V1091.92H2516.9V1011.56H2556.1ZM2738.88 1126.08C2738.88 1131.68 2738.51 1136.72 2737.76 1141.2H2624.36C2625.29 1152.4 2629.21 1161.17 2636.12 1167.52C2643.03 1173.87 2651.52 1177.04 2661.6 1177.04C2676.16 1177.04 2686.52 1170.79 2692.68 1158.28H2734.96C2730.48 1173.21 2721.89 1185.53 2709.2 1195.24C2696.51 1204.76 2680.92 1209.52 2662.44 1209.52C2647.51 1209.52 2634.07 1206.25 2622.12 1199.72C2610.36 1193 2601.12 1183.57 2594.4 1171.44C2587.87 1159.31 2584.6 1145.31 2584.6 1129.44C2584.6 1113.39 2587.87 1099.29 2594.4 1087.16C2600.93 1075.03 2610.08 1065.69 2621.84 1059.16C2633.6 1052.63 2647.13 1049.36 2662.44 1049.36C2677.19 1049.36 2690.35 1052.53 2701.92 1058.88C2713.68 1065.23 2722.73 1074.28 2729.08 1086.04C2735.61 1097.61 2738.88 1110.96 2738.88 1126.08ZM2698.28 1114.88C2698.09 1104.8 2694.45 1096.77 2687.36 1090.8C2680.27 1084.64 2671.59 1081.56 2661.32 1081.56C2651.61 1081.56 2643.4 1084.55 2636.68 1090.52C2630.15 1096.31 2626.13 1104.43 2624.64 1114.88H2698.28ZM2757.41 1128.88C2757.41 1113.2 2760.49 1099.29 2766.65 1087.16C2773 1075.03 2781.49 1065.69 2792.13 1059.16C2802.96 1052.63 2815 1049.36 2828.25 1049.36C2839.83 1049.36 2849.91 1051.69 2858.49 1056.36C2867.27 1061.03 2874.27 1066.91 2879.49 1074V1051.88H2918.97V1207H2879.49V1184.32C2874.45 1191.6 2867.45 1197.67 2858.49 1202.52C2849.72 1207.19 2839.55 1209.52 2827.97 1209.52C2814.91 1209.52 2802.96 1206.16 2792.13 1199.44C2781.49 1192.72 2773 1183.29 2766.65 1171.16C2760.49 1158.84 2757.41 1144.75 2757.41 1128.88ZM2879.49 1129.44C2879.49 1119.92 2877.63 1111.8 2873.89 1105.08C2870.16 1098.17 2865.12 1092.95 2858.77 1089.4C2852.43 1085.67 2845.61 1083.8 2838.33 1083.8C2831.05 1083.8 2824.33 1085.57 2818.17 1089.12C2812.01 1092.67 2806.97 1097.89 2803.05 1104.8C2799.32 1111.52 2797.45 1119.55 2797.45 1128.88C2797.45 1138.21 2799.32 1146.43 2803.05 1153.52C2806.97 1160.43 2812.01 1165.75 2818.17 1169.48C2824.52 1173.21 2831.24 1175.08 2838.33 1175.08C2845.61 1175.08 2852.43 1173.31 2858.77 1169.76C2865.12 1166.03 2870.16 1160.8 2873.89 1154.08C2877.63 1147.17 2879.49 1138.96 2879.49 1129.44ZM2947.18 1128.88C2947.18 1113.2 2950.26 1099.29 2956.42 1087.16C2962.76 1075.03 2971.35 1065.69 2982.18 1059.16C2993 1052.63 3005.04 1049.36 3018.3 1049.36C3028.38 1049.36 3037.99 1051.6 3047.14 1056.08C3056.28 1060.37 3063.56 1066.16 3068.98 1073.44V999.8H3108.74V1207H3068.98V1184.04C3064.12 1191.69 3057.31 1197.85 3048.54 1202.52C3039.76 1207.19 3029.59 1209.52 3018.02 1209.52C3004.95 1209.52 2993 1206.16 2982.18 1199.44C2971.35 1192.72 2962.76 1183.29 2956.42 1171.16C2950.26 1158.84 2947.18 1144.75 2947.18 1128.88ZM3069.26 1129.44C3069.26 1119.92 3067.39 1111.8 3063.66 1105.08C3059.92 1098.17 3054.88 1092.95 3048.54 1089.4C3042.19 1085.67 3035.38 1083.8 3028.1 1083.8C3020.82 1083.8 3014.1 1085.57 3007.94 1089.12C3001.78 1092.67 2996.74 1097.89 2992.82 1104.8C2989.08 1111.52 2987.22 1119.55 2987.22 1128.88C2987.22 1138.21 2989.08 1146.43 2992.82 1153.52C2996.74 1160.43 3001.78 1165.75 3007.94 1169.48C3014.28 1173.21 3021 1175.08 3028.1 1175.08C3035.38 1175.08 3042.19 1173.31 3048.54 1169.76C3054.88 1166.03 3059.92 1160.8 3063.66 1154.08C3067.39 1147.17 3069.26 1138.96 3069.26 1129.44ZM3166.9 1033.4C3160 1033.4 3154.21 1031.25 3149.54 1026.96C3145.06 1022.48 3142.82 1016.97 3142.82 1010.44C3142.82 1003.91 3145.06 998.493 3149.54 994.2C3154.21 989.72 3160 987.48 3166.9 987.48C3173.81 987.48 3179.5 989.72 3183.98 994.2C3188.65 998.493 3190.98 1003.91 3190.98 1010.44C3190.98 1016.97 3188.65 1022.48 3183.98 1026.96C3179.5 1031.25 3173.81 1033.4 3166.9 1033.4ZM3186.22 1051.88V1207H3147.02V1051.88H3186.22ZM3310.91 1049.64C3329.39 1049.64 3344.33 1055.52 3355.71 1067.28C3367.1 1078.85 3372.79 1095.09 3372.79 1116V1207H3333.59V1121.32C3333.59 1109 3330.51 1099.57 3324.35 1093.04C3318.19 1086.32 3309.79 1082.96 3299.15 1082.96C3288.33 1082.96 3279.74 1086.32 3273.39 1093.04C3267.23 1099.57 3264.15 1109 3264.15 1121.32V1207H3224.95V1051.88H3264.15V1071.2C3269.38 1064.48 3276.01 1059.25 3284.03 1055.52C3292.25 1051.6 3301.21 1049.64 3310.91 1049.64ZM3470.83 1049.36C3482.4 1049.36 3492.58 1051.69 3501.35 1056.36C3510.12 1060.84 3517.03 1066.72 3522.07 1074V1051.88H3561.55V1208.12C3561.55 1222.49 3558.66 1235.28 3552.87 1246.48C3547.08 1257.87 3538.4 1266.83 3526.83 1273.36C3515.26 1280.08 3501.26 1283.44 3484.83 1283.44C3462.8 1283.44 3444.7 1278.31 3430.51 1268.04C3416.51 1257.77 3408.58 1243.77 3406.71 1226.04H3445.63C3447.68 1233.13 3452.07 1238.73 3458.79 1242.84C3465.7 1247.13 3474 1249.28 3483.71 1249.28C3495.1 1249.28 3504.34 1245.83 3511.43 1238.92C3518.52 1232.2 3522.07 1221.93 3522.07 1208.12V1184.04C3517.03 1191.32 3510.03 1197.39 3501.07 1202.24C3492.3 1207.09 3482.22 1209.52 3470.83 1209.52C3457.76 1209.52 3445.82 1206.16 3434.99 1199.44C3424.16 1192.72 3415.58 1183.29 3409.23 1171.16C3403.07 1158.84 3399.99 1144.75 3399.99 1128.88C3399.99 1113.2 3403.07 1099.29 3409.23 1087.16C3415.58 1075.03 3424.07 1065.69 3434.71 1059.16C3445.54 1052.63 3457.58 1049.36 3470.83 1049.36ZM3522.07 1129.44C3522.07 1119.92 3520.2 1111.8 3516.47 1105.08C3512.74 1098.17 3507.7 1092.95 3501.35 1089.4C3495 1085.67 3488.19 1083.8 3480.91 1083.8C3473.63 1083.8 3466.91 1085.57 3460.75 1089.12C3454.59 1092.67 3449.55 1097.89 3445.63 1104.8C3441.9 1111.52 3440.03 1119.55 3440.03 1128.88C3440.03 1138.21 3441.9 1146.43 3445.63 1153.52C3449.55 1160.43 3454.59 1165.75 3460.75 1169.48C3467.1 1173.21 3473.82 1175.08 3480.91 1175.08C3488.19 1175.08 3495 1173.31 3501.35 1169.76C3507.7 1166.03 3512.74 1160.8 3516.47 1154.08C3520.2 1147.17 3522.07 1138.96 3522.07 1129.44Z" fill="black"/>
<path d="M708.44 1011.56V1207H669.24V1123.84H585.52V1207H546.32V1011.56H585.52V1091.92H669.24V1011.56H708.44ZM754.863 1162.76C772.783 1147.83 787.063 1135.41 797.703 1125.52C808.343 1115.44 817.21 1104.99 824.303 1094.16C831.396 1083.33 834.943 1072.69 834.943 1062.24C834.943 1052.72 832.703 1045.25 828.223 1039.84C823.743 1034.43 816.836 1031.72 807.503 1031.72C798.17 1031.72 790.983 1034.89 785.943 1041.24C780.903 1047.4 778.29 1055.89 778.103 1066.72H740.023C740.77 1044.32 747.396 1027.33 759.903 1015.76C772.596 1004.19 788.65 998.4 808.063 998.4C829.343 998.4 845.676 1004.09 857.063 1015.48C868.45 1026.68 874.143 1041.52 874.143 1060C874.143 1074.56 870.223 1088.47 862.383 1101.72C854.543 1114.97 845.583 1126.55 835.503 1136.44C825.423 1146.15 812.263 1157.91 796.023 1171.72H878.623V1204.2H740.303V1175.08L754.863 1162.76Z" fill="black"/>
<path d="M1296.68 1407.44V1432.3H1255.76V1561H1224.96V1432.3H1184.04V1407.44H1296.68ZM1387.79 1437.36C1397.03 1437.36 1405.25 1439.41 1412.43 1443.52C1419.62 1447.48 1425.19 1453.42 1429.15 1461.34C1433.26 1469.11 1435.31 1478.5 1435.31 1489.5V1561H1404.51V1493.68C1404.51 1484 1402.09 1476.59 1397.25 1471.46C1392.41 1466.18 1385.81 1463.54 1377.45 1463.54C1368.95 1463.54 1362.2 1466.18 1357.21 1471.46C1352.37 1476.59 1349.95 1484 1349.95 1493.68V1561H1319.15V1398.2H1349.95V1454.3C1353.91 1449.02 1359.19 1444.91 1365.79 1441.98C1372.39 1438.9 1379.73 1437.36 1387.79 1437.36ZM1480.22 1424.6C1474.8 1424.6 1470.25 1422.91 1466.58 1419.54C1463.06 1416.02 1461.3 1411.69 1461.3 1406.56C1461.3 1401.43 1463.06 1397.17 1466.58 1393.8C1470.25 1390.28 1474.8 1388.52 1480.22 1388.52C1485.65 1388.52 1490.12 1390.28 1493.64 1393.8C1497.31 1397.17 1499.14 1401.43 1499.14 1406.56C1499.14 1411.69 1497.31 1416.02 1493.64 1419.54C1490.12 1422.91 1485.65 1424.6 1480.22 1424.6ZM1495.4 1439.12V1561H1464.6V1439.12H1495.4ZM1572.47 1562.98C1562.5 1562.98 1553.55 1561.22 1545.63 1557.7C1537.71 1554.03 1531.41 1549.12 1526.71 1542.96C1522.17 1536.8 1519.67 1529.98 1519.23 1522.5H1550.25C1550.84 1527.19 1553.11 1531.08 1557.07 1534.16C1561.18 1537.24 1566.24 1538.78 1572.25 1538.78C1578.12 1538.78 1582.67 1537.61 1585.89 1535.26C1589.27 1532.91 1590.95 1529.91 1590.95 1526.24C1590.95 1522.28 1588.9 1519.35 1584.79 1517.44C1580.83 1515.39 1574.45 1513.19 1565.65 1510.84C1556.56 1508.64 1549.08 1506.37 1543.21 1504.02C1537.49 1501.67 1532.51 1498.08 1528.25 1493.24C1524.15 1488.4 1522.09 1481.87 1522.09 1473.66C1522.09 1466.91 1524 1460.75 1527.81 1455.18C1531.77 1449.61 1537.35 1445.21 1544.53 1441.98C1551.87 1438.75 1560.45 1437.14 1570.27 1437.14C1584.79 1437.14 1596.38 1440.81 1605.03 1448.14C1613.69 1455.33 1618.45 1465.08 1619.33 1477.4H1589.85C1589.41 1472.56 1587.36 1468.75 1583.69 1465.96C1580.17 1463.03 1575.41 1461.56 1569.39 1461.56C1563.82 1461.56 1559.49 1462.59 1556.41 1464.64C1553.48 1466.69 1552.01 1469.55 1552.01 1473.22C1552.01 1477.33 1554.07 1480.48 1558.17 1482.68C1562.28 1484.73 1568.66 1486.86 1577.31 1489.06C1586.11 1491.26 1593.37 1493.53 1599.09 1495.88C1604.81 1498.23 1609.73 1501.89 1613.83 1506.88C1618.09 1511.72 1620.29 1518.17 1620.43 1526.24C1620.43 1533.28 1618.45 1539.59 1614.49 1545.16C1610.68 1550.73 1605.11 1555.13 1597.77 1558.36C1590.59 1561.44 1582.15 1562.98 1572.47 1562.98ZM1713.76 1424.6C1708.33 1424.6 1703.78 1422.91 1700.12 1419.54C1696.6 1416.02 1694.84 1411.69 1694.84 1406.56C1694.84 1401.43 1696.6 1397.17 1700.12 1393.8C1703.78 1390.28 1708.33 1388.52 1713.76 1388.52C1719.18 1388.52 1723.66 1390.28 1727.18 1393.8C1730.84 1397.17 1732.68 1401.43 1732.68 1406.56C1732.68 1411.69 1730.84 1416.02 1727.18 1419.54C1723.66 1422.91 1719.18 1424.6 1713.76 1424.6ZM1728.94 1439.12V1561H1698.14V1439.12H1728.94ZM1806.01 1562.98C1796.03 1562.98 1787.09 1561.22 1779.17 1557.7C1771.25 1554.03 1764.94 1549.12 1760.25 1542.96C1755.7 1536.8 1753.21 1529.98 1752.77 1522.5H1783.79C1784.37 1527.19 1786.65 1531.08 1790.61 1534.16C1794.71 1537.24 1799.77 1538.78 1805.79 1538.78C1811.65 1538.78 1816.2 1537.61 1819.43 1535.26C1822.8 1532.91 1824.49 1529.91 1824.49 1526.24C1824.49 1522.28 1822.43 1519.35 1818.33 1517.44C1814.37 1515.39 1807.99 1513.19 1799.19 1510.84C1790.09 1508.64 1782.61 1506.37 1776.75 1504.02C1771.03 1501.67 1766.04 1498.08 1761.79 1493.24C1757.68 1488.4 1755.63 1481.87 1755.63 1473.66C1755.63 1466.91 1757.53 1460.75 1761.35 1455.18C1765.31 1449.61 1770.88 1445.21 1778.07 1441.98C1785.4 1438.75 1793.98 1437.14 1803.81 1437.14C1818.33 1437.14 1829.91 1440.81 1838.57 1448.14C1847.22 1455.33 1851.99 1465.08 1852.87 1477.4H1823.39C1822.95 1472.56 1820.89 1468.75 1817.23 1465.96C1813.71 1463.03 1808.94 1461.56 1802.93 1461.56C1797.35 1461.56 1793.03 1462.59 1789.95 1464.64C1787.01 1466.69 1785.55 1469.55 1785.55 1473.22C1785.55 1477.33 1787.6 1480.48 1791.71 1482.68C1795.81 1484.73 1802.19 1486.86 1810.85 1489.06C1819.65 1491.26 1826.91 1493.53 1832.63 1495.88C1838.35 1498.23 1843.26 1501.89 1847.37 1506.88C1851.62 1511.72 1853.82 1518.17 1853.97 1526.24C1853.97 1533.28 1851.99 1539.59 1848.03 1545.16C1844.21 1550.73 1838.64 1555.13 1831.31 1558.36C1824.12 1561.44 1815.69 1562.98 1806.01 1562.98ZM1923.75 1499.62C1923.75 1487.3 1926.17 1476.37 1931.01 1466.84C1936 1457.31 1942.67 1449.97 1951.03 1444.84C1959.54 1439.71 1969 1437.14 1979.41 1437.14C1988.51 1437.14 1996.43 1438.97 2003.17 1442.64C2010.07 1446.31 2015.57 1450.93 2019.67 1456.5V1439.12H2050.69V1561H2019.67V1543.18C2015.71 1548.9 2010.21 1553.67 2003.17 1557.48C1996.28 1561.15 1988.29 1562.98 1979.19 1562.98C1968.93 1562.98 1959.54 1560.34 1951.03 1555.06C1942.67 1549.78 1936 1542.37 1931.01 1532.84C1926.17 1523.16 1923.75 1512.09 1923.75 1499.62ZM2019.67 1500.06C2019.67 1492.58 2018.21 1486.2 2015.27 1480.92C2012.34 1475.49 2008.38 1471.39 2003.39 1468.6C1998.41 1465.67 1993.05 1464.2 1987.33 1464.2C1981.61 1464.2 1976.33 1465.59 1971.49 1468.38C1966.65 1471.17 1962.69 1475.27 1959.61 1480.7C1956.68 1485.98 1955.21 1492.29 1955.21 1499.62C1955.21 1506.95 1956.68 1513.41 1959.61 1518.98C1962.69 1524.41 1966.65 1528.59 1971.49 1531.52C1976.48 1534.45 1981.76 1535.92 1987.33 1535.92C1993.05 1535.92 1998.41 1534.53 2003.39 1531.74C2008.38 1528.81 2012.34 1524.7 2015.27 1519.42C2018.21 1513.99 2019.67 1507.54 2019.67 1500.06ZM2260.58 1407.44V1561H2229.78V1495.66H2164V1561H2133.2V1407.44H2164V1470.58H2229.78V1407.44H2260.58ZM2404.19 1497.42C2404.19 1501.82 2403.9 1505.78 2403.31 1509.3H2314.21C2314.94 1518.1 2318.02 1524.99 2323.45 1529.98C2328.88 1534.97 2335.55 1537.46 2343.47 1537.46C2354.91 1537.46 2363.05 1532.55 2367.89 1522.72H2401.11C2397.59 1534.45 2390.84 1544.13 2380.87 1551.76C2370.9 1559.24 2358.65 1562.98 2344.13 1562.98C2332.4 1562.98 2321.84 1560.41 2312.45 1555.28C2303.21 1550 2295.95 1542.59 2290.67 1533.06C2285.54 1523.53 2282.97 1512.53 2282.97 1500.06C2282.97 1487.45 2285.54 1476.37 2290.67 1466.84C2295.8 1457.31 2302.99 1449.97 2312.23 1444.84C2321.47 1439.71 2332.1 1437.14 2344.13 1437.14C2355.72 1437.14 2366.06 1439.63 2375.15 1444.62C2384.39 1449.61 2391.5 1456.72 2396.49 1465.96C2401.62 1475.05 2404.19 1485.54 2404.19 1497.42ZM2372.29 1488.62C2372.14 1480.7 2369.28 1474.39 2363.71 1469.7C2358.14 1464.86 2351.32 1462.44 2343.25 1462.44C2335.62 1462.44 2329.17 1464.79 2323.89 1469.48C2318.76 1474.03 2315.6 1480.41 2314.43 1488.62H2372.29ZM2418.75 1499.62C2418.75 1487.3 2421.17 1476.37 2426.01 1466.84C2431 1457.31 2437.67 1449.97 2446.03 1444.84C2454.54 1439.71 2464 1437.14 2474.41 1437.14C2483.51 1437.14 2491.43 1438.97 2498.17 1442.64C2505.07 1446.31 2510.57 1450.93 2514.67 1456.5V1439.12H2545.69V1561H2514.67V1543.18C2510.71 1548.9 2505.21 1553.67 2498.17 1557.48C2491.28 1561.15 2483.29 1562.98 2474.19 1562.98C2463.93 1562.98 2454.54 1560.34 2446.03 1555.06C2437.67 1549.78 2431 1542.37 2426.01 1532.84C2421.17 1523.16 2418.75 1512.09 2418.75 1499.62ZM2514.67 1500.06C2514.67 1492.58 2513.21 1486.2 2510.27 1480.92C2507.34 1475.49 2503.38 1471.39 2498.39 1468.6C2493.41 1465.67 2488.05 1464.2 2482.33 1464.2C2476.61 1464.2 2471.33 1465.59 2466.49 1468.38C2461.65 1471.17 2457.69 1475.27 2454.61 1480.7C2451.68 1485.98 2450.21 1492.29 2450.21 1499.62C2450.21 1506.95 2451.68 1513.41 2454.61 1518.98C2457.69 1524.41 2461.65 1528.59 2466.49 1531.52C2471.48 1534.45 2476.76 1535.92 2482.33 1535.92C2488.05 1535.92 2493.41 1534.53 2498.39 1531.74C2503.38 1528.81 2507.34 1524.7 2510.27 1519.42C2513.21 1513.99 2514.67 1507.54 2514.67 1500.06ZM2567.85 1499.62C2567.85 1487.3 2570.27 1476.37 2575.11 1466.84C2580.1 1457.31 2586.85 1449.97 2595.35 1444.84C2603.86 1439.71 2613.32 1437.14 2623.73 1437.14C2631.65 1437.14 2639.21 1438.9 2646.39 1442.42C2653.58 1445.79 2659.3 1450.34 2663.55 1456.06V1398.2H2694.79V1561H2663.55V1542.96C2659.74 1548.97 2654.39 1553.81 2647.49 1557.48C2640.6 1561.15 2632.61 1562.98 2623.51 1562.98C2613.25 1562.98 2603.86 1560.34 2595.35 1555.06C2586.85 1549.78 2580.1 1542.37 2575.11 1532.84C2570.27 1523.16 2567.85 1512.09 2567.85 1499.62ZM2663.77 1500.06C2663.77 1492.58 2662.31 1486.2 2659.37 1480.92C2656.44 1475.49 2652.48 1471.39 2647.49 1468.6C2642.51 1465.67 2637.15 1464.2 2631.43 1464.2C2625.71 1464.2 2620.43 1465.59 2615.59 1468.38C2610.75 1471.17 2606.79 1475.27 2603.71 1480.7C2600.78 1485.98 2599.31 1492.29 2599.31 1499.62C2599.31 1506.95 2600.78 1513.41 2603.71 1518.98C2606.79 1524.41 2610.75 1528.59 2615.59 1531.52C2620.58 1534.45 2625.86 1535.92 2631.43 1535.92C2637.15 1535.92 2642.51 1534.53 2647.49 1531.74C2652.48 1528.81 2656.44 1524.7 2659.37 1519.42C2662.31 1513.99 2663.77 1507.54 2663.77 1500.06ZM2740.5 1424.6C2735.07 1424.6 2730.52 1422.91 2726.86 1419.54C2723.34 1416.02 2721.58 1411.69 2721.58 1406.56C2721.58 1401.43 2723.34 1397.17 2726.86 1393.8C2730.52 1390.28 2735.07 1388.52 2740.5 1388.52C2745.92 1388.52 2750.4 1390.28 2753.92 1393.8C2757.58 1397.17 2759.42 1401.43 2759.42 1406.56C2759.42 1411.69 2757.58 1416.02 2753.92 1419.54C2750.4 1422.91 2745.92 1424.6 2740.5 1424.6ZM2755.68 1439.12V1561H2724.88V1439.12H2755.68ZM2853.65 1437.36C2868.17 1437.36 2879.9 1441.98 2888.85 1451.22C2897.79 1460.31 2902.27 1473.07 2902.27 1489.5V1561H2871.47V1493.68C2871.47 1484 2869.05 1476.59 2864.21 1471.46C2859.37 1466.18 2852.77 1463.54 2844.41 1463.54C2835.9 1463.54 2829.15 1466.18 2824.17 1471.46C2819.33 1476.59 2816.91 1484 2816.91 1493.68V1561H2786.11V1439.12H2816.91V1454.3C2821.01 1449.02 2826.22 1444.91 2832.53 1441.98C2838.98 1438.9 2846.02 1437.36 2853.65 1437.36ZM2979.3 1437.14C2988.39 1437.14 2996.38 1438.97 3003.28 1442.64C3010.17 1446.16 3015.6 1450.78 3019.56 1456.5V1439.12H3050.58V1561.88C3050.58 1573.17 3048.3 1583.22 3043.76 1592.02C3039.21 1600.97 3032.39 1608.01 3023.3 1613.14C3014.2 1618.42 3003.2 1621.06 2990.3 1621.06C2972.99 1621.06 2958.76 1617.03 2947.62 1608.96C2936.62 1600.89 2930.38 1589.89 2928.92 1575.96H2959.5C2961.11 1581.53 2964.56 1585.93 2969.84 1589.16C2975.26 1592.53 2981.79 1594.22 2989.42 1594.22C2998.36 1594.22 3005.62 1591.51 3011.2 1586.08C3016.77 1580.8 3019.56 1572.73 3019.56 1561.88V1542.96C3015.6 1548.68 3010.1 1553.45 3003.06 1557.26C2996.16 1561.07 2988.24 1562.98 2979.3 1562.98C2969.03 1562.98 2959.64 1560.34 2951.14 1555.06C2942.63 1549.78 2935.88 1542.37 2930.89 1532.84C2926.05 1523.16 2923.63 1512.09 2923.63 1499.62C2923.63 1487.3 2926.05 1476.37 2930.89 1466.84C2935.88 1457.31 2942.56 1449.97 2950.92 1444.84C2959.42 1439.71 2968.88 1437.14 2979.3 1437.14ZM3019.56 1500.06C3019.56 1492.58 3018.09 1486.2 3015.16 1480.92C3012.22 1475.49 3008.26 1471.39 3003.28 1468.6C2998.29 1465.67 2992.94 1464.2 2987.22 1464.2C2981.5 1464.2 2976.22 1465.59 2971.38 1468.38C2966.54 1471.17 2962.58 1475.27 2959.5 1480.7C2956.56 1485.98 2955.1 1492.29 2955.1 1499.62C2955.1 1506.95 2956.56 1513.41 2959.5 1518.98C2962.58 1524.41 2966.54 1528.59 2971.38 1531.52C2976.36 1534.45 2981.64 1535.92 2987.22 1535.92C2992.94 1535.92 2998.29 1534.53 3003.28 1531.74C3008.26 1528.81 3012.22 1524.7 3015.16 1519.42C3018.09 1513.99 3019.56 1507.54 3019.56 1500.06Z" fill="black"/>
<path d="M669.56 1407.44V1561H638.76V1495.66H572.98V1561H542.18V1407.44H572.98V1470.58H638.76V1407.44H669.56ZM696.795 1442.86C697.529 1428.19 702.662 1416.9 712.195 1408.98C721.875 1400.91 734.562 1396.88 750.255 1396.88C760.962 1396.88 770.129 1398.79 777.755 1402.6C785.382 1406.27 791.102 1411.33 794.915 1417.78C798.875 1424.09 800.855 1431.27 800.855 1439.34C800.855 1448.58 798.435 1456.43 793.595 1462.88C788.902 1469.19 783.255 1473.44 776.655 1475.64V1476.52C785.162 1479.16 791.762 1483.85 796.455 1490.6C801.295 1497.35 803.715 1506 803.715 1516.56C803.715 1525.36 801.662 1533.21 797.555 1540.1C793.595 1546.99 787.655 1552.42 779.735 1556.38C771.962 1560.19 762.575 1562.1 751.575 1562.1C735.002 1562.1 721.509 1557.92 711.095 1549.56C700.682 1541.2 695.182 1528.88 694.595 1512.6H724.515C724.809 1519.79 727.229 1525.58 731.775 1529.98C736.469 1534.23 742.849 1536.36 750.915 1536.36C758.395 1536.36 764.115 1534.31 768.075 1530.2C772.182 1525.95 774.235 1520.52 774.235 1513.92C774.235 1505.12 771.449 1498.81 765.875 1495C760.302 1491.19 751.649 1489.28 739.915 1489.28H733.535V1463.98H739.915C760.742 1463.98 771.155 1457.01 771.155 1443.08C771.155 1436.77 769.249 1431.86 765.435 1428.34C761.769 1424.82 756.415 1423.06 749.375 1423.06C742.482 1423.06 737.129 1424.97 733.315 1428.78C729.649 1432.45 727.522 1437.14 726.935 1442.86H696.795Z" fill="black"/>
<path d="M1264.04 1713.32V1731.4H1234.28V1825H1211.88V1731.4H1182.12V1713.32H1264.04ZM1330.3 1735.08C1337.02 1735.08 1343 1736.57 1348.22 1739.56C1353.45 1742.44 1357.5 1746.76 1360.38 1752.52C1363.37 1758.17 1364.86 1765 1364.86 1773V1825H1342.46V1776.04C1342.46 1769 1340.7 1763.61 1337.18 1759.88C1333.66 1756.04 1328.86 1754.12 1322.78 1754.12C1316.6 1754.12 1311.69 1756.04 1308.06 1759.88C1304.54 1763.61 1302.78 1769 1302.78 1776.04V1825H1280.38V1706.6H1302.78V1747.4C1305.66 1743.56 1309.5 1740.57 1314.3 1738.44C1319.1 1736.2 1324.44 1735.08 1330.3 1735.08ZM1397.53 1725.8C1393.58 1725.8 1390.27 1724.57 1387.61 1722.12C1385.05 1719.56 1383.77 1716.41 1383.77 1712.68C1383.77 1708.95 1385.05 1705.85 1387.61 1703.4C1390.27 1700.84 1393.58 1699.56 1397.53 1699.56C1401.47 1699.56 1404.73 1700.84 1407.29 1703.4C1409.95 1705.85 1411.29 1708.95 1411.29 1712.68C1411.29 1716.41 1409.95 1719.56 1407.29 1722.12C1404.73 1724.57 1401.47 1725.8 1397.53 1725.8ZM1408.57 1736.36V1825H1386.17V1736.36H1408.57ZM1464.62 1826.44C1457.36 1826.44 1450.86 1825.16 1445.1 1822.6C1439.34 1819.93 1434.75 1816.36 1431.34 1811.88C1428.03 1807.4 1426.22 1802.44 1425.9 1797H1448.46C1448.88 1800.41 1450.54 1803.24 1453.42 1805.48C1456.4 1807.72 1460.08 1808.84 1464.46 1808.84C1468.72 1808.84 1472.03 1807.99 1474.38 1806.28C1476.83 1804.57 1478.06 1802.39 1478.06 1799.72C1478.06 1796.84 1476.56 1794.71 1473.58 1793.32C1470.7 1791.83 1466.06 1790.23 1459.66 1788.52C1453.04 1786.92 1447.6 1785.27 1443.34 1783.56C1439.18 1781.85 1435.55 1779.24 1432.46 1775.72C1429.47 1772.2 1427.98 1767.45 1427.98 1761.48C1427.98 1756.57 1429.36 1752.09 1432.14 1748.04C1435.02 1743.99 1439.07 1740.79 1444.3 1738.44C1449.63 1736.09 1455.87 1734.92 1463.02 1734.92C1473.58 1734.92 1482 1737.59 1488.3 1742.92C1494.59 1748.15 1498.06 1755.24 1498.7 1764.2H1477.26C1476.94 1760.68 1475.44 1757.91 1472.78 1755.88C1470.22 1753.75 1466.75 1752.68 1462.38 1752.68C1458.32 1752.68 1455.18 1753.43 1452.94 1754.92C1450.8 1756.41 1449.74 1758.49 1449.74 1761.16C1449.74 1764.15 1451.23 1766.44 1454.22 1768.04C1457.2 1769.53 1461.84 1771.08 1468.14 1772.68C1474.54 1774.28 1479.82 1775.93 1483.98 1777.64C1488.14 1779.35 1491.71 1782.01 1494.7 1785.64C1497.79 1789.16 1499.39 1793.85 1499.5 1799.72C1499.5 1804.84 1498.06 1809.43 1495.18 1813.48C1492.4 1817.53 1488.35 1820.73 1483.02 1823.08C1477.79 1825.32 1471.66 1826.44 1464.62 1826.44ZM1567.37 1725.8C1563.42 1725.8 1560.12 1724.57 1557.45 1722.12C1554.89 1719.56 1553.61 1716.41 1553.61 1712.68C1553.61 1708.95 1554.89 1705.85 1557.45 1703.4C1560.12 1700.84 1563.42 1699.56 1567.37 1699.56C1571.32 1699.56 1574.57 1700.84 1577.13 1703.4C1579.8 1705.85 1581.13 1708.95 1581.13 1712.68C1581.13 1716.41 1579.8 1719.56 1577.13 1722.12C1574.57 1724.57 1571.32 1725.8 1567.37 1725.8ZM1578.41 1736.36V1825H1556.01V1736.36H1578.41ZM1634.46 1826.44C1627.21 1826.44 1620.7 1825.16 1614.94 1822.6C1609.18 1819.93 1604.59 1816.36 1601.18 1811.88C1597.87 1807.4 1596.06 1802.44 1595.74 1797H1618.3C1618.73 1800.41 1620.38 1803.24 1623.26 1805.48C1626.25 1807.72 1629.93 1808.84 1634.3 1808.84C1638.57 1808.84 1641.87 1807.99 1644.22 1806.28C1646.67 1804.57 1647.9 1802.39 1647.9 1799.72C1647.9 1796.84 1646.41 1794.71 1643.42 1793.32C1640.54 1791.83 1635.9 1790.23 1629.5 1788.52C1622.89 1786.92 1617.45 1785.27 1613.18 1783.56C1609.02 1781.85 1605.39 1779.24 1602.3 1775.72C1599.31 1772.2 1597.82 1767.45 1597.82 1761.48C1597.82 1756.57 1599.21 1752.09 1601.98 1748.04C1604.86 1743.99 1608.91 1740.79 1614.14 1738.44C1619.47 1736.09 1625.71 1734.92 1632.86 1734.92C1643.42 1734.92 1651.85 1737.59 1658.14 1742.92C1664.43 1748.15 1667.9 1755.24 1668.54 1764.2H1647.1C1646.78 1760.68 1645.29 1757.91 1642.62 1755.88C1640.06 1753.75 1636.59 1752.68 1632.22 1752.68C1628.17 1752.68 1625.02 1753.43 1622.78 1754.92C1620.65 1756.41 1619.58 1758.49 1619.58 1761.16C1619.58 1764.15 1621.07 1766.44 1624.06 1768.04C1627.05 1769.53 1631.69 1771.08 1637.98 1772.68C1644.38 1774.28 1649.66 1775.93 1653.82 1777.64C1657.98 1779.35 1661.55 1782.01 1664.54 1785.64C1667.63 1789.16 1669.23 1793.85 1669.34 1799.72C1669.34 1804.84 1667.9 1809.43 1665.02 1813.48C1662.25 1817.53 1658.19 1820.73 1652.86 1823.08C1647.63 1825.32 1641.5 1826.44 1634.46 1826.44ZM1720.09 1780.36C1720.09 1771.4 1721.85 1763.45 1725.37 1756.52C1729 1749.59 1733.85 1744.25 1739.93 1740.52C1746.12 1736.79 1753 1734.92 1760.57 1734.92C1767.19 1734.92 1772.95 1736.25 1777.85 1738.92C1782.87 1741.59 1786.87 1744.95 1789.85 1749V1736.36H1812.41V1825H1789.85V1812.04C1786.97 1816.2 1782.97 1819.67 1777.85 1822.44C1772.84 1825.11 1767.03 1826.44 1760.41 1826.44C1752.95 1826.44 1746.12 1824.52 1739.93 1820.68C1733.85 1816.84 1729 1811.45 1725.37 1804.52C1721.85 1797.48 1720.09 1789.43 1720.09 1780.36ZM1789.85 1780.68C1789.85 1775.24 1788.79 1770.6 1786.65 1766.76C1784.52 1762.81 1781.64 1759.83 1778.01 1757.8C1774.39 1755.67 1770.49 1754.6 1766.33 1754.6C1762.17 1754.6 1758.33 1755.61 1754.81 1757.64C1751.29 1759.67 1748.41 1762.65 1746.17 1766.6C1744.04 1770.44 1742.97 1775.03 1742.97 1780.36C1742.97 1785.69 1744.04 1790.39 1746.17 1794.44C1748.41 1798.39 1751.29 1801.43 1754.81 1803.56C1758.44 1805.69 1762.28 1806.76 1766.33 1806.76C1770.49 1806.76 1774.39 1805.75 1778.01 1803.72C1781.64 1801.59 1784.52 1798.6 1786.65 1794.76C1788.79 1790.81 1789.85 1786.12 1789.85 1780.68ZM1965.06 1713.32V1825H1942.66V1777.48H1894.82V1825H1872.42V1713.32H1894.82V1759.24H1942.66V1713.32H1965.06ZM2069.5 1778.76C2069.5 1781.96 2069.29 1784.84 2068.86 1787.4H2004.06C2004.6 1793.8 2006.84 1798.81 2010.78 1802.44C2014.73 1806.07 2019.58 1807.88 2025.34 1807.88C2033.66 1807.88 2039.58 1804.31 2043.1 1797.16H2067.26C2064.7 1805.69 2059.8 1812.73 2052.54 1818.28C2045.29 1823.72 2036.38 1826.44 2025.82 1826.44C2017.29 1826.44 2009.61 1824.57 2002.78 1820.84C1996.06 1817 1990.78 1811.61 1986.94 1804.68C1983.21 1797.75 1981.34 1789.75 1981.34 1780.68C1981.34 1771.51 1983.21 1763.45 1986.94 1756.52C1990.68 1749.59 1995.9 1744.25 2002.62 1740.52C2009.34 1736.79 2017.08 1734.92 2025.82 1734.92C2034.25 1734.92 2041.77 1736.73 2048.38 1740.36C2055.1 1743.99 2060.28 1749.16 2063.9 1755.88C2067.64 1762.49 2069.5 1770.12 2069.5 1778.76ZM2046.3 1772.36C2046.2 1766.6 2044.12 1762.01 2040.06 1758.6C2036.01 1755.08 2031.05 1753.32 2025.18 1753.32C2019.64 1753.32 2014.94 1755.03 2011.1 1758.44C2007.37 1761.75 2005.08 1766.39 2004.22 1772.36H2046.3ZM2080.09 1780.36C2080.09 1771.4 2081.85 1763.45 2085.37 1756.52C2089 1749.59 2093.85 1744.25 2099.93 1740.52C2106.12 1736.79 2113 1734.92 2120.57 1734.92C2127.19 1734.92 2132.95 1736.25 2137.85 1738.92C2142.87 1741.59 2146.87 1744.95 2149.85 1749V1736.36H2172.41V1825H2149.85V1812.04C2146.97 1816.2 2142.97 1819.67 2137.85 1822.44C2132.84 1825.11 2127.03 1826.44 2120.41 1826.44C2112.95 1826.44 2106.12 1824.52 2099.93 1820.68C2093.85 1816.84 2089 1811.45 2085.37 1804.52C2081.85 1797.48 2080.09 1789.43 2080.09 1780.36ZM2149.85 1780.68C2149.85 1775.24 2148.79 1770.6 2146.65 1766.76C2144.52 1762.81 2141.64 1759.83 2138.01 1757.8C2134.39 1755.67 2130.49 1754.6 2126.33 1754.6C2122.17 1754.6 2118.33 1755.61 2114.81 1757.64C2111.29 1759.67 2108.41 1762.65 2106.17 1766.6C2104.04 1770.44 2102.97 1775.03 2102.97 1780.36C2102.97 1785.69 2104.04 1790.39 2106.17 1794.44C2108.41 1798.39 2111.29 1801.43 2114.81 1803.56C2118.44 1805.69 2122.28 1806.76 2126.33 1806.76C2130.49 1806.76 2134.39 1805.75 2138.01 1803.72C2141.64 1801.59 2144.52 1798.6 2146.65 1794.76C2148.79 1790.81 2149.85 1786.12 2149.85 1780.68ZM2188.53 1780.36C2188.53 1771.4 2190.29 1763.45 2193.81 1756.52C2197.44 1749.59 2202.34 1744.25 2208.53 1740.52C2214.72 1736.79 2221.6 1734.92 2229.17 1734.92C2234.93 1734.92 2240.42 1736.2 2245.65 1738.76C2250.88 1741.21 2255.04 1744.52 2258.13 1748.68V1706.6H2280.85V1825H2258.13V1811.88C2255.36 1816.25 2251.46 1819.77 2246.45 1822.44C2241.44 1825.11 2235.62 1826.44 2229.01 1826.44C2221.54 1826.44 2214.72 1824.52 2208.53 1820.68C2202.34 1816.84 2197.44 1811.45 2193.81 1804.52C2190.29 1797.48 2188.53 1789.43 2188.53 1780.36ZM2258.29 1780.68C2258.29 1775.24 2257.22 1770.6 2255.09 1766.76C2252.96 1762.81 2250.08 1759.83 2246.45 1757.8C2242.82 1755.67 2238.93 1754.6 2234.77 1754.6C2230.61 1754.6 2226.77 1755.61 2223.25 1757.64C2219.73 1759.67 2216.85 1762.65 2214.61 1766.6C2212.48 1770.44 2211.41 1775.03 2211.41 1780.36C2211.41 1785.69 2212.48 1790.39 2214.61 1794.44C2216.85 1798.39 2219.73 1801.43 2223.25 1803.56C2226.88 1805.69 2230.72 1806.76 2234.77 1806.76C2238.93 1806.76 2242.82 1805.75 2246.45 1803.72C2250.08 1801.59 2252.96 1798.6 2255.09 1794.76C2257.22 1790.81 2258.29 1786.12 2258.29 1780.68ZM2314.09 1725.8C2310.14 1725.8 2306.83 1724.57 2304.17 1722.12C2301.61 1719.56 2300.33 1716.41 2300.33 1712.68C2300.33 1708.95 2301.61 1705.85 2304.17 1703.4C2306.83 1700.84 2310.14 1699.56 2314.09 1699.56C2318.03 1699.56 2321.29 1700.84 2323.85 1703.4C2326.51 1705.85 2327.85 1708.95 2327.85 1712.68C2327.85 1716.41 2326.51 1719.56 2323.85 1722.12C2321.29 1724.57 2318.03 1725.8 2314.09 1725.8ZM2325.13 1736.36V1825H2302.73V1736.36H2325.13ZM2396.38 1735.08C2406.94 1735.08 2415.47 1738.44 2421.98 1745.16C2428.49 1751.77 2431.74 1761.05 2431.74 1773V1825H2409.34V1776.04C2409.34 1769 2407.58 1763.61 2404.06 1759.88C2400.54 1756.04 2395.74 1754.12 2389.66 1754.12C2383.47 1754.12 2378.57 1756.04 2374.94 1759.88C2371.42 1763.61 2369.66 1769 2369.66 1776.04V1825H2347.26V1736.36H2369.66V1747.4C2372.65 1743.56 2376.43 1740.57 2381.02 1738.44C2385.71 1736.2 2390.83 1735.08 2396.38 1735.08ZM2487.76 1734.92C2494.37 1734.92 2500.19 1736.25 2505.2 1738.92C2510.21 1741.48 2514.16 1744.84 2517.04 1749V1736.36H2539.6V1825.64C2539.6 1833.85 2537.95 1841.16 2534.64 1847.56C2531.33 1854.07 2526.37 1859.19 2519.76 1862.92C2513.15 1866.76 2505.15 1868.68 2495.76 1868.68C2483.17 1868.68 2472.83 1865.75 2464.72 1859.88C2456.72 1854.01 2452.19 1846.01 2451.12 1835.88H2473.36C2474.53 1839.93 2477.04 1843.13 2480.88 1845.48C2484.83 1847.93 2489.57 1849.16 2495.12 1849.16C2501.63 1849.16 2506.91 1847.19 2510.96 1843.24C2515.01 1839.4 2517.04 1833.53 2517.04 1825.64V1811.88C2514.16 1816.04 2510.16 1819.51 2505.04 1822.28C2500.03 1825.05 2494.27 1826.44 2487.76 1826.44C2480.29 1826.44 2473.47 1824.52 2467.28 1820.68C2461.09 1816.84 2456.19 1811.45 2452.56 1804.52C2449.04 1797.48 2447.28 1789.43 2447.28 1780.36C2447.28 1771.4 2449.04 1763.45 2452.56 1756.52C2456.19 1749.59 2461.04 1744.25 2467.12 1740.52C2473.31 1736.79 2480.19 1734.92 2487.76 1734.92ZM2517.04 1780.68C2517.04 1775.24 2515.97 1770.6 2513.84 1766.76C2511.71 1762.81 2508.83 1759.83 2505.2 1757.8C2501.57 1755.67 2497.68 1754.6 2493.52 1754.6C2489.36 1754.6 2485.52 1755.61 2482 1757.64C2478.48 1759.67 2475.6 1762.65 2473.36 1766.6C2471.23 1770.44 2470.16 1775.03 2470.16 1780.36C2470.16 1785.69 2471.23 1790.39 2473.36 1794.44C2475.6 1798.39 2478.48 1801.43 2482 1803.56C2485.63 1805.69 2489.47 1806.76 2493.52 1806.76C2497.68 1806.76 2501.57 1805.75 2505.2 1803.72C2508.83 1801.59 2511.71 1798.6 2513.84 1794.76C2515.97 1790.81 2517.04 1786.12 2517.04 1780.68Z" fill="black"/>
<path d="M630.68 1713.32V1825H608.28V1777.48H560.44V1825H538.04V1713.32H560.44V1759.24H608.28V1713.32H630.68ZM649.208 1802.28V1784.68L701.528 1709.8H727.608V1782.76H741.688V1802.28H727.608V1825H705.208V1802.28H649.208ZM706.648 1733.8L673.848 1782.76H706.648V1733.8Z" fill="black"/>
<path d="M1242.28 1937.24V1950.8H1219.96V2021H1203.16V1950.8H1180.84V1937.24H1242.28ZM1291.98 1953.56C1297.02 1953.56 1301.5 1954.68 1305.42 1956.92C1309.34 1959.08 1312.38 1962.32 1314.54 1966.64C1316.78 1970.88 1317.9 1976 1317.9 1982V2021H1301.1V1984.28C1301.1 1979 1299.78 1974.96 1297.14 1972.16C1294.5 1969.28 1290.9 1967.84 1286.34 1967.84C1281.7 1967.84 1278.02 1969.28 1275.3 1972.16C1272.66 1974.96 1271.34 1979 1271.34 1984.28V2021H1254.54V1932.2H1271.34V1962.8C1273.5 1959.92 1276.38 1957.68 1279.98 1956.08C1283.58 1954.4 1287.58 1953.56 1291.98 1953.56ZM1342.39 1946.6C1339.43 1946.6 1336.95 1945.68 1334.95 1943.84C1333.03 1941.92 1332.07 1939.56 1332.07 1936.76C1332.07 1933.96 1333.03 1931.64 1334.95 1929.8C1336.95 1927.88 1339.43 1926.92 1342.39 1926.92C1345.35 1926.92 1347.79 1927.88 1349.71 1929.8C1351.71 1931.64 1352.71 1933.96 1352.71 1936.76C1352.71 1939.56 1351.71 1941.92 1349.71 1943.84C1347.79 1945.68 1345.35 1946.6 1342.39 1946.6ZM1350.67 1954.52V2021H1333.87V1954.52H1350.67ZM1392.71 2022.08C1387.27 2022.08 1382.39 2021.12 1378.07 2019.2C1373.75 2017.2 1370.31 2014.52 1367.75 2011.16C1365.27 2007.8 1363.91 2004.08 1363.67 2000H1380.59C1380.91 2002.56 1382.15 2004.68 1384.31 2006.36C1386.55 2008.04 1389.31 2008.88 1392.59 2008.88C1395.79 2008.88 1398.27 2008.24 1400.03 2006.96C1401.87 2005.68 1402.79 2004.04 1402.79 2002.04C1402.79 1999.88 1401.67 1998.28 1399.43 1997.24C1397.27 1996.12 1393.79 1994.92 1388.99 1993.64C1384.03 1992.44 1379.95 1991.2 1376.75 1989.92C1373.63 1988.64 1370.91 1986.68 1368.59 1984.04C1366.35 1981.4 1365.23 1977.84 1365.23 1973.36C1365.23 1969.68 1366.27 1966.32 1368.35 1963.28C1370.51 1960.24 1373.55 1957.84 1377.47 1956.08C1381.47 1954.32 1386.15 1953.44 1391.51 1953.44C1399.43 1953.44 1405.75 1955.44 1410.47 1959.44C1415.19 1963.36 1417.79 1968.68 1418.27 1975.4H1402.19C1401.95 1972.76 1400.83 1970.68 1398.83 1969.16C1396.91 1967.56 1394.31 1966.76 1391.03 1966.76C1387.99 1966.76 1385.63 1967.32 1383.95 1968.44C1382.35 1969.56 1381.55 1971.12 1381.55 1973.12C1381.55 1975.36 1382.67 1977.08 1384.91 1978.28C1387.15 1979.4 1390.63 1980.56 1395.35 1981.76C1400.15 1982.96 1404.11 1984.2 1407.23 1985.48C1410.35 1986.76 1413.03 1988.76 1415.27 1991.48C1417.59 1994.12 1418.79 1997.64 1418.87 2002.04C1418.87 2005.88 1417.79 2009.32 1415.63 2012.36C1413.55 2015.4 1410.51 2017.8 1406.51 2019.56C1402.59 2021.24 1397.99 2022.08 1392.71 2022.08ZM1469.78 1946.6C1466.82 1946.6 1464.34 1945.68 1462.34 1943.84C1460.42 1941.92 1459.46 1939.56 1459.46 1936.76C1459.46 1933.96 1460.42 1931.64 1462.34 1929.8C1464.34 1927.88 1466.82 1926.92 1469.78 1926.92C1472.74 1926.92 1475.18 1927.88 1477.1 1929.8C1479.1 1931.64 1480.1 1933.96 1480.1 1936.76C1480.1 1939.56 1479.1 1941.92 1477.1 1943.84C1475.18 1945.68 1472.74 1946.6 1469.78 1946.6ZM1478.06 1954.52V2021H1461.26V1954.52H1478.06ZM1520.1 2022.08C1514.66 2022.08 1509.78 2021.12 1505.46 2019.2C1501.14 2017.2 1497.7 2014.52 1495.14 2011.16C1492.66 2007.8 1491.3 2004.08 1491.06 2000H1507.98C1508.3 2002.56 1509.54 2004.68 1511.7 2006.36C1513.94 2008.04 1516.7 2008.88 1519.98 2008.88C1523.18 2008.88 1525.66 2008.24 1527.42 2006.96C1529.26 2005.68 1530.18 2004.04 1530.18 2002.04C1530.18 1999.88 1529.06 1998.28 1526.82 1997.24C1524.66 1996.12 1521.18 1994.92 1516.38 1993.64C1511.42 1992.44 1507.34 1991.2 1504.14 1989.92C1501.02 1988.64 1498.3 1986.68 1495.98 1984.04C1493.74 1981.4 1492.62 1977.84 1492.62 1973.36C1492.62 1969.68 1493.66 1966.32 1495.74 1963.28C1497.9 1960.24 1500.94 1957.84 1504.86 1956.08C1508.86 1954.32 1513.54 1953.44 1518.9 1953.44C1526.82 1953.44 1533.14 1955.44 1537.86 1959.44C1542.58 1963.36 1545.18 1968.68 1545.66 1975.4H1529.58C1529.34 1972.76 1528.22 1970.68 1526.22 1969.16C1524.3 1967.56 1521.7 1966.76 1518.42 1966.76C1515.38 1966.76 1513.02 1967.32 1511.34 1968.44C1509.74 1969.56 1508.94 1971.12 1508.94 1973.12C1508.94 1975.36 1510.06 1977.08 1512.3 1978.28C1514.54 1979.4 1518.02 1980.56 1522.74 1981.76C1527.54 1982.96 1531.5 1984.2 1534.62 1985.48C1537.74 1986.76 1540.42 1988.76 1542.66 1991.48C1544.98 1994.12 1546.18 1997.64 1546.26 2002.04C1546.26 2005.88 1545.18 2009.32 1543.02 2012.36C1540.94 2015.4 1537.9 2017.8 1533.9 2019.56C1529.98 2021.24 1525.38 2022.08 1520.1 2022.08ZM1584.32 1987.52C1584.32 1980.8 1585.64 1974.84 1588.28 1969.64C1591 1964.44 1594.64 1960.44 1599.2 1957.64C1603.84 1954.84 1609 1953.44 1614.68 1953.44C1619.64 1953.44 1623.96 1954.44 1627.64 1956.44C1631.4 1958.44 1634.4 1960.96 1636.64 1964V1954.52H1653.56V2021H1636.64V2011.28C1634.48 2014.4 1631.48 2017 1627.64 2019.08C1623.88 2021.08 1619.52 2022.08 1614.56 2022.08C1608.96 2022.08 1603.84 2020.64 1599.2 2017.76C1594.64 2014.88 1591 2010.84 1588.28 2005.64C1585.64 2000.36 1584.32 1994.32 1584.32 1987.52ZM1636.64 1987.76C1636.64 1983.68 1635.84 1980.2 1634.24 1977.32C1632.64 1974.36 1630.48 1972.12 1627.76 1970.6C1625.04 1969 1622.12 1968.2 1619 1968.2C1615.88 1968.2 1613 1968.96 1610.36 1970.48C1607.72 1972 1605.56 1974.24 1603.88 1977.2C1602.28 1980.08 1601.48 1983.52 1601.48 1987.52C1601.48 1991.52 1602.28 1995.04 1603.88 1998.08C1605.56 2001.04 1607.72 2003.32 1610.36 2004.92C1613.08 2006.52 1615.96 2007.32 1619 2007.32C1622.12 2007.32 1625.04 2006.56 1627.76 2005.04C1630.48 2003.44 1632.64 2001.2 1634.24 1998.32C1635.84 1995.36 1636.64 1991.84 1636.64 1987.76ZM1768.04 1937.24V2021H1751.24V1985.36H1715.36V2021H1698.56V1937.24H1715.36V1971.68H1751.24V1937.24H1768.04ZM1846.38 1986.32C1846.38 1988.72 1846.22 1990.88 1845.9 1992.8H1797.3C1797.7 1997.6 1799.38 2001.36 1802.34 2004.08C1805.3 2006.8 1808.94 2008.16 1813.26 2008.16C1819.5 2008.16 1823.94 2005.48 1826.58 2000.12H1844.7C1842.78 2006.52 1839.1 2011.8 1833.66 2015.96C1828.22 2020.04 1821.54 2022.08 1813.62 2022.08C1807.22 2022.08 1801.46 2020.68 1796.34 2017.88C1791.3 2015 1787.34 2010.96 1784.46 2005.76C1781.66 2000.56 1780.26 1994.56 1780.26 1987.76C1780.26 1980.88 1781.66 1974.84 1784.46 1969.64C1787.26 1964.44 1791.18 1960.44 1796.22 1957.64C1801.26 1954.84 1807.06 1953.44 1813.62 1953.44C1819.94 1953.44 1825.58 1954.8 1830.54 1957.52C1835.58 1960.24 1839.46 1964.12 1842.18 1969.16C1844.98 1974.12 1846.38 1979.84 1846.38 1986.32ZM1828.98 1981.52C1828.9 1977.2 1827.34 1973.76 1824.3 1971.2C1821.26 1968.56 1817.54 1967.24 1813.14 1967.24C1808.98 1967.24 1805.46 1968.52 1802.58 1971.08C1799.78 1973.56 1798.06 1977.04 1797.42 1981.52H1828.98ZM1854.32 1987.52C1854.32 1980.8 1855.64 1974.84 1858.28 1969.64C1861 1964.44 1864.64 1960.44 1869.2 1957.64C1873.84 1954.84 1879 1953.44 1884.68 1953.44C1889.64 1953.44 1893.96 1954.44 1897.64 1956.44C1901.4 1958.44 1904.4 1960.96 1906.64 1964V1954.52H1923.56V2021H1906.64V2011.28C1904.48 2014.4 1901.48 2017 1897.64 2019.08C1893.88 2021.08 1889.52 2022.08 1884.56 2022.08C1878.96 2022.08 1873.84 2020.64 1869.2 2017.76C1864.64 2014.88 1861 2010.84 1858.28 2005.64C1855.64 2000.36 1854.32 1994.32 1854.32 1987.52ZM1906.64 1987.76C1906.64 1983.68 1905.84 1980.2 1904.24 1977.32C1902.64 1974.36 1900.48 1972.12 1897.76 1970.6C1895.04 1969 1892.12 1968.2 1889 1968.2C1885.88 1968.2 1883 1968.96 1880.36 1970.48C1877.72 1972 1875.56 1974.24 1873.88 1977.2C1872.28 1980.08 1871.48 1983.52 1871.48 1987.52C1871.48 1991.52 1872.28 1995.04 1873.88 1998.08C1875.56 2001.04 1877.72 2003.32 1880.36 2004.92C1883.08 2006.52 1885.96 2007.32 1889 2007.32C1892.12 2007.32 1895.04 2006.56 1897.76 2005.04C1900.48 2003.44 1902.64 2001.2 1904.24 1998.32C1905.84 1995.36 1906.64 1991.84 1906.64 1987.76ZM1935.65 1987.52C1935.65 1980.8 1936.97 1974.84 1939.61 1969.64C1942.33 1964.44 1946.01 1960.44 1950.65 1957.64C1955.29 1954.84 1960.45 1953.44 1966.13 1953.44C1970.45 1953.44 1974.57 1954.4 1978.49 1956.32C1982.41 1958.16 1985.53 1960.64 1987.85 1963.76V1932.2H2004.89V2021H1987.85V2011.16C1985.77 2014.44 1982.85 2017.08 1979.09 2019.08C1975.33 2021.08 1970.97 2022.08 1966.01 2022.08C1960.41 2022.08 1955.29 2020.64 1950.65 2017.76C1946.01 2014.88 1942.33 2010.84 1939.61 2005.64C1936.97 2000.36 1935.65 1994.32 1935.65 1987.52ZM1987.97 1987.76C1987.97 1983.68 1987.17 1980.2 1985.57 1977.32C1983.97 1974.36 1981.81 1972.12 1979.09 1970.6C1976.37 1969 1973.45 1968.2 1970.33 1968.2C1967.21 1968.2 1964.33 1968.96 1961.69 1970.48C1959.05 1972 1956.89 1974.24 1955.21 1977.2C1953.61 1980.08 1952.81 1983.52 1952.81 1987.52C1952.81 1991.52 1953.61 1995.04 1955.21 1998.08C1956.89 2001.04 1959.05 2003.32 1961.69 2004.92C1964.41 2006.52 1967.29 2007.32 1970.33 2007.32C1973.45 2007.32 1976.37 2006.56 1979.09 2005.04C1981.81 2003.44 1983.97 2001.2 1985.57 1998.32C1987.17 1995.36 1987.97 1991.84 1987.97 1987.76ZM2029.82 1946.6C2026.86 1946.6 2024.38 1945.68 2022.38 1943.84C2020.46 1941.92 2019.5 1939.56 2019.5 1936.76C2019.5 1933.96 2020.46 1931.64 2022.38 1929.8C2024.38 1927.88 2026.86 1926.92 2029.82 1926.92C2032.78 1926.92 2035.22 1927.88 2037.14 1929.8C2039.14 1931.64 2040.14 1933.96 2040.14 1936.76C2040.14 1939.56 2039.14 1941.92 2037.14 1943.84C2035.22 1945.68 2032.78 1946.6 2029.82 1946.6ZM2038.1 1954.52V2021H2021.3V1954.52H2038.1ZM2091.53 1953.56C2099.45 1953.56 2105.85 1956.08 2110.73 1961.12C2115.61 1966.08 2118.05 1973.04 2118.05 1982V2021H2101.25V1984.28C2101.25 1979 2099.93 1974.96 2097.29 1972.16C2094.65 1969.28 2091.05 1967.84 2086.49 1967.84C2081.85 1967.84 2078.17 1969.28 2075.45 1972.16C2072.81 1974.96 2071.49 1979 2071.49 1984.28V2021H2054.69V1954.52H2071.49V1962.8C2073.73 1959.92 2076.57 1957.68 2080.01 1956.08C2083.53 1954.4 2087.37 1953.56 2091.53 1953.56ZM2160.07 1953.44C2165.03 1953.44 2169.39 1954.44 2173.15 1956.44C2176.91 1958.36 2179.87 1960.88 2182.03 1964V1954.52H2198.95V2021.48C2198.95 2027.64 2197.71 2033.12 2195.23 2037.92C2192.75 2042.8 2189.03 2046.64 2184.07 2049.44C2179.11 2052.32 2173.11 2053.76 2166.07 2053.76C2156.63 2053.76 2148.87 2051.56 2142.79 2047.16C2136.79 2042.76 2133.39 2036.76 2132.59 2029.16H2149.27C2150.15 2032.2 2152.03 2034.6 2154.91 2036.36C2157.87 2038.2 2161.43 2039.12 2165.59 2039.12C2170.47 2039.12 2174.43 2037.64 2177.47 2034.68C2180.51 2031.8 2182.03 2027.4 2182.03 2021.48V2011.16C2179.87 2014.28 2176.87 2016.88 2173.03 2018.96C2169.27 2021.04 2164.95 2022.08 2160.07 2022.08C2154.47 2022.08 2149.35 2020.64 2144.71 2017.76C2140.07 2014.88 2136.39 2010.84 2133.67 2005.64C2131.03 2000.36 2129.71 1994.32 2129.71 1987.52C2129.71 1980.8 2131.03 1974.84 2133.67 1969.64C2136.39 1964.44 2140.03 1960.44 2144.59 1957.64C2149.23 1954.84 2154.39 1953.44 2160.07 1953.44ZM2182.03 1987.76C2182.03 1983.68 2181.23 1980.2 2179.63 1977.32C2178.03 1974.36 2175.87 1972.12 2173.15 1970.6C2170.43 1969 2167.51 1968.2 2164.39 1968.2C2161.27 1968.2 2158.39 1968.96 2155.75 1970.48C2153.11 1972 2150.95 1974.24 2149.27 1977.2C2147.67 1980.08 2146.87 1983.52 2146.87 1987.52C2146.87 1991.52 2147.67 1995.04 2149.27 1998.08C2150.95 2001.04 2153.11 2003.32 2155.75 2004.92C2158.47 2006.52 2161.35 2007.32 2164.39 2007.32C2167.51 2007.32 2170.43 2006.56 2173.15 2005.04C2175.87 2003.44 2178.03 2001.2 2179.63 1998.32C2181.23 1995.36 2182.03 1991.84 2182.03 1987.76Z" fill="black"/>
<path d="M604.76 1937.24V2021H587.96V1985.36H552.08V2021H535.28V1937.24H552.08V1971.68H587.96V1937.24H604.76ZM678.176 1948.04H639.296V1968.56C640.976 1966.48 643.376 1964.8 646.496 1963.52C649.616 1962.16 652.936 1961.48 656.456 1961.48C662.856 1961.48 668.096 1962.88 672.176 1965.68C676.256 1968.48 679.216 1972.08 681.056 1976.48C682.896 1980.8 683.816 1985.44 683.816 1990.4C683.816 1999.6 681.176 2007 675.896 2012.6C670.696 2018.2 663.256 2021 653.576 2021C644.456 2021 637.176 2018.72 631.736 2014.16C626.296 2009.6 623.216 2003.64 622.496 1996.28H638.816C639.536 1999.48 641.136 2002.04 643.616 2003.96C646.176 2005.88 649.416 2006.84 653.336 2006.84C658.056 2006.84 661.616 2005.36 664.016 2002.4C666.416 1999.44 667.616 1995.52 667.616 1990.64C667.616 1985.68 666.376 1981.92 663.896 1979.36C661.496 1976.72 657.936 1975.4 653.216 1975.4C649.856 1975.4 647.056 1976.24 644.816 1977.92C642.576 1979.6 640.976 1981.84 640.016 1984.64H623.936V1933.28H678.176V1948.04Z" fill="black"/>
<path d="M1225.96 2105.18V2115.35H1209.22V2168H1196.62V2115.35H1179.88V2105.18H1225.96ZM1263.23 2117.42C1267.01 2117.42 1270.37 2118.26 1273.31 2119.94C1276.25 2121.56 1278.53 2123.99 1280.15 2127.23C1281.83 2130.41 1282.67 2134.25 1282.67 2138.75V2168H1270.07V2140.46C1270.07 2136.5 1269.08 2133.47 1267.1 2131.37C1265.12 2129.21 1262.42 2128.13 1259 2128.13C1255.52 2128.13 1252.76 2129.21 1250.72 2131.37C1248.74 2133.47 1247.75 2136.5 1247.75 2140.46V2168H1235.15V2101.4H1247.75V2124.35C1249.37 2122.19 1251.53 2120.51 1254.23 2119.31C1256.93 2118.05 1259.93 2117.42 1263.23 2117.42ZM1301.05 2112.2C1298.83 2112.2 1296.97 2111.51 1295.47 2110.13C1294.03 2108.69 1293.31 2106.92 1293.31 2104.82C1293.31 2102.72 1294.03 2100.98 1295.47 2099.6C1296.97 2098.16 1298.83 2097.44 1301.05 2097.44C1303.27 2097.44 1305.1 2098.16 1306.54 2099.6C1308.04 2100.98 1308.79 2102.72 1308.79 2104.82C1308.79 2106.92 1308.04 2108.69 1306.54 2110.13C1305.1 2111.51 1303.27 2112.2 1301.05 2112.2ZM1307.26 2118.14V2168H1294.66V2118.14H1307.26ZM1338.78 2168.81C1334.7 2168.81 1331.04 2168.09 1327.8 2166.65C1324.56 2165.15 1321.98 2163.14 1320.06 2160.62C1318.2 2158.1 1317.18 2155.31 1317 2152.25H1329.69C1329.93 2154.17 1330.86 2155.76 1332.48 2157.02C1334.16 2158.28 1336.23 2158.91 1338.69 2158.91C1341.09 2158.91 1342.95 2158.43 1344.27 2157.47C1345.65 2156.51 1346.34 2155.28 1346.34 2153.78C1346.34 2152.16 1345.5 2150.96 1343.82 2150.18C1342.2 2149.34 1339.59 2148.44 1335.99 2147.48C1332.27 2146.58 1329.21 2145.65 1326.81 2144.69C1324.47 2143.73 1322.43 2142.26 1320.69 2140.28C1319.01 2138.3 1318.17 2135.63 1318.17 2132.27C1318.17 2129.51 1318.95 2126.99 1320.51 2124.71C1322.13 2122.43 1324.41 2120.63 1327.35 2119.31C1330.35 2117.99 1333.86 2117.33 1337.88 2117.33C1343.82 2117.33 1348.56 2118.83 1352.1 2121.83C1355.64 2124.77 1357.59 2128.76 1357.95 2133.8H1345.89C1345.71 2131.82 1344.87 2130.26 1343.37 2129.12C1341.93 2127.92 1339.98 2127.32 1337.52 2127.32C1335.24 2127.32 1333.47 2127.74 1332.21 2128.58C1331.01 2129.42 1330.41 2130.59 1330.41 2132.09C1330.41 2133.77 1331.25 2135.06 1332.93 2135.96C1334.61 2136.8 1337.22 2137.67 1340.76 2138.57C1344.36 2139.47 1347.33 2140.4 1349.67 2141.36C1352.01 2142.32 1354.02 2143.82 1355.7 2145.86C1357.44 2147.84 1358.34 2150.48 1358.4 2153.78C1358.4 2156.66 1357.59 2159.24 1355.97 2161.52C1354.41 2163.8 1352.13 2165.6 1349.13 2166.92C1346.19 2168.18 1342.74 2168.81 1338.78 2168.81ZM1396.58 2112.2C1394.36 2112.2 1392.5 2111.51 1391 2110.13C1389.56 2108.69 1388.84 2106.92 1388.84 2104.82C1388.84 2102.72 1389.56 2100.98 1391 2099.6C1392.5 2098.16 1394.36 2097.44 1396.58 2097.44C1398.8 2097.44 1400.63 2098.16 1402.07 2099.6C1403.57 2100.98 1404.32 2102.72 1404.32 2104.82C1404.32 2106.92 1403.57 2108.69 1402.07 2110.13C1400.63 2111.51 1398.8 2112.2 1396.58 2112.2ZM1402.79 2118.14V2168H1390.19V2118.14H1402.79ZM1434.32 2168.81C1430.24 2168.81 1426.58 2168.09 1423.34 2166.65C1420.1 2165.15 1417.52 2163.14 1415.6 2160.62C1413.74 2158.1 1412.72 2155.31 1412.54 2152.25H1425.23C1425.47 2154.17 1426.4 2155.76 1428.02 2157.02C1429.7 2158.28 1431.77 2158.91 1434.23 2158.91C1436.63 2158.91 1438.49 2158.43 1439.81 2157.47C1441.19 2156.51 1441.88 2155.28 1441.88 2153.78C1441.88 2152.16 1441.04 2150.96 1439.36 2150.18C1437.74 2149.34 1435.13 2148.44 1431.53 2147.48C1427.81 2146.58 1424.75 2145.65 1422.35 2144.69C1420.01 2143.73 1417.97 2142.26 1416.23 2140.28C1414.55 2138.3 1413.71 2135.63 1413.71 2132.27C1413.71 2129.51 1414.49 2126.99 1416.05 2124.71C1417.67 2122.43 1419.95 2120.63 1422.89 2119.31C1425.89 2117.99 1429.4 2117.33 1433.42 2117.33C1439.36 2117.33 1444.1 2118.83 1447.64 2121.83C1451.18 2124.77 1453.13 2128.76 1453.49 2133.8H1441.43C1441.25 2131.82 1440.41 2130.26 1438.91 2129.12C1437.47 2127.92 1435.52 2127.32 1433.06 2127.32C1430.78 2127.32 1429.01 2127.74 1427.75 2128.58C1426.55 2129.42 1425.95 2130.59 1425.95 2132.09C1425.95 2133.77 1426.79 2135.06 1428.47 2135.96C1430.15 2136.8 1432.76 2137.67 1436.3 2138.57C1439.9 2139.47 1442.87 2140.4 1445.21 2141.36C1447.55 2142.32 1449.56 2143.82 1451.24 2145.86C1452.98 2147.84 1453.88 2150.48 1453.94 2153.78C1453.94 2156.66 1453.13 2159.24 1451.51 2161.52C1449.95 2163.8 1447.67 2165.6 1444.67 2166.92C1441.73 2168.18 1438.28 2168.81 1434.32 2168.81ZM1482.49 2142.89C1482.49 2137.85 1483.48 2133.38 1485.46 2129.48C1487.5 2125.58 1490.23 2122.58 1493.65 2120.48C1497.13 2118.38 1501 2117.33 1505.26 2117.33C1508.98 2117.33 1512.22 2118.08 1514.98 2119.58C1517.8 2121.08 1520.05 2122.97 1521.73 2125.25V2118.14H1534.42V2168H1521.73V2160.71C1520.11 2163.05 1517.86 2165 1514.98 2166.56C1512.16 2168.06 1508.89 2168.81 1505.17 2168.81C1500.97 2168.81 1497.13 2167.73 1493.65 2165.57C1490.23 2163.41 1487.5 2160.38 1485.46 2156.48C1483.48 2152.52 1482.49 2147.99 1482.49 2142.89ZM1521.73 2143.07C1521.73 2140.01 1521.13 2137.4 1519.93 2135.24C1518.73 2133.02 1517.11 2131.34 1515.07 2130.2C1513.03 2129 1510.84 2128.4 1508.5 2128.4C1506.16 2128.4 1504 2128.97 1502.02 2130.11C1500.04 2131.25 1498.42 2132.93 1497.16 2135.15C1495.96 2137.31 1495.36 2139.89 1495.36 2142.89C1495.36 2145.89 1495.96 2148.53 1497.16 2150.81C1498.42 2153.03 1500.04 2154.74 1502.02 2155.94C1504.06 2157.14 1506.22 2157.74 1508.5 2157.74C1510.84 2157.74 1513.03 2157.17 1515.07 2156.03C1517.11 2154.83 1518.73 2153.15 1519.93 2150.99C1521.13 2148.77 1521.73 2146.13 1521.73 2143.07ZM1620.28 2105.18V2168H1607.68V2141.27H1580.77V2168H1568.17V2105.18H1580.77V2131.01H1607.68V2105.18H1620.28ZM1679.03 2141.99C1679.03 2143.79 1678.91 2145.41 1678.67 2146.85H1642.22C1642.52 2150.45 1643.78 2153.27 1646 2155.31C1648.22 2157.35 1650.95 2158.37 1654.19 2158.37C1658.87 2158.37 1662.2 2156.36 1664.18 2152.34H1677.77C1676.33 2157.14 1673.57 2161.1 1669.49 2164.22C1665.41 2167.28 1660.4 2168.81 1654.46 2168.81C1649.66 2168.81 1645.34 2167.76 1641.5 2165.66C1637.72 2163.5 1634.75 2160.47 1632.59 2156.57C1630.49 2152.67 1629.44 2148.17 1629.44 2143.07C1629.44 2137.91 1630.49 2133.38 1632.59 2129.48C1634.69 2125.58 1637.63 2122.58 1641.41 2120.48C1645.19 2118.38 1649.54 2117.33 1654.46 2117.33C1659.2 2117.33 1663.43 2118.35 1667.15 2120.39C1670.93 2122.43 1673.84 2125.34 1675.88 2129.12C1677.98 2132.84 1679.03 2137.13 1679.03 2141.99ZM1665.98 2138.39C1665.92 2135.15 1664.75 2132.57 1662.47 2130.65C1660.19 2128.67 1657.4 2127.68 1654.1 2127.68C1650.98 2127.68 1648.34 2128.64 1646.18 2130.56C1644.08 2132.42 1642.79 2135.03 1642.31 2138.39H1665.98ZM1684.99 2142.89C1684.99 2137.85 1685.98 2133.38 1687.96 2129.48C1690 2125.58 1692.73 2122.58 1696.15 2120.48C1699.63 2118.38 1703.5 2117.33 1707.76 2117.33C1711.48 2117.33 1714.72 2118.08 1717.48 2119.58C1720.3 2121.08 1722.55 2122.97 1724.23 2125.25V2118.14H1736.92V2168H1724.23V2160.71C1722.61 2163.05 1720.36 2165 1717.48 2166.56C1714.66 2168.06 1711.39 2168.81 1707.67 2168.81C1703.47 2168.81 1699.63 2167.73 1696.15 2165.57C1692.73 2163.41 1690 2160.38 1687.96 2156.48C1685.98 2152.52 1684.99 2147.99 1684.99 2142.89ZM1724.23 2143.07C1724.23 2140.01 1723.63 2137.4 1722.43 2135.24C1721.23 2133.02 1719.61 2131.34 1717.57 2130.2C1715.53 2129 1713.34 2128.4 1711 2128.4C1708.66 2128.4 1706.5 2128.97 1704.52 2130.11C1702.54 2131.25 1700.92 2132.93 1699.66 2135.15C1698.46 2137.31 1697.86 2139.89 1697.86 2142.89C1697.86 2145.89 1698.46 2148.53 1699.66 2150.81C1700.92 2153.03 1702.54 2154.74 1704.52 2155.94C1706.56 2157.14 1708.72 2157.74 1711 2157.74C1713.34 2157.74 1715.53 2157.17 1717.57 2156.03C1719.61 2154.83 1721.23 2153.15 1722.43 2150.99C1723.63 2148.77 1724.23 2146.13 1724.23 2143.07ZM1745.99 2142.89C1745.99 2137.85 1746.98 2133.38 1748.96 2129.48C1751 2125.58 1753.76 2122.58 1757.24 2120.48C1760.72 2118.38 1764.59 2117.33 1768.85 2117.33C1772.09 2117.33 1775.18 2118.05 1778.12 2119.49C1781.06 2120.87 1783.4 2122.73 1785.14 2125.07V2101.4H1797.92V2168H1785.14V2160.62C1783.58 2163.08 1781.39 2165.06 1778.57 2166.56C1775.75 2168.06 1772.48 2168.81 1768.76 2168.81C1764.56 2168.81 1760.72 2167.73 1757.24 2165.57C1753.76 2163.41 1751 2160.38 1748.96 2156.48C1746.98 2152.52 1745.99 2147.99 1745.99 2142.89ZM1785.23 2143.07C1785.23 2140.01 1784.63 2137.4 1783.43 2135.24C1782.23 2133.02 1780.61 2131.34 1778.57 2130.2C1776.53 2129 1774.34 2128.4 1772 2128.4C1769.66 2128.4 1767.5 2128.97 1765.52 2130.11C1763.54 2131.25 1761.92 2132.93 1760.66 2135.15C1759.46 2137.31 1758.86 2139.89 1758.86 2142.89C1758.86 2145.89 1759.46 2148.53 1760.66 2150.81C1761.92 2153.03 1763.54 2154.74 1765.52 2155.94C1767.56 2157.14 1769.72 2157.74 1772 2157.74C1774.34 2157.74 1776.53 2157.17 1778.57 2156.03C1780.61 2154.83 1782.23 2153.15 1783.43 2150.99C1784.63 2148.77 1785.23 2146.13 1785.23 2143.07ZM1816.61 2112.2C1814.39 2112.2 1812.53 2111.51 1811.03 2110.13C1809.59 2108.69 1808.87 2106.92 1808.87 2104.82C1808.87 2102.72 1809.59 2100.98 1811.03 2099.6C1812.53 2098.16 1814.39 2097.44 1816.61 2097.44C1818.83 2097.44 1820.66 2098.16 1822.1 2099.6C1823.6 2100.98 1824.35 2102.72 1824.35 2104.82C1824.35 2106.92 1823.6 2108.69 1822.1 2110.13C1820.66 2111.51 1818.83 2112.2 1816.61 2112.2ZM1822.82 2118.14V2168H1810.22V2118.14H1822.82ZM1862.9 2117.42C1868.84 2117.42 1873.64 2119.31 1877.3 2123.09C1880.96 2126.81 1882.79 2132.03 1882.79 2138.75V2168H1870.19V2140.46C1870.19 2136.5 1869.2 2133.47 1867.22 2131.37C1865.24 2129.21 1862.54 2128.13 1859.12 2128.13C1855.64 2128.13 1852.88 2129.21 1850.84 2131.37C1848.86 2133.47 1847.87 2136.5 1847.87 2140.46V2168H1835.27V2118.14H1847.87V2124.35C1849.55 2122.19 1851.68 2120.51 1854.26 2119.31C1856.9 2118.05 1859.78 2117.42 1862.9 2117.42ZM1914.3 2117.33C1918.02 2117.33 1921.29 2118.08 1924.11 2119.58C1926.93 2121.02 1929.15 2122.91 1930.77 2125.25V2118.14H1943.46V2168.36C1943.46 2172.98 1942.53 2177.09 1940.67 2180.69C1938.81 2184.35 1936.02 2187.23 1932.3 2189.33C1928.58 2191.49 1924.08 2192.57 1918.8 2192.57C1911.72 2192.57 1905.9 2190.92 1901.34 2187.62C1896.84 2184.32 1894.29 2179.82 1893.69 2174.12H1906.2C1906.86 2176.4 1908.27 2178.2 1910.43 2179.52C1912.65 2180.9 1915.32 2181.59 1918.44 2181.59C1922.1 2181.59 1925.07 2180.48 1927.35 2178.26C1929.63 2176.1 1930.77 2172.8 1930.77 2168.36V2160.62C1929.15 2162.96 1926.9 2164.91 1924.02 2166.47C1921.2 2168.03 1917.96 2168.81 1914.3 2168.81C1910.1 2168.81 1906.26 2167.73 1902.78 2165.57C1899.3 2163.41 1896.54 2160.38 1894.5 2156.48C1892.52 2152.52 1891.53 2147.99 1891.53 2142.89C1891.53 2137.85 1892.52 2133.38 1894.5 2129.48C1896.54 2125.58 1899.27 2122.58 1902.69 2120.48C1906.17 2118.38 1910.04 2117.33 1914.3 2117.33ZM1930.77 2143.07C1930.77 2140.01 1930.17 2137.4 1928.97 2135.24C1927.77 2133.02 1926.15 2131.34 1924.11 2130.2C1922.07 2129 1919.88 2128.4 1917.54 2128.4C1915.2 2128.4 1913.04 2128.97 1911.06 2130.11C1909.08 2131.25 1907.46 2132.93 1906.2 2135.15C1905 2137.31 1904.4 2139.89 1904.4 2142.89C1904.4 2145.89 1905 2148.53 1906.2 2150.81C1907.46 2153.03 1909.08 2154.74 1911.06 2155.94C1913.1 2157.14 1915.26 2157.74 1917.54 2157.74C1919.88 2157.74 1922.07 2157.17 1924.11 2156.03C1926.15 2154.83 1927.77 2153.15 1928.97 2150.99C1930.17 2148.77 1930.77 2146.13 1930.77 2143.07Z" fill="black"/>
<path d="M585.32 2105.18V2168H572.72V2141.27H545.81V2168H533.21V2105.18H545.81V2131.01H572.72V2105.18H585.32ZM630.302 2118.77C629.702 2116.25 628.652 2114.36 627.152 2113.1C625.712 2111.84 623.612 2111.21 620.852 2111.21C616.712 2111.21 613.652 2112.89 611.672 2116.25C609.752 2119.55 608.762 2124.95 608.702 2132.45C610.142 2130.05 612.242 2128.19 615.002 2126.87C617.762 2125.49 620.762 2124.8 624.002 2124.8C627.902 2124.8 631.352 2125.64 634.352 2127.32C637.352 2129 639.692 2131.46 641.372 2134.7C643.052 2137.88 643.892 2141.72 643.892 2146.22C643.892 2150.48 643.022 2154.29 641.282 2157.65C639.602 2160.95 637.112 2163.53 633.812 2165.39C630.512 2167.25 626.582 2168.18 622.022 2168.18C615.782 2168.18 610.862 2166.8 607.262 2164.04C603.722 2161.28 601.232 2157.44 599.792 2152.52C598.412 2147.54 597.722 2141.42 597.722 2134.16C597.722 2123.18 599.612 2114.9 603.392 2109.32C607.172 2103.68 613.142 2100.86 621.302 2100.86C627.602 2100.86 632.492 2102.57 635.972 2105.99C639.452 2109.41 641.462 2113.67 642.002 2118.77H630.302ZM621.122 2135.15C617.942 2135.15 615.272 2136.08 613.112 2137.94C610.952 2139.8 609.872 2142.5 609.872 2146.04C609.872 2149.58 610.862 2152.37 612.842 2154.41C614.882 2156.45 617.732 2157.47 621.392 2157.47C624.632 2157.47 627.182 2156.48 629.042 2154.5C630.962 2152.52 631.922 2149.85 631.922 2146.49C631.922 2143.01 630.992 2140.25 629.132 2138.21C627.332 2136.17 624.662 2135.15 621.122 2135.15Z" fill="black"/>
<line x1="1097.5" y1="2313.12" x2="1097.5" y2="324" stroke="black" stroke-width="3"/>
<rect x="4" y="4" width="4413" height="2585" stroke="black" stroke-width="8"/>
</svg>
