<svg width="5053" height="3583" viewBox="0 0 5053 3583" fill="none" xmlns="http://www.w3.org/2000/svg">
<rect x="4" y="4" width="5045" height="3575" stroke="black" stroke-width="8"/>
<line x1="910.5" y1="2966.51" x2="910.5" y2="618" stroke="black" stroke-width="3"/>
<path d="M1172.68 754.104V774.824H1119.48V949.264H1094V774.824H1040.52V754.104H1172.68ZM1280.2 793.024C1291.78 793.024 1302.23 795.544 1311.56 800.584C1320.9 805.437 1328.18 812.811 1333.4 822.704C1338.82 832.597 1341.52 844.637 1341.52 858.824V949.264H1316.32V862.464C1316.32 847.157 1312.5 835.491 1304.84 827.464C1297.19 819.251 1286.74 815.144 1273.48 815.144C1260.04 815.144 1249.31 819.344 1241.28 827.744C1233.44 836.144 1229.52 848.371 1229.52 864.424V949.264H1204.04V742.064H1229.52V817.664C1234.56 809.824 1241.47 803.757 1250.24 799.464C1259.2 795.171 1269.19 793.024 1280.2 793.024ZM1396.31 770.904C1391.45 770.904 1387.35 769.224 1383.99 765.864C1380.63 762.504 1378.95 758.397 1378.95 753.544C1378.95 748.691 1380.63 744.584 1383.99 741.224C1387.35 737.864 1391.45 736.184 1396.31 736.184C1400.97 736.184 1404.89 737.864 1408.07 741.224C1411.43 744.584 1413.11 748.691 1413.11 753.544C1413.11 758.397 1411.43 762.504 1408.07 765.864C1404.89 769.224 1400.97 770.904 1396.31 770.904ZM1408.63 795.824V949.264H1383.15V795.824H1408.63ZM1506.37 951.784C1494.61 951.784 1484.07 949.824 1474.73 945.904C1465.4 941.797 1458.03 936.197 1452.61 929.104C1447.2 921.824 1444.21 913.517 1443.65 904.184H1469.97C1470.72 911.837 1474.27 918.091 1480.61 922.944C1487.15 927.797 1495.64 930.224 1506.09 930.224C1515.8 930.224 1523.45 928.077 1529.05 923.784C1534.65 919.491 1537.45 914.077 1537.45 907.544C1537.45 900.824 1534.47 895.877 1528.49 892.704C1522.52 889.344 1513.28 886.077 1500.77 882.904C1489.39 879.917 1480.05 876.931 1472.77 873.944C1465.68 870.771 1459.52 866.197 1454.29 860.224C1449.25 854.064 1446.73 846.037 1446.73 836.144C1446.73 828.304 1449.07 821.117 1453.73 814.584C1458.4 808.051 1465.03 802.917 1473.61 799.184C1482.2 795.264 1492 793.304 1503.01 793.304C1520 793.304 1533.72 797.597 1544.17 806.184C1554.63 814.771 1560.23 826.531 1560.97 841.464H1535.49C1534.93 833.437 1531.67 826.997 1525.69 822.144C1519.91 817.291 1512.07 814.864 1502.17 814.864C1493.03 814.864 1485.75 816.824 1480.33 820.744C1474.92 824.664 1472.21 829.797 1472.21 836.144C1472.21 841.184 1473.8 845.384 1476.97 848.744C1480.33 851.917 1484.44 854.531 1489.29 856.584C1494.33 858.451 1501.24 860.597 1510.01 863.024C1521.03 866.011 1529.99 868.997 1536.89 871.984C1543.8 874.784 1549.68 879.077 1554.53 884.864C1559.57 890.651 1562.19 898.211 1562.37 907.544C1562.37 915.944 1560.04 923.504 1555.37 930.224C1550.71 936.944 1544.08 942.264 1535.49 946.184C1527.09 949.917 1517.39 951.784 1506.37 951.784ZM1686.15 770.904C1681.3 770.904 1677.19 769.224 1673.83 765.864C1670.47 762.504 1668.79 758.397 1668.79 753.544C1668.79 748.691 1670.47 744.584 1673.83 741.224C1677.19 737.864 1681.3 736.184 1686.15 736.184C1690.82 736.184 1694.74 737.864 1697.91 741.224C1701.27 744.584 1702.95 748.691 1702.95 753.544C1702.95 758.397 1701.27 762.504 1697.91 765.864C1694.74 769.224 1690.82 770.904 1686.15 770.904ZM1698.47 795.824V949.264H1672.99V795.824H1698.47ZM1796.22 951.784C1784.46 951.784 1773.91 949.824 1764.58 945.904C1755.24 941.797 1747.87 936.197 1742.46 929.104C1737.04 921.824 1734.06 913.517 1733.5 904.184H1759.82C1760.56 911.837 1764.11 918.091 1770.46 922.944C1776.99 927.797 1785.48 930.224 1795.94 930.224C1805.64 930.224 1813.3 928.077 1818.9 923.784C1824.5 919.491 1827.3 914.077 1827.3 907.544C1827.3 900.824 1824.31 895.877 1818.34 892.704C1812.36 889.344 1803.12 886.077 1790.62 882.904C1779.23 879.917 1769.9 876.931 1762.62 873.944C1755.52 870.771 1749.36 866.197 1744.14 860.224C1739.1 854.064 1736.58 846.037 1736.58 836.144C1736.58 828.304 1738.91 821.117 1743.58 814.584C1748.24 808.051 1754.87 802.917 1763.46 799.184C1772.04 795.264 1781.84 793.304 1792.86 793.304C1809.84 793.304 1823.56 797.597 1834.02 806.184C1844.47 814.771 1850.07 826.531 1850.82 841.464H1825.34C1824.78 833.437 1821.51 826.997 1815.54 822.144C1809.75 817.291 1801.91 814.864 1792.02 814.864C1782.87 814.864 1775.59 816.824 1770.18 820.744C1764.76 824.664 1762.06 829.797 1762.06 836.144C1762.06 841.184 1763.64 845.384 1766.82 848.744C1770.18 851.917 1774.28 854.531 1779.14 856.584C1784.18 858.451 1791.08 860.597 1799.86 863.024C1810.87 866.011 1819.83 868.997 1826.74 871.984C1833.64 874.784 1839.52 879.077 1844.38 884.864C1849.42 890.651 1852.03 898.211 1852.22 907.544C1852.22 915.944 1849.88 923.504 1845.22 930.224C1840.55 936.944 1833.92 942.264 1825.34 946.184C1816.94 949.917 1807.23 951.784 1796.22 951.784ZM1953.31 871.984C1953.31 856.304 1956.49 842.584 1962.83 830.824C1969.18 818.877 1977.86 809.637 1988.87 803.104C2000.07 796.571 2012.49 793.304 2026.11 793.304C2039.55 793.304 2051.22 796.197 2061.11 801.984C2071.01 807.771 2078.38 815.051 2083.23 823.824V795.824H2108.99V949.264H2083.23V920.704C2078.19 929.664 2070.63 937.131 2060.55 943.104C2050.66 948.891 2039.09 951.784 2025.83 951.784C2012.21 951.784 1999.89 948.424 1988.87 941.704C1977.86 934.984 1969.18 925.557 1962.83 913.424C1956.49 901.291 1953.31 887.477 1953.31 871.984ZM2083.23 872.264C2083.23 860.691 2080.9 850.611 2076.23 842.024C2071.57 833.437 2065.22 826.904 2057.19 822.424C2049.35 817.757 2040.67 815.424 2031.15 815.424C2021.63 815.424 2012.95 817.664 2005.11 822.144C1997.27 826.624 1991.02 833.157 1986.35 841.744C1981.69 850.331 1979.35 860.411 1979.35 871.984C1979.35 883.744 1981.69 894.011 1986.35 902.784C1991.02 911.371 1997.27 917.997 2005.11 922.664C2012.95 927.144 2021.63 929.384 2031.15 929.384C2040.67 929.384 2049.35 927.144 2057.19 922.664C2065.22 917.997 2071.57 911.371 2076.23 902.784C2080.9 894.011 2083.23 883.837 2083.23 872.264ZM2252.18 824.104C2257.22 815.331 2264.69 808.051 2274.58 802.264C2284.66 796.291 2296.33 793.304 2309.58 793.304C2323.21 793.304 2335.53 796.571 2346.54 803.104C2357.74 809.637 2366.51 818.877 2372.86 830.824C2379.21 842.584 2382.38 856.304 2382.38 871.984C2382.38 887.477 2379.21 901.291 2372.86 913.424C2366.51 925.557 2357.74 934.984 2346.54 941.704C2335.53 948.424 2323.21 951.784 2309.58 951.784C2296.51 951.784 2284.94 948.891 2274.86 943.104C2264.97 937.131 2257.41 929.757 2252.18 920.984V1022.06H2226.7V795.824H2252.18V824.104ZM2356.34 871.984C2356.34 860.411 2354.01 850.331 2349.34 841.744C2344.67 833.157 2338.33 826.624 2330.3 822.144C2322.46 817.664 2313.78 815.424 2304.26 815.424C2294.93 815.424 2286.25 817.757 2278.22 822.424C2270.38 826.904 2264.03 833.531 2259.18 842.304C2254.51 850.891 2252.18 860.877 2252.18 872.264C2252.18 883.837 2254.51 894.011 2259.18 902.784C2264.03 911.371 2270.38 917.997 2278.22 922.664C2286.25 927.144 2294.93 929.384 2304.26 929.384C2313.78 929.384 2322.46 927.144 2330.3 922.664C2338.33 917.997 2344.67 911.371 2349.34 902.784C2354.01 894.011 2356.34 883.744 2356.34 871.984ZM2406.4 871.984C2406.4 856.304 2409.57 842.584 2415.92 830.824C2422.27 818.877 2430.95 809.637 2441.96 803.104C2453.16 796.571 2465.57 793.304 2479.2 793.304C2492.64 793.304 2504.31 796.197 2514.2 801.984C2524.09 807.771 2531.47 815.051 2536.32 823.824V795.824H2562.08V949.264H2536.32V920.704C2531.28 929.664 2523.72 937.131 2513.64 943.104C2503.75 948.891 2492.17 951.784 2478.92 951.784C2465.29 951.784 2452.97 948.424 2441.96 941.704C2430.95 934.984 2422.27 925.557 2415.92 913.424C2409.57 901.291 2406.4 887.477 2406.4 871.984ZM2536.32 872.264C2536.32 860.691 2533.99 850.611 2529.32 842.024C2524.65 833.437 2518.31 826.904 2510.28 822.424C2502.44 817.757 2493.76 815.424 2484.24 815.424C2474.72 815.424 2466.04 817.664 2458.2 822.144C2450.36 826.624 2444.11 833.157 2439.44 841.744C2434.77 850.331 2432.44 860.411 2432.44 871.984C2432.44 883.744 2434.77 894.011 2439.44 902.784C2444.11 911.371 2450.36 917.997 2458.2 922.664C2466.04 927.144 2474.72 929.384 2484.24 929.384C2493.76 929.384 2502.44 927.144 2510.28 922.664C2518.31 917.997 2524.65 911.371 2529.32 902.784C2533.99 894.011 2536.32 883.837 2536.32 872.264ZM2630.62 820.744C2635.1 811.971 2641.44 805.157 2649.66 800.304C2658.06 795.451 2668.23 793.024 2680.18 793.024V819.344H2673.46C2644.9 819.344 2630.62 834.837 2630.62 865.824V949.264H2605.14V795.824H2630.62V820.744ZM2700.07 871.984C2700.07 856.304 2703.24 842.584 2709.59 830.824C2715.94 818.877 2724.62 809.637 2735.63 803.104C2746.83 796.571 2759.24 793.304 2772.87 793.304C2786.31 793.304 2797.98 796.197 2807.87 801.984C2817.76 807.771 2825.14 815.051 2829.99 823.824V795.824H2855.75V949.264H2829.99V920.704C2824.95 929.664 2817.39 937.131 2807.31 943.104C2797.42 948.891 2785.84 951.784 2772.59 951.784C2758.96 951.784 2746.64 948.424 2735.63 941.704C2724.62 934.984 2715.94 925.557 2709.59 913.424C2703.24 901.291 2700.07 887.477 2700.07 871.984ZM2829.99 872.264C2829.99 860.691 2827.66 850.611 2822.99 842.024C2818.32 833.437 2811.98 826.904 2803.95 822.424C2796.11 817.757 2787.43 815.424 2777.91 815.424C2768.39 815.424 2759.71 817.664 2751.87 822.144C2744.03 826.624 2737.78 833.157 2733.11 841.744C2728.44 850.331 2726.11 860.411 2726.11 871.984C2726.11 883.744 2728.44 894.011 2733.11 902.784C2737.78 911.371 2744.03 917.997 2751.87 922.664C2759.71 927.144 2768.39 929.384 2777.91 929.384C2787.43 929.384 2796.11 927.144 2803.95 922.664C2811.98 917.997 2818.32 911.371 2822.99 902.784C2827.66 894.011 2829.99 883.837 2829.99 872.264ZM2962.09 793.304C2975.34 793.304 2986.92 796.197 2996.81 801.984C3006.89 807.771 3014.36 815.051 3019.21 823.824V795.824H3044.97V952.624C3044.97 966.624 3041.98 979.037 3036.01 989.864C3030.04 1000.88 3021.45 1009.46 3010.25 1015.62C2999.24 1021.78 2986.36 1024.86 2971.61 1024.86C2951.45 1024.86 2934.65 1020.1 2921.21 1010.58C2907.77 1001.06 2899.84 988.091 2897.41 971.664H2922.61C2925.41 980.997 2931.2 988.464 2939.97 994.064C2948.74 999.851 2959.29 1002.74 2971.61 1002.74C2985.61 1002.74 2997 998.357 3005.77 989.584C3014.73 980.811 3019.21 968.491 3019.21 952.624V920.424C3014.17 929.384 3006.7 936.851 2996.81 942.824C2986.92 948.797 2975.34 951.784 2962.09 951.784C2948.46 951.784 2936.05 948.424 2924.85 941.704C2913.84 934.984 2905.16 925.557 2898.81 913.424C2892.46 901.291 2889.29 887.477 2889.29 871.984C2889.29 856.304 2892.46 842.584 2898.81 830.824C2905.16 818.877 2913.84 809.637 2924.85 803.104C2936.05 796.571 2948.46 793.304 2962.09 793.304ZM3019.21 872.264C3019.21 860.691 3016.88 850.611 3012.21 842.024C3007.54 833.437 3001.2 826.904 2993.17 822.424C2985.33 817.757 2976.65 815.424 2967.13 815.424C2957.61 815.424 2948.93 817.664 2941.09 822.144C2933.25 826.624 2927 833.157 2922.33 841.744C2917.66 850.331 2915.33 860.411 2915.33 871.984C2915.33 883.744 2917.66 894.011 2922.33 902.784C2927 911.371 2933.25 917.997 2941.09 922.664C2948.93 927.144 2957.61 929.384 2967.13 929.384C2976.65 929.384 2985.33 927.144 2993.17 922.664C3001.2 917.997 3007.54 911.371 3012.21 902.784C3016.88 894.011 3019.21 883.837 3019.21 872.264ZM3113.51 820.744C3117.99 811.971 3124.34 805.157 3132.55 800.304C3140.95 795.451 3151.12 793.024 3163.07 793.024V819.344H3156.35C3127.79 819.344 3113.51 834.837 3113.51 865.824V949.264H3088.03V795.824H3113.51V820.744ZM3182.96 871.984C3182.96 856.304 3186.14 842.584 3192.48 830.824C3198.83 818.877 3207.51 809.637 3218.52 803.104C3229.72 796.571 3242.14 793.304 3255.76 793.304C3269.2 793.304 3280.87 796.197 3290.76 801.984C3300.66 807.771 3308.03 815.051 3312.88 823.824V795.824H3338.64V949.264H3312.88V920.704C3307.84 929.664 3300.28 937.131 3290.2 943.104C3280.31 948.891 3268.74 951.784 3255.48 951.784C3241.86 951.784 3229.54 948.424 3218.52 941.704C3207.51 934.984 3198.83 925.557 3192.48 913.424C3186.14 901.291 3182.96 887.477 3182.96 871.984ZM3312.88 872.264C3312.88 860.691 3310.55 850.611 3305.88 842.024C3301.22 833.437 3294.87 826.904 3286.84 822.424C3279 817.757 3270.32 815.424 3260.8 815.424C3251.28 815.424 3242.6 817.664 3234.76 822.144C3226.92 826.624 3220.67 833.157 3216 841.744C3211.34 850.331 3209 860.411 3209 871.984C3209 883.744 3211.34 894.011 3216 902.784C3220.67 911.371 3226.92 917.997 3234.76 922.664C3242.6 927.144 3251.28 929.384 3260.8 929.384C3270.32 929.384 3279 927.144 3286.84 922.664C3294.87 917.997 3301.22 911.371 3305.88 902.784C3310.55 894.011 3312.88 883.837 3312.88 872.264ZM3407.18 824.104C3412.22 815.331 3419.69 808.051 3429.58 802.264C3439.66 796.291 3451.33 793.304 3464.58 793.304C3478.21 793.304 3490.53 796.571 3501.54 803.104C3512.74 809.637 3521.51 818.877 3527.86 830.824C3534.21 842.584 3537.38 856.304 3537.38 871.984C3537.38 887.477 3534.21 901.291 3527.86 913.424C3521.51 925.557 3512.74 934.984 3501.54 941.704C3490.53 948.424 3478.21 951.784 3464.58 951.784C3451.51 951.784 3439.94 948.891 3429.86 943.104C3419.97 937.131 3412.41 929.757 3407.18 920.984V1022.06H3381.7V795.824H3407.18V824.104ZM3511.34 871.984C3511.34 860.411 3509.01 850.331 3504.34 841.744C3499.67 833.157 3493.33 826.624 3485.3 822.144C3477.46 817.664 3468.78 815.424 3459.26 815.424C3449.93 815.424 3441.25 817.757 3433.22 822.424C3425.38 826.904 3419.03 833.531 3414.18 842.304C3409.51 850.891 3407.18 860.877 3407.18 872.264C3407.18 883.837 3409.51 894.011 3414.18 902.784C3419.03 911.371 3425.38 917.997 3433.22 922.664C3441.25 927.144 3449.93 929.384 3459.26 929.384C3468.78 929.384 3477.46 927.144 3485.3 922.664C3493.33 917.997 3499.67 911.371 3504.34 902.784C3509.01 894.011 3511.34 883.744 3511.34 871.984ZM3647.08 793.024C3658.65 793.024 3669.11 795.544 3678.44 800.584C3687.77 805.437 3695.05 812.811 3700.28 822.704C3705.69 832.597 3708.4 844.637 3708.4 858.824V949.264H3683.2V862.464C3683.2 847.157 3679.37 835.491 3671.72 827.464C3664.07 819.251 3653.61 815.144 3640.36 815.144C3626.92 815.144 3616.19 819.344 3608.16 827.744C3600.32 836.144 3596.4 848.371 3596.4 864.424V949.264H3570.92V742.064H3596.4V817.664C3601.44 809.824 3608.35 803.757 3617.12 799.464C3626.08 795.171 3636.07 793.024 3647.08 793.024ZM3855.75 816.824V907.264C3855.75 914.731 3857.34 920.051 3860.51 923.224C3863.68 926.211 3869.19 927.704 3877.03 927.704H3895.79V949.264H3872.83C3858.64 949.264 3848 945.997 3840.91 939.464C3833.82 932.931 3830.27 922.197 3830.27 907.264V816.824H3810.39V795.824H3830.27V757.184H3855.75V795.824H3895.79V816.824H3855.75ZM4066.66 866.664C4066.66 871.517 4066.38 876.651 4065.82 882.064H3943.18C3944.11 897.184 3949.25 909.037 3958.58 917.624C3968.1 926.024 3979.58 930.224 3993.02 930.224C4004.03 930.224 4013.18 927.704 4020.46 922.664C4027.93 917.437 4033.15 910.531 4036.14 901.944H4063.58C4059.47 916.691 4051.26 928.731 4038.94 938.064C4026.62 947.211 4011.31 951.784 3993.02 951.784C3978.46 951.784 3965.39 948.517 3953.82 941.984C3942.43 935.451 3933.47 926.211 3926.94 914.264C3920.41 902.131 3917.14 888.131 3917.14 872.264C3917.14 856.397 3920.31 842.491 3926.66 830.544C3933.01 818.597 3941.87 809.451 3953.26 803.104C3964.83 796.571 3978.09 793.304 3993.02 793.304C4007.58 793.304 4020.46 796.477 4031.66 802.824C4042.86 809.171 4051.45 817.944 4057.42 829.144C4063.58 840.157 4066.66 852.664 4066.66 866.664ZM4040.34 861.344C4040.34 851.637 4038.19 843.331 4033.9 836.424C4029.61 829.331 4023.73 824.011 4016.26 820.464C4008.98 816.731 4000.86 814.864 3991.9 814.864C3979.02 814.864 3968.01 818.971 3958.86 827.184C3949.9 835.397 3944.77 846.784 3943.46 861.344H4040.34ZM4180.37 949.264L4143.97 892.144L4108.97 949.264H4082.37L4131.93 873.104L4082.37 795.824H4111.21L4147.61 852.664L4182.33 795.824H4208.93L4159.65 871.704L4209.21 949.264H4180.37ZM4265.36 816.824V907.264C4265.36 914.731 4266.95 920.051 4270.12 923.224C4273.29 926.211 4278.8 927.704 4286.64 927.704H4305.4V949.264H4282.44C4268.25 949.264 4257.61 945.997 4250.52 939.464C4243.43 932.931 4239.88 922.197 4239.88 907.264V816.824H4220V795.824H4239.88V757.184H4265.36V795.824H4305.4V816.824H4265.36Z" fill="black"/>
<path d="M1183.32 1175.44V1207.08H1131.24V1370.88H1092.04V1207.08H1039.96V1175.44H1183.32ZM1299.28 1213.52C1311.04 1213.52 1321.49 1216.13 1330.64 1221.36C1339.79 1226.4 1346.88 1233.96 1351.92 1244.04C1357.15 1253.93 1359.76 1265.88 1359.76 1279.88V1370.88H1320.56V1285.2C1320.56 1272.88 1317.48 1263.45 1311.32 1256.92C1305.16 1250.2 1296.76 1246.84 1286.12 1246.84C1275.29 1246.84 1266.71 1250.2 1260.36 1256.92C1254.2 1263.45 1251.12 1272.88 1251.12 1285.2V1370.88H1211.92V1163.68H1251.12V1235.08C1256.16 1228.36 1262.88 1223.13 1271.28 1219.4C1279.68 1215.48 1289.01 1213.52 1299.28 1213.52ZM1416.92 1197.28C1410.01 1197.28 1404.23 1195.13 1399.56 1190.84C1395.08 1186.36 1392.84 1180.85 1392.84 1174.32C1392.84 1167.79 1395.08 1162.37 1399.56 1158.08C1404.23 1153.6 1410.01 1151.36 1416.92 1151.36C1423.83 1151.36 1429.52 1153.6 1434 1158.08C1438.67 1162.37 1441 1167.79 1441 1174.32C1441 1180.85 1438.67 1186.36 1434 1190.84C1429.52 1195.13 1423.83 1197.28 1416.92 1197.28ZM1436.24 1215.76V1370.88H1397.04V1215.76H1436.24ZM1534.33 1373.4C1521.64 1373.4 1510.25 1371.16 1500.17 1366.68C1490.09 1362.01 1482.06 1355.76 1476.09 1347.92C1470.3 1340.08 1467.13 1331.4 1466.57 1321.88H1506.05C1506.8 1327.85 1509.69 1332.8 1514.73 1336.72C1519.96 1340.64 1526.4 1342.6 1534.05 1342.6C1541.52 1342.6 1547.3 1341.11 1551.41 1338.12C1555.7 1335.13 1557.85 1331.31 1557.85 1326.64C1557.85 1321.6 1555.24 1317.87 1550.01 1315.44C1544.97 1312.83 1536.85 1310.03 1525.65 1307.04C1514.08 1304.24 1504.56 1301.35 1497.09 1298.36C1489.81 1295.37 1483.46 1290.8 1478.05 1284.64C1472.82 1278.48 1470.21 1270.17 1470.21 1259.72C1470.21 1251.13 1472.64 1243.29 1477.49 1236.2C1482.53 1229.11 1489.62 1223.51 1498.77 1219.4C1508.1 1215.29 1519.02 1213.24 1531.53 1213.24C1550.01 1213.24 1564.76 1217.91 1575.77 1227.24C1586.78 1236.39 1592.85 1248.8 1593.97 1264.48H1556.45C1555.89 1258.32 1553.28 1253.47 1548.61 1249.92C1544.13 1246.19 1538.06 1244.32 1530.41 1244.32C1523.32 1244.32 1517.81 1245.63 1513.89 1248.24C1510.16 1250.85 1508.29 1254.49 1508.29 1259.16C1508.29 1264.39 1510.9 1268.4 1516.13 1271.2C1521.36 1273.81 1529.48 1276.52 1540.49 1279.32C1551.69 1282.12 1560.93 1285.01 1568.21 1288C1575.49 1290.99 1581.74 1295.65 1586.97 1302C1592.38 1308.16 1595.18 1316.37 1595.37 1326.64C1595.37 1335.6 1592.85 1343.63 1587.81 1350.72C1582.96 1357.81 1575.86 1363.41 1566.53 1367.52C1557.38 1371.44 1546.65 1373.4 1534.33 1373.4ZM1714.15 1197.28C1707.24 1197.28 1701.45 1195.13 1696.79 1190.84C1692.31 1186.36 1690.07 1180.85 1690.07 1174.32C1690.07 1167.79 1692.31 1162.37 1696.79 1158.08C1701.45 1153.6 1707.24 1151.36 1714.15 1151.36C1721.05 1151.36 1726.75 1153.6 1731.23 1158.08C1735.89 1162.37 1738.23 1167.79 1738.23 1174.32C1738.23 1180.85 1735.89 1186.36 1731.23 1190.84C1726.75 1195.13 1721.05 1197.28 1714.15 1197.28ZM1733.47 1215.76V1370.88H1694.27V1215.76H1733.47ZM1831.56 1373.4C1818.86 1373.4 1807.48 1371.16 1797.4 1366.68C1787.32 1362.01 1779.29 1355.76 1773.32 1347.92C1767.53 1340.08 1764.36 1331.4 1763.8 1321.88H1803.28C1804.02 1327.85 1806.92 1332.8 1811.96 1336.72C1817.18 1340.64 1823.62 1342.6 1831.28 1342.6C1838.74 1342.6 1844.53 1341.11 1848.64 1338.12C1852.93 1335.13 1855.08 1331.31 1855.08 1326.64C1855.08 1321.6 1852.46 1317.87 1847.24 1315.44C1842.2 1312.83 1834.08 1310.03 1822.88 1307.04C1811.3 1304.24 1801.78 1301.35 1794.32 1298.36C1787.04 1295.37 1780.69 1290.8 1775.28 1284.64C1770.05 1278.48 1767.44 1270.17 1767.44 1259.72C1767.44 1251.13 1769.86 1243.29 1774.72 1236.2C1779.76 1229.11 1786.85 1223.51 1796 1219.4C1805.33 1215.29 1816.25 1213.24 1828.76 1213.24C1847.24 1213.24 1861.98 1217.91 1873 1227.24C1884.01 1236.39 1890.08 1248.8 1891.2 1264.48H1853.68C1853.12 1258.32 1850.5 1253.47 1845.84 1249.92C1841.36 1246.19 1835.29 1244.32 1827.64 1244.32C1820.54 1244.32 1815.04 1245.63 1811.12 1248.24C1807.38 1250.85 1805.52 1254.49 1805.52 1259.16C1805.52 1264.39 1808.13 1268.4 1813.36 1271.2C1818.58 1273.81 1826.7 1276.52 1837.72 1279.32C1848.92 1282.12 1858.16 1285.01 1865.44 1288C1872.72 1290.99 1878.97 1295.65 1884.2 1302C1889.61 1308.16 1892.41 1316.37 1892.6 1326.64C1892.6 1335.6 1890.08 1343.63 1885.04 1350.72C1880.18 1357.81 1873.09 1363.41 1863.76 1367.52C1854.61 1371.44 1843.88 1373.4 1831.56 1373.4ZM1981.41 1292.76C1981.41 1277.08 1984.49 1263.17 1990.65 1251.04C1997 1238.91 2005.49 1229.57 2016.13 1223.04C2026.96 1216.51 2039 1213.24 2052.25 1213.24C2063.83 1213.24 2073.91 1215.57 2082.49 1220.24C2091.27 1224.91 2098.27 1230.79 2103.49 1237.88V1215.76H2142.97V1370.88H2103.49V1348.2C2098.45 1355.48 2091.45 1361.55 2082.49 1366.4C2073.72 1371.07 2063.55 1373.4 2051.97 1373.4C2038.91 1373.4 2026.96 1370.04 2016.13 1363.32C2005.49 1356.6 1997 1347.17 1990.65 1335.04C1984.49 1322.72 1981.41 1308.63 1981.41 1292.76ZM2103.49 1293.32C2103.49 1283.8 2101.63 1275.68 2097.89 1268.96C2094.16 1262.05 2089.12 1256.83 2082.77 1253.28C2076.43 1249.55 2069.61 1247.68 2062.33 1247.68C2055.05 1247.68 2048.33 1249.45 2042.17 1253C2036.01 1256.55 2030.97 1261.77 2027.05 1268.68C2023.32 1275.4 2021.45 1283.43 2021.45 1292.76C2021.45 1302.09 2023.32 1310.31 2027.05 1317.4C2030.97 1324.31 2036.01 1329.63 2042.17 1333.36C2048.52 1337.09 2055.24 1338.96 2062.33 1338.96C2069.61 1338.96 2076.43 1337.19 2082.77 1333.64C2089.12 1329.91 2094.16 1324.68 2097.89 1317.96C2101.63 1311.05 2103.49 1302.84 2103.49 1293.32ZM2287.18 1238.44C2292.22 1230.97 2299.12 1224.91 2307.9 1220.24C2316.86 1215.57 2327.03 1213.24 2338.42 1213.24C2351.67 1213.24 2363.62 1216.51 2374.26 1223.04C2385.08 1229.57 2393.58 1238.91 2399.74 1251.04C2406.08 1262.99 2409.26 1276.89 2409.26 1292.76C2409.26 1308.63 2406.08 1322.72 2399.74 1335.04C2393.58 1347.17 2385.08 1356.6 2374.26 1363.32C2363.62 1370.04 2351.67 1373.4 2338.42 1373.4C2326.84 1373.4 2316.67 1371.16 2307.9 1366.68C2299.31 1362.01 2292.4 1356.04 2287.18 1348.76V1370.88H2247.98V1163.68H2287.18V1238.44ZM2369.22 1292.76C2369.22 1283.43 2367.26 1275.4 2363.34 1268.68C2359.6 1261.77 2354.56 1256.55 2348.22 1253C2342.06 1249.45 2335.34 1247.68 2328.06 1247.68C2320.96 1247.68 2314.24 1249.55 2307.9 1253.28C2301.74 1256.83 2296.7 1262.05 2292.78 1268.96C2289.04 1275.87 2287.18 1283.99 2287.18 1293.32C2287.18 1302.65 2289.04 1310.77 2292.78 1317.68C2296.7 1324.59 2301.74 1329.91 2307.9 1333.64C2314.24 1337.19 2320.96 1338.96 2328.06 1338.96C2335.34 1338.96 2342.06 1337.09 2348.22 1333.36C2354.56 1329.63 2359.6 1324.31 2363.34 1317.4C2367.26 1310.49 2369.22 1302.28 2369.22 1292.76ZM2506.62 1373.4C2491.69 1373.4 2478.25 1370.13 2466.3 1363.6C2454.36 1356.88 2444.93 1347.45 2438.02 1335.32C2431.3 1323.19 2427.94 1309.19 2427.94 1293.32C2427.94 1277.45 2431.4 1263.45 2438.3 1251.32C2445.4 1239.19 2455.01 1229.85 2467.14 1223.32C2479.28 1216.6 2492.81 1213.24 2507.74 1213.24C2522.68 1213.24 2536.21 1216.6 2548.34 1223.32C2560.48 1229.85 2570 1239.19 2576.9 1251.32C2584 1263.45 2587.54 1277.45 2587.54 1293.32C2587.54 1309.19 2583.9 1323.19 2576.62 1335.32C2569.53 1347.45 2559.82 1356.88 2547.5 1363.6C2535.37 1370.13 2521.74 1373.4 2506.62 1373.4ZM2506.62 1339.24C2513.72 1339.24 2520.34 1337.56 2526.5 1334.2C2532.85 1330.65 2537.89 1325.43 2541.62 1318.52C2545.36 1311.61 2547.22 1303.21 2547.22 1293.32C2547.22 1278.57 2543.3 1267.28 2535.46 1259.44C2527.81 1251.41 2518.38 1247.4 2507.18 1247.4C2495.98 1247.4 2486.56 1251.41 2478.9 1259.44C2471.44 1267.28 2467.7 1278.57 2467.7 1293.32C2467.7 1308.07 2471.34 1319.45 2478.62 1327.48C2486.09 1335.32 2495.42 1339.24 2506.62 1339.24ZM2655.5 1163.68V1370.88H2616.3V1163.68H2655.5ZM2684.15 1292.76C2684.15 1277.08 2687.23 1263.17 2693.39 1251.04C2699.73 1238.91 2708.32 1229.57 2719.15 1223.04C2729.97 1216.51 2742.01 1213.24 2755.27 1213.24C2765.35 1213.24 2774.96 1215.48 2784.11 1219.96C2793.25 1224.25 2800.53 1230.04 2805.95 1237.32V1163.68H2845.71V1370.88H2805.95V1347.92C2801.09 1355.57 2794.28 1361.73 2785.51 1366.4C2776.73 1371.07 2766.56 1373.4 2754.99 1373.4C2741.92 1373.4 2729.97 1370.04 2719.15 1363.32C2708.32 1356.6 2699.73 1347.17 2693.39 1335.04C2687.23 1322.72 2684.15 1308.63 2684.15 1292.76ZM2806.23 1293.32C2806.23 1283.8 2804.36 1275.68 2800.63 1268.96C2796.89 1262.05 2791.85 1256.83 2785.51 1253.28C2779.16 1249.55 2772.35 1247.68 2765.07 1247.68C2757.79 1247.68 2751.07 1249.45 2744.91 1253C2738.75 1256.55 2733.71 1261.77 2729.79 1268.68C2726.05 1275.4 2724.19 1283.43 2724.19 1292.76C2724.19 1302.09 2726.05 1310.31 2729.79 1317.4C2733.71 1324.31 2738.75 1329.63 2744.91 1333.36C2751.25 1337.09 2757.97 1338.96 2765.07 1338.96C2772.35 1338.96 2779.16 1337.19 2785.51 1333.64C2791.85 1329.91 2796.89 1324.68 2800.63 1317.96C2804.36 1311.05 2806.23 1302.84 2806.23 1293.32ZM2996.35 1247.96V1323C2996.35 1328.23 2997.56 1332.05 2999.99 1334.48C3002.6 1336.72 3006.9 1337.84 3012.87 1337.84H3031.07V1370.88H3006.43C2973.39 1370.88 2956.87 1354.83 2956.87 1322.72V1247.96H2938.39V1215.76H2956.87V1177.4H2996.35V1215.76H3031.07V1247.96H2996.35ZM3203.47 1289.96C3203.47 1295.56 3203.09 1300.6 3202.35 1305.08H3088.95C3089.88 1316.28 3093.8 1325.05 3100.71 1331.4C3107.61 1337.75 3116.11 1340.92 3126.19 1340.92C3140.75 1340.92 3151.11 1334.67 3157.27 1322.16H3199.55C3195.07 1337.09 3186.48 1349.41 3173.79 1359.12C3161.09 1368.64 3145.51 1373.4 3127.03 1373.4C3112.09 1373.4 3098.65 1370.13 3086.71 1363.6C3074.95 1356.88 3065.71 1347.45 3058.99 1335.32C3052.45 1323.19 3049.19 1309.19 3049.19 1293.32C3049.19 1277.27 3052.45 1263.17 3058.99 1251.04C3065.52 1238.91 3074.67 1229.57 3086.43 1223.04C3098.19 1216.51 3111.72 1213.24 3127.03 1213.24C3141.77 1213.24 3154.93 1216.41 3166.51 1222.76C3178.27 1229.11 3187.32 1238.16 3193.67 1249.92C3200.2 1261.49 3203.47 1274.84 3203.47 1289.96ZM3162.87 1278.76C3162.68 1268.68 3159.04 1260.65 3151.95 1254.68C3144.85 1248.52 3136.17 1245.44 3125.91 1245.44C3116.2 1245.44 3107.99 1248.43 3101.27 1254.4C3094.73 1260.19 3090.72 1268.31 3089.23 1278.76H3162.87ZM3317.76 1370.88L3285.84 1322.72L3257.56 1370.88H3215.56L3266.24 1293.04L3215 1215.76H3259.24L3290.88 1263.64L3319.44 1215.76H3361.44L3310.48 1293.04L3362 1370.88H3317.76ZM3428.93 1247.96V1323C3428.93 1328.23 3430.14 1332.05 3432.57 1334.48C3435.18 1336.72 3439.48 1337.84 3445.45 1337.84H3463.65V1370.88H3439.01C3405.97 1370.88 3389.45 1354.83 3389.45 1322.72V1247.96H3370.97V1215.76H3389.45V1177.4H3428.93V1215.76H3463.65V1247.96H3428.93Z" fill="black"/>
<path d="M1173.64 1596.78L1170.84 1612.46H1116.24L1084.6 1792.5H1065L1096.64 1612.46H1042.32L1045.12 1596.78H1173.64ZM1270.11 1636.82C1285.42 1636.82 1297.74 1641.02 1307.07 1649.42C1316.4 1657.82 1321.07 1670.23 1321.07 1686.66C1321.07 1692.63 1320.6 1698.04 1319.67 1702.9L1303.71 1792.5H1284.39L1299.79 1705.14C1300.54 1700.84 1300.91 1696.27 1300.91 1691.42C1300.91 1679.1 1297.55 1669.76 1290.83 1663.42C1284.11 1657.07 1274.68 1653.9 1262.55 1653.9C1247.8 1653.9 1235.2 1658.56 1224.75 1667.9C1214.3 1677.23 1207.48 1690.95 1204.31 1709.06V1708.78L1189.47 1792.5H1169.87L1206.55 1585.3H1226.15L1211.87 1665.66C1218.4 1656.32 1226.8 1649.23 1237.07 1644.38C1247.34 1639.34 1258.35 1636.82 1270.11 1636.82ZM1389.06 1610.78C1385.51 1610.78 1382.62 1609.75 1380.38 1607.7C1378.14 1605.46 1377.02 1602.56 1377.02 1599.02C1377.02 1594.16 1378.7 1590.15 1382.06 1586.98C1385.42 1583.62 1389.43 1581.94 1394.1 1581.94C1397.64 1581.94 1400.44 1582.96 1402.5 1585.02C1404.74 1587.07 1405.86 1589.78 1405.86 1593.14C1405.86 1597.99 1404.18 1602.19 1400.82 1605.74C1397.46 1609.1 1393.54 1610.78 1389.06 1610.78ZM1393.54 1639.62L1366.66 1792.5H1347.06L1373.94 1639.62H1393.54ZM1462 1794.74C1446.51 1794.74 1433.91 1791.19 1424.2 1784.1C1414.49 1776.82 1409.64 1766.92 1409.64 1754.42C1409.64 1752.18 1409.73 1750.5 1409.92 1749.38H1428.96C1428.21 1758.34 1430.83 1765.52 1436.8 1770.94C1442.77 1776.35 1451.55 1779.06 1463.12 1779.06C1474.88 1779.06 1484.31 1776.63 1491.4 1771.78C1498.49 1766.74 1502.04 1760.11 1502.04 1751.9C1502.04 1747.04 1500.55 1742.94 1497.56 1739.58C1494.57 1736.22 1490.84 1733.51 1486.36 1731.46C1482.07 1729.22 1476 1726.7 1468.16 1723.9C1458.45 1720.35 1450.61 1717.08 1444.64 1714.1C1438.85 1710.92 1433.81 1706.63 1429.52 1701.22C1425.41 1695.62 1423.36 1688.62 1423.36 1680.22C1423.36 1671.82 1425.79 1664.35 1430.64 1657.82C1435.49 1651.28 1442.12 1646.24 1450.52 1642.7C1459.11 1639.15 1468.81 1637.38 1479.64 1637.38C1494.76 1637.38 1507.08 1641.11 1516.6 1648.58C1526.31 1656.04 1531.16 1665.94 1531.16 1678.26C1531.16 1680.87 1531.07 1682.83 1530.88 1684.14H1512.4C1512.59 1683.39 1512.68 1682.18 1512.68 1680.5C1512.68 1672.28 1509.41 1665.66 1502.88 1660.62C1496.53 1655.58 1488.32 1653.06 1478.24 1653.06C1468.16 1653.06 1459.76 1655.48 1453.04 1660.34C1446.51 1665 1443.24 1671.35 1443.24 1679.38C1443.24 1684.79 1444.83 1689.36 1448 1693.1C1451.17 1696.64 1455.09 1699.54 1459.76 1701.78C1464.43 1704.02 1470.68 1706.63 1478.52 1709.62C1487.85 1713.16 1495.32 1716.43 1500.92 1719.42C1506.71 1722.4 1511.56 1726.51 1515.48 1731.74C1519.4 1736.96 1521.36 1743.5 1521.36 1751.34C1521.36 1764.59 1515.85 1775.14 1504.84 1782.98C1493.83 1790.82 1479.55 1794.74 1462 1794.74ZM1678.35 1610.78C1674.81 1610.78 1671.91 1609.75 1669.67 1607.7C1667.43 1605.46 1666.31 1602.56 1666.31 1599.02C1666.31 1594.16 1667.99 1590.15 1671.35 1586.98C1674.71 1583.62 1678.73 1581.94 1683.39 1581.94C1686.94 1581.94 1689.74 1582.96 1691.79 1585.02C1694.03 1587.07 1695.15 1589.78 1695.15 1593.14C1695.15 1597.99 1693.47 1602.19 1690.11 1605.74C1686.75 1609.1 1682.83 1610.78 1678.35 1610.78ZM1682.83 1639.62L1655.95 1792.5H1636.35L1663.23 1639.62H1682.83ZM1751.3 1794.74C1735.8 1794.74 1723.2 1791.19 1713.5 1784.1C1703.79 1776.82 1698.94 1766.92 1698.94 1754.42C1698.94 1752.18 1699.03 1750.5 1699.22 1749.38H1718.26C1717.51 1758.34 1720.12 1765.52 1726.1 1770.94C1732.07 1776.35 1740.84 1779.06 1752.42 1779.06C1764.18 1779.06 1773.6 1776.63 1780.7 1771.78C1787.79 1766.74 1791.34 1760.11 1791.34 1751.9C1791.34 1747.04 1789.84 1742.94 1786.86 1739.58C1783.87 1736.22 1780.14 1733.51 1775.66 1731.46C1771.36 1729.22 1765.3 1726.7 1757.46 1723.9C1747.75 1720.35 1739.91 1717.08 1733.94 1714.1C1728.15 1710.92 1723.11 1706.63 1718.82 1701.22C1714.71 1695.62 1712.66 1688.62 1712.66 1680.22C1712.66 1671.82 1715.08 1664.35 1719.94 1657.82C1724.79 1651.28 1731.42 1646.24 1739.82 1642.7C1748.4 1639.15 1758.11 1637.38 1768.94 1637.38C1784.06 1637.38 1796.38 1641.11 1805.9 1648.58C1815.6 1656.04 1820.46 1665.94 1820.46 1678.26C1820.46 1680.87 1820.36 1682.83 1820.18 1684.14H1801.7C1801.88 1683.39 1801.98 1682.18 1801.98 1680.5C1801.98 1672.28 1798.71 1665.66 1792.18 1660.62C1785.83 1655.58 1777.62 1653.06 1767.54 1653.06C1757.46 1653.06 1749.06 1655.48 1742.34 1660.34C1735.8 1665 1732.54 1671.35 1732.54 1679.38C1732.54 1684.79 1734.12 1689.36 1737.3 1693.1C1740.47 1696.64 1744.39 1699.54 1749.06 1701.78C1753.72 1704.02 1759.98 1706.63 1767.82 1709.62C1777.15 1713.16 1784.62 1716.43 1790.22 1719.42C1796 1722.4 1800.86 1726.51 1804.78 1731.74C1808.7 1736.96 1810.66 1743.5 1810.66 1751.34C1810.66 1764.59 1805.15 1775.14 1794.14 1782.98C1783.12 1790.82 1768.84 1794.74 1751.3 1794.74ZM1930.13 1715.78C1932.93 1700.1 1938.53 1686.38 1946.93 1674.62C1955.33 1662.67 1965.6 1653.52 1977.73 1647.18C1990.05 1640.64 2003.21 1637.38 2017.21 1637.38C2031.77 1637.38 2043.72 1640.74 2053.05 1647.46C2062.38 1654.18 2068.45 1662.76 2071.25 1673.22L2077.13 1639.62H2096.73L2069.85 1792.5H2050.25L2056.13 1758.62C2049.78 1769.07 2040.64 1777.75 2028.69 1784.66C2016.93 1791.38 2003.77 1794.74 1989.21 1794.74C1977.08 1794.74 1966.44 1792.22 1957.29 1787.18C1948.14 1782.14 1941.05 1775.04 1936.01 1765.9C1930.97 1756.56 1928.45 1745.64 1928.45 1733.14C1928.45 1727.72 1929.01 1721.94 1930.13 1715.78ZM2063.69 1716.06C2064.62 1710.83 2065.09 1706.16 2065.09 1702.06C2065.09 1687.5 2060.7 1675.92 2051.93 1667.34C2043.16 1658.75 2031.77 1654.46 2017.77 1654.46C2006.94 1654.46 1996.77 1656.88 1987.25 1661.74C1977.92 1666.59 1969.98 1673.68 1963.45 1683.02C1956.92 1692.16 1952.53 1703.08 1950.29 1715.78C1949.36 1721.38 1948.89 1726.14 1948.89 1730.06C1948.89 1744.8 1953.18 1756.47 1961.77 1765.06C1970.54 1773.46 1981.93 1777.66 1995.93 1777.66C2006.38 1777.66 2016.37 1775.14 2025.89 1770.1C2035.6 1765.06 2043.72 1757.87 2050.25 1748.54C2056.97 1739.2 2061.45 1728.38 2063.69 1716.06ZM2239.17 1610.78C2235.63 1610.78 2232.73 1609.75 2230.49 1607.7C2228.25 1605.46 2227.13 1602.56 2227.13 1599.02C2227.13 1594.16 2228.81 1590.15 2232.17 1586.98C2235.53 1583.62 2239.55 1581.94 2244.21 1581.94C2247.76 1581.94 2250.56 1582.96 2252.61 1585.02C2254.85 1587.07 2255.97 1589.78 2255.97 1593.14C2255.97 1597.99 2254.29 1602.19 2250.93 1605.74C2247.57 1609.1 2243.65 1610.78 2239.17 1610.78ZM2243.65 1639.62L2216.77 1792.5H2197.17L2224.05 1639.62H2243.65ZM2293.64 1751.06C2293.08 1754.42 2292.8 1757.31 2292.8 1759.74C2292.8 1765.71 2294.38 1769.91 2297.56 1772.34C2300.92 1774.58 2306.33 1775.7 2313.8 1775.7H2331.72L2328.64 1792.5H2307.64C2296.06 1792.5 2287.38 1790.26 2281.6 1785.78C2275.81 1781.3 2272.92 1773.92 2272.92 1763.66C2272.92 1759.55 2273.29 1755.35 2274.04 1751.06L2290.84 1656.14H2269.56L2272.64 1639.62H2293.92L2300.64 1601.26H2320.24L2313.52 1639.62H2355.8L2352.72 1656.14H2310.44L2293.64 1751.06ZM2365.44 1715.78C2368.24 1700.1 2373.84 1686.38 2382.24 1674.62C2390.64 1662.67 2400.91 1653.52 2413.04 1647.18C2425.36 1640.64 2438.52 1637.38 2452.52 1637.38C2467.08 1637.38 2479.03 1640.74 2488.36 1647.46C2497.7 1654.18 2503.76 1662.76 2506.56 1673.22L2512.44 1639.62H2532.04L2505.16 1792.5H2485.56L2491.44 1758.62C2485.1 1769.07 2475.95 1777.75 2464 1784.66C2452.24 1791.38 2439.08 1794.74 2424.52 1794.74C2412.39 1794.74 2401.75 1792.22 2392.6 1787.18C2383.46 1782.14 2376.36 1775.04 2371.32 1765.9C2366.28 1756.56 2363.76 1745.64 2363.76 1733.14C2363.76 1727.72 2364.32 1721.94 2365.44 1715.78ZM2499 1716.06C2499.94 1710.83 2500.4 1706.16 2500.4 1702.06C2500.4 1687.5 2496.02 1675.92 2487.24 1667.34C2478.47 1658.75 2467.08 1654.46 2453.08 1654.46C2442.26 1654.46 2432.08 1656.88 2422.56 1661.74C2413.23 1666.59 2405.3 1673.68 2398.76 1683.02C2392.23 1692.16 2387.84 1703.08 2385.6 1715.78C2384.67 1721.38 2384.2 1726.14 2384.2 1730.06C2384.2 1744.8 2388.5 1756.47 2397.08 1765.06C2405.86 1773.46 2417.24 1777.66 2431.24 1777.66C2441.7 1777.66 2451.68 1775.14 2461.2 1770.1C2470.91 1765.06 2479.03 1757.87 2485.56 1748.54C2492.28 1739.2 2496.76 1728.38 2499 1716.06ZM2606.19 1585.3L2569.51 1792.5H2549.91L2586.59 1585.3H2606.19ZM2655.89 1610.78C2652.35 1610.78 2649.45 1609.75 2647.21 1607.7C2644.97 1605.46 2643.85 1602.56 2643.85 1599.02C2643.85 1594.16 2645.53 1590.15 2648.89 1586.98C2652.25 1583.62 2656.27 1581.94 2660.93 1581.94C2664.48 1581.94 2667.28 1582.96 2669.33 1585.02C2671.57 1587.07 2672.69 1589.78 2672.69 1593.14C2672.69 1597.99 2671.01 1602.19 2667.65 1605.74C2664.29 1609.1 2660.37 1610.78 2655.89 1610.78ZM2660.37 1639.62L2633.49 1792.5H2613.89L2640.77 1639.62H2660.37ZM2682.36 1716.06C2685.16 1700.19 2690.76 1686.38 2699.16 1674.62C2707.74 1662.67 2718.2 1653.52 2730.52 1647.18C2742.84 1640.64 2756.18 1637.38 2770.56 1637.38C2789.41 1637.38 2804.06 1642.04 2814.52 1651.38C2825.16 1660.71 2830.85 1673.4 2831.6 1689.46H2810.6C2810.04 1678.44 2805.93 1669.86 2798.28 1663.7C2790.81 1657.35 2780.64 1654.18 2767.76 1654.18C2751.89 1654.18 2737.89 1659.59 2725.76 1670.42C2713.81 1681.06 2706.06 1696.27 2702.52 1716.06C2701.58 1720.72 2701.12 1726.04 2701.12 1732.02C2701.12 1746.95 2705.13 1758.43 2713.16 1766.46C2721.37 1774.3 2732.2 1778.22 2745.64 1778.22C2758.7 1778.22 2770.09 1775.14 2779.8 1768.98C2789.5 1762.63 2796.69 1753.86 2801.36 1742.66H2822.36C2816.01 1758.34 2805.84 1770.94 2791.84 1780.46C2777.84 1789.98 2761.5 1794.74 2742.84 1794.74C2723.98 1794.74 2708.86 1789.32 2697.48 1778.5C2686.28 1767.67 2680.68 1752.83 2680.68 1733.98C2680.68 1728.19 2681.24 1722.22 2682.36 1716.06ZM2964.65 1751.06C2964.09 1754.42 2963.81 1757.31 2963.81 1759.74C2963.81 1765.71 2965.4 1769.91 2968.57 1772.34C2971.93 1774.58 2977.35 1775.7 2984.81 1775.7H3002.73L2999.65 1792.5H2978.65C2967.08 1792.5 2958.4 1790.26 2952.61 1785.78C2946.83 1781.3 2943.93 1773.92 2943.93 1763.66C2943.93 1759.55 2944.31 1755.35 2945.05 1751.06L2961.85 1656.14H2940.57L2943.65 1639.62H2964.93L2971.65 1601.26H2991.25L2984.53 1639.62H3026.81L3023.73 1656.14H2981.45L2964.65 1751.06ZM3125.5 1637.38C3138.38 1637.38 3149.39 1639.9 3158.54 1644.94C3167.68 1649.79 3174.59 1656.51 3179.26 1665.1C3184.11 1673.68 3186.54 1683.48 3186.54 1694.5C3186.54 1699.54 3186.16 1704.02 3185.42 1707.94C3184.3 1713.54 3183.18 1718.58 3182.06 1723.06H3055.22C3054.66 1726.6 3054.38 1729.96 3054.38 1733.14C3054.38 1747.51 3058.67 1758.62 3067.26 1766.46C3076.03 1774.3 3087.14 1778.22 3100.58 1778.22C3113.46 1778.22 3124.75 1775.14 3134.46 1768.98C3144.16 1762.82 3151.26 1754.51 3155.74 1744.06H3176.74C3170.39 1758.99 3160.22 1771.22 3146.22 1780.74C3132.4 1790.07 3116.26 1794.74 3097.78 1794.74C3078.74 1794.74 3063.43 1789.32 3051.86 1778.5C3040.47 1767.48 3034.78 1752.55 3034.78 1733.7C3034.78 1728.1 3035.34 1722.22 3036.46 1716.06C3039.26 1700.19 3044.86 1686.28 3053.26 1674.34C3061.84 1662.39 3072.39 1653.24 3084.9 1646.9C3097.4 1640.55 3110.94 1637.38 3125.5 1637.38ZM3165.26 1708.5C3166.19 1703.27 3166.66 1698.88 3166.66 1695.34C3166.66 1682.08 3162.46 1671.91 3154.06 1664.82C3145.66 1657.72 3134.92 1654.18 3121.86 1654.18C3112.34 1654.18 3103.19 1656.23 3094.42 1660.34C3085.64 1664.44 3077.99 1670.6 3071.46 1678.82C3064.92 1687.03 3060.44 1696.92 3058.02 1708.5H3165.26ZM3272.8 1715.22L3308.36 1792.5H3285.96L3257.68 1731.18L3208.4 1792.5H3187.96L3250.68 1716.06L3215.4 1639.62H3237.8L3265.8 1700.1L3314.24 1639.62H3334.96L3272.8 1715.22ZM3367.43 1751.06C3366.87 1754.42 3366.59 1757.31 3366.59 1759.74C3366.59 1765.71 3368.17 1769.91 3371.35 1772.34C3374.71 1774.58 3380.12 1775.7 3387.59 1775.7H3405.51L3402.43 1792.5H3381.43C3369.85 1792.5 3361.17 1790.26 3355.39 1785.78C3349.6 1781.3 3346.71 1773.92 3346.71 1763.66C3346.71 1759.55 3347.08 1755.35 3347.83 1751.06L3364.63 1656.14H3343.35L3346.43 1639.62H3367.71L3374.43 1601.26H3394.03L3387.31 1639.62H3429.59L3426.51 1656.14H3384.23L3367.43 1751.06Z" fill="black"/>
<path d="M1172.68 2018.84V2039.56H1119.48V2214H1094V2039.56H1040.52V2018.84H1172.68ZM1280.2 2057.76C1291.78 2057.76 1302.23 2060.28 1311.56 2065.32C1320.9 2070.17 1328.18 2077.55 1333.4 2087.44C1338.82 2097.33 1341.52 2109.37 1341.52 2123.56V2214H1316.32V2127.2C1316.32 2111.89 1312.5 2100.23 1304.84 2092.2C1297.19 2083.99 1286.74 2079.88 1273.48 2079.88C1260.04 2079.88 1249.31 2084.08 1241.28 2092.48C1233.44 2100.88 1229.52 2113.11 1229.52 2129.16V2214H1204.04V2006.8H1229.52V2082.4C1234.56 2074.56 1241.47 2068.49 1250.24 2064.2C1259.2 2059.91 1269.19 2057.76 1280.2 2057.76ZM1396.31 2035.64C1391.45 2035.64 1387.35 2033.96 1383.99 2030.6C1380.63 2027.24 1378.95 2023.13 1378.95 2018.28C1378.95 2013.43 1380.63 2009.32 1383.99 2005.96C1387.35 2002.6 1391.45 2000.92 1396.31 2000.92C1400.97 2000.92 1404.89 2002.6 1408.07 2005.96C1411.43 2009.32 1413.11 2013.43 1413.11 2018.28C1413.11 2023.13 1411.43 2027.24 1408.07 2030.6C1404.89 2033.96 1400.97 2035.64 1396.31 2035.64ZM1408.63 2060.56V2214H1383.15V2060.56H1408.63ZM1506.37 2216.52C1494.61 2216.52 1484.07 2214.56 1474.73 2210.64C1465.4 2206.53 1458.03 2200.93 1452.61 2193.84C1447.2 2186.56 1444.21 2178.25 1443.65 2168.92H1469.97C1470.72 2176.57 1474.27 2182.83 1480.61 2187.68C1487.15 2192.53 1495.64 2194.96 1506.09 2194.96C1515.8 2194.96 1523.45 2192.81 1529.05 2188.52C1534.65 2184.23 1537.45 2178.81 1537.45 2172.28C1537.45 2165.56 1534.47 2160.61 1528.49 2157.44C1522.52 2154.08 1513.28 2150.81 1500.77 2147.64C1489.39 2144.65 1480.05 2141.67 1472.77 2138.68C1465.68 2135.51 1459.52 2130.93 1454.29 2124.96C1449.25 2118.8 1446.73 2110.77 1446.73 2100.88C1446.73 2093.04 1449.07 2085.85 1453.73 2079.32C1458.4 2072.79 1465.03 2067.65 1473.61 2063.92C1482.2 2060 1492 2058.04 1503.01 2058.04C1520 2058.04 1533.72 2062.33 1544.17 2070.92C1554.63 2079.51 1560.23 2091.27 1560.97 2106.2H1535.49C1534.93 2098.17 1531.67 2091.73 1525.69 2086.88C1519.91 2082.03 1512.07 2079.6 1502.17 2079.6C1493.03 2079.6 1485.75 2081.56 1480.33 2085.48C1474.92 2089.4 1472.21 2094.53 1472.21 2100.88C1472.21 2105.92 1473.8 2110.12 1476.97 2113.48C1480.33 2116.65 1484.44 2119.27 1489.29 2121.32C1494.33 2123.19 1501.24 2125.33 1510.01 2127.76C1521.03 2130.75 1529.99 2133.73 1536.89 2136.72C1543.8 2139.52 1549.68 2143.81 1554.53 2149.6C1559.57 2155.39 1562.19 2162.95 1562.37 2172.28C1562.37 2180.68 1560.04 2188.24 1555.37 2194.96C1550.71 2201.68 1544.08 2207 1535.49 2210.92C1527.09 2214.65 1517.39 2216.52 1506.37 2216.52ZM1686.15 2035.64C1681.3 2035.64 1677.19 2033.96 1673.83 2030.6C1670.47 2027.24 1668.79 2023.13 1668.79 2018.28C1668.79 2013.43 1670.47 2009.32 1673.83 2005.96C1677.19 2002.6 1681.3 2000.92 1686.15 2000.92C1690.82 2000.92 1694.74 2002.6 1697.91 2005.96C1701.27 2009.32 1702.95 2013.43 1702.95 2018.28C1702.95 2023.13 1701.27 2027.24 1697.91 2030.6C1694.74 2033.96 1690.82 2035.64 1686.15 2035.64ZM1698.47 2060.56V2214H1672.99V2060.56H1698.47ZM1796.22 2216.52C1784.46 2216.52 1773.91 2214.56 1764.58 2210.64C1755.24 2206.53 1747.87 2200.93 1742.46 2193.84C1737.04 2186.56 1734.06 2178.25 1733.5 2168.92H1759.82C1760.56 2176.57 1764.11 2182.83 1770.46 2187.68C1776.99 2192.53 1785.48 2194.96 1795.94 2194.96C1805.64 2194.96 1813.3 2192.81 1818.9 2188.52C1824.5 2184.23 1827.3 2178.81 1827.3 2172.28C1827.3 2165.56 1824.31 2160.61 1818.34 2157.44C1812.36 2154.08 1803.12 2150.81 1790.62 2147.64C1779.23 2144.65 1769.9 2141.67 1762.62 2138.68C1755.52 2135.51 1749.36 2130.93 1744.14 2124.96C1739.1 2118.8 1736.58 2110.77 1736.58 2100.88C1736.58 2093.04 1738.91 2085.85 1743.58 2079.32C1748.24 2072.79 1754.87 2067.65 1763.46 2063.92C1772.04 2060 1781.84 2058.04 1792.86 2058.04C1809.84 2058.04 1823.56 2062.33 1834.02 2070.92C1844.47 2079.51 1850.07 2091.27 1850.82 2106.2H1825.34C1824.78 2098.17 1821.51 2091.73 1815.54 2086.88C1809.75 2082.03 1801.91 2079.6 1792.02 2079.6C1782.87 2079.6 1775.59 2081.56 1770.18 2085.48C1764.76 2089.4 1762.06 2094.53 1762.06 2100.88C1762.06 2105.92 1763.64 2110.12 1766.82 2113.48C1770.18 2116.65 1774.28 2119.27 1779.14 2121.32C1784.18 2123.19 1791.08 2125.33 1799.86 2127.76C1810.87 2130.75 1819.83 2133.73 1826.74 2136.72C1833.64 2139.52 1839.52 2143.81 1844.38 2149.6C1849.42 2155.39 1852.03 2162.95 1852.22 2172.28C1852.22 2180.68 1849.88 2188.24 1845.22 2194.96C1840.55 2201.68 1833.92 2207 1825.34 2210.92C1816.94 2214.65 1807.23 2216.52 1796.22 2216.52ZM1953.31 2136.72C1953.31 2121.04 1956.49 2107.32 1962.83 2095.56C1969.18 2083.61 1977.86 2074.37 1988.87 2067.84C2000.07 2061.31 2012.49 2058.04 2026.11 2058.04C2039.55 2058.04 2051.22 2060.93 2061.11 2066.72C2071.01 2072.51 2078.38 2079.79 2083.23 2088.56V2060.56H2108.99V2214H2083.23V2185.44C2078.19 2194.4 2070.63 2201.87 2060.55 2207.84C2050.66 2213.63 2039.09 2216.52 2025.83 2216.52C2012.21 2216.52 1999.89 2213.16 1988.87 2206.44C1977.86 2199.72 1969.18 2190.29 1962.83 2178.16C1956.49 2166.03 1953.31 2152.21 1953.31 2136.72ZM2083.23 2137C2083.23 2125.43 2080.9 2115.35 2076.23 2106.76C2071.57 2098.17 2065.22 2091.64 2057.19 2087.16C2049.35 2082.49 2040.67 2080.16 2031.15 2080.16C2021.63 2080.16 2012.95 2082.4 2005.11 2086.88C1997.27 2091.36 1991.02 2097.89 1986.35 2106.48C1981.69 2115.07 1979.35 2125.15 1979.35 2136.72C1979.35 2148.48 1981.69 2158.75 1986.35 2167.52C1991.02 2176.11 1997.27 2182.73 2005.11 2187.4C2012.95 2191.88 2021.63 2194.12 2031.15 2194.12C2040.67 2194.12 2049.35 2191.88 2057.19 2187.4C2065.22 2182.73 2071.57 2176.11 2076.23 2167.52C2080.9 2158.75 2083.23 2148.57 2083.23 2137ZM2362.78 2060.56V2214H2337.3V2191.32C2332.45 2199.16 2325.63 2205.32 2316.86 2209.8C2308.27 2214.09 2298.75 2216.24 2288.3 2216.24C2276.35 2216.24 2265.62 2213.81 2256.1 2208.96C2246.58 2203.92 2239.02 2196.45 2233.42 2186.56C2228.01 2176.67 2225.3 2164.63 2225.3 2150.44V2060.56H2250.5V2147.08C2250.5 2162.2 2254.33 2173.87 2261.98 2182.08C2269.63 2190.11 2280.09 2194.12 2293.34 2194.12C2306.97 2194.12 2317.7 2189.92 2325.54 2181.52C2333.38 2173.12 2337.3 2160.89 2337.3 2144.84V2060.56H2362.78ZM2480.56 2057.76C2499.23 2057.76 2514.35 2063.45 2525.92 2074.84C2537.5 2086.04 2543.28 2102.28 2543.28 2123.56V2214H2518.08V2127.2C2518.08 2111.89 2514.26 2100.23 2506.6 2092.2C2498.95 2083.99 2488.5 2079.88 2475.24 2079.88C2461.8 2079.88 2451.07 2084.08 2443.04 2092.48C2435.2 2100.88 2431.28 2113.11 2431.28 2129.16V2214H2405.8V2060.56H2431.28V2082.4C2436.32 2074.56 2443.14 2068.49 2451.72 2064.2C2460.5 2059.91 2470.11 2057.76 2480.56 2057.76ZM2575.38 2136.72C2575.38 2121.04 2578.56 2107.32 2584.9 2095.56C2591.25 2083.61 2599.93 2074.37 2610.94 2067.84C2622.14 2061.31 2634.65 2058.04 2648.46 2058.04C2660.41 2058.04 2671.52 2060.84 2681.78 2066.44C2692.05 2071.85 2699.89 2079.04 2705.3 2088V2006.8H2731.06V2214H2705.3V2185.16C2700.26 2194.31 2692.8 2201.87 2682.9 2207.84C2673.01 2213.63 2661.44 2216.52 2648.18 2216.52C2634.56 2216.52 2622.14 2213.16 2610.94 2206.44C2599.93 2199.72 2591.25 2190.29 2584.9 2178.16C2578.56 2166.03 2575.38 2152.21 2575.38 2136.72ZM2705.3 2137C2705.3 2125.43 2702.97 2115.35 2698.3 2106.76C2693.64 2098.17 2687.29 2091.64 2679.26 2087.16C2671.42 2082.49 2662.74 2080.16 2653.22 2080.16C2643.7 2080.16 2635.02 2082.4 2627.18 2086.88C2619.34 2091.36 2613.09 2097.89 2608.42 2106.48C2603.76 2115.07 2601.42 2125.15 2601.42 2136.72C2601.42 2148.48 2603.76 2158.75 2608.42 2167.52C2613.09 2176.11 2619.34 2182.73 2627.18 2187.4C2635.02 2191.88 2643.7 2194.12 2653.22 2194.12C2662.74 2194.12 2671.42 2191.88 2679.26 2187.4C2687.29 2182.73 2693.64 2176.11 2698.3 2167.52C2702.97 2158.75 2705.3 2148.57 2705.3 2137ZM2914.12 2131.4C2914.12 2136.25 2913.84 2141.39 2913.28 2146.8H2790.64C2791.58 2161.92 2796.71 2173.77 2806.04 2182.36C2815.56 2190.76 2827.04 2194.96 2840.48 2194.96C2851.5 2194.96 2860.64 2192.44 2867.92 2187.4C2875.39 2182.17 2880.62 2175.27 2883.6 2166.68H2911.04C2906.94 2181.43 2898.72 2193.47 2886.4 2202.8C2874.08 2211.95 2858.78 2216.52 2840.48 2216.52C2825.92 2216.52 2812.86 2213.25 2801.28 2206.72C2789.9 2200.19 2780.94 2190.95 2774.4 2179C2767.87 2166.87 2764.6 2152.87 2764.6 2137C2764.6 2121.13 2767.78 2107.23 2774.12 2095.28C2780.47 2083.33 2789.34 2074.19 2800.72 2067.84C2812.3 2061.31 2825.55 2058.04 2840.48 2058.04C2855.04 2058.04 2867.92 2061.21 2879.12 2067.56C2890.32 2073.91 2898.91 2082.68 2904.88 2093.88C2911.04 2104.89 2914.12 2117.4 2914.12 2131.4ZM2887.8 2126.08C2887.8 2116.37 2885.66 2108.07 2881.36 2101.16C2877.07 2094.07 2871.19 2088.75 2863.72 2085.2C2856.44 2081.47 2848.32 2079.6 2839.36 2079.6C2826.48 2079.6 2815.47 2083.71 2806.32 2091.92C2797.36 2100.13 2792.23 2111.52 2790.92 2126.08H2887.8ZM2973.24 2085.48C2977.72 2076.71 2984.06 2069.89 2992.28 2065.04C3000.68 2060.19 3010.85 2057.76 3022.8 2057.76V2084.08H3016.08C2987.52 2084.08 2973.24 2099.57 2973.24 2130.56V2214H2947.76V2060.56H2973.24V2085.48ZM3077.69 2006.8V2214H3052.21V2006.8H3077.69ZM3134.27 2035.64C3129.42 2035.64 3125.31 2033.96 3121.95 2030.6C3118.59 2027.24 3116.91 2023.13 3116.91 2018.28C3116.91 2013.43 3118.59 2009.32 3121.95 2005.96C3125.31 2002.6 3129.42 2000.92 3134.27 2000.92C3138.94 2000.92 3142.86 2002.6 3146.03 2005.96C3149.39 2009.32 3151.07 2013.43 3151.07 2018.28C3151.07 2023.13 3149.39 2027.24 3146.03 2030.6C3142.86 2033.96 3138.94 2035.64 3134.27 2035.64ZM3146.59 2060.56V2214H3121.11V2060.56H3146.59ZM3264.78 2057.76C3283.45 2057.76 3298.57 2063.45 3310.14 2074.84C3321.71 2086.04 3327.5 2102.28 3327.5 2123.56V2214H3302.3V2127.2C3302.3 2111.89 3298.47 2100.23 3290.82 2092.2C3283.17 2083.99 3272.71 2079.88 3259.46 2079.88C3246.02 2079.88 3235.29 2084.08 3227.26 2092.48C3219.42 2100.88 3215.5 2113.11 3215.5 2129.16V2214H3190.02V2060.56H3215.5V2082.4C3220.54 2074.56 3227.35 2068.49 3235.94 2064.2C3244.71 2059.91 3254.33 2057.76 3264.78 2057.76ZM3509.12 2131.4C3509.12 2136.25 3508.84 2141.39 3508.28 2146.8H3385.64C3386.58 2161.92 3391.71 2173.77 3401.04 2182.36C3410.56 2190.76 3422.04 2194.96 3435.48 2194.96C3446.5 2194.96 3455.64 2192.44 3462.92 2187.4C3470.39 2182.17 3475.62 2175.27 3478.6 2166.68H3506.04C3501.94 2181.43 3493.72 2193.47 3481.4 2202.8C3469.08 2211.95 3453.78 2216.52 3435.48 2216.52C3420.92 2216.52 3407.86 2213.25 3396.28 2206.72C3384.9 2200.19 3375.94 2190.95 3369.4 2179C3362.87 2166.87 3359.6 2152.87 3359.6 2137C3359.6 2121.13 3362.78 2107.23 3369.12 2095.28C3375.47 2083.33 3384.34 2074.19 3395.72 2067.84C3407.3 2061.31 3420.55 2058.04 3435.48 2058.04C3450.04 2058.04 3462.92 2061.21 3474.12 2067.56C3485.32 2073.91 3493.91 2082.68 3499.88 2093.88C3506.04 2104.89 3509.12 2117.4 3509.12 2131.4ZM3482.8 2126.08C3482.8 2116.37 3480.66 2108.07 3476.36 2101.16C3472.07 2094.07 3466.19 2088.75 3458.72 2085.2C3451.44 2081.47 3443.32 2079.6 3434.36 2079.6C3421.48 2079.6 3410.47 2083.71 3401.32 2091.92C3392.36 2100.13 3387.23 2111.52 3385.92 2126.08H3482.8ZM3533.24 2136.72C3533.24 2121.04 3536.41 2107.32 3542.76 2095.56C3549.1 2083.61 3557.78 2074.37 3568.8 2067.84C3580 2061.31 3592.5 2058.04 3606.32 2058.04C3618.26 2058.04 3629.37 2060.84 3639.64 2066.44C3649.9 2071.85 3657.74 2079.04 3663.16 2088V2006.8H3688.92V2214H3663.16V2185.16C3658.12 2194.31 3650.65 2201.87 3640.76 2207.84C3630.86 2213.63 3619.29 2216.52 3606.04 2216.52C3592.41 2216.52 3580 2213.16 3568.8 2206.44C3557.78 2199.72 3549.1 2190.29 3542.76 2178.16C3536.41 2166.03 3533.24 2152.21 3533.24 2136.72ZM3663.16 2137C3663.16 2125.43 3660.82 2115.35 3656.16 2106.76C3651.49 2098.17 3645.14 2091.64 3637.12 2087.16C3629.28 2082.49 3620.6 2080.16 3611.08 2080.16C3601.56 2080.16 3592.88 2082.4 3585.04 2086.88C3577.2 2091.36 3570.94 2097.89 3566.28 2106.48C3561.61 2115.07 3559.28 2125.15 3559.28 2136.72C3559.28 2148.48 3561.61 2158.75 3566.28 2167.52C3570.94 2176.11 3577.2 2182.73 3585.04 2187.4C3592.88 2191.88 3601.56 2194.12 3611.08 2194.12C3620.6 2194.12 3629.28 2191.88 3637.12 2187.4C3645.14 2182.73 3651.49 2176.11 3656.16 2167.52C3660.82 2158.75 3663.16 2148.57 3663.16 2137ZM3837.7 2081.56V2172C3837.7 2179.47 3839.29 2184.79 3842.46 2187.96C3845.64 2190.95 3851.14 2192.44 3858.98 2192.44H3877.74V2214H3854.78C3840.6 2214 3829.96 2210.73 3822.86 2204.2C3815.77 2197.67 3812.22 2186.93 3812.22 2172V2081.56H3792.34V2060.56H3812.22V2021.92H3837.7V2060.56H3877.74V2081.56H3837.7ZM4048.61 2131.4C4048.61 2136.25 4048.33 2141.39 4047.77 2146.8H3925.13C3926.07 2161.92 3931.2 2173.77 3940.53 2182.36C3950.05 2190.76 3961.53 2194.96 3974.97 2194.96C3985.99 2194.96 3995.13 2192.44 4002.41 2187.4C4009.88 2182.17 4015.11 2175.27 4018.09 2166.68H4045.53C4041.43 2181.43 4033.21 2193.47 4020.89 2202.8C4008.57 2211.95 3993.27 2216.52 3974.97 2216.52C3960.41 2216.52 3947.35 2213.25 3935.77 2206.72C3924.39 2200.19 3915.43 2190.95 3908.89 2179C3902.36 2166.87 3899.09 2152.87 3899.09 2137C3899.09 2121.13 3902.27 2107.23 3908.61 2095.28C3914.96 2083.33 3923.83 2074.19 3935.21 2067.84C3946.79 2061.31 3960.04 2058.04 3974.97 2058.04C3989.53 2058.04 4002.41 2061.21 4013.61 2067.56C4024.81 2073.91 4033.4 2082.68 4039.37 2093.88C4045.53 2104.89 4048.61 2117.4 4048.61 2131.4ZM4022.29 2126.08C4022.29 2116.37 4020.15 2108.07 4015.85 2101.16C4011.56 2094.07 4005.68 2088.75 3998.21 2085.2C3990.93 2081.47 3982.81 2079.6 3973.85 2079.6C3960.97 2079.6 3949.96 2083.71 3940.81 2091.92C3931.85 2100.13 3926.72 2111.52 3925.41 2126.08H4022.29ZM4162.33 2214L4125.93 2156.88L4090.93 2214H4064.33L4113.89 2137.84L4064.33 2060.56H4093.17L4129.57 2117.4L4164.29 2060.56H4190.89L4141.61 2136.44L4191.17 2214H4162.33ZM4247.31 2081.56V2172C4247.31 2179.47 4248.9 2184.79 4252.07 2187.96C4255.25 2190.95 4260.75 2192.44 4268.59 2192.44H4287.35V2214H4264.39C4250.21 2214 4239.57 2210.73 4232.47 2204.2C4225.38 2197.67 4221.83 2186.93 4221.83 2172V2081.56H4201.95V2060.56H4221.83V2021.92H4247.31V2060.56H4287.35V2081.56H4247.31Z" fill="black"/>
<path d="M1031 2242H4296.59V2256H1031V2242Z" fill="black"/>
<path d="M1066.28 2505.4H1037.72L1064.6 2441.84H1082.8L1066.28 2505.4ZM1111.64 2505.4H1083.08L1109.96 2441.84H1128.16L1111.64 2505.4ZM1279.05 2441.84V2462.56H1225.85V2637H1200.37V2462.56H1146.89V2441.84H1279.05ZM1386.57 2480.76C1398.14 2480.76 1408.6 2483.28 1417.93 2488.32C1427.26 2493.17 1434.54 2500.55 1439.77 2510.44C1445.18 2520.33 1447.89 2532.37 1447.89 2546.56V2637H1422.69V2550.2C1422.69 2534.89 1418.86 2523.23 1411.21 2515.2C1403.56 2506.99 1393.1 2502.88 1379.85 2502.88C1366.41 2502.88 1355.68 2507.08 1347.65 2515.48C1339.81 2523.88 1335.89 2536.11 1335.89 2552.16V2637H1310.41V2429.8H1335.89V2505.4C1340.93 2497.56 1347.84 2491.49 1356.61 2487.2C1365.57 2482.91 1375.56 2480.76 1386.57 2480.76ZM1502.67 2458.64C1497.82 2458.64 1493.71 2456.96 1490.35 2453.6C1486.99 2450.24 1485.31 2446.13 1485.31 2441.28C1485.31 2436.43 1486.99 2432.32 1490.35 2428.96C1493.71 2425.6 1497.82 2423.92 1502.67 2423.92C1507.34 2423.92 1511.26 2425.6 1514.43 2428.96C1517.79 2432.32 1519.47 2436.43 1519.47 2441.28C1519.47 2446.13 1517.79 2450.24 1514.43 2453.6C1511.26 2456.96 1507.34 2458.64 1502.67 2458.64ZM1514.99 2483.56V2637H1489.51V2483.56H1514.99ZM1612.74 2639.52C1600.98 2639.52 1590.43 2637.56 1581.1 2633.64C1571.77 2629.53 1564.39 2623.93 1558.98 2616.84C1553.57 2609.56 1550.58 2601.25 1550.02 2591.92H1576.34C1577.09 2599.57 1580.63 2605.83 1586.98 2610.68C1593.51 2615.53 1602.01 2617.96 1612.46 2617.96C1622.17 2617.96 1629.82 2615.81 1635.42 2611.52C1641.02 2607.23 1643.82 2601.81 1643.82 2595.28C1643.82 2588.56 1640.83 2583.61 1634.86 2580.44C1628.89 2577.08 1619.65 2573.81 1607.14 2570.64C1595.75 2567.65 1586.42 2564.67 1579.14 2561.68C1572.05 2558.51 1565.89 2553.93 1560.66 2547.96C1555.62 2541.8 1553.1 2533.77 1553.1 2523.88C1553.1 2516.04 1555.43 2508.85 1560.1 2502.32C1564.77 2495.79 1571.39 2490.65 1579.98 2486.92C1588.57 2483 1598.37 2481.04 1609.38 2481.04C1626.37 2481.04 1640.09 2485.33 1650.54 2493.92C1660.99 2502.51 1666.59 2514.27 1667.34 2529.2H1641.86C1641.3 2521.17 1638.03 2514.73 1632.06 2509.88C1626.27 2505.03 1618.43 2502.6 1608.54 2502.6C1599.39 2502.6 1592.11 2504.56 1586.7 2508.48C1581.29 2512.4 1578.58 2517.53 1578.58 2523.88C1578.58 2528.92 1580.17 2533.12 1583.34 2536.48C1586.7 2539.65 1590.81 2542.27 1595.66 2544.32C1600.7 2546.19 1607.61 2548.33 1616.38 2550.76C1627.39 2553.75 1636.35 2556.73 1643.26 2559.72C1650.17 2562.52 1656.05 2566.81 1660.9 2572.6C1665.94 2578.39 1668.55 2585.95 1668.74 2595.28C1668.74 2603.68 1666.41 2611.24 1661.74 2617.96C1657.07 2624.68 1650.45 2630 1641.86 2633.92C1633.46 2637.65 1623.75 2639.52 1612.74 2639.52ZM1792.52 2458.64C1787.66 2458.64 1783.56 2456.96 1780.2 2453.6C1776.84 2450.24 1775.16 2446.13 1775.16 2441.28C1775.16 2436.43 1776.84 2432.32 1780.2 2428.96C1783.56 2425.6 1787.66 2423.92 1792.52 2423.92C1797.18 2423.92 1801.1 2425.6 1804.28 2428.96C1807.64 2432.32 1809.32 2436.43 1809.32 2441.28C1809.32 2446.13 1807.64 2450.24 1804.28 2453.6C1801.1 2456.96 1797.18 2458.64 1792.52 2458.64ZM1804.84 2483.56V2637H1779.36V2483.56H1804.84ZM1902.58 2639.52C1890.82 2639.52 1880.28 2637.56 1870.94 2633.64C1861.61 2629.53 1854.24 2623.93 1848.82 2616.84C1843.41 2609.56 1840.42 2601.25 1839.86 2591.92H1866.18C1866.93 2599.57 1870.48 2605.83 1876.82 2610.68C1883.36 2615.53 1891.85 2617.96 1902.3 2617.96C1912.01 2617.96 1919.66 2615.81 1925.26 2611.52C1930.86 2607.23 1933.66 2601.81 1933.66 2595.28C1933.66 2588.56 1930.68 2583.61 1924.7 2580.44C1918.73 2577.08 1909.49 2573.81 1896.98 2570.64C1885.6 2567.65 1876.26 2564.67 1868.98 2561.68C1861.89 2558.51 1855.73 2553.93 1850.5 2547.96C1845.46 2541.8 1842.94 2533.77 1842.94 2523.88C1842.94 2516.04 1845.28 2508.85 1849.94 2502.32C1854.61 2495.79 1861.24 2490.65 1869.82 2486.92C1878.41 2483 1888.21 2481.04 1899.22 2481.04C1916.21 2481.04 1929.93 2485.33 1940.38 2493.92C1950.84 2502.51 1956.44 2514.27 1957.18 2529.2H1931.7C1931.14 2521.17 1927.88 2514.73 1921.9 2509.88C1916.12 2505.03 1908.28 2502.6 1898.38 2502.6C1889.24 2502.6 1881.96 2504.56 1876.54 2508.48C1871.13 2512.4 1868.42 2517.53 1868.42 2523.88C1868.42 2528.92 1870.01 2533.12 1873.18 2536.48C1876.54 2539.65 1880.65 2542.27 1885.5 2544.32C1890.54 2546.19 1897.45 2548.33 1906.22 2550.76C1917.24 2553.75 1926.2 2556.73 1933.1 2559.72C1940.01 2562.52 1945.89 2566.81 1950.74 2572.6C1955.78 2578.39 1958.4 2585.95 1958.58 2595.28C1958.58 2603.68 1956.25 2611.24 1951.58 2617.96C1946.92 2624.68 1940.29 2630 1931.7 2633.92C1923.3 2637.65 1913.6 2639.52 1902.58 2639.52ZM2059.68 2559.72C2059.68 2544.04 2062.85 2530.32 2069.2 2518.56C2075.55 2506.61 2084.23 2497.37 2095.24 2490.84C2106.44 2484.31 2118.85 2481.04 2132.48 2481.04C2145.92 2481.04 2157.59 2483.93 2167.48 2489.72C2177.37 2495.51 2184.75 2502.79 2189.6 2511.56V2483.56H2215.36V2637H2189.6V2608.44C2184.56 2617.4 2177 2624.87 2166.92 2630.84C2157.03 2636.63 2145.45 2639.52 2132.2 2639.52C2118.57 2639.52 2106.25 2636.16 2095.24 2629.44C2084.23 2622.72 2075.55 2613.29 2069.2 2601.16C2062.85 2589.03 2059.68 2575.21 2059.68 2559.72ZM2189.6 2560C2189.6 2548.43 2187.27 2538.35 2182.6 2529.76C2177.93 2521.17 2171.59 2514.64 2163.56 2510.16C2155.72 2505.49 2147.04 2503.16 2137.52 2503.16C2128 2503.16 2119.32 2505.4 2111.48 2509.88C2103.64 2514.36 2097.39 2520.89 2092.72 2529.48C2088.05 2538.07 2085.72 2548.15 2085.72 2559.72C2085.72 2571.48 2088.05 2581.75 2092.72 2590.52C2097.39 2599.11 2103.64 2605.73 2111.48 2610.4C2119.32 2614.88 2128 2617.12 2137.52 2617.12C2147.04 2617.12 2155.72 2614.88 2163.56 2610.4C2171.59 2605.73 2177.93 2599.11 2182.6 2590.52C2187.27 2581.75 2189.6 2571.57 2189.6 2560ZM2323.55 2559.72C2323.55 2544.04 2326.72 2530.32 2333.07 2518.56C2339.41 2506.61 2348.09 2497.37 2359.11 2490.84C2370.31 2484.31 2382.81 2481.04 2396.63 2481.04C2409.88 2481.04 2421.45 2484.03 2431.35 2490C2441.43 2495.79 2448.8 2502.97 2453.47 2511.56V2483.56H2479.23V2709.8H2453.47V2608.72C2448.61 2617.31 2441.15 2624.59 2431.07 2630.56C2420.99 2636.53 2409.23 2639.52 2395.79 2639.52C2382.35 2639.52 2370.12 2636.16 2359.11 2629.44C2348.09 2622.72 2339.41 2613.29 2333.07 2601.16C2326.72 2589.03 2323.55 2575.21 2323.55 2559.72ZM2453.47 2560C2453.47 2548.43 2451.13 2538.35 2446.47 2529.76C2441.8 2521.17 2435.45 2514.64 2427.43 2510.16C2419.59 2505.49 2410.91 2503.16 2401.39 2503.16C2391.87 2503.16 2383.19 2505.4 2375.35 2509.88C2367.51 2514.36 2361.25 2520.89 2356.59 2529.48C2351.92 2538.07 2349.59 2548.15 2349.59 2559.72C2349.59 2571.48 2351.92 2581.75 2356.59 2590.52C2361.25 2599.11 2367.51 2605.73 2375.35 2610.4C2383.19 2614.88 2391.87 2617.12 2401.39 2617.12C2410.91 2617.12 2419.59 2614.88 2427.43 2610.4C2435.45 2605.73 2441.8 2599.11 2446.47 2590.52C2451.13 2581.75 2453.47 2571.57 2453.47 2560ZM2658.37 2483.56V2637H2632.89V2614.32C2628.03 2622.16 2621.22 2628.32 2612.45 2632.8C2603.86 2637.09 2594.34 2639.24 2583.89 2639.24C2571.94 2639.24 2561.21 2636.81 2551.69 2631.96C2542.17 2626.92 2534.61 2619.45 2529.01 2609.56C2523.59 2599.67 2520.89 2587.63 2520.89 2573.44V2483.56H2546.09V2570.08C2546.09 2585.2 2549.91 2596.87 2557.57 2605.08C2565.22 2613.11 2575.67 2617.12 2588.93 2617.12C2602.55 2617.12 2613.29 2612.92 2621.13 2604.52C2628.97 2596.12 2632.89 2583.89 2632.89 2567.84V2483.56H2658.37ZM2768.31 2639.52C2753.93 2639.52 2740.87 2636.25 2729.11 2629.72C2717.53 2623.19 2708.39 2613.95 2701.67 2602C2695.13 2589.87 2691.87 2575.87 2691.87 2560C2691.87 2544.32 2695.23 2530.51 2701.95 2518.56C2708.85 2506.43 2718.19 2497.19 2729.95 2490.84C2741.71 2484.31 2754.87 2481.04 2769.43 2481.04C2783.99 2481.04 2797.15 2484.31 2808.91 2490.84C2820.67 2497.19 2829.91 2506.33 2836.63 2518.28C2843.53 2530.23 2846.99 2544.13 2846.99 2560C2846.99 2575.87 2843.44 2589.87 2836.35 2602C2829.44 2613.95 2820.01 2623.19 2808.07 2629.72C2796.12 2636.25 2782.87 2639.52 2768.31 2639.52ZM2768.31 2617.12C2777.45 2617.12 2786.04 2614.97 2794.07 2610.68C2802.09 2606.39 2808.53 2599.95 2813.39 2591.36C2818.43 2582.77 2820.95 2572.32 2820.95 2560C2820.95 2547.68 2818.52 2537.23 2813.67 2528.64C2808.81 2520.05 2802.47 2513.71 2794.63 2509.6C2786.79 2505.31 2778.29 2503.16 2769.15 2503.16C2759.81 2503.16 2751.23 2505.31 2743.39 2509.6C2735.73 2513.71 2729.57 2520.05 2724.91 2528.64C2720.24 2537.23 2717.91 2547.68 2717.91 2560C2717.91 2572.51 2720.15 2583.05 2724.63 2591.64C2729.29 2600.23 2735.45 2606.67 2743.11 2610.96C2750.76 2615.07 2759.16 2617.12 2768.31 2617.12ZM2911.57 2504.56V2595C2911.57 2602.47 2913.16 2607.79 2916.33 2610.96C2919.5 2613.95 2925.01 2615.44 2932.85 2615.44H2951.61V2637H2928.65C2914.46 2637 2903.82 2633.73 2896.73 2627.2C2889.64 2620.67 2886.09 2609.93 2886.09 2595V2504.56H2866.21V2483.56H2886.09V2444.92H2911.57V2483.56H2951.61V2504.56H2911.57ZM3122.48 2554.4C3122.48 2559.25 3122.2 2564.39 3121.64 2569.8H2999C2999.94 2584.92 3005.07 2596.77 3014.4 2605.36C3023.92 2613.76 3035.4 2617.96 3048.84 2617.96C3059.86 2617.96 3069 2615.44 3076.28 2610.4C3083.75 2605.17 3088.98 2598.27 3091.96 2589.68H3119.4C3115.3 2604.43 3107.08 2616.47 3094.76 2625.8C3082.44 2634.95 3067.14 2639.52 3048.84 2639.52C3034.28 2639.52 3021.22 2636.25 3009.64 2629.72C2998.26 2623.19 2989.3 2613.95 2982.76 2602C2976.23 2589.87 2972.96 2575.87 2972.96 2560C2972.96 2544.13 2976.14 2530.23 2982.48 2518.28C2988.83 2506.33 2997.7 2497.19 3009.08 2490.84C3020.66 2484.31 3033.91 2481.04 3048.84 2481.04C3063.4 2481.04 3076.28 2484.21 3087.48 2490.56C3098.68 2496.91 3107.27 2505.68 3113.24 2516.88C3119.4 2527.89 3122.48 2540.4 3122.48 2554.4ZM3096.16 2549.08C3096.16 2539.37 3094.02 2531.07 3089.72 2524.16C3085.43 2517.07 3079.55 2511.75 3072.08 2508.2C3064.8 2504.47 3056.68 2502.6 3047.72 2502.6C3034.84 2502.6 3023.83 2506.71 3014.68 2514.92C3005.72 2523.13 3000.59 2534.52 2999.28 2549.08H3096.16ZM3146.59 2559.72C3146.59 2544.04 3149.77 2530.32 3156.11 2518.56C3162.46 2506.61 3171.14 2497.37 3182.15 2490.84C3193.35 2484.31 3205.86 2481.04 3219.67 2481.04C3231.62 2481.04 3242.73 2483.84 3252.99 2489.44C3263.26 2494.85 3271.1 2502.04 3276.51 2511V2429.8H3302.27V2637H3276.51V2608.16C3271.47 2617.31 3264.01 2624.87 3254.11 2630.84C3244.22 2636.63 3232.65 2639.52 3219.39 2639.52C3205.77 2639.52 3193.35 2636.16 3182.15 2629.44C3171.14 2622.72 3162.46 2613.29 3156.11 2601.16C3149.77 2589.03 3146.59 2575.21 3146.59 2559.72ZM3276.51 2560C3276.51 2548.43 3274.18 2538.35 3269.51 2529.76C3264.85 2521.17 3258.5 2514.64 3250.47 2510.16C3242.63 2505.49 3233.95 2503.16 3224.43 2503.16C3214.91 2503.16 3206.23 2505.4 3198.39 2509.88C3190.55 2514.36 3184.3 2520.89 3179.63 2529.48C3174.97 2538.07 3172.63 2548.15 3172.63 2559.72C3172.63 2571.48 3174.97 2581.75 3179.63 2590.52C3184.3 2599.11 3190.55 2605.73 3198.39 2610.4C3206.23 2614.88 3214.91 2617.12 3224.43 2617.12C3233.95 2617.12 3242.63 2614.88 3250.47 2610.4C3258.5 2605.73 3264.85 2599.11 3269.51 2590.52C3274.18 2581.75 3276.51 2571.57 3276.51 2560ZM3451.06 2504.56V2595C3451.06 2602.47 3452.65 2607.79 3455.82 2610.96C3459 2613.95 3464.5 2615.44 3472.34 2615.44H3491.1V2637H3468.14C3453.96 2637 3443.32 2633.73 3436.22 2627.2C3429.13 2620.67 3425.58 2609.93 3425.58 2595V2504.56H3405.7V2483.56H3425.58V2444.92H3451.06V2483.56H3491.1V2504.56H3451.06ZM3661.97 2554.4C3661.97 2559.25 3661.69 2564.39 3661.13 2569.8H3538.49C3539.43 2584.92 3544.56 2596.77 3553.89 2605.36C3563.41 2613.76 3574.89 2617.96 3588.33 2617.96C3599.35 2617.96 3608.49 2615.44 3615.77 2610.4C3623.24 2605.17 3628.47 2598.27 3631.45 2589.68H3658.89C3654.79 2604.43 3646.57 2616.47 3634.25 2625.8C3621.93 2634.95 3606.63 2639.52 3588.33 2639.52C3573.77 2639.52 3560.71 2636.25 3549.13 2629.72C3537.75 2623.19 3528.79 2613.95 3522.25 2602C3515.72 2589.87 3512.45 2575.87 3512.45 2560C3512.45 2544.13 3515.63 2530.23 3521.97 2518.28C3528.32 2506.33 3537.19 2497.19 3548.57 2490.84C3560.15 2484.31 3573.4 2481.04 3588.33 2481.04C3602.89 2481.04 3615.77 2484.21 3626.97 2490.56C3638.17 2496.91 3646.76 2505.68 3652.73 2516.88C3658.89 2527.89 3661.97 2540.4 3661.97 2554.4ZM3635.65 2549.08C3635.65 2539.37 3633.51 2531.07 3629.21 2524.16C3624.92 2517.07 3619.04 2511.75 3611.57 2508.2C3604.29 2504.47 3596.17 2502.6 3587.21 2502.6C3574.33 2502.6 3563.32 2506.71 3554.17 2514.92C3545.21 2523.13 3540.08 2534.52 3538.77 2549.08H3635.65ZM3775.69 2637L3739.29 2579.88L3704.29 2637H3677.69L3727.25 2560.84L3677.69 2483.56H3706.53L3742.93 2540.4L3777.65 2483.56H3804.25L3754.97 2559.44L3804.53 2637H3775.69ZM3860.67 2504.56V2595C3860.67 2602.47 3862.26 2607.79 3865.43 2610.96C3868.6 2613.95 3874.11 2615.44 3881.95 2615.44H3900.71V2637H3877.75C3863.56 2637 3852.92 2633.73 3845.83 2627.2C3838.74 2620.67 3835.19 2609.93 3835.19 2595V2504.56H3815.31V2483.56H3835.19V2444.92H3860.67V2483.56H3900.71V2504.56H3860.67ZM3935.5 2441.84H3963.78L3936.9 2505.4H3918.98L3935.5 2441.84ZM3980.86 2441.84H4009.14L3982.26 2505.4H3964.06L3980.86 2441.84Z" fill="black"/>
<path d="M686.04 809.96C686.04 826.2 680.44 839.733 669.24 850.56C658.227 861.2 641.333 866.52 618.56 866.52H581.04V948H555.56V752.84H618.56C640.587 752.84 657.293 758.16 668.68 768.8C680.253 779.44 686.04 793.16 686.04 809.96ZM618.56 845.52C632.747 845.52 643.2 842.44 649.92 836.28C656.64 830.12 660 821.347 660 809.96C660 785.88 646.187 773.84 618.56 773.84H581.04V845.52H618.56Z" fill="black"/>
<path d="M653.28 1269.1C660.373 1270.22 666.813 1273.11 672.6 1277.78C678.573 1282.44 683.24 1288.23 686.6 1295.14C690.147 1302.04 691.92 1309.42 691.92 1317.26C691.92 1327.15 689.4 1336.11 684.36 1344.14C679.32 1351.98 671.947 1358.23 662.24 1362.9C652.72 1367.38 641.427 1369.62 628.36 1369.62H555.56V1174.46H625.56C638.813 1174.46 650.107 1176.7 659.44 1181.18C668.773 1185.47 675.773 1191.35 680.44 1198.82C685.107 1206.28 687.44 1214.68 687.44 1224.02C687.44 1235.59 684.267 1245.2 677.92 1252.86C671.76 1260.32 663.547 1265.74 653.28 1269.1ZM581.04 1258.74H623.88C635.827 1258.74 645.067 1255.94 651.6 1250.34C658.133 1244.74 661.4 1236.99 661.4 1227.1C661.4 1217.2 658.133 1209.46 651.6 1203.86C645.067 1198.26 635.64 1195.46 623.32 1195.46H581.04V1258.74ZM626.12 1348.62C638.813 1348.62 648.707 1345.63 655.8 1339.66C662.893 1333.68 666.44 1325.38 666.44 1314.74C666.44 1303.91 662.707 1295.42 655.24 1289.26C647.773 1282.91 637.787 1279.74 625.28 1279.74H581.04V1348.62H626.12Z" fill="black"/>
<path d="M628.04 1597.08V1792.24H602.56V1597.08H628.04Z" fill="black"/>
<path d="M580.48 2017.69V2141.17C580.48 2158.53 584.68 2171.41 593.08 2179.81C601.667 2188.21 613.52 2192.41 628.64 2192.41C643.573 2192.41 655.24 2188.21 663.64 2179.81C672.227 2171.41 676.52 2158.53 676.52 2141.17V2017.69H702V2140.89C702 2157.13 698.733 2170.85 692.2 2182.05C685.667 2193.06 676.8 2201.28 665.6 2206.69C654.587 2212.1 642.173 2214.81 628.36 2214.81C614.547 2214.81 602.04 2212.1 590.84 2206.69C579.827 2201.28 571.053 2193.06 564.52 2182.05C558.173 2170.85 555 2157.13 555 2140.89V2017.69H580.48Z" fill="black"/>
<path d="M712.08 2672.7L673.16 2633.78C663.64 2636.39 653.933 2637.7 644.04 2637.7C625.933 2637.7 609.413 2633.5 594.48 2625.1C579.547 2616.51 567.693 2604.66 558.92 2589.54C550.333 2574.23 546.04 2557.06 546.04 2538.02C546.04 2518.98 550.333 2501.9 558.92 2486.78C567.693 2471.47 579.547 2459.62 594.48 2451.22C609.413 2442.63 625.933 2438.34 644.04 2438.34C662.333 2438.34 678.947 2442.63 693.88 2451.22C708.813 2459.62 720.573 2471.38 729.16 2486.5C737.747 2501.62 742.04 2518.79 742.04 2538.02C742.04 2556.68 737.933 2573.48 729.72 2588.42C721.507 2603.35 710.213 2615.11 695.84 2623.7L745.12 2672.7H712.08ZM572.08 2538.02C572.08 2553.51 575.16 2567.14 581.32 2578.9C587.667 2590.66 596.253 2599.71 607.08 2606.06C618.093 2612.4 630.413 2615.58 644.04 2615.58C657.667 2615.58 669.893 2612.4 680.72 2606.06C691.733 2599.71 700.32 2590.66 706.48 2578.9C712.827 2567.14 716 2553.51 716 2538.02C716 2522.34 712.827 2508.71 706.48 2497.14C700.32 2485.38 691.827 2476.32 681 2469.98C670.173 2463.63 657.853 2460.46 644.04 2460.46C630.227 2460.46 617.907 2463.63 607.08 2469.98C596.253 2476.32 587.667 2485.38 581.32 2497.14C575.16 2508.71 572.08 2522.34 572.08 2538.02Z" fill="black"/>
</svg>
