<svg width="5053" height="3583" viewBox="0 0 5053 3583" fill="none" xmlns="http://www.w3.org/2000/svg">
<rect x="4" y="4" width="5045" height="3575" stroke="black" stroke-width="8"/>
<line x1="910.5" y1="2966.51" x2="910.5" y2="618" stroke="black" stroke-width="3"/>
<path d="M1172.68 754.104V774.824H1119.48V949.264H1094V774.824H1040.52V754.104H1172.68ZM1280.2 793.024C1291.78 793.024 1302.23 795.544 1311.56 800.584C1320.9 805.437 1328.18 812.811 1333.4 822.704C1338.82 832.597 1341.52 844.637 1341.52 858.824V949.264H1316.32V862.464C1316.32 847.157 1312.5 835.491 1304.84 827.464C1297.19 819.251 1286.74 815.144 1273.48 815.144C1260.04 815.144 1249.31 819.344 1241.28 827.744C1233.44 836.144 1229.52 848.371 1229.52 864.424V949.264H1204.04V742.064H1229.52V817.664C1234.56 809.824 1241.47 803.757 1250.24 799.464C1259.2 795.171 1269.19 793.024 1280.2 793.024ZM1396.31 770.904C1391.45 770.904 1387.35 769.224 1383.99 765.864C1380.63 762.504 1378.95 758.397 1378.95 753.544C1378.95 748.691 1380.63 744.584 1383.99 741.224C1387.35 737.864 1391.45 736.184 1396.31 736.184C1400.97 736.184 1404.89 737.864 1408.07 741.224C1411.43 744.584 1413.11 748.691 1413.11 753.544C1413.11 758.397 1411.43 762.504 1408.07 765.864C1404.89 769.224 1400.97 770.904 1396.31 770.904ZM1408.63 795.824V949.264H1383.15V795.824H1408.63ZM1506.37 951.784C1494.61 951.784 1484.07 949.824 1474.73 945.904C1465.4 941.797 1458.03 936.197 1452.61 929.104C1447.2 921.824 1444.21 913.517 1443.65 904.184H1469.97C1470.72 911.837 1474.27 918.091 1480.61 922.944C1487.15 927.797 1495.64 930.224 1506.09 930.224C1515.8 930.224 1523.45 928.077 1529.05 923.784C1534.65 919.491 1537.45 914.077 1537.45 907.544C1537.45 900.824 1534.47 895.877 1528.49 892.704C1522.52 889.344 1513.28 886.077 1500.77 882.904C1489.39 879.917 1480.05 876.931 1472.77 873.944C1465.68 870.771 1459.52 866.197 1454.29 860.224C1449.25 854.064 1446.73 846.037 1446.73 836.144C1446.73 828.304 1449.07 821.117 1453.73 814.584C1458.4 808.051 1465.03 802.917 1473.61 799.184C1482.2 795.264 1492 793.304 1503.01 793.304C1520 793.304 1533.72 797.597 1544.17 806.184C1554.63 814.771 1560.23 826.531 1560.97 841.464H1535.49C1534.93 833.437 1531.67 826.997 1525.69 822.144C1519.91 817.291 1512.07 814.864 1502.17 814.864C1493.03 814.864 1485.75 816.824 1480.33 820.744C1474.92 824.664 1472.21 829.797 1472.21 836.144C1472.21 841.184 1473.8 845.384 1476.97 848.744C1480.33 851.917 1484.44 854.531 1489.29 856.584C1494.33 858.451 1501.24 860.597 1510.01 863.024C1521.03 866.011 1529.99 868.997 1536.89 871.984C1543.8 874.784 1549.68 879.077 1554.53 884.864C1559.57 890.651 1562.19 898.211 1562.37 907.544C1562.37 915.944 1560.04 923.504 1555.37 930.224C1550.71 936.944 1544.08 942.264 1535.49 946.184C1527.09 949.917 1517.39 951.784 1506.37 951.784ZM1686.15 770.904C1681.3 770.904 1677.19 769.224 1673.83 765.864C1670.47 762.504 1668.79 758.397 1668.79 753.544C1668.79 748.691 1670.47 744.584 1673.83 741.224C1677.19 737.864 1681.3 736.184 1686.15 736.184C1690.82 736.184 1694.74 737.864 1697.91 741.224C1701.27 744.584 1702.95 748.691 1702.95 753.544C1702.95 758.397 1701.27 762.504 1697.91 765.864C1694.74 769.224 1690.82 770.904 1686.15 770.904ZM1698.47 795.824V949.264H1672.99V795.824H1698.47ZM1796.22 951.784C1784.46 951.784 1773.91 949.824 1764.58 945.904C1755.24 941.797 1747.87 936.197 1742.46 929.104C1737.04 921.824 1734.06 913.517 1733.5 904.184H1759.82C1760.56 911.837 1764.11 918.091 1770.46 922.944C1776.99 927.797 1785.48 930.224 1795.94 930.224C1805.64 930.224 1813.3 928.077 1818.9 923.784C1824.5 919.491 1827.3 914.077 1827.3 907.544C1827.3 900.824 1824.31 895.877 1818.34 892.704C1812.36 889.344 1803.12 886.077 1790.62 882.904C1779.23 879.917 1769.9 876.931 1762.62 873.944C1755.52 870.771 1749.36 866.197 1744.14 860.224C1739.1 854.064 1736.58 846.037 1736.58 836.144C1736.58 828.304 1738.91 821.117 1743.58 814.584C1748.24 808.051 1754.87 802.917 1763.46 799.184C1772.04 795.264 1781.84 793.304 1792.86 793.304C1809.84 793.304 1823.56 797.597 1834.02 806.184C1844.47 814.771 1850.07 826.531 1850.82 841.464H1825.34C1824.78 833.437 1821.51 826.997 1815.54 822.144C1809.75 817.291 1801.91 814.864 1792.02 814.864C1782.87 814.864 1775.59 816.824 1770.18 820.744C1764.76 824.664 1762.06 829.797 1762.06 836.144C1762.06 841.184 1763.64 845.384 1766.82 848.744C1770.18 851.917 1774.28 854.531 1779.14 856.584C1784.18 858.451 1791.08 860.597 1799.86 863.024C1810.87 866.011 1819.83 868.997 1826.74 871.984C1833.64 874.784 1839.52 879.077 1844.38 884.864C1849.42 890.651 1852.03 898.211 1852.22 907.544C1852.22 915.944 1849.88 923.504 1845.22 930.224C1840.55 936.944 1833.92 942.264 1825.34 946.184C1816.94 949.917 1807.23 951.784 1796.22 951.784ZM1953.31 871.984C1953.31 856.304 1956.49 842.584 1962.83 830.824C1969.18 818.877 1977.86 809.637 1988.87 803.104C2000.07 796.571 2012.49 793.304 2026.11 793.304C2039.55 793.304 2051.22 796.197 2061.11 801.984C2071.01 807.771 2078.38 815.051 2083.23 823.824V795.824H2108.99V949.264H2083.23V920.704C2078.19 929.664 2070.63 937.131 2060.55 943.104C2050.66 948.891 2039.09 951.784 2025.83 951.784C2012.21 951.784 1999.89 948.424 1988.87 941.704C1977.86 934.984 1969.18 925.557 1962.83 913.424C1956.49 901.291 1953.31 887.477 1953.31 871.984ZM2083.23 872.264C2083.23 860.691 2080.9 850.611 2076.23 842.024C2071.57 833.437 2065.22 826.904 2057.19 822.424C2049.35 817.757 2040.67 815.424 2031.15 815.424C2021.63 815.424 2012.95 817.664 2005.11 822.144C1997.27 826.624 1991.02 833.157 1986.35 841.744C1981.69 850.331 1979.35 860.411 1979.35 871.984C1979.35 883.744 1981.69 894.011 1986.35 902.784C1991.02 911.371 1997.27 917.997 2005.11 922.664C2012.95 927.144 2021.63 929.384 2031.15 929.384C2040.67 929.384 2049.35 927.144 2057.19 922.664C2065.22 917.997 2071.57 911.371 2076.23 902.784C2080.9 894.011 2083.23 883.837 2083.23 872.264ZM2252.18 824.104C2257.22 815.331 2264.69 808.051 2274.58 802.264C2284.66 796.291 2296.33 793.304 2309.58 793.304C2323.21 793.304 2335.53 796.571 2346.54 803.104C2357.74 809.637 2366.51 818.877 2372.86 830.824C2379.21 842.584 2382.38 856.304 2382.38 871.984C2382.38 887.477 2379.21 901.291 2372.86 913.424C2366.51 925.557 2357.74 934.984 2346.54 941.704C2335.53 948.424 2323.21 951.784 2309.58 951.784C2296.51 951.784 2284.94 948.891 2274.86 943.104C2264.97 937.131 2257.41 929.757 2252.18 920.984V1022.06H2226.7V795.824H2252.18V824.104ZM2356.34 871.984C2356.34 860.411 2354.01 850.331 2349.34 841.744C2344.67 833.157 2338.33 826.624 2330.3 822.144C2322.46 817.664 2313.78 815.424 2304.26 815.424C2294.93 815.424 2286.25 817.757 2278.22 822.424C2270.38 826.904 2264.03 833.531 2259.18 842.304C2254.51 850.891 2252.18 860.877 2252.18 872.264C2252.18 883.837 2254.51 894.011 2259.18 902.784C2264.03 911.371 2270.38 917.997 2278.22 922.664C2286.25 927.144 2294.93 929.384 2304.26 929.384C2313.78 929.384 2322.46 927.144 2330.3 922.664C2338.33 917.997 2344.67 911.371 2349.34 902.784C2354.01 894.011 2356.34 883.744 2356.34 871.984ZM2406.4 871.984C2406.4 856.304 2409.57 842.584 2415.92 830.824C2422.27 818.877 2430.95 809.637 2441.96 803.104C2453.16 796.571 2465.57 793.304 2479.2 793.304C2492.64 793.304 2504.31 796.197 2514.2 801.984C2524.09 807.771 2531.47 815.051 2536.32 823.824V795.824H2562.08V949.264H2536.32V920.704C2531.28 929.664 2523.72 937.131 2513.64 943.104C2503.75 948.891 2492.17 951.784 2478.92 951.784C2465.29 951.784 2452.97 948.424 2441.96 941.704C2430.95 934.984 2422.27 925.557 2415.92 913.424C2409.57 901.291 2406.4 887.477 2406.4 871.984ZM2536.32 872.264C2536.32 860.691 2533.99 850.611 2529.32 842.024C2524.65 833.437 2518.31 826.904 2510.28 822.424C2502.44 817.757 2493.76 815.424 2484.24 815.424C2474.72 815.424 2466.04 817.664 2458.2 822.144C2450.36 826.624 2444.11 833.157 2439.44 841.744C2434.77 850.331 2432.44 860.411 2432.44 871.984C2432.44 883.744 2434.77 894.011 2439.44 902.784C2444.11 911.371 2450.36 917.997 2458.2 922.664C2466.04 927.144 2474.72 929.384 2484.24 929.384C2493.76 929.384 2502.44 927.144 2510.28 922.664C2518.31 917.997 2524.65 911.371 2529.32 902.784C2533.99 894.011 2536.32 883.837 2536.32 872.264ZM2630.62 820.744C2635.1 811.971 2641.44 805.157 2649.66 800.304C2658.06 795.451 2668.23 793.024 2680.18 793.024V819.344H2673.46C2644.9 819.344 2630.62 834.837 2630.62 865.824V949.264H2605.14V795.824H2630.62V820.744ZM2700.07 871.984C2700.07 856.304 2703.24 842.584 2709.59 830.824C2715.94 818.877 2724.62 809.637 2735.63 803.104C2746.83 796.571 2759.24 793.304 2772.87 793.304C2786.31 793.304 2797.98 796.197 2807.87 801.984C2817.76 807.771 2825.14 815.051 2829.99 823.824V795.824H2855.75V949.264H2829.99V920.704C2824.95 929.664 2817.39 937.131 2807.31 943.104C2797.42 948.891 2785.84 951.784 2772.59 951.784C2758.96 951.784 2746.64 948.424 2735.63 941.704C2724.62 934.984 2715.94 925.557 2709.59 913.424C2703.24 901.291 2700.07 887.477 2700.07 871.984ZM2829.99 872.264C2829.99 860.691 2827.66 850.611 2822.99 842.024C2818.32 833.437 2811.98 826.904 2803.95 822.424C2796.11 817.757 2787.43 815.424 2777.91 815.424C2768.39 815.424 2759.71 817.664 2751.87 822.144C2744.03 826.624 2737.78 833.157 2733.11 841.744C2728.44 850.331 2726.11 860.411 2726.11 871.984C2726.11 883.744 2728.44 894.011 2733.11 902.784C2737.78 911.371 2744.03 917.997 2751.87 922.664C2759.71 927.144 2768.39 929.384 2777.91 929.384C2787.43 929.384 2796.11 927.144 2803.95 922.664C2811.98 917.997 2818.32 911.371 2822.99 902.784C2827.66 894.011 2829.99 883.837 2829.99 872.264ZM2962.09 793.304C2975.34 793.304 2986.92 796.197 2996.81 801.984C3006.89 807.771 3014.36 815.051 3019.21 823.824V795.824H3044.97V952.624C3044.97 966.624 3041.98 979.037 3036.01 989.864C3030.04 1000.88 3021.45 1009.46 3010.25 1015.62C2999.24 1021.78 2986.36 1024.86 2971.61 1024.86C2951.45 1024.86 2934.65 1020.1 2921.21 1010.58C2907.77 1001.06 2899.84 988.091 2897.41 971.664H2922.61C2925.41 980.997 2931.2 988.464 2939.97 994.064C2948.74 999.851 2959.29 1002.74 2971.61 1002.74C2985.61 1002.74 2997 998.357 3005.77 989.584C3014.73 980.811 3019.21 968.491 3019.21 952.624V920.424C3014.17 929.384 3006.7 936.851 2996.81 942.824C2986.92 948.797 2975.34 951.784 2962.09 951.784C2948.46 951.784 2936.05 948.424 2924.85 941.704C2913.84 934.984 2905.16 925.557 2898.81 913.424C2892.46 901.291 2889.29 887.477 2889.29 871.984C2889.29 856.304 2892.46 842.584 2898.81 830.824C2905.16 818.877 2913.84 809.637 2924.85 803.104C2936.05 796.571 2948.46 793.304 2962.09 793.304ZM3019.21 872.264C3019.21 860.691 3016.88 850.611 3012.21 842.024C3007.54 833.437 3001.2 826.904 2993.17 822.424C2985.33 817.757 2976.65 815.424 2967.13 815.424C2957.61 815.424 2948.93 817.664 2941.09 822.144C2933.25 826.624 2927 833.157 2922.33 841.744C2917.66 850.331 2915.33 860.411 2915.33 871.984C2915.33 883.744 2917.66 894.011 2922.33 902.784C2927 911.371 2933.25 917.997 2941.09 922.664C2948.93 927.144 2957.61 929.384 2967.13 929.384C2976.65 929.384 2985.33 927.144 2993.17 922.664C3001.2 917.997 3007.54 911.371 3012.21 902.784C3016.88 894.011 3019.21 883.837 3019.21 872.264ZM3113.51 820.744C3117.99 811.971 3124.34 805.157 3132.55 800.304C3140.95 795.451 3151.12 793.024 3163.07 793.024V819.344H3156.35C3127.79 819.344 3113.51 834.837 3113.51 865.824V949.264H3088.03V795.824H3113.51V820.744ZM3182.96 871.984C3182.96 856.304 3186.14 842.584 3192.48 830.824C3198.83 818.877 3207.51 809.637 3218.52 803.104C3229.72 796.571 3242.14 793.304 3255.76 793.304C3269.2 793.304 3280.87 796.197 3290.76 801.984C3300.66 807.771 3308.03 815.051 3312.88 823.824V795.824H3338.64V949.264H3312.88V920.704C3307.84 929.664 3300.28 937.131 3290.2 943.104C3280.31 948.891 3268.74 951.784 3255.48 951.784C3241.86 951.784 3229.54 948.424 3218.52 941.704C3207.51 934.984 3198.83 925.557 3192.48 913.424C3186.14 901.291 3182.96 887.477 3182.96 871.984ZM3312.88 872.264C3312.88 860.691 3310.55 850.611 3305.88 842.024C3301.22 833.437 3294.87 826.904 3286.84 822.424C3279 817.757 3270.32 815.424 3260.8 815.424C3251.28 815.424 3242.6 817.664 3234.76 822.144C3226.92 826.624 3220.67 833.157 3216 841.744C3211.34 850.331 3209 860.411 3209 871.984C3209 883.744 3211.34 894.011 3216 902.784C3220.67 911.371 3226.92 917.997 3234.76 922.664C3242.6 927.144 3251.28 929.384 3260.8 929.384C3270.32 929.384 3279 927.144 3286.84 922.664C3294.87 917.997 3301.22 911.371 3305.88 902.784C3310.55 894.011 3312.88 883.837 3312.88 872.264ZM3407.18 824.104C3412.22 815.331 3419.69 808.051 3429.58 802.264C3439.66 796.291 3451.33 793.304 3464.58 793.304C3478.21 793.304 3490.53 796.571 3501.54 803.104C3512.74 809.637 3521.51 818.877 3527.86 830.824C3534.21 842.584 3537.38 856.304 3537.38 871.984C3537.38 887.477 3534.21 901.291 3527.86 913.424C3521.51 925.557 3512.74 934.984 3501.54 941.704C3490.53 948.424 3478.21 951.784 3464.58 951.784C3451.51 951.784 3439.94 948.891 3429.86 943.104C3419.97 937.131 3412.41 929.757 3407.18 920.984V1022.06H3381.7V795.824H3407.18V824.104ZM3511.34 871.984C3511.34 860.411 3509.01 850.331 3504.34 841.744C3499.67 833.157 3493.33 826.624 3485.3 822.144C3477.46 817.664 3468.78 815.424 3459.26 815.424C3449.93 815.424 3441.25 817.757 3433.22 822.424C3425.38 826.904 3419.03 833.531 3414.18 842.304C3409.51 850.891 3407.18 860.877 3407.18 872.264C3407.18 883.837 3409.51 894.011 3414.18 902.784C3419.03 911.371 3425.38 917.997 3433.22 922.664C3441.25 927.144 3449.93 929.384 3459.26 929.384C3468.78 929.384 3477.46 927.144 3485.3 922.664C3493.33 917.997 3499.67 911.371 3504.34 902.784C3509.01 894.011 3511.34 883.744 3511.34 871.984ZM3647.08 793.024C3658.65 793.024 3669.11 795.544 3678.44 800.584C3687.77 805.437 3695.05 812.811 3700.28 822.704C3705.69 832.597 3708.4 844.637 3708.4 858.824V949.264H3683.2V862.464C3683.2 847.157 3679.37 835.491 3671.72 827.464C3664.07 819.251 3653.61 815.144 3640.36 815.144C3626.92 815.144 3616.19 819.344 3608.16 827.744C3600.32 836.144 3596.4 848.371 3596.4 864.424V949.264H3570.92V742.064H3596.4V817.664C3601.44 809.824 3608.35 803.757 3617.12 799.464C3626.08 795.171 3636.07 793.024 3647.08 793.024ZM3855.75 816.824V907.264C3855.75 914.731 3857.34 920.051 3860.51 923.224C3863.68 926.211 3869.19 927.704 3877.03 927.704H3895.79V949.264H3872.83C3858.64 949.264 3848 945.997 3840.91 939.464C3833.82 932.931 3830.27 922.197 3830.27 907.264V816.824H3810.39V795.824H3830.27V757.184H3855.75V795.824H3895.79V816.824H3855.75ZM4066.66 866.664C4066.66 871.517 4066.38 876.651 4065.82 882.064H3943.18C3944.11 897.184 3949.25 909.037 3958.58 917.624C3968.1 926.024 3979.58 930.224 3993.02 930.224C4004.03 930.224 4013.18 927.704 4020.46 922.664C4027.93 917.437 4033.15 910.531 4036.14 901.944H4063.58C4059.47 916.691 4051.26 928.731 4038.94 938.064C4026.62 947.211 4011.31 951.784 3993.02 951.784C3978.46 951.784 3965.39 948.517 3953.82 941.984C3942.43 935.451 3933.47 926.211 3926.94 914.264C3920.41 902.131 3917.14 888.131 3917.14 872.264C3917.14 856.397 3920.31 842.491 3926.66 830.544C3933.01 818.597 3941.87 809.451 3953.26 803.104C3964.83 796.571 3978.09 793.304 3993.02 793.304C4007.58 793.304 4020.46 796.477 4031.66 802.824C4042.86 809.171 4051.45 817.944 4057.42 829.144C4063.58 840.157 4066.66 852.664 4066.66 866.664ZM4040.34 861.344C4040.34 851.637 4038.19 843.331 4033.9 836.424C4029.61 829.331 4023.73 824.011 4016.26 820.464C4008.98 816.731 4000.86 814.864 3991.9 814.864C3979.02 814.864 3968.01 818.971 3958.86 827.184C3949.9 835.397 3944.77 846.784 3943.46 861.344H4040.34ZM4180.37 949.264L4143.97 892.144L4108.97 949.264H4082.37L4131.93 873.104L4082.37 795.824H4111.21L4147.61 852.664L4182.33 795.824H4208.93L4159.65 871.704L4209.21 949.264H4180.37ZM4265.36 816.824V907.264C4265.36 914.731 4266.95 920.051 4270.12 923.224C4273.29 926.211 4278.8 927.704 4286.64 927.704H4305.4V949.264H4282.44C4268.25 949.264 4257.61 945.997 4250.52 939.464C4243.43 932.931 4239.88 922.197 4239.88 907.264V816.824H4220V795.824H4239.88V757.184H4265.36V795.824H4305.4V816.824H4265.36Z" fill="black"/>
<path d="M1183.32 1175.44V1207.08H1131.24V1370.88H1092.04V1207.08H1039.96V1175.44H1183.32ZM1299.28 1213.52C1311.04 1213.52 1321.49 1216.13 1330.64 1221.36C1339.79 1226.4 1346.88 1233.96 1351.92 1244.04C1357.15 1253.93 1359.76 1265.88 1359.76 1279.88V1370.88H1320.56V1285.2C1320.56 1272.88 1317.48 1263.45 1311.32 1256.92C1305.16 1250.2 1296.76 1246.84 1286.12 1246.84C1275.29 1246.84 1266.71 1250.2 1260.36 1256.92C1254.2 1263.45 1251.12 1272.88 1251.12 1285.2V1370.88H1211.92V1163.68H1251.12V1235.08C1256.16 1228.36 1262.88 1223.13 1271.28 1219.4C1279.68 1215.48 1289.01 1213.52 1299.28 1213.52ZM1416.92 1197.28C1410.01 1197.28 1404.23 1195.13 1399.56 1190.84C1395.08 1186.36 1392.84 1180.85 1392.84 1174.32C1392.84 1167.79 1395.08 1162.37 1399.56 1158.08C1404.23 1153.6 1410.01 1151.36 1416.92 1151.36C1423.83 1151.36 1429.52 1153.6 1434 1158.08C1438.67 1162.37 1441 1167.79 1441 1174.32C1441 1180.85 1438.67 1186.36 1434 1190.84C1429.52 1195.13 1423.83 1197.28 1416.92 1197.28ZM1436.24 1215.76V1370.88H1397.04V1215.76H1436.24ZM1534.33 1373.4C1521.64 1373.4 1510.25 1371.16 1500.17 1366.68C1490.09 1362.01 1482.06 1355.76 1476.09 1347.92C1470.3 1340.08 1467.13 1331.4 1466.57 1321.88H1506.05C1506.8 1327.85 1509.69 1332.8 1514.73 1336.72C1519.96 1340.64 1526.4 1342.6 1534.05 1342.6C1541.52 1342.6 1547.3 1341.11 1551.41 1338.12C1555.7 1335.13 1557.85 1331.31 1557.85 1326.64C1557.85 1321.6 1555.24 1317.87 1550.01 1315.44C1544.97 1312.83 1536.85 1310.03 1525.65 1307.04C1514.08 1304.24 1504.56 1301.35 1497.09 1298.36C1489.81 1295.37 1483.46 1290.8 1478.05 1284.64C1472.82 1278.48 1470.21 1270.17 1470.21 1259.72C1470.21 1251.13 1472.64 1243.29 1477.49 1236.2C1482.53 1229.11 1489.62 1223.51 1498.77 1219.4C1508.1 1215.29 1519.02 1213.24 1531.53 1213.24C1550.01 1213.24 1564.76 1217.91 1575.77 1227.24C1586.78 1236.39 1592.85 1248.8 1593.97 1264.48H1556.45C1555.89 1258.32 1553.28 1253.47 1548.61 1249.92C1544.13 1246.19 1538.06 1244.32 1530.41 1244.32C1523.32 1244.32 1517.81 1245.63 1513.89 1248.24C1510.16 1250.85 1508.29 1254.49 1508.29 1259.16C1508.29 1264.39 1510.9 1268.4 1516.13 1271.2C1521.36 1273.81 1529.48 1276.52 1540.49 1279.32C1551.69 1282.12 1560.93 1285.01 1568.21 1288C1575.49 1290.99 1581.74 1295.65 1586.97 1302C1592.38 1308.16 1595.18 1316.37 1595.37 1326.64C1595.37 1335.6 1592.85 1343.63 1587.81 1350.72C1582.96 1357.81 1575.86 1363.41 1566.53 1367.52C1557.38 1371.44 1546.65 1373.4 1534.33 1373.4ZM1714.15 1197.28C1707.24 1197.28 1701.45 1195.13 1696.79 1190.84C1692.31 1186.36 1690.07 1180.85 1690.07 1174.32C1690.07 1167.79 1692.31 1162.37 1696.79 1158.08C1701.45 1153.6 1707.24 1151.36 1714.15 1151.36C1721.05 1151.36 1726.75 1153.6 1731.23 1158.08C1735.89 1162.37 1738.23 1167.79 1738.23 1174.32C1738.23 1180.85 1735.89 1186.36 1731.23 1190.84C1726.75 1195.13 1721.05 1197.28 1714.15 1197.28ZM1733.47 1215.76V1370.88H1694.27V1215.76H1733.47ZM1831.56 1373.4C1818.86 1373.4 1807.48 1371.16 1797.4 1366.68C1787.32 1362.01 1779.29 1355.76 1773.32 1347.92C1767.53 1340.08 1764.36 1331.4 1763.8 1321.88H1803.28C1804.02 1327.85 1806.92 1332.8 1811.96 1336.72C1817.18 1340.64 1823.62 1342.6 1831.28 1342.6C1838.74 1342.6 1844.53 1341.11 1848.64 1338.12C1852.93 1335.13 1855.08 1331.31 1855.08 1326.64C1855.08 1321.6 1852.46 1317.87 1847.24 1315.44C1842.2 1312.83 1834.08 1310.03 1822.88 1307.04C1811.3 1304.24 1801.78 1301.35 1794.32 1298.36C1787.04 1295.37 1780.69 1290.8 1775.28 1284.64C1770.05 1278.48 1767.44 1270.17 1767.44 1259.72C1767.44 1251.13 1769.86 1243.29 1774.72 1236.2C1779.76 1229.11 1786.85 1223.51 1796 1219.4C1805.33 1215.29 1816.25 1213.24 1828.76 1213.24C1847.24 1213.24 1861.98 1217.91 1873 1227.24C1884.01 1236.39 1890.08 1248.8 1891.2 1264.48H1853.68C1853.12 1258.32 1850.5 1253.47 1845.84 1249.92C1841.36 1246.19 1835.29 1244.32 1827.64 1244.32C1820.54 1244.32 1815.04 1245.63 1811.12 1248.24C1807.38 1250.85 1805.52 1254.49 1805.52 1259.16C1805.52 1264.39 1808.13 1268.4 1813.36 1271.2C1818.58 1273.81 1826.7 1276.52 1837.72 1279.32C1848.92 1282.12 1858.16 1285.01 1865.44 1288C1872.72 1290.99 1878.97 1295.65 1884.2 1302C1889.61 1308.16 1892.41 1316.37 1892.6 1326.64C1892.6 1335.6 1890.08 1343.63 1885.04 1350.72C1880.18 1357.81 1873.09 1363.41 1863.76 1367.52C1854.61 1371.44 1843.88 1373.4 1831.56 1373.4ZM1981.41 1292.76C1981.41 1277.08 1984.49 1263.17 1990.65 1251.04C1997 1238.91 2005.49 1229.57 2016.13 1223.04C2026.96 1216.51 2039 1213.24 2052.25 1213.24C2063.83 1213.24 2073.91 1215.57 2082.49 1220.24C2091.27 1224.91 2098.27 1230.79 2103.49 1237.88V1215.76H2142.97V1370.88H2103.49V1348.2C2098.45 1355.48 2091.45 1361.55 2082.49 1366.4C2073.72 1371.07 2063.55 1373.4 2051.97 1373.4C2038.91 1373.4 2026.96 1370.04 2016.13 1363.32C2005.49 1356.6 1997 1347.17 1990.65 1335.04C1984.49 1322.72 1981.41 1308.63 1981.41 1292.76ZM2103.49 1293.32C2103.49 1283.8 2101.63 1275.68 2097.89 1268.96C2094.16 1262.05 2089.12 1256.83 2082.77 1253.28C2076.43 1249.55 2069.61 1247.68 2062.33 1247.68C2055.05 1247.68 2048.33 1249.45 2042.17 1253C2036.01 1256.55 2030.97 1261.77 2027.05 1268.68C2023.32 1275.4 2021.45 1283.43 2021.45 1292.76C2021.45 1302.09 2023.32 1310.31 2027.05 1317.4C2030.97 1324.31 2036.01 1329.63 2042.17 1333.36C2048.52 1337.09 2055.24 1338.96 2062.33 1338.96C2069.61 1338.96 2076.43 1337.19 2082.77 1333.64C2089.12 1329.91 2094.16 1324.68 2097.89 1317.96C2101.63 1311.05 2103.49 1302.84 2103.49 1293.32ZM2287.18 1238.44C2292.22 1230.97 2299.12 1224.91 2307.9 1220.24C2316.86 1215.57 2327.03 1213.24 2338.42 1213.24C2351.67 1213.24 2363.62 1216.51 2374.26 1223.04C2385.08 1229.57 2393.58 1238.91 2399.74 1251.04C2406.08 1262.99 2409.26 1276.89 2409.26 1292.76C2409.26 1308.63 2406.08 1322.72 2399.74 1335.04C2393.58 1347.17 2385.08 1356.6 2374.26 1363.32C2363.62 1370.04 2351.67 1373.4 2338.42 1373.4C2326.84 1373.4 2316.67 1371.16 2307.9 1366.68C2299.31 1362.01 2292.4 1356.04 2287.18 1348.76V1370.88H2247.98V1163.68H2287.18V1238.44ZM2369.22 1292.76C2369.22 1283.43 2367.26 1275.4 2363.34 1268.68C2359.6 1261.77 2354.56 1256.55 2348.22 1253C2342.06 1249.45 2335.34 1247.68 2328.06 1247.68C2320.96 1247.68 2314.24 1249.55 2307.9 1253.28C2301.74 1256.83 2296.7 1262.05 2292.78 1268.96C2289.04 1275.87 2287.18 1283.99 2287.18 1293.32C2287.18 1302.65 2289.04 1310.77 2292.78 1317.68C2296.7 1324.59 2301.74 1329.91 2307.9 1333.64C2314.24 1337.19 2320.96 1338.96 2328.06 1338.96C2335.34 1338.96 2342.06 1337.09 2348.22 1333.36C2354.56 1329.63 2359.6 1324.31 2363.34 1317.4C2367.26 1310.49 2369.22 1302.28 2369.22 1292.76ZM2506.62 1373.4C2491.69 1373.4 2478.25 1370.13 2466.3 1363.6C2454.36 1356.88 2444.93 1347.45 2438.02 1335.32C2431.3 1323.19 2427.94 1309.19 2427.94 1293.32C2427.94 1277.45 2431.4 1263.45 2438.3 1251.32C2445.4 1239.19 2455.01 1229.85 2467.14 1223.32C2479.28 1216.6 2492.81 1213.24 2507.74 1213.24C2522.68 1213.24 2536.21 1216.6 2548.34 1223.32C2560.48 1229.85 2570 1239.19 2576.9 1251.32C2584 1263.45 2587.54 1277.45 2587.54 1293.32C2587.54 1309.19 2583.9 1323.19 2576.62 1335.32C2569.53 1347.45 2559.82 1356.88 2547.5 1363.6C2535.37 1370.13 2521.74 1373.4 2506.62 1373.4ZM2506.62 1339.24C2513.72 1339.24 2520.34 1337.56 2526.5 1334.2C2532.85 1330.65 2537.89 1325.43 2541.62 1318.52C2545.36 1311.61 2547.22 1303.21 2547.22 1293.32C2547.22 1278.57 2543.3 1267.28 2535.46 1259.44C2527.81 1251.41 2518.38 1247.4 2507.18 1247.4C2495.98 1247.4 2486.56 1251.41 2478.9 1259.44C2471.44 1267.28 2467.7 1278.57 2467.7 1293.32C2467.7 1308.07 2471.34 1319.45 2478.62 1327.48C2486.09 1335.32 2495.42 1339.24 2506.62 1339.24ZM2655.5 1163.68V1370.88H2616.3V1163.68H2655.5ZM2684.15 1292.76C2684.15 1277.08 2687.23 1263.17 2693.39 1251.04C2699.73 1238.91 2708.32 1229.57 2719.15 1223.04C2729.97 1216.51 2742.01 1213.24 2755.27 1213.24C2765.35 1213.24 2774.96 1215.48 2784.11 1219.96C2793.25 1224.25 2800.53 1230.04 2805.95 1237.32V1163.68H2845.71V1370.88H2805.95V1347.92C2801.09 1355.57 2794.28 1361.73 2785.51 1366.4C2776.73 1371.07 2766.56 1373.4 2754.99 1373.4C2741.92 1373.4 2729.97 1370.04 2719.15 1363.32C2708.32 1356.6 2699.73 1347.17 2693.39 1335.04C2687.23 1322.72 2684.15 1308.63 2684.15 1292.76ZM2806.23 1293.32C2806.23 1283.8 2804.36 1275.68 2800.63 1268.96C2796.89 1262.05 2791.85 1256.83 2785.51 1253.28C2779.16 1249.55 2772.35 1247.68 2765.07 1247.68C2757.79 1247.68 2751.07 1249.45 2744.91 1253C2738.75 1256.55 2733.71 1261.77 2729.79 1268.68C2726.05 1275.4 2724.19 1283.43 2724.19 1292.76C2724.19 1302.09 2726.05 1310.31 2729.79 1317.4C2733.71 1324.31 2738.75 1329.63 2744.91 1333.36C2751.25 1337.09 2757.97 1338.96 2765.07 1338.96C2772.35 1338.96 2779.16 1337.19 2785.51 1333.64C2791.85 1329.91 2796.89 1324.68 2800.63 1317.96C2804.36 1311.05 2806.23 1302.84 2806.23 1293.32ZM2996.35 1247.96V1323C2996.35 1328.23 2997.56 1332.05 2999.99 1334.48C3002.6 1336.72 3006.9 1337.84 3012.87 1337.84H3031.07V1370.88H3006.43C2973.39 1370.88 2956.87 1354.83 2956.87 1322.72V1247.96H2938.39V1215.76H2956.87V1177.4H2996.35V1215.76H3031.07V1247.96H2996.35ZM3203.47 1289.96C3203.47 1295.56 3203.09 1300.6 3202.35 1305.08H3088.95C3089.88 1316.28 3093.8 1325.05 3100.71 1331.4C3107.61 1337.75 3116.11 1340.92 3126.19 1340.92C3140.75 1340.92 3151.11 1334.67 3157.27 1322.16H3199.55C3195.07 1337.09 3186.48 1349.41 3173.79 1359.12C3161.09 1368.64 3145.51 1373.4 3127.03 1373.4C3112.09 1373.4 3098.65 1370.13 3086.71 1363.6C3074.95 1356.88 3065.71 1347.45 3058.99 1335.32C3052.45 1323.19 3049.19 1309.19 3049.19 1293.32C3049.19 1277.27 3052.45 1263.17 3058.99 1251.04C3065.52 1238.91 3074.67 1229.57 3086.43 1223.04C3098.19 1216.51 3111.72 1213.24 3127.03 1213.24C3141.77 1213.24 3154.93 1216.41 3166.51 1222.76C3178.27 1229.11 3187.32 1238.16 3193.67 1249.92C3200.2 1261.49 3203.47 1274.84 3203.47 1289.96ZM3162.87 1278.76C3162.68 1268.68 3159.04 1260.65 3151.95 1254.68C3144.85 1248.52 3136.17 1245.44 3125.91 1245.44C3116.2 1245.44 3107.99 1248.43 3101.27 1254.4C3094.73 1260.19 3090.72 1268.31 3089.23 1278.76H3162.87ZM3317.76 1370.88L3285.84 1322.72L3257.56 1370.88H3215.56L3266.24 1293.04L3215 1215.76H3259.24L3290.88 1263.64L3319.44 1215.76H3361.44L3310.48 1293.04L3362 1370.88H3317.76ZM3428.93 1247.96V1323C3428.93 1328.23 3430.14 1332.05 3432.57 1334.48C3435.18 1336.72 3439.48 1337.84 3445.45 1337.84H3463.65V1370.88H3439.01C3405.97 1370.88 3389.45 1354.83 3389.45 1322.72V1247.96H3370.97V1215.76H3389.45V1177.4H3428.93V1215.76H3463.65V1247.96H3428.93Z" fill="black"/>
<path d="M1173.64 1596.28L1170.84 1611.96H1116.24L1084.6 1792H1065L1096.64 1611.96H1042.32L1045.12 1596.28H1173.64ZM1270.11 1636.32C1285.42 1636.32 1297.74 1640.52 1307.07 1648.92C1316.4 1657.32 1321.07 1669.73 1321.07 1686.16C1321.07 1692.13 1320.6 1697.55 1319.67 1702.4L1303.71 1792H1284.39L1299.79 1704.64C1300.54 1700.35 1300.91 1695.77 1300.91 1690.92C1300.91 1678.6 1297.55 1669.27 1290.83 1662.92C1284.11 1656.57 1274.68 1653.4 1262.55 1653.4C1247.8 1653.4 1235.2 1658.07 1224.75 1667.4C1214.3 1676.73 1207.48 1690.45 1204.31 1708.56V1708.28L1189.47 1792H1169.87L1206.55 1584.8H1226.15L1211.87 1665.16C1218.4 1655.83 1226.8 1648.73 1237.07 1643.88C1247.34 1638.84 1258.35 1636.32 1270.11 1636.32ZM1389.06 1610.28C1385.51 1610.28 1382.62 1609.25 1380.38 1607.2C1378.14 1604.96 1377.02 1602.07 1377.02 1598.52C1377.02 1593.67 1378.7 1589.65 1382.06 1586.48C1385.42 1583.12 1389.43 1581.44 1394.1 1581.44C1397.64 1581.44 1400.44 1582.47 1402.5 1584.52C1404.74 1586.57 1405.86 1589.28 1405.86 1592.64C1405.86 1597.49 1404.18 1601.69 1400.82 1605.24C1397.46 1608.6 1393.54 1610.28 1389.06 1610.28ZM1393.54 1639.12L1366.66 1792H1347.06L1373.94 1639.12H1393.54ZM1462 1794.24C1446.51 1794.24 1433.91 1790.69 1424.2 1783.6C1414.49 1776.32 1409.64 1766.43 1409.64 1753.92C1409.64 1751.68 1409.73 1750 1409.92 1748.88H1428.96C1428.21 1757.84 1430.83 1765.03 1436.8 1770.44C1442.77 1775.85 1451.55 1778.56 1463.12 1778.56C1474.88 1778.56 1484.31 1776.13 1491.4 1771.28C1498.49 1766.24 1502.04 1759.61 1502.04 1751.4C1502.04 1746.55 1500.55 1742.44 1497.56 1739.08C1494.57 1735.72 1490.84 1733.01 1486.36 1730.96C1482.07 1728.72 1476 1726.2 1468.16 1723.4C1458.45 1719.85 1450.61 1716.59 1444.64 1713.6C1438.85 1710.43 1433.81 1706.13 1429.52 1700.72C1425.41 1695.12 1423.36 1688.12 1423.36 1679.72C1423.36 1671.32 1425.79 1663.85 1430.64 1657.32C1435.49 1650.79 1442.12 1645.75 1450.52 1642.2C1459.11 1638.65 1468.81 1636.88 1479.64 1636.88C1494.76 1636.88 1507.08 1640.61 1516.6 1648.08C1526.31 1655.55 1531.16 1665.44 1531.16 1677.76C1531.16 1680.37 1531.07 1682.33 1530.88 1683.64H1512.4C1512.59 1682.89 1512.68 1681.68 1512.68 1680C1512.68 1671.79 1509.41 1665.16 1502.88 1660.12C1496.53 1655.08 1488.32 1652.56 1478.24 1652.56C1468.16 1652.56 1459.76 1654.99 1453.04 1659.84C1446.51 1664.51 1443.24 1670.85 1443.24 1678.88C1443.24 1684.29 1444.83 1688.87 1448 1692.6C1451.17 1696.15 1455.09 1699.04 1459.76 1701.28C1464.43 1703.52 1470.68 1706.13 1478.52 1709.12C1487.85 1712.67 1495.32 1715.93 1500.92 1718.92C1506.71 1721.91 1511.56 1726.01 1515.48 1731.24C1519.4 1736.47 1521.36 1743 1521.36 1750.84C1521.36 1764.09 1515.85 1774.64 1504.84 1782.48C1493.83 1790.32 1479.55 1794.24 1462 1794.24ZM1678.35 1610.28C1674.81 1610.28 1671.91 1609.25 1669.67 1607.2C1667.43 1604.96 1666.31 1602.07 1666.31 1598.52C1666.31 1593.67 1667.99 1589.65 1671.35 1586.48C1674.71 1583.12 1678.73 1581.44 1683.39 1581.44C1686.94 1581.44 1689.74 1582.47 1691.79 1584.52C1694.03 1586.57 1695.15 1589.28 1695.15 1592.64C1695.15 1597.49 1693.47 1601.69 1690.11 1605.24C1686.75 1608.6 1682.83 1610.28 1678.35 1610.28ZM1682.83 1639.12L1655.95 1792H1636.35L1663.23 1639.12H1682.83ZM1751.3 1794.24C1735.8 1794.24 1723.2 1790.69 1713.5 1783.6C1703.79 1776.32 1698.94 1766.43 1698.94 1753.92C1698.94 1751.68 1699.03 1750 1699.22 1748.88H1718.26C1717.51 1757.84 1720.12 1765.03 1726.1 1770.44C1732.07 1775.85 1740.84 1778.56 1752.42 1778.56C1764.18 1778.56 1773.6 1776.13 1780.7 1771.28C1787.79 1766.24 1791.34 1759.61 1791.34 1751.4C1791.34 1746.55 1789.84 1742.44 1786.86 1739.08C1783.87 1735.72 1780.14 1733.01 1775.66 1730.96C1771.36 1728.72 1765.3 1726.2 1757.46 1723.4C1747.75 1719.85 1739.91 1716.59 1733.94 1713.6C1728.15 1710.43 1723.11 1706.13 1718.82 1700.72C1714.71 1695.12 1712.66 1688.12 1712.66 1679.72C1712.66 1671.32 1715.08 1663.85 1719.94 1657.32C1724.79 1650.79 1731.42 1645.75 1739.82 1642.2C1748.4 1638.65 1758.11 1636.88 1768.94 1636.88C1784.06 1636.88 1796.38 1640.61 1805.9 1648.08C1815.6 1655.55 1820.46 1665.44 1820.46 1677.76C1820.46 1680.37 1820.36 1682.33 1820.18 1683.64H1801.7C1801.88 1682.89 1801.98 1681.68 1801.98 1680C1801.98 1671.79 1798.71 1665.16 1792.18 1660.12C1785.83 1655.08 1777.62 1652.56 1767.54 1652.56C1757.46 1652.56 1749.06 1654.99 1742.34 1659.84C1735.8 1664.51 1732.54 1670.85 1732.54 1678.88C1732.54 1684.29 1734.12 1688.87 1737.3 1692.6C1740.47 1696.15 1744.39 1699.04 1749.06 1701.28C1753.72 1703.52 1759.98 1706.13 1767.82 1709.12C1777.15 1712.67 1784.62 1715.93 1790.22 1718.92C1796 1721.91 1800.86 1726.01 1804.78 1731.24C1808.7 1736.47 1810.66 1743 1810.66 1750.84C1810.66 1764.09 1805.15 1774.64 1794.14 1782.48C1783.12 1790.32 1768.84 1794.24 1751.3 1794.24ZM1930.13 1715.28C1932.93 1699.6 1938.53 1685.88 1946.93 1674.12C1955.33 1662.17 1965.6 1653.03 1977.73 1646.68C1990.05 1640.15 2003.21 1636.88 2017.21 1636.88C2031.77 1636.88 2043.72 1640.24 2053.05 1646.96C2062.38 1653.68 2068.45 1662.27 2071.25 1672.72L2077.13 1639.12H2096.73L2069.85 1792H2050.25L2056.13 1758.12C2049.78 1768.57 2040.64 1777.25 2028.69 1784.16C2016.93 1790.88 2003.77 1794.24 1989.21 1794.24C1977.08 1794.24 1966.44 1791.72 1957.29 1786.68C1948.14 1781.64 1941.05 1774.55 1936.01 1765.4C1930.97 1756.07 1928.45 1745.15 1928.45 1732.64C1928.45 1727.23 1929.01 1721.44 1930.13 1715.28ZM2063.69 1715.56C2064.62 1710.33 2065.09 1705.67 2065.09 1701.56C2065.09 1687 2060.7 1675.43 2051.93 1666.84C2043.16 1658.25 2031.77 1653.96 2017.77 1653.96C2006.94 1653.96 1996.77 1656.39 1987.25 1661.24C1977.92 1666.09 1969.98 1673.19 1963.45 1682.52C1956.92 1691.67 1952.53 1702.59 1950.29 1715.28C1949.36 1720.88 1948.89 1725.64 1948.89 1729.56C1948.89 1744.31 1953.18 1755.97 1961.77 1764.56C1970.54 1772.96 1981.93 1777.16 1995.93 1777.16C2006.38 1777.16 2016.37 1774.64 2025.89 1769.6C2035.6 1764.56 2043.72 1757.37 2050.25 1748.04C2056.97 1738.71 2061.45 1727.88 2063.69 1715.56ZM2214 1636.32C2229.68 1636.32 2242.18 1640.61 2251.52 1649.2C2261.04 1657.6 2265.8 1669.92 2265.8 1686.16C2265.8 1692.13 2265.33 1697.55 2264.4 1702.4L2248.44 1792H2229.12L2244.52 1704.64C2245.26 1700.35 2245.64 1695.77 2245.64 1690.92C2245.64 1678.6 2242.28 1669.27 2235.56 1662.92C2228.84 1656.57 2219.41 1653.4 2207.28 1653.4C2192.53 1653.4 2179.93 1658.07 2169.48 1667.4C2159.02 1676.73 2152.21 1690.45 2149.04 1708.56V1707.72L2134.2 1792H2114.6L2141.48 1639.12H2161.08L2156.32 1665.44C2162.85 1656.11 2171.16 1648.92 2181.24 1643.88C2191.32 1638.84 2202.24 1636.32 2214 1636.32ZM2416.36 1610.28C2412.81 1610.28 2409.92 1609.25 2407.68 1607.2C2405.44 1604.96 2404.32 1602.07 2404.32 1598.52C2404.32 1593.67 2406 1589.65 2409.36 1586.48C2412.72 1583.12 2416.73 1581.44 2421.4 1581.44C2424.95 1581.44 2427.75 1582.47 2429.8 1584.52C2432.04 1586.57 2433.16 1589.28 2433.16 1592.64C2433.16 1597.49 2431.48 1601.69 2428.12 1605.24C2424.76 1608.6 2420.84 1610.28 2416.36 1610.28ZM2420.84 1639.12L2393.96 1792H2374.36L2401.24 1639.12H2420.84ZM2470.83 1750.56C2470.27 1753.92 2469.99 1756.81 2469.99 1759.24C2469.99 1765.21 2471.57 1769.41 2474.75 1771.84C2478.11 1774.08 2483.52 1775.2 2490.99 1775.2H2508.91L2505.83 1792H2484.83C2473.25 1792 2464.57 1789.76 2458.79 1785.28C2453 1780.8 2450.11 1773.43 2450.11 1763.16C2450.11 1759.05 2450.48 1754.85 2451.23 1750.56L2468.03 1655.64H2446.75L2449.83 1639.12H2471.11L2477.83 1600.76H2497.43L2490.71 1639.12H2532.99L2529.91 1655.64H2487.63L2470.83 1750.56ZM2542.63 1715.28C2545.43 1699.6 2551.03 1685.88 2559.43 1674.12C2567.83 1662.17 2578.1 1653.03 2590.23 1646.68C2602.55 1640.15 2615.71 1636.88 2629.71 1636.88C2644.27 1636.88 2656.22 1640.24 2665.55 1646.96C2674.88 1653.68 2680.95 1662.27 2683.75 1672.72L2689.63 1639.12H2709.23L2682.35 1792H2662.75L2668.63 1758.12C2662.28 1768.57 2653.14 1777.25 2641.19 1784.16C2629.43 1790.88 2616.27 1794.24 2601.71 1794.24C2589.58 1794.24 2578.94 1791.72 2569.79 1786.68C2560.64 1781.64 2553.55 1774.55 2548.51 1765.4C2543.47 1756.07 2540.95 1745.15 2540.95 1732.64C2540.95 1727.23 2541.51 1721.44 2542.63 1715.28ZM2676.19 1715.56C2677.12 1710.33 2677.59 1705.67 2677.59 1701.56C2677.59 1687 2673.2 1675.43 2664.43 1666.84C2655.66 1658.25 2644.27 1653.96 2630.27 1653.96C2619.44 1653.96 2609.27 1656.39 2599.75 1661.24C2590.42 1666.09 2582.48 1673.19 2575.95 1682.52C2569.42 1691.67 2565.03 1702.59 2562.79 1715.28C2561.86 1720.88 2561.39 1725.64 2561.39 1729.56C2561.39 1744.31 2565.68 1755.97 2574.27 1764.56C2583.04 1772.96 2594.43 1777.16 2608.43 1777.16C2618.88 1777.16 2628.87 1774.64 2638.39 1769.6C2648.1 1764.56 2656.22 1757.37 2662.75 1748.04C2669.47 1738.71 2673.95 1727.88 2676.19 1715.56ZM2783.38 1584.8L2746.7 1792H2727.1L2763.78 1584.8H2783.38ZM2833.08 1610.28C2829.53 1610.28 2826.64 1609.25 2824.4 1607.2C2822.16 1604.96 2821.04 1602.07 2821.04 1598.52C2821.04 1593.67 2822.72 1589.65 2826.08 1586.48C2829.44 1583.12 2833.45 1581.44 2838.12 1581.44C2841.67 1581.44 2844.47 1582.47 2846.52 1584.52C2848.76 1586.57 2849.88 1589.28 2849.88 1592.64C2849.88 1597.49 2848.2 1601.69 2844.84 1605.24C2841.48 1608.6 2837.56 1610.28 2833.08 1610.28ZM2837.56 1639.12L2810.68 1792H2791.08L2817.96 1639.12H2837.56ZM2859.54 1715.56C2862.34 1699.69 2867.94 1685.88 2876.34 1674.12C2884.93 1662.17 2895.38 1653.03 2907.7 1646.68C2920.02 1640.15 2933.37 1636.88 2947.74 1636.88C2966.6 1636.88 2981.25 1641.55 2991.7 1650.88C3002.34 1660.21 3008.04 1672.91 3008.78 1688.96H2987.78C2987.22 1677.95 2983.12 1669.36 2975.46 1663.2C2968 1656.85 2957.82 1653.68 2944.94 1653.68C2929.08 1653.68 2915.08 1659.09 2902.94 1669.92C2891 1680.56 2883.25 1695.77 2879.7 1715.56C2878.77 1720.23 2878.3 1725.55 2878.3 1731.52C2878.3 1746.45 2882.32 1757.93 2890.34 1765.96C2898.56 1773.8 2909.38 1777.72 2922.82 1777.72C2935.89 1777.72 2947.28 1774.64 2956.98 1768.48C2966.69 1762.13 2973.88 1753.36 2978.54 1742.16H2999.54C2993.2 1757.84 2983.02 1770.44 2969.02 1779.96C2955.02 1789.48 2938.69 1794.24 2920.02 1794.24C2901.17 1794.24 2886.05 1788.83 2874.66 1778C2863.46 1767.17 2857.86 1752.33 2857.86 1733.48C2857.86 1727.69 2858.42 1721.72 2859.54 1715.56ZM3141.84 1750.56C3141.28 1753.92 3141 1756.81 3141 1759.24C3141 1765.21 3142.59 1769.41 3145.76 1771.84C3149.12 1774.08 3154.53 1775.2 3162 1775.2H3179.92L3176.84 1792H3155.84C3144.27 1792 3135.59 1789.76 3129.8 1785.28C3124.01 1780.8 3121.12 1773.43 3121.12 1763.16C3121.12 1759.05 3121.49 1754.85 3122.24 1750.56L3139.04 1655.64H3117.76L3120.84 1639.12H3142.12L3148.84 1600.76H3168.44L3161.72 1639.12H3204L3200.92 1655.64H3158.64L3141.84 1750.56ZM3302.69 1636.88C3315.57 1636.88 3326.58 1639.4 3335.73 1644.44C3344.87 1649.29 3351.78 1656.01 3356.45 1664.6C3361.3 1673.19 3363.73 1682.99 3363.73 1694C3363.73 1699.04 3363.35 1703.52 3362.61 1707.44C3361.49 1713.04 3360.37 1718.08 3359.25 1722.56H3232.41C3231.85 1726.11 3231.57 1729.47 3231.57 1732.64C3231.57 1747.01 3235.86 1758.12 3244.45 1765.96C3253.22 1773.8 3264.33 1777.72 3277.77 1777.72C3290.65 1777.72 3301.94 1774.64 3311.65 1768.48C3321.35 1762.32 3328.45 1754.01 3332.93 1743.56H3353.93C3347.58 1758.49 3337.41 1770.72 3323.41 1780.24C3309.59 1789.57 3293.45 1794.24 3274.97 1794.24C3255.93 1794.24 3240.62 1788.83 3229.05 1778C3217.66 1766.99 3211.97 1752.05 3211.97 1733.2C3211.97 1727.6 3212.53 1721.72 3213.65 1715.56C3216.45 1699.69 3222.05 1685.79 3230.45 1673.84C3239.03 1661.89 3249.58 1652.75 3262.09 1646.4C3274.59 1640.05 3288.13 1636.88 3302.69 1636.88ZM3342.45 1708C3343.38 1702.77 3343.85 1698.39 3343.85 1694.84C3343.85 1681.59 3339.65 1671.41 3331.25 1664.32C3322.85 1657.23 3312.11 1653.68 3299.05 1653.68C3289.53 1653.68 3280.38 1655.73 3271.61 1659.84C3262.83 1663.95 3255.18 1670.11 3248.65 1678.32C3242.11 1686.53 3237.63 1696.43 3235.21 1708H3342.45ZM3449.99 1714.72L3485.55 1792H3463.15L3434.87 1730.68L3385.59 1792H3365.15L3427.87 1715.56L3392.59 1639.12H3414.99L3442.99 1699.6L3491.43 1639.12H3512.15L3449.99 1714.72ZM3544.61 1750.56C3544.05 1753.92 3543.77 1756.81 3543.77 1759.24C3543.77 1765.21 3545.36 1769.41 3548.53 1771.84C3551.89 1774.08 3557.31 1775.2 3564.77 1775.2H3582.69L3579.61 1792H3558.61C3547.04 1792 3538.36 1789.76 3532.57 1785.28C3526.79 1780.8 3523.89 1773.43 3523.89 1763.16C3523.89 1759.05 3524.27 1754.85 3525.01 1750.56L3541.81 1655.64H3520.53L3523.61 1639.12H3544.89L3551.61 1600.76H3571.21L3564.49 1639.12H3606.77L3603.69 1655.64H3561.41L3544.61 1750.56Z" fill="black"/>
<path d="M1172.68 2018.84V2039.56H1119.48V2214H1094V2039.56H1040.52V2018.84H1172.68ZM1280.2 2057.76C1291.78 2057.76 1302.23 2060.28 1311.56 2065.32C1320.9 2070.17 1328.18 2077.55 1333.4 2087.44C1338.82 2097.33 1341.52 2109.37 1341.52 2123.56V2214H1316.32V2127.2C1316.32 2111.89 1312.5 2100.23 1304.84 2092.2C1297.19 2083.99 1286.74 2079.88 1273.48 2079.88C1260.04 2079.88 1249.31 2084.08 1241.28 2092.48C1233.44 2100.88 1229.52 2113.11 1229.52 2129.16V2214H1204.04V2006.8H1229.52V2082.4C1234.56 2074.56 1241.47 2068.49 1250.24 2064.2C1259.2 2059.91 1269.19 2057.76 1280.2 2057.76ZM1396.31 2035.64C1391.45 2035.64 1387.35 2033.96 1383.99 2030.6C1380.63 2027.24 1378.95 2023.13 1378.95 2018.28C1378.95 2013.43 1380.63 2009.32 1383.99 2005.96C1387.35 2002.6 1391.45 2000.92 1396.31 2000.92C1400.97 2000.92 1404.89 2002.6 1408.07 2005.96C1411.43 2009.32 1413.11 2013.43 1413.11 2018.28C1413.11 2023.13 1411.43 2027.24 1408.07 2030.6C1404.89 2033.96 1400.97 2035.64 1396.31 2035.64ZM1408.63 2060.56V2214H1383.15V2060.56H1408.63ZM1506.37 2216.52C1494.61 2216.52 1484.07 2214.56 1474.73 2210.64C1465.4 2206.53 1458.03 2200.93 1452.61 2193.84C1447.2 2186.56 1444.21 2178.25 1443.65 2168.92H1469.97C1470.72 2176.57 1474.27 2182.83 1480.61 2187.68C1487.15 2192.53 1495.64 2194.96 1506.09 2194.96C1515.8 2194.96 1523.45 2192.81 1529.05 2188.52C1534.65 2184.23 1537.45 2178.81 1537.45 2172.28C1537.45 2165.56 1534.47 2160.61 1528.49 2157.44C1522.52 2154.08 1513.28 2150.81 1500.77 2147.64C1489.39 2144.65 1480.05 2141.67 1472.77 2138.68C1465.68 2135.51 1459.52 2130.93 1454.29 2124.96C1449.25 2118.8 1446.73 2110.77 1446.73 2100.88C1446.73 2093.04 1449.07 2085.85 1453.73 2079.32C1458.4 2072.79 1465.03 2067.65 1473.61 2063.92C1482.2 2060 1492 2058.04 1503.01 2058.04C1520 2058.04 1533.72 2062.33 1544.17 2070.92C1554.63 2079.51 1560.23 2091.27 1560.97 2106.2H1535.49C1534.93 2098.17 1531.67 2091.73 1525.69 2086.88C1519.91 2082.03 1512.07 2079.6 1502.17 2079.6C1493.03 2079.6 1485.75 2081.56 1480.33 2085.48C1474.92 2089.4 1472.21 2094.53 1472.21 2100.88C1472.21 2105.92 1473.8 2110.12 1476.97 2113.48C1480.33 2116.65 1484.44 2119.27 1489.29 2121.32C1494.33 2123.19 1501.24 2125.33 1510.01 2127.76C1521.03 2130.75 1529.99 2133.73 1536.89 2136.72C1543.8 2139.52 1549.68 2143.81 1554.53 2149.6C1559.57 2155.39 1562.19 2162.95 1562.37 2172.28C1562.37 2180.68 1560.04 2188.24 1555.37 2194.96C1550.71 2201.68 1544.08 2207 1535.49 2210.92C1527.09 2214.65 1517.39 2216.52 1506.37 2216.52ZM1686.15 2035.64C1681.3 2035.64 1677.19 2033.96 1673.83 2030.6C1670.47 2027.24 1668.79 2023.13 1668.79 2018.28C1668.79 2013.43 1670.47 2009.32 1673.83 2005.96C1677.19 2002.6 1681.3 2000.92 1686.15 2000.92C1690.82 2000.92 1694.74 2002.6 1697.91 2005.96C1701.27 2009.32 1702.95 2013.43 1702.95 2018.28C1702.95 2023.13 1701.27 2027.24 1697.91 2030.6C1694.74 2033.96 1690.82 2035.64 1686.15 2035.64ZM1698.47 2060.56V2214H1672.99V2060.56H1698.47ZM1796.22 2216.52C1784.46 2216.52 1773.91 2214.56 1764.58 2210.64C1755.24 2206.53 1747.87 2200.93 1742.46 2193.84C1737.04 2186.56 1734.06 2178.25 1733.5 2168.92H1759.82C1760.56 2176.57 1764.11 2182.83 1770.46 2187.68C1776.99 2192.53 1785.48 2194.96 1795.94 2194.96C1805.64 2194.96 1813.3 2192.81 1818.9 2188.52C1824.5 2184.23 1827.3 2178.81 1827.3 2172.28C1827.3 2165.56 1824.31 2160.61 1818.34 2157.44C1812.36 2154.08 1803.12 2150.81 1790.62 2147.64C1779.23 2144.65 1769.9 2141.67 1762.62 2138.68C1755.52 2135.51 1749.36 2130.93 1744.14 2124.96C1739.1 2118.8 1736.58 2110.77 1736.58 2100.88C1736.58 2093.04 1738.91 2085.85 1743.58 2079.32C1748.24 2072.79 1754.87 2067.65 1763.46 2063.92C1772.04 2060 1781.84 2058.04 1792.86 2058.04C1809.84 2058.04 1823.56 2062.33 1834.02 2070.92C1844.47 2079.51 1850.07 2091.27 1850.82 2106.2H1825.34C1824.78 2098.17 1821.51 2091.73 1815.54 2086.88C1809.75 2082.03 1801.91 2079.6 1792.02 2079.6C1782.87 2079.6 1775.59 2081.56 1770.18 2085.48C1764.76 2089.4 1762.06 2094.53 1762.06 2100.88C1762.06 2105.92 1763.64 2110.12 1766.82 2113.48C1770.18 2116.65 1774.28 2119.27 1779.14 2121.32C1784.18 2123.19 1791.08 2125.33 1799.86 2127.76C1810.87 2130.75 1819.83 2133.73 1826.74 2136.72C1833.64 2139.52 1839.52 2143.81 1844.38 2149.6C1849.42 2155.39 1852.03 2162.95 1852.22 2172.28C1852.22 2180.68 1849.88 2188.24 1845.22 2194.96C1840.55 2201.68 1833.92 2207 1825.34 2210.92C1816.94 2214.65 1807.23 2216.52 1796.22 2216.52ZM1953.31 2136.72C1953.31 2121.04 1956.49 2107.32 1962.83 2095.56C1969.18 2083.61 1977.86 2074.37 1988.87 2067.84C2000.07 2061.31 2012.49 2058.04 2026.11 2058.04C2039.55 2058.04 2051.22 2060.93 2061.11 2066.72C2071.01 2072.51 2078.38 2079.79 2083.23 2088.56V2060.56H2108.99V2214H2083.23V2185.44C2078.19 2194.4 2070.63 2201.87 2060.55 2207.84C2050.66 2213.63 2039.09 2216.52 2025.83 2216.52C2012.21 2216.52 1999.89 2213.16 1988.87 2206.44C1977.86 2199.72 1969.18 2190.29 1962.83 2178.16C1956.49 2166.03 1953.31 2152.21 1953.31 2136.72ZM2083.23 2137C2083.23 2125.43 2080.9 2115.35 2076.23 2106.76C2071.57 2098.17 2065.22 2091.64 2057.19 2087.16C2049.35 2082.49 2040.67 2080.16 2031.15 2080.16C2021.63 2080.16 2012.95 2082.4 2005.11 2086.88C1997.27 2091.36 1991.02 2097.89 1986.35 2106.48C1981.69 2115.07 1979.35 2125.15 1979.35 2136.72C1979.35 2148.48 1981.69 2158.75 1986.35 2167.52C1991.02 2176.11 1997.27 2182.73 2005.11 2187.4C2012.95 2191.88 2021.63 2194.12 2031.15 2194.12C2040.67 2194.12 2049.35 2191.88 2057.19 2187.4C2065.22 2182.73 2071.57 2176.11 2076.23 2167.52C2080.9 2158.75 2083.23 2148.57 2083.23 2137ZM2226.81 2057.76C2245.48 2057.76 2260.6 2063.45 2272.17 2074.84C2283.75 2086.04 2289.53 2102.28 2289.53 2123.56V2214H2264.33V2127.2C2264.33 2111.89 2260.51 2100.23 2252.85 2092.2C2245.2 2083.99 2234.75 2079.88 2221.49 2079.88C2208.05 2079.88 2197.32 2084.08 2189.29 2092.48C2181.45 2100.88 2177.53 2113.11 2177.53 2129.16V2214H2152.05V2060.56H2177.53V2082.4C2182.57 2074.56 2189.39 2068.49 2197.97 2064.2C2206.75 2059.91 2216.36 2057.76 2226.81 2057.76ZM2541.88 2060.56V2214H2516.4V2191.32C2511.55 2199.16 2504.74 2205.32 2495.96 2209.8C2487.38 2214.09 2477.86 2216.24 2467.4 2216.24C2455.46 2216.24 2444.72 2213.81 2435.2 2208.96C2425.68 2203.92 2418.12 2196.45 2412.52 2186.56C2407.11 2176.67 2404.4 2164.63 2404.4 2150.44V2060.56H2429.6V2147.08C2429.6 2162.2 2433.43 2173.87 2441.08 2182.08C2448.74 2190.11 2459.19 2194.12 2472.44 2194.12C2486.07 2194.12 2496.8 2189.92 2504.64 2181.52C2512.48 2173.12 2516.4 2160.89 2516.4 2144.84V2060.56H2541.88ZM2659.66 2057.76C2678.33 2057.76 2693.45 2063.45 2705.02 2074.84C2716.6 2086.04 2722.38 2102.28 2722.38 2123.56V2214H2697.18V2127.2C2697.18 2111.89 2693.36 2100.23 2685.7 2092.2C2678.05 2083.99 2667.6 2079.88 2654.34 2079.88C2640.9 2079.88 2630.17 2084.08 2622.14 2092.48C2614.3 2100.88 2610.38 2113.11 2610.38 2129.16V2214H2584.9V2060.56H2610.38V2082.4C2615.42 2074.56 2622.24 2068.49 2630.82 2064.2C2639.6 2059.91 2649.21 2057.76 2659.66 2057.76ZM2754.49 2136.72C2754.49 2121.04 2757.66 2107.32 2764.01 2095.56C2770.35 2083.61 2779.03 2074.37 2790.05 2067.84C2801.25 2061.31 2813.75 2058.04 2827.57 2058.04C2839.51 2058.04 2850.62 2060.84 2860.89 2066.44C2871.15 2071.85 2878.99 2079.04 2884.41 2088V2006.8H2910.17V2214H2884.41V2185.16C2879.37 2194.31 2871.9 2201.87 2862.01 2207.84C2852.11 2213.63 2840.54 2216.52 2827.29 2216.52C2813.66 2216.52 2801.25 2213.16 2790.05 2206.44C2779.03 2199.72 2770.35 2190.29 2764.01 2178.16C2757.66 2166.03 2754.49 2152.21 2754.49 2136.72ZM2884.41 2137C2884.41 2125.43 2882.07 2115.35 2877.41 2106.76C2872.74 2098.17 2866.39 2091.64 2858.37 2087.16C2850.53 2082.49 2841.85 2080.16 2832.33 2080.16C2822.81 2080.16 2814.13 2082.4 2806.29 2086.88C2798.45 2091.36 2792.19 2097.89 2787.53 2106.48C2782.86 2115.07 2780.53 2125.15 2780.53 2136.72C2780.53 2148.48 2782.86 2158.75 2787.53 2167.52C2792.19 2176.11 2798.45 2182.73 2806.29 2187.4C2814.13 2191.88 2822.81 2194.12 2832.33 2194.12C2841.85 2194.12 2850.53 2191.88 2858.37 2187.4C2866.39 2182.73 2872.74 2176.11 2877.41 2167.52C2882.07 2158.75 2884.41 2148.57 2884.41 2137ZM3093.22 2131.4C3093.22 2136.25 3092.94 2141.39 3092.38 2146.8H2969.74C2970.68 2161.92 2975.81 2173.77 2985.14 2182.36C2994.66 2190.76 3006.14 2194.96 3019.58 2194.96C3030.6 2194.96 3039.74 2192.44 3047.02 2187.4C3054.49 2182.17 3059.72 2175.27 3062.7 2166.68H3090.14C3086.04 2181.43 3077.82 2193.47 3065.5 2202.8C3053.18 2211.95 3037.88 2216.52 3019.58 2216.52C3005.02 2216.52 2991.96 2213.25 2980.38 2206.72C2969 2200.19 2960.04 2190.95 2953.5 2179C2946.97 2166.87 2943.7 2152.87 2943.7 2137C2943.7 2121.13 2946.88 2107.23 2953.22 2095.28C2959.57 2083.33 2968.44 2074.19 2979.82 2067.84C2991.4 2061.31 3004.65 2058.04 3019.58 2058.04C3034.14 2058.04 3047.02 2061.21 3058.22 2067.56C3069.42 2073.91 3078.01 2082.68 3083.98 2093.88C3090.14 2104.89 3093.22 2117.4 3093.22 2131.4ZM3066.9 2126.08C3066.9 2116.37 3064.76 2108.07 3060.46 2101.16C3056.17 2094.07 3050.29 2088.75 3042.82 2085.2C3035.54 2081.47 3027.42 2079.6 3018.46 2079.6C3005.58 2079.6 2994.57 2083.71 2985.42 2091.92C2976.46 2100.13 2971.33 2111.52 2970.02 2126.08H3066.9ZM3152.34 2085.48C3156.82 2076.71 3163.16 2069.89 3171.38 2065.04C3179.78 2060.19 3189.95 2057.76 3201.9 2057.76V2084.08H3195.18C3166.62 2084.08 3152.34 2099.57 3152.34 2130.56V2214H3126.86V2060.56H3152.34V2085.48ZM3256.79 2006.8V2214H3231.31V2006.8H3256.79ZM3313.38 2035.64C3308.52 2035.64 3304.42 2033.96 3301.06 2030.6C3297.7 2027.24 3296.02 2023.13 3296.02 2018.28C3296.02 2013.43 3297.7 2009.32 3301.06 2005.96C3304.42 2002.6 3308.52 2000.92 3313.38 2000.92C3318.04 2000.92 3321.96 2002.6 3325.14 2005.96C3328.5 2009.32 3330.18 2013.43 3330.18 2018.28C3330.18 2023.13 3328.5 2027.24 3325.14 2030.6C3321.96 2033.96 3318.04 2035.64 3313.38 2035.64ZM3325.7 2060.56V2214H3300.22V2060.56H3325.7ZM3443.88 2057.76C3462.55 2057.76 3477.67 2063.45 3489.24 2074.84C3500.82 2086.04 3506.6 2102.28 3506.6 2123.56V2214H3481.4V2127.2C3481.4 2111.89 3477.58 2100.23 3469.92 2092.2C3462.27 2083.99 3451.82 2079.88 3438.56 2079.88C3425.12 2079.88 3414.39 2084.08 3406.36 2092.48C3398.52 2100.88 3394.6 2113.11 3394.6 2129.16V2214H3369.12V2060.56H3394.6V2082.4C3399.64 2074.56 3406.46 2068.49 3415.04 2064.2C3423.82 2059.91 3433.43 2057.76 3443.88 2057.76ZM3688.22 2131.4C3688.22 2136.25 3687.94 2141.39 3687.38 2146.8H3564.74C3565.68 2161.92 3570.81 2173.77 3580.14 2182.36C3589.66 2190.76 3601.14 2194.96 3614.58 2194.96C3625.6 2194.96 3634.74 2192.44 3642.02 2187.4C3649.49 2182.17 3654.72 2175.27 3657.7 2166.68H3685.14C3681.04 2181.43 3672.82 2193.47 3660.5 2202.8C3648.18 2211.95 3632.88 2216.52 3614.58 2216.52C3600.02 2216.52 3586.96 2213.25 3575.38 2206.72C3564 2200.19 3555.04 2190.95 3548.5 2179C3541.97 2166.87 3538.7 2152.87 3538.7 2137C3538.7 2121.13 3541.88 2107.23 3548.22 2095.28C3554.57 2083.33 3563.44 2074.19 3574.82 2067.84C3586.4 2061.31 3599.65 2058.04 3614.58 2058.04C3629.14 2058.04 3642.02 2061.21 3653.22 2067.56C3664.42 2073.91 3673.01 2082.68 3678.98 2093.88C3685.14 2104.89 3688.22 2117.4 3688.22 2131.4ZM3661.9 2126.08C3661.9 2116.37 3659.76 2108.07 3655.46 2101.16C3651.17 2094.07 3645.29 2088.75 3637.82 2085.2C3630.54 2081.47 3622.42 2079.6 3613.46 2079.6C3600.58 2079.6 3589.57 2083.71 3580.42 2091.92C3571.46 2100.13 3566.33 2111.52 3565.02 2126.08H3661.9ZM3712.34 2136.72C3712.34 2121.04 3715.51 2107.32 3721.86 2095.56C3728.2 2083.61 3736.88 2074.37 3747.9 2067.84C3759.1 2061.31 3771.6 2058.04 3785.42 2058.04C3797.36 2058.04 3808.47 2060.84 3818.74 2066.44C3829 2071.85 3836.84 2079.04 3842.26 2088V2006.8H3868.02V2214H3842.26V2185.16C3837.22 2194.31 3829.75 2201.87 3819.86 2207.84C3809.96 2213.63 3798.39 2216.52 3785.14 2216.52C3771.51 2216.52 3759.1 2213.16 3747.9 2206.44C3736.88 2199.72 3728.2 2190.29 3721.86 2178.16C3715.51 2166.03 3712.34 2152.21 3712.34 2136.72ZM3842.26 2137C3842.26 2125.43 3839.92 2115.35 3835.26 2106.76C3830.59 2098.17 3824.24 2091.64 3816.22 2087.16C3808.38 2082.49 3799.7 2080.16 3790.18 2080.16C3780.66 2080.16 3771.98 2082.4 3764.14 2086.88C3756.3 2091.36 3750.04 2097.89 3745.38 2106.48C3740.71 2115.07 3738.38 2125.15 3738.38 2136.72C3738.38 2148.48 3740.71 2158.75 3745.38 2167.52C3750.04 2176.11 3756.3 2182.73 3764.14 2187.4C3771.98 2191.88 3780.66 2194.12 3790.18 2194.12C3799.7 2194.12 3808.38 2191.88 3816.22 2187.4C3824.24 2182.73 3830.59 2176.11 3835.26 2167.52C3839.92 2158.75 3842.26 2148.57 3842.26 2137ZM4016.8 2081.56V2172C4016.8 2179.47 4018.39 2184.79 4021.56 2187.96C4024.74 2190.95 4030.24 2192.44 4038.08 2192.44H4056.84V2214H4033.88C4019.7 2214 4009.06 2210.73 4001.96 2204.2C3994.87 2197.67 3991.32 2186.93 3991.32 2172V2081.56H3971.44V2060.56H3991.32V2021.92H4016.8V2060.56H4056.84V2081.56H4016.8ZM4227.72 2131.4C4227.72 2136.25 4227.44 2141.39 4226.88 2146.8H4104.24C4105.17 2161.92 4110.3 2173.77 4119.64 2182.36C4129.16 2190.76 4140.64 2194.96 4154.08 2194.96C4165.09 2194.96 4174.24 2192.44 4181.52 2187.4C4188.98 2182.17 4194.21 2175.27 4197.2 2166.68H4224.64C4220.53 2181.43 4212.32 2193.47 4200 2202.8C4187.68 2211.95 4172.37 2216.52 4154.08 2216.52C4139.52 2216.52 4126.45 2213.25 4114.88 2206.72C4103.49 2200.19 4094.53 2190.95 4088 2179C4081.46 2166.87 4078.2 2152.87 4078.2 2137C4078.2 2121.13 4081.37 2107.23 4087.72 2095.28C4094.06 2083.33 4102.93 2074.19 4114.32 2067.84C4125.89 2061.31 4139.14 2058.04 4154.08 2058.04C4168.64 2058.04 4181.52 2061.21 4192.72 2067.56C4203.92 2073.91 4212.5 2082.68 4218.48 2093.88C4224.64 2104.89 4227.72 2117.4 4227.72 2131.4ZM4201.4 2126.08C4201.4 2116.37 4199.25 2108.07 4194.96 2101.16C4190.66 2094.07 4184.78 2088.75 4177.32 2085.2C4170.04 2081.47 4161.92 2079.6 4152.96 2079.6C4140.08 2079.6 4129.06 2083.71 4119.92 2091.92C4110.96 2100.13 4105.82 2111.52 4104.52 2126.08H4201.4ZM4341.43 2214L4305.03 2156.88L4270.03 2214H4243.43L4292.99 2137.84L4243.43 2060.56H4272.27L4308.67 2117.4L4343.39 2060.56H4369.99L4320.71 2136.44L4370.27 2214H4341.43ZM4426.41 2081.56V2172C4426.41 2179.47 4428 2184.79 4431.17 2187.96C4434.35 2190.95 4439.85 2192.44 4447.69 2192.44H4466.45V2214H4443.49C4429.31 2214 4418.67 2210.73 4411.57 2204.2C4404.48 2197.67 4400.93 2186.93 4400.93 2172V2081.56H4381.05V2060.56H4400.93V2021.92H4426.41V2060.56H4466.45V2081.56H4426.41Z" fill="black"/>
<path d="M1031 2242H4475.69V2256H1031V2242Z" fill="black"/>
<path d="M1066.28 2505.4H1037.72L1064.6 2441.84H1082.8L1066.28 2505.4ZM1111.64 2505.4H1083.08L1109.96 2441.84H1128.16L1111.64 2505.4ZM1279.05 2441.84V2462.56H1225.85V2637H1200.37V2462.56H1146.89V2441.84H1279.05ZM1386.57 2480.76C1398.14 2480.76 1408.6 2483.28 1417.93 2488.32C1427.26 2493.17 1434.54 2500.55 1439.77 2510.44C1445.18 2520.33 1447.89 2532.37 1447.89 2546.56V2637H1422.69V2550.2C1422.69 2534.89 1418.86 2523.23 1411.21 2515.2C1403.56 2506.99 1393.1 2502.88 1379.85 2502.88C1366.41 2502.88 1355.68 2507.08 1347.65 2515.48C1339.81 2523.88 1335.89 2536.11 1335.89 2552.16V2637H1310.41V2429.8H1335.89V2505.4C1340.93 2497.56 1347.84 2491.49 1356.61 2487.2C1365.57 2482.91 1375.56 2480.76 1386.57 2480.76ZM1502.67 2458.64C1497.82 2458.64 1493.71 2456.96 1490.35 2453.6C1486.99 2450.24 1485.31 2446.13 1485.31 2441.28C1485.31 2436.43 1486.99 2432.32 1490.35 2428.96C1493.71 2425.6 1497.82 2423.92 1502.67 2423.92C1507.34 2423.92 1511.26 2425.6 1514.43 2428.96C1517.79 2432.32 1519.47 2436.43 1519.47 2441.28C1519.47 2446.13 1517.79 2450.24 1514.43 2453.6C1511.26 2456.96 1507.34 2458.64 1502.67 2458.64ZM1514.99 2483.56V2637H1489.51V2483.56H1514.99ZM1612.74 2639.52C1600.98 2639.52 1590.43 2637.56 1581.1 2633.64C1571.77 2629.53 1564.39 2623.93 1558.98 2616.84C1553.57 2609.56 1550.58 2601.25 1550.02 2591.92H1576.34C1577.09 2599.57 1580.63 2605.83 1586.98 2610.68C1593.51 2615.53 1602.01 2617.96 1612.46 2617.96C1622.17 2617.96 1629.82 2615.81 1635.42 2611.52C1641.02 2607.23 1643.82 2601.81 1643.82 2595.28C1643.82 2588.56 1640.83 2583.61 1634.86 2580.44C1628.89 2577.08 1619.65 2573.81 1607.14 2570.64C1595.75 2567.65 1586.42 2564.67 1579.14 2561.68C1572.05 2558.51 1565.89 2553.93 1560.66 2547.96C1555.62 2541.8 1553.1 2533.77 1553.1 2523.88C1553.1 2516.04 1555.43 2508.85 1560.1 2502.32C1564.77 2495.79 1571.39 2490.65 1579.98 2486.92C1588.57 2483 1598.37 2481.04 1609.38 2481.04C1626.37 2481.04 1640.09 2485.33 1650.54 2493.92C1660.99 2502.51 1666.59 2514.27 1667.34 2529.2H1641.86C1641.3 2521.17 1638.03 2514.73 1632.06 2509.88C1626.27 2505.03 1618.43 2502.6 1608.54 2502.6C1599.39 2502.6 1592.11 2504.56 1586.7 2508.48C1581.29 2512.4 1578.58 2517.53 1578.58 2523.88C1578.58 2528.92 1580.17 2533.12 1583.34 2536.48C1586.7 2539.65 1590.81 2542.27 1595.66 2544.32C1600.7 2546.19 1607.61 2548.33 1616.38 2550.76C1627.39 2553.75 1636.35 2556.73 1643.26 2559.72C1650.17 2562.52 1656.05 2566.81 1660.9 2572.6C1665.94 2578.39 1668.55 2585.95 1668.74 2595.28C1668.74 2603.68 1666.41 2611.24 1661.74 2617.96C1657.07 2624.68 1650.45 2630 1641.86 2633.92C1633.46 2637.65 1623.75 2639.52 1612.74 2639.52ZM1792.52 2458.64C1787.66 2458.64 1783.56 2456.96 1780.2 2453.6C1776.84 2450.24 1775.16 2446.13 1775.16 2441.28C1775.16 2436.43 1776.84 2432.32 1780.2 2428.96C1783.56 2425.6 1787.66 2423.92 1792.52 2423.92C1797.18 2423.92 1801.1 2425.6 1804.28 2428.96C1807.64 2432.32 1809.32 2436.43 1809.32 2441.28C1809.32 2446.13 1807.64 2450.24 1804.28 2453.6C1801.1 2456.96 1797.18 2458.64 1792.52 2458.64ZM1804.84 2483.56V2637H1779.36V2483.56H1804.84ZM1902.58 2639.52C1890.82 2639.52 1880.28 2637.56 1870.94 2633.64C1861.61 2629.53 1854.24 2623.93 1848.82 2616.84C1843.41 2609.56 1840.42 2601.25 1839.86 2591.92H1866.18C1866.93 2599.57 1870.48 2605.83 1876.82 2610.68C1883.36 2615.53 1891.85 2617.96 1902.3 2617.96C1912.01 2617.96 1919.66 2615.81 1925.26 2611.52C1930.86 2607.23 1933.66 2601.81 1933.66 2595.28C1933.66 2588.56 1930.68 2583.61 1924.7 2580.44C1918.73 2577.08 1909.49 2573.81 1896.98 2570.64C1885.6 2567.65 1876.26 2564.67 1868.98 2561.68C1861.89 2558.51 1855.73 2553.93 1850.5 2547.96C1845.46 2541.8 1842.94 2533.77 1842.94 2523.88C1842.94 2516.04 1845.28 2508.85 1849.94 2502.32C1854.61 2495.79 1861.24 2490.65 1869.82 2486.92C1878.41 2483 1888.21 2481.04 1899.22 2481.04C1916.21 2481.04 1929.93 2485.33 1940.38 2493.92C1950.84 2502.51 1956.44 2514.27 1957.18 2529.2H1931.7C1931.14 2521.17 1927.88 2514.73 1921.9 2509.88C1916.12 2505.03 1908.28 2502.6 1898.38 2502.6C1889.24 2502.6 1881.96 2504.56 1876.54 2508.48C1871.13 2512.4 1868.42 2517.53 1868.42 2523.88C1868.42 2528.92 1870.01 2533.12 1873.18 2536.48C1876.54 2539.65 1880.65 2542.27 1885.5 2544.32C1890.54 2546.19 1897.45 2548.33 1906.22 2550.76C1917.24 2553.75 1926.2 2556.73 1933.1 2559.72C1940.01 2562.52 1945.89 2566.81 1950.74 2572.6C1955.78 2578.39 1958.4 2585.95 1958.58 2595.28C1958.58 2603.68 1956.25 2611.24 1951.58 2617.96C1946.92 2624.68 1940.29 2630 1931.7 2633.92C1923.3 2637.65 1913.6 2639.52 1902.58 2639.52ZM2059.68 2559.72C2059.68 2544.04 2062.85 2530.32 2069.2 2518.56C2075.55 2506.61 2084.23 2497.37 2095.24 2490.84C2106.44 2484.31 2118.85 2481.04 2132.48 2481.04C2145.92 2481.04 2157.59 2483.93 2167.48 2489.72C2177.37 2495.51 2184.75 2502.79 2189.6 2511.56V2483.56H2215.36V2637H2189.6V2608.44C2184.56 2617.4 2177 2624.87 2166.92 2630.84C2157.03 2636.63 2145.45 2639.52 2132.2 2639.52C2118.57 2639.52 2106.25 2636.16 2095.24 2629.44C2084.23 2622.72 2075.55 2613.29 2069.2 2601.16C2062.85 2589.03 2059.68 2575.21 2059.68 2559.72ZM2189.6 2560C2189.6 2548.43 2187.27 2538.35 2182.6 2529.76C2177.93 2521.17 2171.59 2514.64 2163.56 2510.16C2155.72 2505.49 2147.04 2503.16 2137.52 2503.16C2128 2503.16 2119.32 2505.4 2111.48 2509.88C2103.64 2514.36 2097.39 2520.89 2092.72 2529.48C2088.05 2538.07 2085.72 2548.15 2085.72 2559.72C2085.72 2571.48 2088.05 2581.75 2092.72 2590.52C2097.39 2599.11 2103.64 2605.73 2111.48 2610.4C2119.32 2614.88 2128 2617.12 2137.52 2617.12C2147.04 2617.12 2155.72 2614.88 2163.56 2610.4C2171.59 2605.73 2177.93 2599.11 2182.6 2590.52C2187.27 2581.75 2189.6 2571.57 2189.6 2560ZM2323.55 2559.72C2323.55 2544.04 2326.72 2530.32 2333.07 2518.56C2339.41 2506.61 2348.09 2497.37 2359.11 2490.84C2370.31 2484.31 2382.81 2481.04 2396.63 2481.04C2409.88 2481.04 2421.45 2484.03 2431.35 2490C2441.43 2495.79 2448.8 2502.97 2453.47 2511.56V2483.56H2479.23V2709.8H2453.47V2608.72C2448.61 2617.31 2441.15 2624.59 2431.07 2630.56C2420.99 2636.53 2409.23 2639.52 2395.79 2639.52C2382.35 2639.52 2370.12 2636.16 2359.11 2629.44C2348.09 2622.72 2339.41 2613.29 2333.07 2601.16C2326.72 2589.03 2323.55 2575.21 2323.55 2559.72ZM2453.47 2560C2453.47 2548.43 2451.13 2538.35 2446.47 2529.76C2441.8 2521.17 2435.45 2514.64 2427.43 2510.16C2419.59 2505.49 2410.91 2503.16 2401.39 2503.16C2391.87 2503.16 2383.19 2505.4 2375.35 2509.88C2367.51 2514.36 2361.25 2520.89 2356.59 2529.48C2351.92 2538.07 2349.59 2548.15 2349.59 2559.72C2349.59 2571.48 2351.92 2581.75 2356.59 2590.52C2361.25 2599.11 2367.51 2605.73 2375.35 2610.4C2383.19 2614.88 2391.87 2617.12 2401.39 2617.12C2410.91 2617.12 2419.59 2614.88 2427.43 2610.4C2435.45 2605.73 2441.8 2599.11 2446.47 2590.52C2451.13 2581.75 2453.47 2571.57 2453.47 2560ZM2658.37 2483.56V2637H2632.89V2614.32C2628.03 2622.16 2621.22 2628.32 2612.45 2632.8C2603.86 2637.09 2594.34 2639.24 2583.89 2639.24C2571.94 2639.24 2561.21 2636.81 2551.69 2631.96C2542.17 2626.92 2534.61 2619.45 2529.01 2609.56C2523.59 2599.67 2520.89 2587.63 2520.89 2573.44V2483.56H2546.09V2570.08C2546.09 2585.2 2549.91 2596.87 2557.57 2605.08C2565.22 2613.11 2575.67 2617.12 2588.93 2617.12C2602.55 2617.12 2613.29 2612.92 2621.13 2604.52C2628.97 2596.12 2632.89 2583.89 2632.89 2567.84V2483.56H2658.37ZM2768.31 2639.52C2753.93 2639.52 2740.87 2636.25 2729.11 2629.72C2717.53 2623.19 2708.39 2613.95 2701.67 2602C2695.13 2589.87 2691.87 2575.87 2691.87 2560C2691.87 2544.32 2695.23 2530.51 2701.95 2518.56C2708.85 2506.43 2718.19 2497.19 2729.95 2490.84C2741.71 2484.31 2754.87 2481.04 2769.43 2481.04C2783.99 2481.04 2797.15 2484.31 2808.91 2490.84C2820.67 2497.19 2829.91 2506.33 2836.63 2518.28C2843.53 2530.23 2846.99 2544.13 2846.99 2560C2846.99 2575.87 2843.44 2589.87 2836.35 2602C2829.44 2613.95 2820.01 2623.19 2808.07 2629.72C2796.12 2636.25 2782.87 2639.52 2768.31 2639.52ZM2768.31 2617.12C2777.45 2617.12 2786.04 2614.97 2794.07 2610.68C2802.09 2606.39 2808.53 2599.95 2813.39 2591.36C2818.43 2582.77 2820.95 2572.32 2820.95 2560C2820.95 2547.68 2818.52 2537.23 2813.67 2528.64C2808.81 2520.05 2802.47 2513.71 2794.63 2509.6C2786.79 2505.31 2778.29 2503.16 2769.15 2503.16C2759.81 2503.16 2751.23 2505.31 2743.39 2509.6C2735.73 2513.71 2729.57 2520.05 2724.91 2528.64C2720.24 2537.23 2717.91 2547.68 2717.91 2560C2717.91 2572.51 2720.15 2583.05 2724.63 2591.64C2729.29 2600.23 2735.45 2606.67 2743.11 2610.96C2750.76 2615.07 2759.16 2617.12 2768.31 2617.12ZM2911.57 2504.56V2595C2911.57 2602.47 2913.16 2607.79 2916.33 2610.96C2919.5 2613.95 2925.01 2615.44 2932.85 2615.44H2951.61V2637H2928.65C2914.46 2637 2903.82 2633.73 2896.73 2627.2C2889.64 2620.67 2886.09 2609.93 2886.09 2595V2504.56H2866.21V2483.56H2886.09V2444.92H2911.57V2483.56H2951.61V2504.56H2911.57ZM3122.48 2554.4C3122.48 2559.25 3122.2 2564.39 3121.64 2569.8H2999C2999.94 2584.92 3005.07 2596.77 3014.4 2605.36C3023.92 2613.76 3035.4 2617.96 3048.84 2617.96C3059.86 2617.96 3069 2615.44 3076.28 2610.4C3083.75 2605.17 3088.98 2598.27 3091.96 2589.68H3119.4C3115.3 2604.43 3107.08 2616.47 3094.76 2625.8C3082.44 2634.95 3067.14 2639.52 3048.84 2639.52C3034.28 2639.52 3021.22 2636.25 3009.64 2629.72C2998.26 2623.19 2989.3 2613.95 2982.76 2602C2976.23 2589.87 2972.96 2575.87 2972.96 2560C2972.96 2544.13 2976.14 2530.23 2982.48 2518.28C2988.83 2506.33 2997.7 2497.19 3009.08 2490.84C3020.66 2484.31 3033.91 2481.04 3048.84 2481.04C3063.4 2481.04 3076.28 2484.21 3087.48 2490.56C3098.68 2496.91 3107.27 2505.68 3113.24 2516.88C3119.4 2527.89 3122.48 2540.4 3122.48 2554.4ZM3096.16 2549.08C3096.16 2539.37 3094.02 2531.07 3089.72 2524.16C3085.43 2517.07 3079.55 2511.75 3072.08 2508.2C3064.8 2504.47 3056.68 2502.6 3047.72 2502.6C3034.84 2502.6 3023.83 2506.71 3014.68 2514.92C3005.72 2523.13 3000.59 2534.52 2999.28 2549.08H3096.16ZM3146.59 2559.72C3146.59 2544.04 3149.77 2530.32 3156.11 2518.56C3162.46 2506.61 3171.14 2497.37 3182.15 2490.84C3193.35 2484.31 3205.86 2481.04 3219.67 2481.04C3231.62 2481.04 3242.73 2483.84 3252.99 2489.44C3263.26 2494.85 3271.1 2502.04 3276.51 2511V2429.8H3302.27V2637H3276.51V2608.16C3271.47 2617.31 3264.01 2624.87 3254.11 2630.84C3244.22 2636.63 3232.65 2639.52 3219.39 2639.52C3205.77 2639.52 3193.35 2636.16 3182.15 2629.44C3171.14 2622.72 3162.46 2613.29 3156.11 2601.16C3149.77 2589.03 3146.59 2575.21 3146.59 2559.72ZM3276.51 2560C3276.51 2548.43 3274.18 2538.35 3269.51 2529.76C3264.85 2521.17 3258.5 2514.64 3250.47 2510.16C3242.63 2505.49 3233.95 2503.16 3224.43 2503.16C3214.91 2503.16 3206.23 2505.4 3198.39 2509.88C3190.55 2514.36 3184.3 2520.89 3179.63 2529.48C3174.97 2538.07 3172.63 2548.15 3172.63 2559.72C3172.63 2571.48 3174.97 2581.75 3179.63 2590.52C3184.3 2599.11 3190.55 2605.73 3198.39 2610.4C3206.23 2614.88 3214.91 2617.12 3224.43 2617.12C3233.95 2617.12 3242.63 2614.88 3250.47 2610.4C3258.5 2605.73 3264.85 2599.11 3269.51 2590.52C3274.18 2581.75 3276.51 2571.57 3276.51 2560ZM3451.06 2504.56V2595C3451.06 2602.47 3452.65 2607.79 3455.82 2610.96C3459 2613.95 3464.5 2615.44 3472.34 2615.44H3491.1V2637H3468.14C3453.96 2637 3443.32 2633.73 3436.22 2627.2C3429.13 2620.67 3425.58 2609.93 3425.58 2595V2504.56H3405.7V2483.56H3425.58V2444.92H3451.06V2483.56H3491.1V2504.56H3451.06ZM3661.97 2554.4C3661.97 2559.25 3661.69 2564.39 3661.13 2569.8H3538.49C3539.43 2584.92 3544.56 2596.77 3553.89 2605.36C3563.41 2613.76 3574.89 2617.96 3588.33 2617.96C3599.35 2617.96 3608.49 2615.44 3615.77 2610.4C3623.24 2605.17 3628.47 2598.27 3631.45 2589.68H3658.89C3654.79 2604.43 3646.57 2616.47 3634.25 2625.8C3621.93 2634.95 3606.63 2639.52 3588.33 2639.52C3573.77 2639.52 3560.71 2636.25 3549.13 2629.72C3537.75 2623.19 3528.79 2613.95 3522.25 2602C3515.72 2589.87 3512.45 2575.87 3512.45 2560C3512.45 2544.13 3515.63 2530.23 3521.97 2518.28C3528.32 2506.33 3537.19 2497.19 3548.57 2490.84C3560.15 2484.31 3573.4 2481.04 3588.33 2481.04C3602.89 2481.04 3615.77 2484.21 3626.97 2490.56C3638.17 2496.91 3646.76 2505.68 3652.73 2516.88C3658.89 2527.89 3661.97 2540.4 3661.97 2554.4ZM3635.65 2549.08C3635.65 2539.37 3633.51 2531.07 3629.21 2524.16C3624.92 2517.07 3619.04 2511.75 3611.57 2508.2C3604.29 2504.47 3596.17 2502.6 3587.21 2502.6C3574.33 2502.6 3563.32 2506.71 3554.17 2514.92C3545.21 2523.13 3540.08 2534.52 3538.77 2549.08H3635.65ZM3775.69 2637L3739.29 2579.88L3704.29 2637H3677.69L3727.25 2560.84L3677.69 2483.56H3706.53L3742.93 2540.4L3777.65 2483.56H3804.25L3754.97 2559.44L3804.53 2637H3775.69ZM3860.67 2504.56V2595C3860.67 2602.47 3862.26 2607.79 3865.43 2610.96C3868.6 2613.95 3874.11 2615.44 3881.95 2615.44H3900.71V2637H3877.75C3863.56 2637 3852.92 2633.73 3845.83 2627.2C3838.74 2620.67 3835.19 2609.93 3835.19 2595V2504.56H3815.31V2483.56H3835.19V2444.92H3860.67V2483.56H3900.71V2504.56H3860.67ZM3935.5 2441.84H3963.78L3936.9 2505.4H3918.98L3935.5 2441.84ZM3980.86 2441.84H4009.14L3982.26 2505.4H3964.06L3980.86 2441.84Z" fill="black"/>
<path d="M686.04 809.96C686.04 826.2 680.44 839.733 669.24 850.56C658.227 861.2 641.333 866.52 618.56 866.52H581.04V948H555.56V752.84H618.56C640.587 752.84 657.293 758.16 668.68 768.8C680.253 779.44 686.04 793.16 686.04 809.96ZM618.56 845.52C632.747 845.52 643.2 842.44 649.92 836.28C656.64 830.12 660 821.347 660 809.96C660 785.88 646.187 773.84 618.56 773.84H581.04V845.52H618.56Z" fill="black"/>
<path d="M653.28 1269.1C660.373 1270.22 666.813 1273.11 672.6 1277.78C678.573 1282.44 683.24 1288.23 686.6 1295.14C690.147 1302.04 691.92 1309.42 691.92 1317.26C691.92 1327.15 689.4 1336.11 684.36 1344.14C679.32 1351.98 671.947 1358.23 662.24 1362.9C652.72 1367.38 641.427 1369.62 628.36 1369.62H555.56V1174.46H625.56C638.813 1174.46 650.107 1176.7 659.44 1181.18C668.773 1185.47 675.773 1191.35 680.44 1198.82C685.107 1206.28 687.44 1214.68 687.44 1224.02C687.44 1235.59 684.267 1245.2 677.92 1252.86C671.76 1260.32 663.547 1265.74 653.28 1269.1ZM581.04 1258.74H623.88C635.827 1258.74 645.067 1255.94 651.6 1250.34C658.133 1244.74 661.4 1236.99 661.4 1227.1C661.4 1217.2 658.133 1209.46 651.6 1203.86C645.067 1198.26 635.64 1195.46 623.32 1195.46H581.04V1258.74ZM626.12 1348.62C638.813 1348.62 648.707 1345.63 655.8 1339.66C662.893 1333.68 666.44 1325.38 666.44 1314.74C666.44 1303.91 662.707 1295.42 655.24 1289.26C647.773 1282.91 637.787 1279.74 625.28 1279.74H581.04V1348.62H626.12Z" fill="black"/>
<path d="M628.04 1597.08V1792.24H602.56V1597.08H628.04Z" fill="black"/>
<path d="M580.48 2017.69V2141.17C580.48 2158.53 584.68 2171.41 593.08 2179.81C601.667 2188.21 613.52 2192.41 628.64 2192.41C643.573 2192.41 655.24 2188.21 663.64 2179.81C672.227 2171.41 676.52 2158.53 676.52 2141.17V2017.69H702V2140.89C702 2157.13 698.733 2170.85 692.2 2182.05C685.667 2193.06 676.8 2201.28 665.6 2206.69C654.587 2212.1 642.173 2214.81 628.36 2214.81C614.547 2214.81 602.04 2212.1 590.84 2206.69C579.827 2201.28 571.053 2193.06 564.52 2182.05C558.173 2170.85 555 2157.13 555 2140.89V2017.69H580.48Z" fill="black"/>
<path d="M712.08 2672.7L673.16 2633.78C663.64 2636.39 653.933 2637.7 644.04 2637.7C625.933 2637.7 609.413 2633.5 594.48 2625.1C579.547 2616.51 567.693 2604.66 558.92 2589.54C550.333 2574.23 546.04 2557.06 546.04 2538.02C546.04 2518.98 550.333 2501.9 558.92 2486.78C567.693 2471.47 579.547 2459.62 594.48 2451.22C609.413 2442.63 625.933 2438.34 644.04 2438.34C662.333 2438.34 678.947 2442.63 693.88 2451.22C708.813 2459.62 720.573 2471.38 729.16 2486.5C737.747 2501.62 742.04 2518.79 742.04 2538.02C742.04 2556.68 737.933 2573.48 729.72 2588.42C721.507 2603.35 710.213 2615.11 695.84 2623.7L745.12 2672.7H712.08ZM572.08 2538.02C572.08 2553.51 575.16 2567.14 581.32 2578.9C587.667 2590.66 596.253 2599.71 607.08 2606.06C618.093 2612.4 630.413 2615.58 644.04 2615.58C657.667 2615.58 669.893 2612.4 680.72 2606.06C691.733 2599.71 700.32 2590.66 706.48 2578.9C712.827 2567.14 716 2553.51 716 2538.02C716 2522.34 712.827 2508.71 706.48 2497.14C700.32 2485.38 691.827 2476.32 681 2469.98C670.173 2463.63 657.853 2460.46 644.04 2460.46C630.227 2460.46 617.907 2463.63 607.08 2469.98C596.253 2476.32 587.667 2485.38 581.32 2497.14C575.16 2508.71 572.08 2522.34 572.08 2538.02Z" fill="black"/>
</svg>
