<svg width="4794" height="2857" viewBox="0 0 4794 2857" fill="none" xmlns="http://www.w3.org/2000/svg">
<line x1="1010.5" y1="2208" x2="1010.5" y2="648" stroke="black" stroke-width="3"/>
<rect x="4" y="4" width="4786" height="2849" stroke="black" stroke-width="8"/>
<path d="M1326.68 700.84V721.56H1273.48V896H1248V721.56H1194.52V700.84H1326.68ZM1434.2 739.76C1445.78 739.76 1456.23 742.28 1465.56 747.32C1474.9 752.173 1482.18 759.547 1487.4 769.44C1492.82 779.333 1495.52 791.373 1495.52 805.56V896H1470.32V809.2C1470.32 793.893 1466.5 782.227 1458.84 774.2C1451.19 765.987 1440.74 761.88 1427.48 761.88C1414.04 761.88 1403.31 766.08 1395.28 774.48C1387.44 782.88 1383.52 795.107 1383.52 811.16V896H1358.04V688.8H1383.52V764.4C1388.56 756.56 1395.47 750.493 1404.24 746.2C1413.2 741.907 1423.19 739.76 1434.2 739.76ZM1550.31 717.64C1545.45 717.64 1541.35 715.96 1537.99 712.6C1534.63 709.24 1532.95 705.133 1532.95 700.28C1532.95 695.427 1534.63 691.32 1537.99 687.96C1541.35 684.6 1545.45 682.92 1550.31 682.92C1554.97 682.92 1558.89 684.6 1562.07 687.96C1565.43 691.32 1567.11 695.427 1567.11 700.28C1567.11 705.133 1565.43 709.24 1562.07 712.6C1558.89 715.96 1554.97 717.64 1550.31 717.64ZM1562.63 742.56V896H1537.15V742.56H1562.63ZM1660.37 898.52C1648.61 898.52 1638.07 896.56 1628.73 892.64C1619.4 888.533 1612.03 882.933 1606.61 875.84C1601.2 868.56 1598.21 860.253 1597.65 850.92H1623.97C1624.72 858.573 1628.27 864.827 1634.61 869.68C1641.15 874.533 1649.64 876.96 1660.09 876.96C1669.8 876.96 1677.45 874.813 1683.05 870.52C1688.65 866.227 1691.45 860.813 1691.45 854.28C1691.45 847.56 1688.47 842.613 1682.49 839.44C1676.52 836.08 1667.28 832.813 1654.77 829.64C1643.39 826.653 1634.05 823.667 1626.77 820.68C1619.68 817.507 1613.52 812.933 1608.29 806.96C1603.25 800.8 1600.73 792.773 1600.73 782.88C1600.73 775.04 1603.07 767.853 1607.73 761.32C1612.4 754.787 1619.03 749.653 1627.61 745.92C1636.2 742 1646 740.04 1657.01 740.04C1674 740.04 1687.72 744.333 1698.17 752.92C1708.63 761.507 1714.23 773.267 1714.97 788.2H1689.49C1688.93 780.173 1685.67 773.733 1679.69 768.88C1673.91 764.027 1666.07 761.6 1656.17 761.6C1647.03 761.6 1639.75 763.56 1634.33 767.48C1628.92 771.4 1626.21 776.533 1626.21 782.88C1626.21 787.92 1627.8 792.12 1630.97 795.48C1634.33 798.653 1638.44 801.267 1643.29 803.32C1648.33 805.187 1655.24 807.333 1664.01 809.76C1675.03 812.747 1683.99 815.733 1690.89 818.72C1697.8 821.52 1703.68 825.813 1708.53 831.6C1713.57 837.387 1716.19 844.947 1716.37 854.28C1716.37 862.68 1714.04 870.24 1709.37 876.96C1704.71 883.68 1698.08 889 1689.49 892.92C1681.09 896.653 1671.39 898.52 1660.37 898.52ZM1840.15 717.64C1835.3 717.64 1831.19 715.96 1827.83 712.6C1824.47 709.24 1822.79 705.133 1822.79 700.28C1822.79 695.427 1824.47 691.32 1827.83 687.96C1831.19 684.6 1835.3 682.92 1840.15 682.92C1844.82 682.92 1848.74 684.6 1851.91 687.96C1855.27 691.32 1856.95 695.427 1856.95 700.28C1856.95 705.133 1855.27 709.24 1851.91 712.6C1848.74 715.96 1844.82 717.64 1840.15 717.64ZM1852.47 742.56V896H1826.99V742.56H1852.47ZM1950.22 898.52C1938.46 898.52 1927.91 896.56 1918.58 892.64C1909.24 888.533 1901.87 882.933 1896.46 875.84C1891.04 868.56 1888.06 860.253 1887.5 850.92H1913.82C1914.56 858.573 1918.11 864.827 1924.46 869.68C1930.99 874.533 1939.48 876.96 1949.94 876.96C1959.64 876.96 1967.3 874.813 1972.9 870.52C1978.5 866.227 1981.3 860.813 1981.3 854.28C1981.3 847.56 1978.31 842.613 1972.34 839.44C1966.36 836.08 1957.12 832.813 1944.62 829.64C1933.23 826.653 1923.9 823.667 1916.62 820.68C1909.52 817.507 1903.36 812.933 1898.14 806.96C1893.1 800.8 1890.58 792.773 1890.58 782.88C1890.58 775.04 1892.91 767.853 1897.58 761.32C1902.24 754.787 1908.87 749.653 1917.46 745.92C1926.04 742 1935.84 740.04 1946.86 740.04C1963.84 740.04 1977.56 744.333 1988.02 752.92C1998.47 761.507 2004.07 773.267 2004.82 788.2H1979.34C1978.78 780.173 1975.51 773.733 1969.54 768.88C1963.75 764.027 1955.91 761.6 1946.02 761.6C1936.87 761.6 1929.59 763.56 1924.18 767.48C1918.76 771.4 1916.06 776.533 1916.06 782.88C1916.06 787.92 1917.64 792.12 1920.82 795.48C1924.18 798.653 1928.28 801.267 1933.14 803.32C1938.18 805.187 1945.08 807.333 1953.86 809.76C1964.87 812.747 1973.83 815.733 1980.74 818.72C1987.64 821.52 1993.52 825.813 1998.38 831.6C2003.42 837.387 2006.03 844.947 2006.22 854.28C2006.22 862.68 2003.88 870.24 1999.22 876.96C1994.55 883.68 1987.92 889 1979.34 892.92C1970.94 896.653 1961.23 898.52 1950.22 898.52ZM2107.31 818.72C2107.31 803.04 2110.49 789.32 2116.83 777.56C2123.18 765.613 2131.86 756.373 2142.87 749.84C2154.07 743.307 2166.49 740.04 2180.11 740.04C2193.55 740.04 2205.22 742.933 2215.11 748.72C2225.01 754.507 2232.38 761.787 2237.23 770.56V742.56H2262.99V896H2237.23V867.44C2232.19 876.4 2224.63 883.867 2214.55 889.84C2204.66 895.627 2193.09 898.52 2179.83 898.52C2166.21 898.52 2153.89 895.16 2142.87 888.44C2131.86 881.72 2123.18 872.293 2116.83 860.16C2110.49 848.027 2107.31 834.213 2107.31 818.72ZM2237.23 819C2237.23 807.427 2234.9 797.347 2230.23 788.76C2225.57 780.173 2219.22 773.64 2211.19 769.16C2203.35 764.493 2194.67 762.16 2185.15 762.16C2175.63 762.16 2166.95 764.4 2159.11 768.88C2151.27 773.36 2145.02 779.893 2140.35 788.48C2135.69 797.067 2133.35 807.147 2133.35 818.72C2133.35 830.48 2135.69 840.747 2140.35 849.52C2145.02 858.107 2151.27 864.733 2159.11 869.4C2166.95 873.88 2175.63 876.12 2185.15 876.12C2194.67 876.12 2203.35 873.88 2211.19 869.4C2219.22 864.733 2225.57 858.107 2230.23 849.52C2234.9 840.747 2237.23 830.573 2237.23 819ZM2406.18 770.84C2411.22 762.067 2418.69 754.787 2428.58 749C2438.66 743.027 2450.33 740.04 2463.58 740.04C2477.21 740.04 2489.53 743.307 2500.54 749.84C2511.74 756.373 2520.51 765.613 2526.86 777.56C2533.21 789.32 2536.38 803.04 2536.38 818.72C2536.38 834.213 2533.21 848.027 2526.86 860.16C2520.51 872.293 2511.74 881.72 2500.54 888.44C2489.53 895.16 2477.21 898.52 2463.58 898.52C2450.51 898.52 2438.94 895.627 2428.86 889.84C2418.97 883.867 2411.41 876.493 2406.18 867.72V968.8H2380.7V742.56H2406.18V770.84ZM2510.34 818.72C2510.34 807.147 2508.01 797.067 2503.34 788.48C2498.67 779.893 2492.33 773.36 2484.3 768.88C2476.46 764.4 2467.78 762.16 2458.26 762.16C2448.93 762.16 2440.25 764.493 2432.22 769.16C2424.38 773.64 2418.03 780.267 2413.18 789.04C2408.51 797.627 2406.18 807.613 2406.18 819C2406.18 830.573 2408.51 840.747 2413.18 849.52C2418.03 858.107 2424.38 864.733 2432.22 869.4C2440.25 873.88 2448.93 876.12 2458.26 876.12C2467.78 876.12 2476.46 873.88 2484.3 869.4C2492.33 864.733 2498.67 858.107 2503.34 849.52C2508.01 840.747 2510.34 830.48 2510.34 818.72ZM2560.4 818.72C2560.4 803.04 2563.57 789.32 2569.92 777.56C2576.27 765.613 2584.95 756.373 2595.96 749.84C2607.16 743.307 2619.57 740.04 2633.2 740.04C2646.64 740.04 2658.31 742.933 2668.2 748.72C2678.09 754.507 2685.47 761.787 2690.32 770.56V742.56H2716.08V896H2690.32V867.44C2685.28 876.4 2677.72 883.867 2667.64 889.84C2657.75 895.627 2646.17 898.52 2632.92 898.52C2619.29 898.52 2606.97 895.16 2595.96 888.44C2584.95 881.72 2576.27 872.293 2569.92 860.16C2563.57 848.027 2560.4 834.213 2560.4 818.72ZM2690.32 819C2690.32 807.427 2687.99 797.347 2683.32 788.76C2678.65 780.173 2672.31 773.64 2664.28 769.16C2656.44 764.493 2647.76 762.16 2638.24 762.16C2628.72 762.16 2620.04 764.4 2612.2 768.88C2604.36 773.36 2598.11 779.893 2593.44 788.48C2588.77 797.067 2586.44 807.147 2586.44 818.72C2586.44 830.48 2588.77 840.747 2593.44 849.52C2598.11 858.107 2604.36 864.733 2612.2 869.4C2620.04 873.88 2628.72 876.12 2638.24 876.12C2647.76 876.12 2656.44 873.88 2664.28 869.4C2672.31 864.733 2678.65 858.107 2683.32 849.52C2687.99 840.747 2690.32 830.573 2690.32 819ZM2784.62 767.48C2789.1 758.707 2795.44 751.893 2803.66 747.04C2812.06 742.187 2822.23 739.76 2834.18 739.76V766.08H2827.46C2798.9 766.08 2784.62 781.573 2784.62 812.56V896H2759.14V742.56H2784.62V767.48ZM2854.07 818.72C2854.07 803.04 2857.24 789.32 2863.59 777.56C2869.94 765.613 2878.62 756.373 2889.63 749.84C2900.83 743.307 2913.24 740.04 2926.87 740.04C2940.31 740.04 2951.98 742.933 2961.87 748.72C2971.76 754.507 2979.14 761.787 2983.99 770.56V742.56H3009.75V896H2983.99V867.44C2978.95 876.4 2971.39 883.867 2961.31 889.84C2951.42 895.627 2939.84 898.52 2926.59 898.52C2912.96 898.52 2900.64 895.16 2889.63 888.44C2878.62 881.72 2869.94 872.293 2863.59 860.16C2857.24 848.027 2854.07 834.213 2854.07 818.72ZM2983.99 819C2983.99 807.427 2981.66 797.347 2976.99 788.76C2972.32 780.173 2965.98 773.64 2957.95 769.16C2950.11 764.493 2941.43 762.16 2931.91 762.16C2922.39 762.16 2913.71 764.4 2905.87 768.88C2898.03 773.36 2891.78 779.893 2887.11 788.48C2882.44 797.067 2880.11 807.147 2880.11 818.72C2880.11 830.48 2882.44 840.747 2887.11 849.52C2891.78 858.107 2898.03 864.733 2905.87 869.4C2913.71 873.88 2922.39 876.12 2931.91 876.12C2941.43 876.12 2950.11 873.88 2957.95 869.4C2965.98 864.733 2972.32 858.107 2976.99 849.52C2981.66 840.747 2983.99 830.573 2983.99 819ZM3116.09 740.04C3129.34 740.04 3140.92 742.933 3150.81 748.72C3160.89 754.507 3168.36 761.787 3173.21 770.56V742.56H3198.97V899.36C3198.97 913.36 3195.98 925.773 3190.01 936.6C3184.04 947.613 3175.45 956.2 3164.25 962.36C3153.24 968.52 3140.36 971.6 3125.61 971.6C3105.45 971.6 3088.65 966.84 3075.21 957.32C3061.77 947.8 3053.84 934.827 3051.41 918.4H3076.61C3079.41 927.733 3085.2 935.2 3093.97 940.8C3102.74 946.587 3113.29 949.48 3125.61 949.48C3139.61 949.48 3151 945.093 3159.77 936.32C3168.73 927.547 3173.21 915.227 3173.21 899.36V867.16C3168.17 876.12 3160.7 883.587 3150.81 889.56C3140.92 895.533 3129.34 898.52 3116.09 898.52C3102.46 898.52 3090.05 895.16 3078.85 888.44C3067.84 881.72 3059.16 872.293 3052.81 860.16C3046.46 848.027 3043.29 834.213 3043.29 818.72C3043.29 803.04 3046.46 789.32 3052.81 777.56C3059.16 765.613 3067.84 756.373 3078.85 749.84C3090.05 743.307 3102.46 740.04 3116.09 740.04ZM3173.21 819C3173.21 807.427 3170.88 797.347 3166.21 788.76C3161.54 780.173 3155.2 773.64 3147.17 769.16C3139.33 764.493 3130.65 762.16 3121.13 762.16C3111.61 762.16 3102.93 764.4 3095.09 768.88C3087.25 773.36 3081 779.893 3076.33 788.48C3071.66 797.067 3069.33 807.147 3069.33 818.72C3069.33 830.48 3071.66 840.747 3076.33 849.52C3081 858.107 3087.25 864.733 3095.09 869.4C3102.93 873.88 3111.61 876.12 3121.13 876.12C3130.65 876.12 3139.33 873.88 3147.17 869.4C3155.2 864.733 3161.54 858.107 3166.21 849.52C3170.88 840.747 3173.21 830.573 3173.21 819ZM3267.51 767.48C3271.99 758.707 3278.34 751.893 3286.55 747.04C3294.95 742.187 3305.12 739.76 3317.07 739.76V766.08H3310.35C3281.79 766.08 3267.51 781.573 3267.51 812.56V896H3242.03V742.56H3267.51V767.48ZM3336.96 818.72C3336.96 803.04 3340.14 789.32 3346.48 777.56C3352.83 765.613 3361.51 756.373 3372.52 749.84C3383.72 743.307 3396.14 740.04 3409.76 740.04C3423.2 740.04 3434.87 742.933 3444.76 748.72C3454.66 754.507 3462.03 761.787 3466.88 770.56V742.56H3492.64V896H3466.88V867.44C3461.84 876.4 3454.28 883.867 3444.2 889.84C3434.31 895.627 3422.74 898.52 3409.48 898.52C3395.86 898.52 3383.54 895.16 3372.52 888.44C3361.51 881.72 3352.83 872.293 3346.48 860.16C3340.14 848.027 3336.96 834.213 3336.96 818.72ZM3466.88 819C3466.88 807.427 3464.55 797.347 3459.88 788.76C3455.22 780.173 3448.87 773.64 3440.84 769.16C3433 764.493 3424.32 762.16 3414.8 762.16C3405.28 762.16 3396.6 764.4 3388.76 768.88C3380.92 773.36 3374.67 779.893 3370 788.48C3365.34 797.067 3363 807.147 3363 818.72C3363 830.48 3365.34 840.747 3370 849.52C3374.67 858.107 3380.92 864.733 3388.76 869.4C3396.6 873.88 3405.28 876.12 3414.8 876.12C3424.32 876.12 3433 873.88 3440.84 869.4C3448.87 864.733 3455.22 858.107 3459.88 849.52C3464.55 840.747 3466.88 830.573 3466.88 819ZM3561.18 770.84C3566.22 762.067 3573.69 754.787 3583.58 749C3593.66 743.027 3605.33 740.04 3618.58 740.04C3632.21 740.04 3644.53 743.307 3655.54 749.84C3666.74 756.373 3675.51 765.613 3681.86 777.56C3688.21 789.32 3691.38 803.04 3691.38 818.72C3691.38 834.213 3688.21 848.027 3681.86 860.16C3675.51 872.293 3666.74 881.72 3655.54 888.44C3644.53 895.16 3632.21 898.52 3618.58 898.52C3605.51 898.52 3593.94 895.627 3583.86 889.84C3573.97 883.867 3566.41 876.493 3561.18 867.72V968.8H3535.7V742.56H3561.18V770.84ZM3665.34 818.72C3665.34 807.147 3663.01 797.067 3658.34 788.48C3653.67 779.893 3647.33 773.36 3639.3 768.88C3631.46 764.4 3622.78 762.16 3613.26 762.16C3603.93 762.16 3595.25 764.493 3587.22 769.16C3579.38 773.64 3573.03 780.267 3568.18 789.04C3563.51 797.627 3561.18 807.613 3561.18 819C3561.18 830.573 3563.51 840.747 3568.18 849.52C3573.03 858.107 3579.38 864.733 3587.22 869.4C3595.25 873.88 3603.93 876.12 3613.26 876.12C3622.78 876.12 3631.46 873.88 3639.3 869.4C3647.33 864.733 3653.67 858.107 3658.34 849.52C3663.01 840.747 3665.34 830.48 3665.34 818.72ZM3801.08 739.76C3812.65 739.76 3823.11 742.28 3832.44 747.32C3841.77 752.173 3849.05 759.547 3854.28 769.44C3859.69 779.333 3862.4 791.373 3862.4 805.56V896H3837.2V809.2C3837.2 793.893 3833.37 782.227 3825.72 774.2C3818.07 765.987 3807.61 761.88 3794.36 761.88C3780.92 761.88 3770.19 766.08 3762.16 774.48C3754.32 782.88 3750.4 795.107 3750.4 811.16V896H3724.92V688.8H3750.4V764.4C3755.44 756.56 3762.35 750.493 3771.12 746.2C3780.08 741.907 3790.07 739.76 3801.08 739.76ZM4009.75 763.56V854C4009.75 861.467 4011.34 866.787 4014.51 869.96C4017.68 872.947 4023.19 874.44 4031.03 874.44H4049.79V896H4026.83C4012.64 896 4002 892.733 3994.91 886.2C3987.82 879.667 3984.27 868.933 3984.27 854V763.56H3964.39V742.56H3984.27V703.92H4009.75V742.56H4049.79V763.56H4009.75ZM4220.66 813.4C4220.66 818.253 4220.38 823.387 4219.82 828.8H4097.18C4098.11 843.92 4103.25 855.773 4112.58 864.36C4122.1 872.76 4133.58 876.96 4147.02 876.96C4158.03 876.96 4167.18 874.44 4174.46 869.4C4181.93 864.173 4187.15 857.267 4190.14 848.68H4217.58C4213.47 863.427 4205.26 875.467 4192.94 884.8C4180.62 893.947 4165.31 898.52 4147.02 898.52C4132.46 898.52 4119.39 895.253 4107.82 888.72C4096.43 882.187 4087.47 872.947 4080.94 861C4074.41 848.867 4071.14 834.867 4071.14 819C4071.14 803.133 4074.31 789.227 4080.66 777.28C4087.01 765.333 4095.87 756.187 4107.26 749.84C4118.83 743.307 4132.09 740.04 4147.02 740.04C4161.58 740.04 4174.46 743.213 4185.66 749.56C4196.86 755.907 4205.45 764.68 4211.42 775.88C4217.58 786.893 4220.66 799.4 4220.66 813.4ZM4194.34 808.08C4194.34 798.373 4192.19 790.067 4187.9 783.16C4183.61 776.067 4177.73 770.747 4170.26 767.2C4162.98 763.467 4154.86 761.6 4145.9 761.6C4133.02 761.6 4122.01 765.707 4112.86 773.92C4103.9 782.133 4098.77 793.52 4097.46 808.08H4194.34ZM4334.37 896L4297.97 838.88L4262.97 896H4236.37L4285.93 819.84L4236.37 742.56H4265.21L4301.61 799.4L4336.33 742.56H4362.93L4313.65 818.44L4363.21 896H4334.37ZM4419.36 763.56V854C4419.36 861.467 4420.95 866.787 4424.12 869.96C4427.29 872.947 4432.8 874.44 4440.64 874.44H4459.4V896H4436.44C4422.25 896 4411.61 892.733 4404.52 886.2C4397.43 879.667 4393.88 868.933 4393.88 854V763.56H4374V742.56H4393.88V703.92H4419.36V742.56H4459.4V763.56H4419.36Z" fill="black"/>
<path d="M828.04 757.96C828.04 774.2 822.44 787.733 811.24 798.56C800.227 809.2 783.333 814.52 760.56 814.52H723.04V896H697.56V700.84H760.56C782.587 700.84 799.293 706.16 810.68 716.8C822.253 727.44 828.04 741.16 828.04 757.96ZM760.56 793.52C774.747 793.52 785.2 790.44 791.92 784.28C798.64 778.12 802 769.347 802 757.96C802 733.88 788.187 721.84 760.56 721.84H723.04V793.52H760.56Z" fill="black"/>
<path d="M1337.32 1120.56V1152.2H1285.24V1316H1246.04V1152.2H1193.96V1120.56H1337.32ZM1453.28 1158.64C1465.04 1158.64 1475.49 1161.25 1484.64 1166.48C1493.79 1171.52 1500.88 1179.08 1505.92 1189.16C1511.15 1199.05 1513.76 1211 1513.76 1225V1316H1474.56V1230.32C1474.56 1218 1471.48 1208.57 1465.32 1202.04C1459.16 1195.32 1450.76 1191.96 1440.12 1191.96C1429.29 1191.96 1420.71 1195.32 1414.36 1202.04C1408.2 1208.57 1405.12 1218 1405.12 1230.32V1316H1365.92V1108.8H1405.12V1180.2C1410.16 1173.48 1416.88 1168.25 1425.28 1164.52C1433.68 1160.6 1443.01 1158.64 1453.28 1158.64ZM1570.92 1142.4C1564.01 1142.4 1558.23 1140.25 1553.56 1135.96C1549.08 1131.48 1546.84 1125.97 1546.84 1119.44C1546.84 1112.91 1549.08 1107.49 1553.56 1103.2C1558.23 1098.72 1564.01 1096.48 1570.92 1096.48C1577.83 1096.48 1583.52 1098.72 1588 1103.2C1592.67 1107.49 1595 1112.91 1595 1119.44C1595 1125.97 1592.67 1131.48 1588 1135.96C1583.52 1140.25 1577.83 1142.4 1570.92 1142.4ZM1590.24 1160.88V1316H1551.04V1160.88H1590.24ZM1688.33 1318.52C1675.64 1318.52 1664.25 1316.28 1654.17 1311.8C1644.09 1307.13 1636.06 1300.88 1630.09 1293.04C1624.3 1285.2 1621.13 1276.52 1620.57 1267H1660.05C1660.8 1272.97 1663.69 1277.92 1668.73 1281.84C1673.96 1285.76 1680.4 1287.72 1688.05 1287.72C1695.52 1287.72 1701.3 1286.23 1705.41 1283.24C1709.7 1280.25 1711.85 1276.43 1711.85 1271.76C1711.85 1266.72 1709.24 1262.99 1704.01 1260.56C1698.97 1257.95 1690.85 1255.15 1679.65 1252.16C1668.08 1249.36 1658.56 1246.47 1651.09 1243.48C1643.81 1240.49 1637.46 1235.92 1632.05 1229.76C1626.82 1223.6 1624.21 1215.29 1624.21 1204.84C1624.21 1196.25 1626.64 1188.41 1631.49 1181.32C1636.53 1174.23 1643.62 1168.63 1652.77 1164.52C1662.1 1160.41 1673.02 1158.36 1685.53 1158.36C1704.01 1158.36 1718.76 1163.03 1729.77 1172.36C1740.78 1181.51 1746.85 1193.92 1747.97 1209.6H1710.45C1709.89 1203.44 1707.28 1198.59 1702.61 1195.04C1698.13 1191.31 1692.06 1189.44 1684.41 1189.44C1677.32 1189.44 1671.81 1190.75 1667.89 1193.36C1664.16 1195.97 1662.29 1199.61 1662.29 1204.28C1662.29 1209.51 1664.9 1213.52 1670.13 1216.32C1675.36 1218.93 1683.48 1221.64 1694.49 1224.44C1705.69 1227.24 1714.93 1230.13 1722.21 1233.12C1729.49 1236.11 1735.74 1240.77 1740.97 1247.12C1746.38 1253.28 1749.18 1261.49 1749.37 1271.76C1749.37 1280.72 1746.85 1288.75 1741.81 1295.84C1736.96 1302.93 1729.86 1308.53 1720.53 1312.64C1711.38 1316.56 1700.65 1318.52 1688.33 1318.52ZM1868.15 1142.4C1861.24 1142.4 1855.45 1140.25 1850.79 1135.96C1846.31 1131.48 1844.07 1125.97 1844.07 1119.44C1844.07 1112.91 1846.31 1107.49 1850.79 1103.2C1855.45 1098.72 1861.24 1096.48 1868.15 1096.48C1875.05 1096.48 1880.75 1098.72 1885.23 1103.2C1889.89 1107.49 1892.23 1112.91 1892.23 1119.44C1892.23 1125.97 1889.89 1131.48 1885.23 1135.96C1880.75 1140.25 1875.05 1142.4 1868.15 1142.4ZM1887.47 1160.88V1316H1848.27V1160.88H1887.47ZM1985.56 1318.52C1972.86 1318.52 1961.48 1316.28 1951.4 1311.8C1941.32 1307.13 1933.29 1300.88 1927.32 1293.04C1921.53 1285.2 1918.36 1276.52 1917.8 1267H1957.28C1958.02 1272.97 1960.92 1277.92 1965.96 1281.84C1971.18 1285.76 1977.62 1287.72 1985.28 1287.72C1992.74 1287.72 1998.53 1286.23 2002.64 1283.24C2006.93 1280.25 2009.08 1276.43 2009.08 1271.76C2009.08 1266.72 2006.46 1262.99 2001.24 1260.56C1996.2 1257.95 1988.08 1255.15 1976.88 1252.16C1965.3 1249.36 1955.78 1246.47 1948.32 1243.48C1941.04 1240.49 1934.69 1235.92 1929.28 1229.76C1924.05 1223.6 1921.44 1215.29 1921.44 1204.84C1921.44 1196.25 1923.86 1188.41 1928.72 1181.32C1933.76 1174.23 1940.85 1168.63 1950 1164.52C1959.33 1160.41 1970.25 1158.36 1982.76 1158.36C2001.24 1158.36 2015.98 1163.03 2027 1172.36C2038.01 1181.51 2044.08 1193.92 2045.2 1209.6H2007.68C2007.12 1203.44 2004.5 1198.59 1999.84 1195.04C1995.36 1191.31 1989.29 1189.44 1981.64 1189.44C1974.54 1189.44 1969.04 1190.75 1965.12 1193.36C1961.38 1195.97 1959.52 1199.61 1959.52 1204.28C1959.52 1209.51 1962.13 1213.52 1967.36 1216.32C1972.58 1218.93 1980.7 1221.64 1991.72 1224.44C2002.92 1227.24 2012.16 1230.13 2019.44 1233.12C2026.72 1236.11 2032.97 1240.77 2038.2 1247.12C2043.61 1253.28 2046.41 1261.49 2046.6 1271.76C2046.6 1280.72 2044.08 1288.75 2039.04 1295.84C2034.18 1302.93 2027.09 1308.53 2017.76 1312.64C2008.61 1316.56 1997.88 1318.52 1985.56 1318.52ZM2135.41 1237.88C2135.41 1222.2 2138.49 1208.29 2144.65 1196.16C2151 1184.03 2159.49 1174.69 2170.13 1168.16C2180.96 1161.63 2193 1158.36 2206.25 1158.36C2217.83 1158.36 2227.91 1160.69 2236.49 1165.36C2245.27 1170.03 2252.27 1175.91 2257.49 1183V1160.88H2296.97V1316H2257.49V1293.32C2252.45 1300.6 2245.45 1306.67 2236.49 1311.52C2227.72 1316.19 2217.55 1318.52 2205.97 1318.52C2192.91 1318.52 2180.96 1315.16 2170.13 1308.44C2159.49 1301.72 2151 1292.29 2144.65 1280.16C2138.49 1267.84 2135.41 1253.75 2135.41 1237.88ZM2257.49 1238.44C2257.49 1228.92 2255.63 1220.8 2251.89 1214.08C2248.16 1207.17 2243.12 1201.95 2236.77 1198.4C2230.43 1194.67 2223.61 1192.8 2216.33 1192.8C2209.05 1192.8 2202.33 1194.57 2196.17 1198.12C2190.01 1201.67 2184.97 1206.89 2181.05 1213.8C2177.32 1220.52 2175.45 1228.55 2175.45 1237.88C2175.45 1247.21 2177.32 1255.43 2181.05 1262.52C2184.97 1269.43 2190.01 1274.75 2196.17 1278.48C2202.52 1282.21 2209.24 1284.08 2216.33 1284.08C2223.61 1284.08 2230.43 1282.31 2236.77 1278.76C2243.12 1275.03 2248.16 1269.8 2251.89 1263.08C2255.63 1256.17 2257.49 1247.96 2257.49 1238.44ZM2441.18 1183.56C2446.22 1176.09 2453.12 1170.03 2461.9 1165.36C2470.86 1160.69 2481.03 1158.36 2492.42 1158.36C2505.67 1158.36 2517.62 1161.63 2528.26 1168.16C2539.08 1174.69 2547.58 1184.03 2553.74 1196.16C2560.08 1208.11 2563.26 1222.01 2563.26 1237.88C2563.26 1253.75 2560.08 1267.84 2553.74 1280.16C2547.58 1292.29 2539.08 1301.72 2528.26 1308.44C2517.62 1315.16 2505.67 1318.52 2492.42 1318.52C2480.84 1318.52 2470.67 1316.28 2461.9 1311.8C2453.31 1307.13 2446.4 1301.16 2441.18 1293.88V1316H2401.98V1108.8H2441.18V1183.56ZM2523.22 1237.88C2523.22 1228.55 2521.26 1220.52 2517.34 1213.8C2513.6 1206.89 2508.56 1201.67 2502.22 1198.12C2496.06 1194.57 2489.34 1192.8 2482.06 1192.8C2474.96 1192.8 2468.24 1194.67 2461.9 1198.4C2455.74 1201.95 2450.7 1207.17 2446.78 1214.08C2443.04 1220.99 2441.18 1229.11 2441.18 1238.44C2441.18 1247.77 2443.04 1255.89 2446.78 1262.8C2450.7 1269.71 2455.74 1275.03 2461.9 1278.76C2468.24 1282.31 2474.96 1284.08 2482.06 1284.08C2489.34 1284.08 2496.06 1282.21 2502.22 1278.48C2508.56 1274.75 2513.6 1269.43 2517.34 1262.52C2521.26 1255.61 2523.22 1247.4 2523.22 1237.88ZM2660.62 1318.52C2645.69 1318.52 2632.25 1315.25 2620.3 1308.72C2608.36 1302 2598.93 1292.57 2592.02 1280.44C2585.3 1268.31 2581.94 1254.31 2581.94 1238.44C2581.94 1222.57 2585.4 1208.57 2592.3 1196.44C2599.4 1184.31 2609.01 1174.97 2621.14 1168.44C2633.28 1161.72 2646.81 1158.36 2661.74 1158.36C2676.68 1158.36 2690.21 1161.72 2702.34 1168.44C2714.48 1174.97 2724 1184.31 2730.9 1196.44C2738 1208.57 2741.54 1222.57 2741.54 1238.44C2741.54 1254.31 2737.9 1268.31 2730.62 1280.44C2723.53 1292.57 2713.82 1302 2701.5 1308.72C2689.37 1315.25 2675.74 1318.52 2660.62 1318.52ZM2660.62 1284.36C2667.72 1284.36 2674.34 1282.68 2680.5 1279.32C2686.85 1275.77 2691.89 1270.55 2695.62 1263.64C2699.36 1256.73 2701.22 1248.33 2701.22 1238.44C2701.22 1223.69 2697.3 1212.4 2689.46 1204.56C2681.81 1196.53 2672.38 1192.52 2661.18 1192.52C2649.98 1192.52 2640.56 1196.53 2632.9 1204.56C2625.44 1212.4 2621.7 1223.69 2621.7 1238.44C2621.7 1253.19 2625.34 1264.57 2632.62 1272.6C2640.09 1280.44 2649.42 1284.36 2660.62 1284.36ZM2809.5 1108.8V1316H2770.3V1108.8H2809.5ZM2838.15 1237.88C2838.15 1222.2 2841.23 1208.29 2847.39 1196.16C2853.73 1184.03 2862.32 1174.69 2873.15 1168.16C2883.97 1161.63 2896.01 1158.36 2909.27 1158.36C2919.35 1158.36 2928.96 1160.6 2938.11 1165.08C2947.25 1169.37 2954.53 1175.16 2959.95 1182.44V1108.8H2999.71V1316H2959.95V1293.04C2955.09 1300.69 2948.28 1306.85 2939.51 1311.52C2930.73 1316.19 2920.56 1318.52 2908.99 1318.52C2895.92 1318.52 2883.97 1315.16 2873.15 1308.44C2862.32 1301.72 2853.73 1292.29 2847.39 1280.16C2841.23 1267.84 2838.15 1253.75 2838.15 1237.88ZM2960.23 1238.44C2960.23 1228.92 2958.36 1220.8 2954.63 1214.08C2950.89 1207.17 2945.85 1201.95 2939.51 1198.4C2933.16 1194.67 2926.35 1192.8 2919.07 1192.8C2911.79 1192.8 2905.07 1194.57 2898.91 1198.12C2892.75 1201.67 2887.71 1206.89 2883.79 1213.8C2880.05 1220.52 2878.19 1228.55 2878.19 1237.88C2878.19 1247.21 2880.05 1255.43 2883.79 1262.52C2887.71 1269.43 2892.75 1274.75 2898.91 1278.48C2905.25 1282.21 2911.97 1284.08 2919.07 1284.08C2926.35 1284.08 2933.16 1282.31 2939.51 1278.76C2945.85 1275.03 2950.89 1269.8 2954.63 1263.08C2958.36 1256.17 2960.23 1247.96 2960.23 1238.44ZM3150.35 1193.08V1268.12C3150.35 1273.35 3151.56 1277.17 3153.99 1279.6C3156.6 1281.84 3160.9 1282.96 3166.87 1282.96H3185.07V1316H3160.43C3127.39 1316 3110.87 1299.95 3110.87 1267.84V1193.08H3092.39V1160.88H3110.87V1122.52H3150.35V1160.88H3185.07V1193.08H3150.35ZM3357.47 1235.08C3357.47 1240.68 3357.09 1245.72 3356.35 1250.2H3242.95C3243.88 1261.4 3247.8 1270.17 3254.71 1276.52C3261.61 1282.87 3270.11 1286.04 3280.19 1286.04C3294.75 1286.04 3305.11 1279.79 3311.27 1267.28H3353.55C3349.07 1282.21 3340.48 1294.53 3327.79 1304.24C3315.09 1313.76 3299.51 1318.52 3281.03 1318.52C3266.09 1318.52 3252.65 1315.25 3240.71 1308.72C3228.95 1302 3219.71 1292.57 3212.99 1280.44C3206.45 1268.31 3203.19 1254.31 3203.19 1238.44C3203.19 1222.39 3206.45 1208.29 3212.99 1196.16C3219.52 1184.03 3228.67 1174.69 3240.43 1168.16C3252.19 1161.63 3265.72 1158.36 3281.03 1158.36C3295.77 1158.36 3308.93 1161.53 3320.51 1167.88C3332.27 1174.23 3341.32 1183.28 3347.67 1195.04C3354.2 1206.61 3357.47 1219.96 3357.47 1235.08ZM3316.87 1223.88C3316.68 1213.8 3313.04 1205.77 3305.95 1199.8C3298.85 1193.64 3290.17 1190.56 3279.91 1190.56C3270.2 1190.56 3261.99 1193.55 3255.27 1199.52C3248.73 1205.31 3244.72 1213.43 3243.23 1223.88H3316.87ZM3471.76 1316L3439.84 1267.84L3411.56 1316H3369.56L3420.24 1238.16L3369 1160.88H3413.24L3444.88 1208.76L3473.44 1160.88H3515.44L3464.48 1238.16L3516 1316H3471.76ZM3582.93 1193.08V1268.12C3582.93 1273.35 3584.14 1277.17 3586.57 1279.6C3589.18 1281.84 3593.48 1282.96 3599.45 1282.96H3617.65V1316H3593.01C3559.97 1316 3543.45 1299.95 3543.45 1267.84V1193.08H3524.97V1160.88H3543.45V1122.52H3582.93V1160.88H3617.65V1193.08H3582.93Z" fill="black"/>
<path d="M795.28 1215.48C802.373 1216.6 808.813 1219.49 814.6 1224.16C820.573 1228.83 825.24 1234.61 828.6 1241.52C832.147 1248.43 833.92 1255.8 833.92 1263.64C833.92 1273.53 831.4 1282.49 826.36 1290.52C821.32 1298.36 813.947 1304.61 804.24 1309.28C794.72 1313.76 783.427 1316 770.36 1316H697.56V1120.84H767.56C780.813 1120.84 792.107 1123.08 801.44 1127.56C810.773 1131.85 817.773 1137.73 822.44 1145.2C827.107 1152.67 829.44 1161.07 829.44 1170.4C829.44 1181.97 826.267 1191.59 819.92 1199.24C813.76 1206.71 805.547 1212.12 795.28 1215.48ZM723.04 1205.12H765.88C777.827 1205.12 787.067 1202.32 793.6 1196.72C800.133 1191.12 803.4 1183.37 803.4 1173.48C803.4 1163.59 800.133 1155.84 793.6 1150.24C787.067 1144.64 777.64 1141.84 765.32 1141.84H723.04V1205.12ZM768.12 1295C780.813 1295 790.707 1292.01 797.8 1286.04C804.893 1280.07 808.44 1271.76 808.44 1261.12C808.44 1250.29 804.707 1241.8 797.24 1235.64C789.773 1229.29 779.787 1226.12 767.28 1226.12H723.04V1295H768.12Z" fill="black"/>
<path d="M1327.64 1540.28L1324.84 1555.96H1270.24L1238.6 1736H1219L1250.64 1555.96H1196.32L1199.12 1540.28H1327.64ZM1424.11 1580.32C1439.42 1580.32 1451.74 1584.52 1461.07 1592.92C1470.4 1601.32 1475.07 1613.73 1475.07 1630.16C1475.07 1636.13 1474.6 1641.55 1473.67 1646.4L1457.71 1736H1438.39L1453.79 1648.64C1454.54 1644.35 1454.91 1639.77 1454.91 1634.92C1454.91 1622.6 1451.55 1613.27 1444.83 1606.92C1438.11 1600.57 1428.68 1597.4 1416.55 1597.4C1401.8 1597.4 1389.2 1602.07 1378.75 1611.4C1368.3 1620.73 1361.48 1634.45 1358.31 1652.56V1652.28L1343.47 1736H1323.87L1360.55 1528.8H1380.15L1365.87 1609.16C1372.4 1599.83 1380.8 1592.73 1391.07 1587.88C1401.34 1582.84 1412.35 1580.32 1424.11 1580.32ZM1543.06 1554.28C1539.51 1554.28 1536.62 1553.25 1534.38 1551.2C1532.14 1548.96 1531.02 1546.07 1531.02 1542.52C1531.02 1537.67 1532.7 1533.65 1536.06 1530.48C1539.42 1527.12 1543.43 1525.44 1548.1 1525.44C1551.64 1525.44 1554.44 1526.47 1556.5 1528.52C1558.74 1530.57 1559.86 1533.28 1559.86 1536.64C1559.86 1541.49 1558.18 1545.69 1554.82 1549.24C1551.46 1552.6 1547.54 1554.28 1543.06 1554.28ZM1547.54 1583.12L1520.66 1736H1501.06L1527.94 1583.12H1547.54ZM1616 1738.24C1600.51 1738.24 1587.91 1734.69 1578.2 1727.6C1568.49 1720.32 1563.64 1710.43 1563.64 1697.92C1563.64 1695.68 1563.73 1694 1563.92 1692.88H1582.96C1582.21 1701.84 1584.83 1709.03 1590.8 1714.44C1596.77 1719.85 1605.55 1722.56 1617.12 1722.56C1628.88 1722.56 1638.31 1720.13 1645.4 1715.28C1652.49 1710.24 1656.04 1703.61 1656.04 1695.4C1656.04 1690.55 1654.55 1686.44 1651.56 1683.08C1648.57 1679.72 1644.84 1677.01 1640.36 1674.96C1636.07 1672.72 1630 1670.2 1622.16 1667.4C1612.45 1663.85 1604.61 1660.59 1598.64 1657.6C1592.85 1654.43 1587.81 1650.13 1583.52 1644.72C1579.41 1639.12 1577.36 1632.12 1577.36 1623.72C1577.36 1615.32 1579.79 1607.85 1584.64 1601.32C1589.49 1594.79 1596.12 1589.75 1604.52 1586.2C1613.11 1582.65 1622.81 1580.88 1633.64 1580.88C1648.76 1580.88 1661.08 1584.61 1670.6 1592.08C1680.31 1599.55 1685.16 1609.44 1685.16 1621.76C1685.16 1624.37 1685.07 1626.33 1684.88 1627.64H1666.4C1666.59 1626.89 1666.68 1625.68 1666.68 1624C1666.68 1615.79 1663.41 1609.16 1656.88 1604.12C1650.53 1599.08 1642.32 1596.56 1632.24 1596.56C1622.16 1596.56 1613.76 1598.99 1607.04 1603.84C1600.51 1608.51 1597.24 1614.85 1597.24 1622.88C1597.24 1628.29 1598.83 1632.87 1602 1636.6C1605.17 1640.15 1609.09 1643.04 1613.76 1645.28C1618.43 1647.52 1624.68 1650.13 1632.52 1653.12C1641.85 1656.67 1649.32 1659.93 1654.92 1662.92C1660.71 1665.91 1665.56 1670.01 1669.48 1675.24C1673.4 1680.47 1675.36 1687 1675.36 1694.84C1675.36 1708.09 1669.85 1718.64 1658.84 1726.48C1647.83 1734.32 1633.55 1738.24 1616 1738.24ZM1832.35 1554.28C1828.81 1554.28 1825.91 1553.25 1823.67 1551.2C1821.43 1548.96 1820.31 1546.07 1820.31 1542.52C1820.31 1537.67 1821.99 1533.65 1825.35 1530.48C1828.71 1527.12 1832.73 1525.44 1837.39 1525.44C1840.94 1525.44 1843.74 1526.47 1845.79 1528.52C1848.03 1530.57 1849.15 1533.28 1849.15 1536.64C1849.15 1541.49 1847.47 1545.69 1844.11 1549.24C1840.75 1552.6 1836.83 1554.28 1832.35 1554.28ZM1836.83 1583.12L1809.95 1736H1790.35L1817.23 1583.12H1836.83ZM1905.3 1738.24C1889.8 1738.24 1877.2 1734.69 1867.5 1727.6C1857.79 1720.32 1852.94 1710.43 1852.94 1697.92C1852.94 1695.68 1853.03 1694 1853.22 1692.88H1872.26C1871.51 1701.84 1874.12 1709.03 1880.1 1714.44C1886.07 1719.85 1894.84 1722.56 1906.42 1722.56C1918.18 1722.56 1927.6 1720.13 1934.7 1715.28C1941.79 1710.24 1945.34 1703.61 1945.34 1695.4C1945.34 1690.55 1943.84 1686.44 1940.86 1683.08C1937.87 1679.72 1934.14 1677.01 1929.66 1674.96C1925.36 1672.72 1919.3 1670.2 1911.46 1667.4C1901.75 1663.85 1893.91 1660.59 1887.94 1657.6C1882.15 1654.43 1877.11 1650.13 1872.82 1644.72C1868.71 1639.12 1866.66 1632.12 1866.66 1623.72C1866.66 1615.32 1869.08 1607.85 1873.94 1601.32C1878.79 1594.79 1885.42 1589.75 1893.82 1586.2C1902.4 1582.65 1912.11 1580.88 1922.94 1580.88C1938.06 1580.88 1950.38 1584.61 1959.9 1592.08C1969.6 1599.55 1974.46 1609.44 1974.46 1621.76C1974.46 1624.37 1974.36 1626.33 1974.18 1627.64H1955.7C1955.88 1626.89 1955.98 1625.68 1955.98 1624C1955.98 1615.79 1952.71 1609.16 1946.18 1604.12C1939.83 1599.08 1931.62 1596.56 1921.54 1596.56C1911.46 1596.56 1903.06 1598.99 1896.34 1603.84C1889.8 1608.51 1886.54 1614.85 1886.54 1622.88C1886.54 1628.29 1888.12 1632.87 1891.3 1636.6C1894.47 1640.15 1898.39 1643.04 1903.06 1645.28C1907.72 1647.52 1913.98 1650.13 1921.82 1653.12C1931.15 1656.67 1938.62 1659.93 1944.22 1662.92C1950 1665.91 1954.86 1670.01 1958.78 1675.24C1962.7 1680.47 1964.66 1687 1964.66 1694.84C1964.66 1708.09 1959.15 1718.64 1948.14 1726.48C1937.12 1734.32 1922.84 1738.24 1905.3 1738.24ZM2084.13 1659.28C2086.93 1643.6 2092.53 1629.88 2100.93 1618.12C2109.33 1606.17 2119.6 1597.03 2131.73 1590.68C2144.05 1584.15 2157.21 1580.88 2171.21 1580.88C2185.77 1580.88 2197.72 1584.24 2207.05 1590.96C2216.38 1597.68 2222.45 1606.27 2225.25 1616.72L2231.13 1583.12H2250.73L2223.85 1736H2204.25L2210.13 1702.12C2203.78 1712.57 2194.64 1721.25 2182.69 1728.16C2170.93 1734.88 2157.77 1738.24 2143.21 1738.24C2131.08 1738.24 2120.44 1735.72 2111.29 1730.68C2102.14 1725.64 2095.05 1718.55 2090.01 1709.4C2084.97 1700.07 2082.45 1689.15 2082.45 1676.64C2082.45 1671.23 2083.01 1665.44 2084.13 1659.28ZM2217.69 1659.56C2218.62 1654.33 2219.09 1649.67 2219.09 1645.56C2219.09 1631 2214.7 1619.43 2205.93 1610.84C2197.16 1602.25 2185.77 1597.96 2171.77 1597.96C2160.94 1597.96 2150.77 1600.39 2141.25 1605.24C2131.92 1610.09 2123.98 1617.19 2117.45 1626.52C2110.92 1635.67 2106.53 1646.59 2104.29 1659.28C2103.36 1664.88 2102.89 1669.64 2102.89 1673.56C2102.89 1688.31 2107.18 1699.97 2115.77 1708.56C2124.54 1716.96 2135.93 1721.16 2149.93 1721.16C2160.38 1721.16 2170.37 1718.64 2179.89 1713.6C2189.6 1708.56 2197.72 1701.37 2204.25 1692.04C2210.97 1682.71 2215.45 1671.88 2217.69 1659.56ZM2393.17 1554.28C2389.63 1554.28 2386.73 1553.25 2384.49 1551.2C2382.25 1548.96 2381.13 1546.07 2381.13 1542.52C2381.13 1537.67 2382.81 1533.65 2386.17 1530.48C2389.53 1527.12 2393.55 1525.44 2398.21 1525.44C2401.76 1525.44 2404.56 1526.47 2406.61 1528.52C2408.85 1530.57 2409.97 1533.28 2409.97 1536.64C2409.97 1541.49 2408.29 1545.69 2404.93 1549.24C2401.57 1552.6 2397.65 1554.28 2393.17 1554.28ZM2397.65 1583.12L2370.77 1736H2351.17L2378.05 1583.12H2397.65ZM2447.64 1694.56C2447.08 1697.92 2446.8 1700.81 2446.8 1703.24C2446.8 1709.21 2448.38 1713.41 2451.56 1715.84C2454.92 1718.08 2460.33 1719.2 2467.8 1719.2H2485.72L2482.64 1736H2461.64C2450.06 1736 2441.38 1733.76 2435.6 1729.28C2429.81 1724.8 2426.92 1717.43 2426.92 1707.16C2426.92 1703.05 2427.29 1698.85 2428.04 1694.56L2444.84 1599.64H2423.56L2426.64 1583.12H2447.92L2454.64 1544.76H2474.24L2467.52 1583.12H2509.8L2506.72 1599.64H2464.44L2447.64 1694.56ZM2519.44 1659.28C2522.24 1643.6 2527.84 1629.88 2536.24 1618.12C2544.64 1606.17 2554.91 1597.03 2567.04 1590.68C2579.36 1584.15 2592.52 1580.88 2606.52 1580.88C2621.08 1580.88 2633.03 1584.24 2642.36 1590.96C2651.7 1597.68 2657.76 1606.27 2660.56 1616.72L2666.44 1583.12H2686.04L2659.16 1736H2639.56L2645.44 1702.12C2639.1 1712.57 2629.95 1721.25 2618 1728.16C2606.24 1734.88 2593.08 1738.24 2578.52 1738.24C2566.39 1738.24 2555.75 1735.72 2546.6 1730.68C2537.46 1725.64 2530.36 1718.55 2525.32 1709.4C2520.28 1700.07 2517.76 1689.15 2517.76 1676.64C2517.76 1671.23 2518.32 1665.44 2519.44 1659.28ZM2653 1659.56C2653.94 1654.33 2654.4 1649.67 2654.4 1645.56C2654.4 1631 2650.02 1619.43 2641.24 1610.84C2632.47 1602.25 2621.08 1597.96 2607.08 1597.96C2596.26 1597.96 2586.08 1600.39 2576.56 1605.24C2567.23 1610.09 2559.3 1617.19 2552.76 1626.52C2546.23 1635.67 2541.84 1646.59 2539.6 1659.28C2538.67 1664.88 2538.2 1669.64 2538.2 1673.56C2538.2 1688.31 2542.5 1699.97 2551.08 1708.56C2559.86 1716.96 2571.24 1721.16 2585.24 1721.16C2595.7 1721.16 2605.68 1718.64 2615.2 1713.6C2624.91 1708.56 2633.03 1701.37 2639.56 1692.04C2646.28 1682.71 2650.76 1671.88 2653 1659.56ZM2760.19 1528.8L2723.51 1736H2703.91L2740.59 1528.8H2760.19ZM2809.89 1554.28C2806.35 1554.28 2803.45 1553.25 2801.21 1551.2C2798.97 1548.96 2797.85 1546.07 2797.85 1542.52C2797.85 1537.67 2799.53 1533.65 2802.89 1530.48C2806.25 1527.12 2810.27 1525.44 2814.93 1525.44C2818.48 1525.44 2821.28 1526.47 2823.33 1528.52C2825.57 1530.57 2826.69 1533.28 2826.69 1536.64C2826.69 1541.49 2825.01 1545.69 2821.65 1549.24C2818.29 1552.6 2814.37 1554.28 2809.89 1554.28ZM2814.37 1583.12L2787.49 1736H2767.89L2794.77 1583.12H2814.37ZM2836.36 1659.56C2839.16 1643.69 2844.76 1629.88 2853.16 1618.12C2861.74 1606.17 2872.2 1597.03 2884.52 1590.68C2896.84 1584.15 2910.18 1580.88 2924.56 1580.88C2943.41 1580.88 2958.06 1585.55 2968.52 1594.88C2979.16 1604.21 2984.85 1616.91 2985.6 1632.96H2964.6C2964.04 1621.95 2959.93 1613.36 2952.28 1607.2C2944.81 1600.85 2934.64 1597.68 2921.76 1597.68C2905.89 1597.68 2891.89 1603.09 2879.76 1613.92C2867.81 1624.56 2860.06 1639.77 2856.52 1659.56C2855.58 1664.23 2855.12 1669.55 2855.12 1675.52C2855.12 1690.45 2859.13 1701.93 2867.16 1709.96C2875.37 1717.8 2886.2 1721.72 2899.64 1721.72C2912.7 1721.72 2924.09 1718.64 2933.8 1712.48C2943.5 1706.13 2950.69 1697.36 2955.36 1686.16H2976.36C2970.01 1701.84 2959.84 1714.44 2945.84 1723.96C2931.84 1733.48 2915.5 1738.24 2896.84 1738.24C2877.98 1738.24 2862.86 1732.83 2851.48 1722C2840.28 1711.17 2834.68 1696.33 2834.68 1677.48C2834.68 1671.69 2835.24 1665.72 2836.36 1659.56ZM3118.65 1694.56C3118.09 1697.92 3117.81 1700.81 3117.81 1703.24C3117.81 1709.21 3119.4 1713.41 3122.57 1715.84C3125.93 1718.08 3131.35 1719.2 3138.81 1719.2H3156.73L3153.65 1736H3132.65C3121.08 1736 3112.4 1733.76 3106.61 1729.28C3100.83 1724.8 3097.93 1717.43 3097.93 1707.16C3097.93 1703.05 3098.31 1698.85 3099.05 1694.56L3115.85 1599.64H3094.57L3097.65 1583.12H3118.93L3125.65 1544.76H3145.25L3138.53 1583.12H3180.81L3177.73 1599.64H3135.45L3118.65 1694.56ZM3279.5 1580.88C3292.38 1580.88 3303.39 1583.4 3312.54 1588.44C3321.68 1593.29 3328.59 1600.01 3333.26 1608.6C3338.11 1617.19 3340.54 1626.99 3340.54 1638C3340.54 1643.04 3340.16 1647.52 3339.42 1651.44C3338.3 1657.04 3337.18 1662.08 3336.06 1666.56H3209.22C3208.66 1670.11 3208.38 1673.47 3208.38 1676.64C3208.38 1691.01 3212.67 1702.12 3221.26 1709.96C3230.03 1717.8 3241.14 1721.72 3254.58 1721.72C3267.46 1721.72 3278.75 1718.64 3288.46 1712.48C3298.16 1706.32 3305.26 1698.01 3309.74 1687.56H3330.74C3324.39 1702.49 3314.22 1714.72 3300.22 1724.24C3286.4 1733.57 3270.26 1738.24 3251.78 1738.24C3232.74 1738.24 3217.43 1732.83 3205.86 1722C3194.47 1710.99 3188.78 1696.05 3188.78 1677.2C3188.78 1671.6 3189.34 1665.72 3190.46 1659.56C3193.26 1643.69 3198.86 1629.79 3207.26 1617.84C3215.84 1605.89 3226.39 1596.75 3238.9 1590.4C3251.4 1584.05 3264.94 1580.88 3279.5 1580.88ZM3319.26 1652C3320.19 1646.77 3320.66 1642.39 3320.66 1638.84C3320.66 1625.59 3316.46 1615.41 3308.06 1608.32C3299.66 1601.23 3288.92 1597.68 3275.86 1597.68C3266.34 1597.68 3257.19 1599.73 3248.42 1603.84C3239.64 1607.95 3231.99 1614.11 3225.46 1622.32C3218.92 1630.53 3214.44 1640.43 3212.02 1652H3319.26ZM3426.8 1658.72L3462.36 1736H3439.96L3411.68 1674.68L3362.4 1736H3341.96L3404.68 1659.56L3369.4 1583.12H3391.8L3419.8 1643.6L3468.24 1583.12H3488.96L3426.8 1658.72ZM3521.43 1694.56C3520.87 1697.92 3520.59 1700.81 3520.59 1703.24C3520.59 1709.21 3522.17 1713.41 3525.35 1715.84C3528.71 1718.08 3534.12 1719.2 3541.59 1719.2H3559.51L3556.43 1736H3535.43C3523.85 1736 3515.17 1733.76 3509.39 1729.28C3503.6 1724.8 3500.71 1717.43 3500.71 1707.16C3500.71 1703.05 3501.08 1698.85 3501.83 1694.56L3518.63 1599.64H3497.35L3500.43 1583.12H3521.71L3528.43 1544.76H3548.03L3541.31 1583.12H3583.59L3580.51 1599.64H3538.23L3521.43 1694.56Z" fill="black"/>
<path d="M770.04 1541.84V1737H744.56V1541.84H770.04Z" fill="black"/>
<path d="M1342.64 1960.28L1339.84 1975.96H1285.24L1253.6 2156H1234L1265.64 1975.96H1211.32L1214.12 1960.28H1342.64ZM1439.11 2000.32C1454.42 2000.32 1466.74 2004.52 1476.07 2012.92C1485.4 2021.32 1490.07 2033.73 1490.07 2050.16C1490.07 2056.13 1489.6 2061.55 1488.67 2066.4L1472.71 2156H1453.39L1468.79 2068.64C1469.54 2064.35 1469.91 2059.77 1469.91 2054.92C1469.91 2042.6 1466.55 2033.27 1459.83 2026.92C1453.11 2020.57 1443.68 2017.4 1431.55 2017.4C1416.8 2017.4 1404.2 2022.07 1393.75 2031.4C1383.3 2040.73 1376.48 2054.45 1373.31 2072.56V2072.28L1358.47 2156H1338.87L1375.55 1948.8H1395.15L1380.87 2029.16C1387.4 2019.83 1395.8 2012.73 1406.07 2007.88C1416.34 2002.84 1427.35 2000.32 1439.11 2000.32ZM1558.06 1974.28C1554.51 1974.28 1551.62 1973.25 1549.38 1971.2C1547.14 1968.96 1546.02 1966.07 1546.02 1962.52C1546.02 1957.67 1547.7 1953.65 1551.06 1950.48C1554.42 1947.12 1558.43 1945.44 1563.1 1945.44C1566.64 1945.44 1569.44 1946.47 1571.5 1948.52C1573.74 1950.57 1574.86 1953.28 1574.86 1956.64C1574.86 1961.49 1573.18 1965.69 1569.82 1969.24C1566.46 1972.6 1562.54 1974.28 1558.06 1974.28ZM1562.54 2003.12L1535.66 2156H1516.06L1542.94 2003.12H1562.54ZM1631 2158.24C1615.51 2158.24 1602.91 2154.69 1593.2 2147.6C1583.49 2140.32 1578.64 2130.43 1578.64 2117.92C1578.64 2115.68 1578.73 2114 1578.92 2112.88H1597.96C1597.21 2121.84 1599.83 2129.03 1605.8 2134.44C1611.77 2139.85 1620.55 2142.56 1632.12 2142.56C1643.88 2142.56 1653.31 2140.13 1660.4 2135.28C1667.49 2130.24 1671.04 2123.61 1671.04 2115.4C1671.04 2110.55 1669.55 2106.44 1666.56 2103.08C1663.57 2099.72 1659.84 2097.01 1655.36 2094.96C1651.07 2092.72 1645 2090.2 1637.16 2087.4C1627.45 2083.85 1619.61 2080.59 1613.64 2077.6C1607.85 2074.43 1602.81 2070.13 1598.52 2064.72C1594.41 2059.12 1592.36 2052.12 1592.36 2043.72C1592.36 2035.32 1594.79 2027.85 1599.64 2021.32C1604.49 2014.79 1611.12 2009.75 1619.52 2006.2C1628.11 2002.65 1637.81 2000.88 1648.64 2000.88C1663.76 2000.88 1676.08 2004.61 1685.6 2012.08C1695.31 2019.55 1700.16 2029.44 1700.16 2041.76C1700.16 2044.37 1700.07 2046.33 1699.88 2047.64H1681.4C1681.59 2046.89 1681.68 2045.68 1681.68 2044C1681.68 2035.79 1678.41 2029.16 1671.88 2024.12C1665.53 2019.08 1657.32 2016.56 1647.24 2016.56C1637.16 2016.56 1628.76 2018.99 1622.04 2023.84C1615.51 2028.51 1612.24 2034.85 1612.24 2042.88C1612.24 2048.29 1613.83 2052.87 1617 2056.6C1620.17 2060.15 1624.09 2063.04 1628.76 2065.28C1633.43 2067.52 1639.68 2070.13 1647.52 2073.12C1656.85 2076.67 1664.32 2079.93 1669.92 2082.92C1675.71 2085.91 1680.56 2090.01 1684.48 2095.24C1688.4 2100.47 1690.36 2107 1690.36 2114.84C1690.36 2128.09 1684.85 2138.64 1673.84 2146.48C1662.83 2154.32 1648.55 2158.24 1631 2158.24ZM1847.35 1974.28C1843.81 1974.28 1840.91 1973.25 1838.67 1971.2C1836.43 1968.96 1835.31 1966.07 1835.31 1962.52C1835.31 1957.67 1836.99 1953.65 1840.35 1950.48C1843.71 1947.12 1847.73 1945.44 1852.39 1945.44C1855.94 1945.44 1858.74 1946.47 1860.79 1948.52C1863.03 1950.57 1864.15 1953.28 1864.15 1956.64C1864.15 1961.49 1862.47 1965.69 1859.11 1969.24C1855.75 1972.6 1851.83 1974.28 1847.35 1974.28ZM1851.83 2003.12L1824.95 2156H1805.35L1832.23 2003.12H1851.83ZM1920.3 2158.24C1904.8 2158.24 1892.2 2154.69 1882.5 2147.6C1872.79 2140.32 1867.94 2130.43 1867.94 2117.92C1867.94 2115.68 1868.03 2114 1868.22 2112.88H1887.26C1886.51 2121.84 1889.12 2129.03 1895.1 2134.44C1901.07 2139.85 1909.84 2142.56 1921.42 2142.56C1933.18 2142.56 1942.6 2140.13 1949.7 2135.28C1956.79 2130.24 1960.34 2123.61 1960.34 2115.4C1960.34 2110.55 1958.84 2106.44 1955.86 2103.08C1952.87 2099.72 1949.14 2097.01 1944.66 2094.96C1940.36 2092.72 1934.3 2090.2 1926.46 2087.4C1916.75 2083.85 1908.91 2080.59 1902.94 2077.6C1897.15 2074.43 1892.11 2070.13 1887.82 2064.72C1883.71 2059.12 1881.66 2052.12 1881.66 2043.72C1881.66 2035.32 1884.08 2027.85 1888.94 2021.32C1893.79 2014.79 1900.42 2009.75 1908.82 2006.2C1917.4 2002.65 1927.11 2000.88 1937.94 2000.88C1953.06 2000.88 1965.38 2004.61 1974.9 2012.08C1984.6 2019.55 1989.46 2029.44 1989.46 2041.76C1989.46 2044.37 1989.36 2046.33 1989.18 2047.64H1970.7C1970.88 2046.89 1970.98 2045.68 1970.98 2044C1970.98 2035.79 1967.71 2029.16 1961.18 2024.12C1954.83 2019.08 1946.62 2016.56 1936.54 2016.56C1926.46 2016.56 1918.06 2018.99 1911.34 2023.84C1904.8 2028.51 1901.54 2034.85 1901.54 2042.88C1901.54 2048.29 1903.12 2052.87 1906.3 2056.6C1909.47 2060.15 1913.39 2063.04 1918.06 2065.28C1922.72 2067.52 1928.98 2070.13 1936.82 2073.12C1946.15 2076.67 1953.62 2079.93 1959.22 2082.92C1965 2085.91 1969.86 2090.01 1973.78 2095.24C1977.7 2100.47 1979.66 2107 1979.66 2114.84C1979.66 2128.09 1974.15 2138.64 1963.14 2146.48C1952.12 2154.32 1937.84 2158.24 1920.3 2158.24ZM2099.13 2079.28C2101.93 2063.6 2107.53 2049.88 2115.93 2038.12C2124.33 2026.17 2134.6 2017.03 2146.73 2010.68C2159.05 2004.15 2172.21 2000.88 2186.21 2000.88C2200.77 2000.88 2212.72 2004.24 2222.05 2010.96C2231.38 2017.68 2237.45 2026.27 2240.25 2036.72L2246.13 2003.12H2265.73L2238.85 2156H2219.25L2225.13 2122.12C2218.78 2132.57 2209.64 2141.25 2197.69 2148.16C2185.93 2154.88 2172.77 2158.24 2158.21 2158.24C2146.08 2158.24 2135.44 2155.72 2126.29 2150.68C2117.14 2145.64 2110.05 2138.55 2105.01 2129.4C2099.97 2120.07 2097.45 2109.15 2097.45 2096.64C2097.45 2091.23 2098.01 2085.44 2099.13 2079.28ZM2232.69 2079.56C2233.62 2074.33 2234.09 2069.67 2234.09 2065.56C2234.09 2051 2229.7 2039.43 2220.93 2030.84C2212.16 2022.25 2200.77 2017.96 2186.77 2017.96C2175.94 2017.96 2165.77 2020.39 2156.25 2025.24C2146.92 2030.09 2138.98 2037.19 2132.45 2046.52C2125.92 2055.67 2121.53 2066.59 2119.29 2079.28C2118.36 2084.88 2117.89 2089.64 2117.89 2093.56C2117.89 2108.31 2122.18 2119.97 2130.77 2128.56C2139.54 2136.96 2150.93 2141.16 2164.93 2141.16C2175.38 2141.16 2185.37 2138.64 2194.89 2133.6C2204.6 2128.56 2212.72 2121.37 2219.25 2112.04C2225.97 2102.71 2230.45 2091.88 2232.69 2079.56ZM2525.49 2003.12L2498.61 2156H2479.01L2483.77 2129.12C2477.43 2138.64 2469.21 2145.92 2459.13 2150.96C2449.05 2156 2438.23 2158.52 2426.65 2158.52C2410.97 2158.52 2398.37 2154.32 2388.85 2145.92C2379.33 2137.33 2374.57 2124.92 2374.57 2108.68C2374.57 2102.71 2375.04 2097.29 2375.97 2092.44L2391.65 2003.12H2410.97L2395.57 2090.2C2394.83 2094.49 2394.45 2098.97 2394.45 2103.64C2394.45 2115.96 2397.81 2125.39 2404.53 2131.92C2411.44 2138.27 2420.96 2141.44 2433.09 2141.44C2447.28 2141.44 2459.51 2137.15 2469.77 2128.56C2480.04 2119.79 2486.95 2107 2490.49 2090.2L2505.89 2003.12H2525.49ZM2642.76 2000.32C2658.44 2000.32 2670.95 2004.61 2680.28 2013.2C2689.8 2021.6 2694.56 2033.92 2694.56 2050.16C2694.56 2056.13 2694.09 2061.55 2693.16 2066.4L2677.2 2156H2657.88L2673.28 2068.64C2674.03 2064.35 2674.4 2059.77 2674.4 2054.92C2674.4 2042.6 2671.04 2033.27 2664.32 2026.92C2657.6 2020.57 2648.17 2017.4 2636.04 2017.4C2621.29 2017.4 2608.69 2022.07 2598.24 2031.4C2587.79 2040.73 2580.97 2054.45 2577.8 2072.56V2071.72L2562.96 2156H2543.36L2570.24 2003.12H2589.84L2585.08 2029.44C2591.61 2020.11 2599.92 2012.92 2610 2007.88C2620.08 2002.84 2631 2000.32 2642.76 2000.32ZM2725.03 2079.28C2727.83 2063.6 2733.43 2049.88 2741.83 2038.12C2750.23 2026.17 2760.59 2017.03 2772.91 2010.68C2785.23 2004.15 2798.39 2000.88 2812.39 2000.88C2825.83 2000.88 2837.31 2004.15 2846.83 2010.68C2856.54 2017.21 2863.07 2025.71 2866.43 2036.16L2881.83 1948.8H2901.43L2864.75 2156H2845.15L2851.31 2121.84C2844.59 2132.48 2835.35 2141.25 2823.59 2148.16C2811.83 2154.88 2798.76 2158.24 2784.39 2158.24C2765.91 2158.24 2751.07 2152.73 2739.87 2141.72C2728.86 2130.52 2723.35 2115.49 2723.35 2096.64C2723.35 2091.23 2723.91 2085.44 2725.03 2079.28ZM2858.59 2079.56C2859.52 2074.33 2859.99 2069.67 2859.99 2065.56C2859.99 2051 2855.6 2039.43 2846.83 2030.84C2838.06 2022.25 2826.67 2017.96 2812.67 2017.96C2801.84 2017.96 2791.67 2020.39 2782.15 2025.24C2772.82 2030.09 2764.88 2037.19 2758.35 2046.52C2751.82 2055.67 2747.43 2066.59 2745.19 2079.28C2744.26 2084.88 2743.79 2089.64 2743.79 2093.56C2743.79 2108.31 2748.08 2119.97 2756.67 2128.56C2765.44 2136.96 2776.83 2141.16 2790.83 2141.16C2801.28 2141.16 2811.27 2138.64 2820.79 2133.6C2830.5 2128.56 2838.62 2121.37 2845.15 2112.04C2851.87 2102.71 2856.35 2091.88 2858.59 2079.56ZM3003.01 2000.88C3015.89 2000.88 3026.91 2003.4 3036.05 2008.44C3045.2 2013.29 3052.11 2020.01 3056.77 2028.6C3061.63 2037.19 3064.05 2046.99 3064.05 2058C3064.05 2063.04 3063.68 2067.52 3062.93 2071.44C3061.81 2077.04 3060.69 2082.08 3059.57 2086.56H2932.73C2932.17 2090.11 2931.89 2093.47 2931.89 2096.64C2931.89 2111.01 2936.19 2122.12 2944.77 2129.96C2953.55 2137.8 2964.65 2141.72 2978.09 2141.72C2990.97 2141.72 3002.27 2138.64 3011.97 2132.48C3021.68 2126.32 3028.77 2118.01 3033.25 2107.56H3054.25C3047.91 2122.49 3037.73 2134.72 3023.73 2144.24C3009.92 2153.57 2993.77 2158.24 2975.29 2158.24C2956.25 2158.24 2940.95 2152.83 2929.37 2142C2917.99 2130.99 2912.29 2116.05 2912.29 2097.2C2912.29 2091.6 2912.85 2085.72 2913.97 2079.56C2916.77 2063.69 2922.37 2049.79 2930.77 2037.84C2939.36 2025.89 2949.91 2016.75 2962.41 2010.4C2974.92 2004.05 2988.45 2000.88 3003.01 2000.88ZM3042.77 2072C3043.71 2066.77 3044.17 2062.39 3044.17 2058.84C3044.17 2045.59 3039.97 2035.41 3031.57 2028.32C3023.17 2021.23 3012.44 2017.68 2999.37 2017.68C2989.85 2017.68 2980.71 2019.73 2971.93 2023.84C2963.16 2027.95 2955.51 2034.11 2948.97 2042.32C2942.44 2050.53 2937.96 2060.43 2935.53 2072H3042.77ZM3124.83 2033.64C3130.99 2023 3139.02 2014.79 3148.91 2009C3158.81 2003.21 3170.29 2000.32 3183.35 2000.32L3179.71 2020.76H3174.11C3160.67 2020.76 3149.1 2024.21 3139.39 2031.12C3129.69 2038.03 3122.97 2049.41 3119.23 2065.28L3103.27 2156H3083.67L3110.55 2003.12H3130.15L3124.83 2033.64ZM3241.4 1948.8L3204.72 2156H3185.12L3221.8 1948.8H3241.4ZM3291.1 1974.28C3287.56 1974.28 3284.66 1973.25 3282.42 1971.2C3280.18 1968.96 3279.06 1966.07 3279.06 1962.52C3279.06 1957.67 3280.74 1953.65 3284.1 1950.48C3287.46 1947.12 3291.48 1945.44 3296.14 1945.44C3299.69 1945.44 3302.49 1946.47 3304.54 1948.52C3306.78 1950.57 3307.9 1953.28 3307.9 1956.64C3307.9 1961.49 3306.22 1965.69 3302.86 1969.24C3299.5 1972.6 3295.58 1974.28 3291.1 1974.28ZM3295.58 2003.12L3268.7 2156H3249.1L3275.98 2003.12H3295.58ZM3412.49 2000.32C3428.17 2000.32 3440.67 2004.61 3450.01 2013.2C3459.53 2021.6 3464.29 2033.92 3464.29 2050.16C3464.29 2056.13 3463.82 2061.55 3462.89 2066.4L3446.93 2156H3427.61L3443.01 2068.64C3443.75 2064.35 3444.13 2059.77 3444.13 2054.92C3444.13 2042.6 3440.77 2033.27 3434.05 2026.92C3427.33 2020.57 3417.9 2017.4 3405.77 2017.4C3391.02 2017.4 3378.42 2022.07 3367.97 2031.4C3357.51 2040.73 3350.7 2054.45 3347.53 2072.56V2071.72L3332.69 2156H3313.09L3339.97 2003.12H3359.57L3354.81 2029.44C3361.34 2020.11 3369.65 2012.92 3379.73 2007.88C3389.81 2002.84 3400.73 2000.32 3412.49 2000.32ZM3583.8 2000.88C3596.68 2000.88 3607.69 2003.4 3616.84 2008.44C3625.98 2013.29 3632.89 2020.01 3637.56 2028.6C3642.41 2037.19 3644.84 2046.99 3644.84 2058C3644.84 2063.04 3644.46 2067.52 3643.72 2071.44C3642.6 2077.04 3641.48 2082.08 3640.36 2086.56H3513.52C3512.96 2090.11 3512.68 2093.47 3512.68 2096.64C3512.68 2111.01 3516.97 2122.12 3525.56 2129.96C3534.33 2137.8 3545.44 2141.72 3558.88 2141.72C3571.76 2141.72 3583.05 2138.64 3592.76 2132.48C3602.46 2126.32 3609.56 2118.01 3614.04 2107.56H3635.04C3628.69 2122.49 3618.52 2134.72 3604.52 2144.24C3590.7 2153.57 3574.56 2158.24 3556.08 2158.24C3537.04 2158.24 3521.73 2152.83 3510.16 2142C3498.77 2130.99 3493.08 2116.05 3493.08 2097.2C3493.08 2091.6 3493.64 2085.72 3494.76 2079.56C3497.56 2063.69 3503.16 2049.79 3511.56 2037.84C3520.14 2025.89 3530.69 2016.75 3543.2 2010.4C3555.7 2004.05 3569.24 2000.88 3583.8 2000.88ZM3623.56 2072C3624.49 2066.77 3624.96 2062.39 3624.96 2058.84C3624.96 2045.59 3620.76 2035.41 3612.36 2028.32C3603.96 2021.23 3593.22 2017.68 3580.16 2017.68C3570.64 2017.68 3561.49 2019.73 3552.72 2023.84C3543.94 2027.95 3536.29 2034.11 3529.76 2042.32C3523.22 2050.53 3518.74 2060.43 3516.32 2072H3623.56ZM3668.93 2079.28C3671.73 2063.6 3677.33 2049.88 3685.73 2038.12C3694.13 2026.17 3704.49 2017.03 3716.81 2010.68C3729.13 2004.15 3742.29 2000.88 3756.29 2000.88C3769.73 2000.88 3781.21 2004.15 3790.73 2010.68C3800.44 2017.21 3806.97 2025.71 3810.33 2036.16L3825.73 1948.8H3845.33L3808.65 2156H3789.05L3795.21 2121.84C3788.49 2132.48 3779.25 2141.25 3767.49 2148.16C3755.73 2154.88 3742.67 2158.24 3728.29 2158.24C3709.81 2158.24 3694.97 2152.73 3683.77 2141.72C3672.76 2130.52 3667.25 2115.49 3667.25 2096.64C3667.25 2091.23 3667.81 2085.44 3668.93 2079.28ZM3802.49 2079.56C3803.43 2074.33 3803.89 2069.67 3803.89 2065.56C3803.89 2051 3799.51 2039.43 3790.73 2030.84C3781.96 2022.25 3770.57 2017.96 3756.57 2017.96C3745.75 2017.96 3735.57 2020.39 3726.05 2025.24C3716.72 2030.09 3708.79 2037.19 3702.25 2046.52C3695.72 2055.67 3691.33 2066.59 3689.09 2079.28C3688.16 2084.88 3687.69 2089.64 3687.69 2093.56C3687.69 2108.31 3691.99 2119.97 3700.57 2128.56C3709.35 2136.96 3720.73 2141.16 3734.73 2141.16C3745.19 2141.16 3755.17 2138.64 3764.69 2133.6C3774.4 2128.56 3782.52 2121.37 3789.05 2112.04C3795.77 2102.71 3800.25 2091.88 3802.49 2079.56ZM3968.46 2114.56C3967.9 2117.92 3967.62 2120.81 3967.62 2123.24C3967.62 2129.21 3969.2 2133.41 3972.38 2135.84C3975.74 2138.08 3981.15 2139.2 3988.62 2139.2H4006.54L4003.46 2156H3982.46C3970.88 2156 3962.2 2153.76 3956.42 2149.28C3950.63 2144.8 3947.74 2137.43 3947.74 2127.16C3947.74 2123.05 3948.11 2118.85 3948.86 2114.56L3965.66 2019.64H3944.38L3947.46 2003.12H3968.74L3975.46 1964.76H3995.06L3988.34 2003.12H4030.62L4027.54 2019.64H3985.26L3968.46 2114.56ZM4129.3 2000.88C4142.18 2000.88 4153.2 2003.4 4162.34 2008.44C4171.49 2013.29 4178.4 2020.01 4183.06 2028.6C4187.92 2037.19 4190.34 2046.99 4190.34 2058C4190.34 2063.04 4189.97 2067.52 4189.22 2071.44C4188.1 2077.04 4186.98 2082.08 4185.86 2086.56H4059.02C4058.46 2090.11 4058.18 2093.47 4058.18 2096.64C4058.18 2111.01 4062.48 2122.12 4071.06 2129.96C4079.84 2137.8 4090.94 2141.72 4104.38 2141.72C4117.26 2141.72 4128.56 2138.64 4138.26 2132.48C4147.97 2126.32 4155.06 2118.01 4159.54 2107.56H4180.54C4174.2 2122.49 4164.02 2134.72 4150.02 2144.24C4136.21 2153.57 4120.06 2158.24 4101.58 2158.24C4082.54 2158.24 4067.24 2152.83 4055.66 2142C4044.28 2130.99 4038.58 2116.05 4038.58 2097.2C4038.58 2091.6 4039.14 2085.72 4040.26 2079.56C4043.06 2063.69 4048.66 2049.79 4057.06 2037.84C4065.65 2025.89 4076.2 2016.75 4088.7 2010.4C4101.21 2004.05 4114.74 2000.88 4129.3 2000.88ZM4169.06 2072C4170 2066.77 4170.46 2062.39 4170.46 2058.84C4170.46 2045.59 4166.26 2035.41 4157.86 2028.32C4149.46 2021.23 4138.73 2017.68 4125.66 2017.68C4116.14 2017.68 4107 2019.73 4098.22 2023.84C4089.45 2027.95 4081.8 2034.11 4075.26 2042.32C4068.73 2050.53 4064.25 2060.43 4061.82 2072H4169.06ZM4276.6 2078.72L4312.16 2156H4289.76L4261.48 2094.68L4212.2 2156H4191.76L4254.48 2079.56L4219.2 2003.12H4241.6L4269.6 2063.6L4318.04 2003.12H4338.76L4276.6 2078.72ZM4371.23 2114.56C4370.67 2117.92 4370.39 2120.81 4370.39 2123.24C4370.39 2129.21 4371.98 2133.41 4375.15 2135.84C4378.51 2138.08 4383.92 2139.2 4391.39 2139.2H4409.31L4406.23 2156H4385.23C4373.66 2156 4364.98 2153.76 4359.19 2149.28C4353.4 2144.8 4350.51 2137.43 4350.51 2127.16C4350.51 2123.05 4350.88 2118.85 4351.63 2114.56L4368.43 2019.64H4347.15L4350.23 2003.12H4371.51L4378.23 1964.76H4397.83L4391.11 2003.12H4433.39L4430.31 2019.64H4388.03L4371.23 2114.56Z" fill="black"/>
<path d="M1185 2184H4430.03V2198H1185V2184Z" fill="black"/>
<path d="M722.48 1960.84V2084.32C722.48 2101.68 726.68 2114.56 735.08 2122.96C743.667 2131.36 755.52 2135.56 770.64 2135.56C785.573 2135.56 797.24 2131.36 805.64 2122.96C814.227 2114.56 818.52 2101.68 818.52 2084.32V1960.84H844V2084.04C844 2100.28 840.733 2114 834.2 2125.2C827.667 2136.21 818.8 2144.43 807.6 2149.84C796.587 2155.25 784.173 2157.96 770.36 2157.96C756.547 2157.96 744.04 2155.25 732.84 2149.84C721.827 2144.43 713.053 2136.21 706.52 2125.2C700.173 2114 697 2100.28 697 2084.04V1960.84H722.48Z" fill="black"/>
</svg>
